<svg xmlns="http://www.w3.org/2000/svg" version="1.0" viewBox="0.21 0.21 1279.64 653.31"><path d="M236.8 1.5c-9.6 2.4-17.7 7.2-25.4 14.9-12.1 12.2-18.3 28.5-17.1 44.8.9 11 .7 10.9 9.7 8.8 4.1-1 7.7-1.6 7.9-1.4.2.2-.8 1.3-2.2 2.5-3.5 2.7-3.6 7.9-.3 13.3l2.4 3.9-2.4 5.1c-2.9 6.2-3 10.1-.4 14.3 2.5 4.2 6.8 6.3 12.9 6.3 4.9 0 5.1.1 6.7 3.7.8 2.1 2.3 7.3 3.1 11.6 2.6 12.9 6.8 17.2 15.8 16.3 7.6-.8 12.2-2.4 15.9-5.7 3.9-3.4 5.1-3.6 6.5-1.2.8 1.5-.6 3.4-8.9 11.4-9.7 9.4-9.9 9.7-17.5 25.4-7.8 16.1-11.4 22.2-17.1 28.5-1.7 1.9-12 16.3-22.9 32-10.9 15.7-23.6 33.8-28.3 40.4l-8.5 11.9 2.2 1.6 2.1 1.6-3.7 3.7c-2.1 2-7.7 5.9-12.4 8.7-8.8 5.1-10.9 7.7-10.9 13.5 0 2.9 4.5 11.1 6.1 11.2 2.8.1 5 1.7 6.5 5 1.8 3.8 10 11.8 11.3 10.9.5-.2 2.1.1 3.6.9 3.3 1.7 9.5 1 11.2-1.2 2.1-2.6 2.3-.8.6 4.7-1.4 4.1-2.4 5.5-4.8 6.5-1.6.7-3.8 2.2-4.8 3.3-2 2.3-11.7 34.2-11.7 38.6 0 1.6.4 3.6.9 4.5.6 1.1.4 3-.6 5.4-1.2 3.1-2 3.8-4.2 3.8-5.7 0-6.6.9-9.1 8.1-1.8 5.3-2.7 6.8-3.9 6.5-9.5-2.8-28.7-4-40.3-2.6C42.1 430.5-3.1 483.2.4 544.5c1.6 29.1 12.2 53.6 32 74.3 16.7 17.4 35.2 27.8 58.6 32.8 10.5 2.3 38.6 2.6 50 .5 15.4-2.7 30-8.5 42.9-16.8 8.8-5.7 26.8-24.6 32.4-33.9 6.4-10.8 11.2-22.2 14.4-34.1 2.5-9 2.7-11.4 2.7-28.8s-.2-19.8-2.7-28.9c-3.4-12.6-11.7-29.9-19.4-40.1-9.2-12.3-23-24.4-37.7-33-1.8-1.1-1.9-.8 4.3-16.7.8-2.2.6-3.1-1-5.1-2.8-3.7-2.4-5.4 1.5-6.1 1.9-.4 3.9-1.3 4.6-2.1.7-.8 1.6-1.5 2-1.5.4 0 28.5 28.1 62.4 62.5L309 530l-2.9 4c-4.1 5.7-6.6 15.5-5.7 22.7 1.4 11.2 1.6 10.4-4.2 13.9-4.6 2.8-6.3 3.2-14.5 3.6-10.6.5-14.8 2.2-16.7 6.8-1.1 2.6-1 3.3.5 5 2.6 2.9 14.9 7.6 24.4 9.4 11.3 2.2 18.6 2 25.7-.5 4.7-1.7 9.6-2.3 24.6-2.9 10.3-.5 19.2-1.1 19.9-1.5.6-.4 1.7-2.3 2.5-4.1l1.4-3.4h22.3c12.2 0 49.5-.1 83-.3 33.4-.1 60.6.2 60.4.6-.4 1.4-4.9 3.5-11.1 5.2-7.2 2-11.9 6.2-11.4 10.2.5 4.6 4.4 5.8 19.3 5.8 15 0 20.3-1.3 31.1-7.4 4.1-2.4 11.9-5.5 19.3-7.6 14.8-4.3 18.1-5.9 18.1-8.5 0-3.8 2-1.9 5.6 5.2 14.7 29.3 39.4 49.5 69.9 57.4 18.2 4.6 43.4 4.3 63-.7 35.5-9.2 64.1-39.2 74.2-77.7 3.7-14.3 4.3-34.8 1.3-49.2-14.2-69.5-87.9-107.2-154.2-79-5.6 2.4-18.4 10.2-25.5 15.5-1 .7-3.3-1-9.2-7l-7.9-8 3.6-12.3 3.7-12.2 7.6-4.4 7.5-4.4 23-2.1c44.4-4 96.9-5.7 105.3-3.5 2.8.8 3.6 1.7 4.8 5.4.9 2.5 2.9 6.2 4.5 8.3 3.7 4.6 18 16.4 39.8 32.7 33.4 25 50.4 39.7 60.5 52.2 8.6 10.8 22.7 31.6 21.8 32.1-.5.2-2.6.8-4.7 1.1-4.9.9-13.6 9.3-13.6 13 0 6 7.2 9.5 22.7 11.1l6.2.7-2.3 3.6c-3.2 5.1-4.6 9.8-4.6 14.9 0 2.4-.4 5.1-.9 6.1-2 4-2.8 8-1.9 9.5.5.9 2.3 1.9 4.2 2.2 1.9.4 4.8 2.2 7 4.5 8.2 8.4 20.6 11.1 32.8 7.2 4.7-1.6 10-2.2 20.8-2.6 15.4-.6 31.6-1.3 49.5-2.1 6.1-.3 16.2-.8 22.5-1 6.3-.3 16.1-.7 21.7-1 7.6-.3 11.1-.1 13.7 1 4.1 1.7 13.4 1.9 18.7.5 2-.6 5.4-2.2 7.5-3.7 4.2-2.8 11.1-4.7 21.4-5.8 3.6-.4 7.2-1.1 8.1-1.6 1.4-.7 1.9-.1 2.8 3.5 1.7 6.9 9.6 21.6 15 27.8 24.8 28.8 62.4 36.3 95.3 19.1 8.8-4.6 22.1-15.4 28-22.7 29.5-36.8 15.7-94.8-27.9-116.5-11.3-5.6-20.2-7.5-34.8-7.5-9.3 0-14.8.5-19.4 1.8-13.1 3.6-25.8 10.8-35.4 20l-4.7 4.6-20-9.2c-12.3-5.7-19.9-9.7-19.6-10.4.3-.7 1.5-6 2.8-11.8 1.9-8.9 2.6-10.8 4.3-11.1 1.1-.3 6.7-1.1 12.4-2 8-1.1 10.8-1.2 11.9-.3 2.3 1.9 17.8 2.2 26.1.4 10.8-2.3 20.7-8.6 13.5-8.6-8.8 0-19-7.6-24.2-18.2-8.8-18-12.5-48.6-9.2-76.1.9-7.4 1.7-10.7 2.6-10.7.7 0 2.5-1 4-2.3 2.6-2.3 2.9-2.3 6.8-.9 5.5 1.9 19.8 2.6 33.2 1.7l10.9-.8-13.5-1.3c-16.1-1.5-26.3-3.7-31-6.5l-3.4-2.1 2.3-1.2c1.8-1 3.3-1 7.4.1 5.9 1.5 37.4 1.7 39.8.2 1.1-.7.9-.9-.8-.9-1.2 0-3.5-1.2-5-2.6-3.7-3.5-11.8-7.2-17.4-8-2.6-.4-8 .1-12.8 1-4.6.8-8.8 1.3-9.4.9-1.2-.7 15.7-7.1 22.3-8.3 6.1-1.2 13.5.4 19.5 4.1l5 3.1-2.8-2.9c-7.6-8-20.4-10.2-37.4-6.4-11.5 2.6-15.5 2.7-17.7.3-1.5-1.8-1.5-1.9.8-3 1.7-.7 3.5-.8 5.8-.1 3.8 1 13.8 1 21.8-.1 3-.4 5.2-.8 4.8-.9-.4 0-4.2-.6-8.5-1.1-8.8-1.2-18.3-3.7-18.3-4.8 0-.4 2.5-1.7 5.5-3 6.9-2.8 13.9-2.9 18.3-.2 4.7 2.9 3.9.8-1-2.6-3.7-2.6-4.9-2.9-11.7-2.9-4.2.1-10.3.4-13.7.9l-6.1.9-2.4-3.4c-1.8-2.6-2.5-5.2-3-11.6-.6-6.8-1.1-8.7-3.4-11.8-14.3-18.7-49.4-15.4-58.4 5.4-1.4 3.2-2.3 8.1-2.7 13.8-.6 8.9.6 15 5 26.9 2.2 6 8.3 15.8 10.3 16.5 1.3.4.3 1.5-4.4 4.7-8.3 5.7-10.9 9-13.7 18.3-3.1 10-7.9 16.6-16.5 22.6-3.6 2.6-9.6 7.1-13.3 10-3.7 2.9-7.5 5.3-8.5 5.3-2.6 0-21.4 4.1-23.8 5.2-6.2 2.8-8.6 13.8-4 18.3 2.1 2.2 3.3 2.5 9.5 2.5 3.8 0 7 .4 7 .9 0 1.5-7 35-8.6 41.6-2 7.9-4.5 10.5-10 10.5-5 0-16.6-2.3-28.6-5.6-10.5-2.9-14-4.4-13.5-5.8.2-.6 1.2-5 2.2-9.8 1.7-7.8 2.2-8.7 4.5-9.1 1.4-.3 8.1-1.3 15-2.3 6.9-.9 12.8-2 13.1-2.3.4-.3 1.4-3.6 2.2-7.3 1.5-6.6 1.5-6.7-1.1-10.2-1.4-2-3.1-3.6-3.9-3.6-1.7 0-1.6-.4.3-4.3 2.8-5.3 2.1-12-2.4-24.8-6.5-18.6-10-37.1-13.2-69-1.6-16.8-2.1-19.3-4.6-24-3.4-6.1-9.8-12.1-15.9-14.6-5-2-5.8-4.2-4.3-10.4.7-2.5 1.6-3.9 2.7-3.9 3.2 0 7.9-3.8 9-7.3l1.2-3.5 5 3.4c2.8 1.9 5.8 3.4 6.6 3.4 2.6 0 7.2-3 9.7-6.3 2.2-2.9 2.6-4.4 2.6-10.5 0-4.2.5-7.4 1.1-7.8 2.2-1.3.2-10.4-3.2-14.7-1.8-2.2-3.6-6-4.1-8.4-.8-3.7-1.7-4.9-5.1-7-2.3-1.4-5.7-4.5-7.6-6.9-4.1-5.4-5.6-6.3-13.1-7.5-3.2-.5-7.8-1.8-10.2-2.9-5.7-2.6-15.6-2.6-24 0-7.8 2.4-15.9 7.6-25.3 16.2-3.9 3.5-8.6 7.5-10.5 8.8l-3.4 2.4 4.2.9c4.2.8 4.2.9 4.2 5.1 0 5.3 2.7 9.2 7.3 10.2 3.1.7 3.1.8.7 1.4-2.3.5-2.5 1.1-2.8 7.7-.3 6.3 0 7.4 2.3 10.1 2.1 2.6 2.5 4 2.5 10 0 7.4 1.4 11.9 5.1 16.6 2.6 3.3 9.1 6.5 13.2 6.6 1.5 0 2.7.4 2.7.9s-3 3.7-6.6 7.2c-6.6 6.3-11.9 15.3-10.9 18.2.3.7-.9 2.4-2.7 3.7-1.8 1.3-7.6 6.3-12.8 11-18.4 16.5-23.6 20.7-30.7 25-4 2.3-7.3 4.6-7.3 5.1 0 1.4-5.5 3.8-11.2 5-2.9.6-6.8 2-8.6 3-1.8 1-4.6 1.9-6.1 1.9-1.6 0-4.1 1-5.6 2.2-7.3 5.7-6.4 16 1.6 19.2 2.2.9 3.9 1.8 3.9 2.1 0 1.9-3.3 6.6-4.3 6.2-11.7-4.8-31.1-12.1-37.7-14-18.4-5.6-23.1-6.1-52.5-5.4-24.7.6-58.9 2.7-72.5 4.3l-5.4.7 12.2-9.2c6.7-5.1 17.4-14.2 23.7-20.3 9.7-9.3 12.1-12.2 14.9-18.2 11.9-25 4.2-49.8-21.4-69-10.2-7.6-16.4-14.1-22.3-23.3-6.1-9.3-8.5-14.3-17.3-35.5-4.2-10.1-9.2-21.4-11.2-25.3-4.3-8.1-12.8-17.6-21.8-24.2l-6.4-4.7 3.8-1.2c2-.7 4.7-2.6 6-4.3l2.3-2.9 5.3 1.8c3 1 8.5 2.3 12.4 2.9 8 1.2 47.4 1.3 51.2.1 1.7-.5-.5-.8-6.5-.9-10.3-.1-29.1-1.7-38-3.2-7.3-1.2-18.5-4.8-18.5-5.9 0-.4 2.1-1.1 4.8-1.5 7.6-1.1 22-6.3 31.1-11.1 10.1-5.5 12-5.4 21.8 1.2 6.7 4.5 6.8 4.5 3.4 1-1.9-1.9-5.8-4.8-8.7-6.3l-5.3-2.8 2.7-2.3 2.7-2.2-3.6 2c-3.1 1.7-4.1 1.9-6.5.9-6-2.5-20.8-1.5-37 2.4-8.3 2-17.6 3.7-20.6 3.7-5.4 0-5.6-.1-10.4-5.3-8.5-9-10.4-12-10.4-16.5 0-5.7-1.9-14-4.2-18.7-1.1-2.2-2.1-5.8-2.3-8.1-.2-4.7-3.9-13.1-8.3-19.1-2.3-3.1-4.3-4.5-7.2-5.3-3-.8-4.7-2.1-6.4-4.8-3.7-5.9-5.2-6.8-9-5.4-5 1.8-6.3 1.5-11-2.8-2.4-2.2-5.1-4-6-4-.9 0-3.4 1.1-5.4 2.5-4.5 3-7 3.1-11.6.4-4.2-2.4-5.9-1.8-10.5 3.8-2.9 3.5-3.6 3.8-8.3 3.8h-5.2l-3.7 6.5c-2.5 4.5-4.3 6.6-5.8 6.8-4.8.7-10.1 14.8-10.1 27 0 6.4.4 8.3 2.8 12.6 2 3.6 3.1 7.2 3.6 12.1.9 9.4 4.4 19.2 12.1 34.3 8.9 17.6 9.9 20.8 9.9 32.6.1 9.1.2 9.6 1.3 6 .6-2.2 1.2-5.8 1.2-8.2.1-2.3.4-4.2.9-4.2.4 0 1.5 2 2.5 4.4 1 2.4 3.8 7.4 6.3 11 2.4 3.7 4.4 7.3 4.4 8.1 0 .8-2.6 4.1-5.9 7.4-6.8 7-4.3 6.2 3.2-1l5.1-4.9 3.3 3.2c4 3.8 4.2 3.2.8-1.8-1.4-2.1-2.4-4.3-2.1-4.8 3.7-8.3 5.7-14.5 6.2-19.5.6-5.5.9-6.1 3.6-7 1.6-.6 4.3-2 6-3.2l3.1-2.2 1.8 2.4c2.4 3.1 2.4 4.2-.3 6.5-2.5 2.2-12.5 22.8-13.5 27.6-.3 1.8-1.8 5.1-3.1 7.3-1.4 2.2-4.7 8.6-7.3 14.2-4 8.4-5.5 10.6-9.1 13.1-2.4 1.6-6.4 5.2-9 8-5 5.3-17.3 23.3-21.6 31.7l-2.6 5-.8-6c-1-7.6-3.2-14.1-6.2-18.5-1.2-1.9-2.9-5.3-3.6-7.5-1.9-5.9-5.4-12.6-19.9-37.9-25.1-43.5-37.2-61-54-77.6-10.2-10.2-31.2-26.2-46.5-35.7-10.2-6.3-25.9-9.1-35.4-6.4-2.8.8-3.2.7-3.2-.9 0-1.4 1.2-2.3 4-3.1 2.2-.7 4.4-1.7 5-2.4.5-.6 1.3-5.1 1.7-10 .7-8 1-9 3-9.5 3.4-.8 10.8-7.4 12.7-11.3 4.3-9.2.6-19.9-10.7-31.1-20.5-20.5-58.8-33.7-80.9-28.1zm422 131.4c1.8 1.1-11 6.4-22 9.1-7.7 1.9-28.9 4-27.8 2.7.7-.7 30.3-10.4 35.5-11.6 5.2-1.2 12.6-1.3 14.3-.2zm-88.1 5.2c4 1.5 6.9 4.4 12.4 12.8 4.2 6.3 4.6 7.2 2.6 6.7-1.2-.4-4.7-1.2-7.7-1.8-3-.6-6-1.2-6.7-1.4-1.5-.4-5-7.2-6.8-13-1.3-4.3-1.3-4.4 1-4.4 1.3 0 3.6.5 5.2 1.1zm27.8 12.3c6.5 1.4 12.5 4.1 12.5 5.6 0 2-5.4 5-9.1 5-4.5 0-8.4-2.9-11.8-9l-2.4-4.3 2.4.7c1.3.4 5.1 1.3 8.4 2zm-91.2 18c.3.8 3 3.3 5.9 5.6 2.9 2.3 5.6 5.2 5.9 6.4.8 2.9-.7 13.6-2.5 17.8l-1.4 3.3-2.1-5c-3.4-7.7-6-16.4-6.9-23.3-.8-5.7-.2-8.2 1.1-4.8zm-197.2 68.5c4.8 4.9 15.9 15.1 24.6 22.8 8.7 7.7 16.4 14.7 17.1 15.6 1.2 1.4-.1 2.3-11.6 8.1-25.7 12.9-65.7 37.5-78 48.1-6.2 5.4-9.5 11.5-9.5 17.9 0 9.6 5.4 17.8 18.9 28.8 3.5 2.8 6.3 5.3 6.1 5.4-.2.2-18.7-2.1-41.2-5.1-22.6-3-41.1-5.5-41.1-5.5-.1 0 .1-2.1.4-4.6.4-3.6 0-5.1-1.7-7.5-2.1-2.9-2.2-3.2-.7-8.3.9-2.9 2.5-6.1 3.7-7.2 1.6-1.4 2-2.7 1.6-5.4-.2-1.9.2-5.2 1-7.4 1.7-4.9 1.8-4.6-1.7-4.6h-3l3.4-4.8c1.9-2.6 4.6-5.8 6-7.1 2.5-2.3 2.8-2.4 5.8-.9l3.3 1.5L228 303c8-7.6 17.3-16.1 20.6-18.8 3.4-2.8 9.9-9.7 14.5-15.3 7.3-8.9 36.6-40.6 37.8-40.8.3-.1 4.4 3.9 9.2 8.8zm232.2 9.6c.4 2.5 1.6 6.3 2.7 8.5 1.1 2.1 2 4.4 2 5.1 0 .6-4.2 5.4-9.3 10.7-8.2 8.5-31.9 35.7-43.1 49.4l-3.8 4.8h-9.7c-7.6 0-10.4.4-13.3 1.9l-3.6 2-1.1-4.2c-.8-3.2-.7-4.5.2-5.3.7-.6 6.6-5.5 13.2-11 17-13.9 33.3-28.5 38.3-34.3 2.3-2.8 6.5-8.7 9.2-13.3 4.3-7.1 14.9-18.8 17-18.8.4 0 1 2 1.3 4.5zm46.7 25c2.6 5.4 8.7 27.3 7.8 27.9-.2.1-5 2.2-10.8 4.6-5.8 2.4-16.8 7.2-24.5 10.6-13 5.7-19.1 8.6-49.3 23-13.1 6.3-19 11.3-22.2 18.6-4.5 10.6-2.1 19.6 7.9 29.7 3.1 3.1 13.8 11.9 23.9 19.5 10 7.7 18.1 14 18 14.2-.3.2-20-2.5-117.2-16.2-17.6-2.4-32.2-4.7-32.4-4.9-.3-.2 1.1-5.1 2.9-10.7l3.4-10.3 10-8.3c5.5-4.7 13.8-11.9 18.5-16.2l8.5-7.7 12.1-3.2c6.7-1.7 12.3-3.1 12.7-3.1.3 0 .3.9 0 2-.3 1.2.2 3.9 1.2 6 2.1 4.6 3.9 5.2 14.1 4.9 3.8-.2 7.5.1 8.2.5.7.4 2.3.1 3.6-.7 1.2-.8 3.3-1.7 4.7-1.9 1.5-.2 3-1.5 4-3.5 1.7-3.4 10.3-11.3 12.3-11.3.7 0 4.6-3.1 8.7-6.8 4.1-3.8 16-13.8 26.4-22.4 19.8-16.1 33.9-30 39-38 3.5-5.6 4.2-5.3 8.5 3.7zm-401.3 30.9c1.5 1.3 2.6 2.6 2.3 2.9-2.3 1.9-13.2 7.9-15.8 8.6l-3.2 1V311c0-3.6.4-4.2 5.3-7.4 6.3-4.2 7.8-4.3 11.4-1.2zm952.7 17.1c1.1.8 1.7 1.7 1.4 2-.3.3-1.6-.3-2.9-1.4-2.7-2.3-1.4-2.8 1.5-.6zM190 330c0 .5-.5 1-1.1 1-.5 0-.7-.5-.4-1 .3-.6.8-1 1.1-1 .2 0 .4.4.4 1zm-13.6 7.6c2 .8 2.1 2.4.2 2.4-.8 0-1.6-.7-2-1.5-.6-1.7-.4-1.8 1.8-.9zm966.1.4c.8 1.3-.5 1.3-2.5 0-1.3-.8-1.3-1 .2-1 .9 0 2 .4 2.3 1zm42.2 1.5c2.8.8 6.2 2.4 7.5 3.6l2.3 2-7-.5c-11.3-1-22.5-2.8-22.5-3.6 0-1.1 6.6-2.8 11.1-2.9 1.9-.1 5.8.6 8.6 1.4zm-42 11.5c4.9 2.9 5.3 3.7 1.8 4.6-3 .7-5.9-.2-5-1.6.3-.5.2-1-.3-1-.4 0-1.8-1.3-3-2.9l-2.1-2.9 2.2.6c1.2.4 4.1 1.8 6.4 3.2zm-802.6.2c-1.2 1.8-4.9 8.1-8.3 14.1-4.1 7.2-6.4 10.4-7.2 9.9-.6-.5-4.8-3.8-9.3-7.5l-8.3-6.5 10.8-3.7c5.9-1.9 13.6-4.9 17.2-6.4 3.6-1.6 6.7-2.9 6.8-3 .2-.1-.6 1.4-1.7 3.1zm240 24.6L564 392.6l-6.3-6.2c-3.5-3.4-8.8-7.5-11.7-9.2-3.3-1.9-4.8-3.3-4-3.6.8-.2 8.5-2.1 17-4.2 8.5-2 19.8-5.2 25-7 5.2-1.8 10.1-3.3 10.8-3.3.8-.1-5.8 7.5-14.7 16.7zm338.7 7.2c1.7 6.9 3.8 14.7 4.6 17.5 1.5 4.8 1.5 5.1-.9 9-3.5 5.8-9.2 11.5-16 16-3.3 2.2-8.7 6.6-12.1 9.7l-6.1 5.8-24.4-11.5c-13.4-6.4-25-11.9-25.7-12.3-1.6-.8-1.6-.8-.7-8.8l.6-6.1 7.6-.5c6.7-.5 7.9-.8 9.9-3.2 1.3-1.4 3.2-2.6 4.3-2.6 1.1 0 2.3-.9 2.6-2.1.7-2 1.2-2.1 9.1-1.6 7.2.4 8.5.2 10-1.4 1.1-1.2 1.5-2.8 1.1-4.7-.6-2.9-.5-3 9.6-6.8 5.6-2.1 13.1-5 16.7-6.5 3.5-1.5 6.5-2.7 6.6-2.6.1.1 1.6 5.8 3.2 12.7zM248 390.1c26.7 3.5 46.1 6.5 47 7.3.8.7 6.7 5.5 13 10.6 6.3 5.2 11.8 9.9 12.2 10.5 1 1.3 1 19.5.1 19.5-1.2 0-121.6-53.2-122.8-54.2-.5-.5.3-.6 2-.3s23.5 3.2 48.5 6.6zm132.7 3.4c-.9 3-1.5 3.5-4.1 3.5l-3.1-.1 4-3.4c2.2-1.9 4.1-3.5 4.2-3.5 0 0-.4 1.6-1 3.5zm-123.4 29.4 64.5 28.5.6 15c.3 8.3.9 23.7 1.2 34.2l.7 19-3.2 1.4c-3.2 1.3-3.3 1.2-8.7-4.1-17.9-17.5-121.7-123.1-120.7-122.8.7.2 30.2 13.2 65.6 28.8zm529.8-17c10.3 3.5 29.1 11 30.1 11.9.9.9-3.2 17.4-4.3 17-1.7-.7-25.4-19.5-30.5-24.2-4.9-4.7-6.7-7.6-4.6-7.6.5 0 4.6 1.3 9.3 2.9zm-414.2.7c2.7.6 3 .9 2.5 3.3-.4 1.4-.9 2.9-1.1 3.4-.4.7-8.9-4.9-9.9-6.5-.6-1 4.1-1 8.5-.2zm57.6 8c22 3.1 56.7 7.9 77 10.8l37 5.2 1.6 3.5c1.3 2.6 2.4 13.3 4.6 44.8l2.8 41.4-2.3 1.5c-2 1.3-5.7 1.5-20.6 1.5l-18.2-.1-56-24.7c-30.7-13.6-56.4-25-57.1-25.4-.7-.4 2-3.2 7.2-7.4 4.7-3.7 9.2-7.8 10.1-9.2 1.5-2.3 1.4-2.7-.9-7.8-1.3-2.9-3.9-6.4-5.7-7.8-1.7-1.3-4.6-3.9-6.3-5.8-3.6-3.8-11.9-8.1-15.8-8.1-2.1 0-2.8-.7-3.9-3.9-1.1-3.3-1-4.6.5-9 1.3-4 2.1-5.1 3.8-5.1 1.2 0 20.2 2.5 42.2 5.6zm645.5 1.1c0 5.9-1.3 13.5-2.4 13.8-15.9 4.7-27.5 11.5-30.7 18.1-3.1 6.5-2.2 10.5 7.1 31.5 4.4 10 7.8 18.5 7.4 18.8-.3.3-10.5.8-22.6 1.1l-22 .5.6-4.3c.3-2.4 2-9.9 3.6-16.7 1.7-6.8 4.8-20.6 6.9-30.7 3.2-15.7 4-18.3 5.7-18.6 6.2-1.1 10.1-2.7 12.4-5.2 2.3-2.4 3.6-2.9 8.3-3.1 3.1-.1 6 .1 6.4.4.3.4 1.2.2 2-.4.8-.8 3.3-.9 6.8-.5 5 .6 5.6.4 7.1-1.9.9-1.4 1.4-3.2 1-4-.3-.9 0-1.5.9-1.5 1 0 1.5 1 1.5 2.7zm-216.6 21 24.7 11.6-.6 6.1c-.4 3.4-1.4 9.1-2.2 12.9-2.3 9.8-1.4 16.4 3.7 27 2.3 4.9 4 9 3.8 9.3-.3.2-2.6-2.7-5.3-6.4-9-12.3-25.6-27.7-53.3-49.2l-3.2-2.5 2.6-9c3.4-12 3.2-11.5 4.3-11.5.5 0 12 5.2 25.5 11.7zm-737.3 9.7c1 1-4.2 56.4-5.7 61.4-.8 3-1.7 5.2-1.9 5-1.1-1.2-18.4-63.2-17.8-63.9 1.7-1.7 24-3.8 25.4-2.5zm10.7 1.1c2.8.4 5.2.9 5.2 1.3 0 1.4-17.5 48.2-17.8 47.4-.1-.5.6-11.6 1.8-24.7 1.1-13.1 2-24.2 2-24.7s.8-.7 1.8-.4c.9.2 4.1.8 7 1.1zm227.9 1.7c-.3.8-.6.5-.6-.6-.1-1.1.2-1.7.5-1.3.3.3.4 1.2.1 1.9zm-256.8 33.2c9.2 31.5 10.2 36.9 7.3 39.8-.4.4-3.8-1.1-7.6-3.5l-6.8-4.2-15.4-26-15.3-25.9 2.7-1.9c7.4-5 24-12.2 25.3-10.8.3.3 4.8 15 9.8 32.5zM705 452.9c0 1.6-.9 12.8-1.9 24.8-1.1 12-2.3 26-2.7 31.1-.4 5.1-1 9-1.4 8.5-.9-1.1-19.2-64.4-18.7-64.9.8-.8 11.6-2.2 18-2.3l6.7-.1v2.9zm11.3-1.3c2 .3 3.7 1.1 3.7 1.8 0 1.4-14.1 70-14.5 70.4-.2.2-1.3.1-2.6-.3-2.5-.8-2.6 3.2 1-40.5 2.9-34.7 2.7-33.2 5.9-32.6 1.5.3 4.4.8 6.5 1.2zm-28.5 33.5c5.2 17.6 9.2 32.2 9 32.4-.2.2-7.3-6.2-15.8-14.2-13.8-13-16.2-15.9-21.9-25.2-3.5-5.8-6.5-11.1-6.8-11.7-.7-1.8 21-13.3 25.2-13.4.6 0 5.2 14.4 10.3 32.1zm44.5-28.6c6.1 2.4 14.3 7.1 19 10.9l2.8 2.3-22.1 28.2c-12.2 15.5-22 28.5-21.7 28.7.3.3 10.3-12 22.2-27.3 12-15.3 22-28 22.2-28.2.6-.8 10.3 9.3 14 14.7 3.2 4.5 3.5 5.4 2.2 6.6-1.1 1.1-27.4 23.8-35 30.3-.9.8-6.3 2.7-12 4.3l-10.4 2.9-3.2-2c-1.8-1.2-3.3-2.4-3.3-2.8 0-.5 2-10.7 4.5-22.7 2.5-12.1 5.7-27.5 7.1-34.4 1.4-6.9 2.7-13.1 3-13.8.4-1.5 1.8-1.2 10.7 2.3zm217.6-1.8c2.1.5 2.2 1 1.7 4.7-.4 2.3-1.1 5.8-1.7 7.8l-1 3.8-9.4-4.7-9.4-4.7 2.1-2.3c3.6-3.9 12.1-6.1 17.7-4.6zm-782.1 7.5c2.5 1.8 5 3.6 5.5 3.9.7.5-21.3 29.8-27 35.9-.7.8.2-2.6 2.2-7.5 1.9-5 5.9-15 8.7-22.3 2.9-7.2 5.4-13.2 5.6-13.2.2 0 2.4 1.5 5 3.2zm-88.5 25.4c7.6 13 13.7 23.7 13.5 23.9-.2.1-10.2-6-22.3-13.7-12.1-7.6-22.7-14.3-23.5-14.8-1.2-.7.4-2.8 7.6-9.9 4.9-5 9.4-9.1 10-9.1.5.1 7.1 10.7 14.7 23.6zm575.3-14.4c2.1 3.5 4.5 7.4 5.3 8.8.9 1.4-1.9-.7-6.1-4.5-7-6.5-7.5-7.1-6-8.8.8-.9 1.9-1.7 2.3-1.7.4 0 2.4 2.8 4.5 6.2zM188.1 482c2.7 3.6 4.9 6.8 4.9 7.1 0 .8-34 30.4-38.5 33.6-3 2.2-22.3 7.9-23.2 6.9-.3-.3 1.8-4.5 4.6-9.4 4.4-7.8 14.5-21.3 33.9-45.5l5.4-6.9 4 3.9c2.2 2.1 6.2 6.7 8.9 10.3zm748.2-7.9c5.6 2.8 10.3 5.2 10.5 5.4.3.2-9.5 44.1-10.4 46.5-.4 1.3-.7 1.2-1.6-.3-2.1-3.8-2.9-8.6-4.3-24.7-1.4-15.4-3.1-23.7-6.4-29.9-1.8-3.3.7-2.7 12.2 3zm-801.7 23.5c-4.6 12.6-8.6 23.6-9 24.4-1 2.7.6-7.4 1.8-10.6 2.9-8.2 15-37.3 15.3-37 .2.1-3.5 10.6-8.1 23.2zm963.1-22.8c.8.5.4 3.6-1.4 11.4-2.1 8.9-2.9 10.7-4.7 11.2-4.9 1.3-5.3.9-6-6.2-.3-3.7-.8-7.6-1.1-8.7-.4-1.6.6-2.6 5.2-5.2 6.6-3.6 6.4-3.5 8-2.5zM449 507.5c17.3 7.6 31.8 14.1 32.2 14.5.8.6-48.3.4-91.2-.5-14-.2-26.1-.5-26.7-.5-1.4 0-1.8-10.4-.7-14.7.4-1.3 3.2-3.8 7.3-6.2 7.4-4.4 11.9-8.5 16.2-14.7l2.9-4.3 14.2 6.3c7.9 3.5 28.5 12.5 45.8 20.1zm151.6-18.8c-4 8-8.1 20.5-9.7 29.7-.8 4.6-1.5 6.6-2.6 6.6-.9 0-1.2-.6-.9-1.8.3-.9 2.4-8 4.6-15.7 2.3-7.7 4.3-14.7 4.6-15.6.5-1.9 6.2-9.9 6.9-9.9.3 0-1 3-2.9 6.7zm39.4-2.2c2.4 2.5 4.1 4.5 3.6 4.5-.6 0-7.9-4.6-10.5-6.6-.5-.4.9-2.4 1.8-2.4.4 0 2.7 2 5.1 4.5zm344.6 5c7.3 1.5 14.5 2.5 16.6 2.2 3.7-.5 3.8-.4 3.2 2.1-.4 1.5-.9 3-1.3 3.4-.3.3-12.2.9-26.5 1.3-25 .7-25.8.7-25.2-1.1.3-1.1 1.2-5.1 2.1-8.9l1.6-7.1 8.3 2.7c4.6 1.5 14.1 4 21.2 5.4zM71.3 500c14.7 9.3 25 16.4 25.6 17.7.6 1.3.8 2.3.4 2.3-.6 0-59.6-23-60-23.4-.7-.6 7.4-12.6 8.3-12.3.6.1 12.2 7.2 25.7 15.7zm570-8.7c5.3 3.5 10.8 8.3 15.5 13.5 4.1 4.5 7.1 8.2 6.7 8.2-1.1 0-37-14.3-37.9-15.1-.9-.8 5.2-11.9 6.6-11.9.5 0 4.5 2.4 9.1 5.3zm-441.7 10.8c2.3 5.9 3 8.5 2.1 8.8-4.3 1.5-43.2 11.9-43.5 11.6-.2-.1 7.7-7.3 17.5-15.8 14.7-12.8 18-15.3 19.1-14.3.8.8 2.9 5.1 4.8 9.7zm577.8-1c2.1 4.5 3.5 8.6 3.3 9.3-.4 1-41.7 13-42.3 12.3-.3-.3 33.9-29.7 34.6-29.7.4 0 2.4 3.6 4.4 8.1zm-709.3 9.2c28.3 11.1 31.6 12.7 33.6 15.6 2.8 4.1 1.9 6-3.4 7.6-3.8 1.1-4.8.8-34.7-11.6-16.9-7-30.9-12.8-31-13-.3-.4 3.4-10.9 3.9-10.9.1 0 14.3 5.5 31.6 12.3zm602.4-5.2c3.9 3.9 6.1 6.7 5 6.1-2.6-1.4-14.2-13.2-12.9-13.2.5 0 4.1 3.2 7.9 7.1zm1.6 16.5c3.2 3.2 5.7 6 5.4 6.2-.2.2-3.2.4-6.7.3-5.6 0-8.9-1.1-28.5-9.2-12.3-5-22.3-9.5-22.3-10 0-.4.9-2.8 1.9-5.2l2-4.5 21.1 8.3c20.4 8 21.4 8.5 27.1 14.1zm418.9-13.1c0 1.4-.4 2.5-1 2.5-.5 0-1-.4-1-.9s-.3-1.6-.6-2.5c-.4-1.1-.1-1.6 1-1.6 1 0 1.6.9 1.6 2.5zm-26.6 3.2c3.9 8 4.1 9.3 1.3 9.3-1.7 0-3.6 1.4-6 4.3-2.9 3.5-4.6 4.6-9.5 6-5.5 1.5-6.1 2-7.6 5.7-.9 2.2-2 4-2.5 4s-21.3-5.6-46.1-12.5-45.3-12.5-45.6-12.5c-.2 0-.4-.8-.4-1.8.1-4.6-.5-4.5 43.7-5.7 23-.7 48.2-1.3 56-1.3l14.3-.2 2.4 4.7zm140.2 7c-.3 6.5-.9 16-1.3 21.2l-.6 9.4-2.6-3c-1.4-1.6-3.7-3.7-5.1-4.5-1.8-1.1-4.1-5.3-8.2-15.4-3.1-7.7-5.8-14.6-6-15.3-.4-2 7.6-3.9 17.1-4l7.4-.1-.7 11.7zm12.9-9.1c2.8.8 5.5 1.7 6.1 2.1.8.6-.2 5.9-3.3 17.8-4.2 15.8-4.8 17.4-8.7 21.9l-4.2 4.9-1.8-2.8c-1.7-2.6-1.7-4-.6-23.4.6-11.3 1.3-21.2 1.6-21.9.4-1.3 2-1.1 10.9 1.4zm-99.5 6.9c9.4 4.7 17 8.7 17 9 0 .3-1.5 3.6-3.4 7.3-1.8 3.7-3.9 8.4-4.5 10.4-1.1 3.3-1.6 3.7-3.9 3.3-1.5-.2-6.7-.9-11.7-1.5-4.9-.6-9.5-1.6-10.2-2.1-1.3-1.2-3.8-8.4-4.7-14.1-.6-3.4.1-7.9 2.5-17.1.5-2 1.2-3.7 1.4-3.7.3 0 8.2 3.8 17.5 8.5zM61.4 522.6c15.4 6.4 28.5 11.9 29.1 12.2.5.3-.4.9-1.9 1.3-2 .6-10.7-.8-29-4.7-32.9-6.9-30.6-6.3-30.6-8.4 0-3.5 2.3-12 3.3-12 .5 0 13.6 5.2 29.1 11.6zM639 519c9.6 4 17.9 7.6 18.4 8 .4.5-2 .7-5.5.5-3.5-.2-12-.7-18.8-1-6.8-.4-13.4-1-14.6-1.5-2.3-.9-2.3-1-1-6.7.8-3.2 1.4-6.2 1.5-6.7 0-.4.6-.6 1.3-.3.6.3 9.1 3.7 18.7 7.7zm546.2 6c3.1 7.4 5.7 13.8 5.7 14.3.1.4-1.9-.3-4.4-1.6-4-2-5.3-3.6-10.4-12.7l-5.9-10.5 3.1-1.7c1.8-1 3.9-1.6 4.7-1.5.8.1 3.8 5.8 7.2 13.7zm-980.4-6.5c.6 2.7 1.4 8.5 1.8 12.7.5 6.3.4 7.8-.7 7.8-.8.1-7.9.9-15.9 2l-14.5 1.8-14.5-4c-8-2.3-14.9-4.4-15.3-4.8-.5-.4 1.3-2.5 3.9-4.6 4.3-3.6 6.8-4.5 28.8-10.5 13.3-3.7 24.4-6.4 24.7-6 .4.3 1.2 2.8 1.7 5.6zm577.6-3.8c1.2 4.2 2.6 14 2.6 18.4 0 5.4 1.4 4.8-18.4 7l-11.6 1.3-13.7-3.8c-7.6-2.1-14-4-14.2-4.2-.3-.2.6-1.5 1.9-2.9 3.1-3.3 1.4-3.2-2 0-2.5 2.4-2.8 2.4-6.5 1.2l-3.8-1.3 6.6-1.8c3.6-1 7.1-1.5 7.7-1.1.6.4 1.9 0 2.8-.8 1.5-1.4 42.4-13.3 46.4-13.6.9-.1 1.9.7 2.2 1.6zm460.2 9.9c9.7 9.6 9.7 9 .3 17-7 6-9.3 7.3-17.7 10.1-5.2 1.8-9.8 3.1-10 2.8-.2-.2.2-2.2.9-4.4.9-2.5 5.5-8.8 11.8-16.1 5.7-6.7 10.1-12.3 9.9-12.5-.2-.2-4.6 4.5-9.7 10.6-5.2 6-9.6 10.8-9.8 10.5-.3-.3 5.7-24.1 7.2-28.4.8-2.2 10.1 3.5 17.1 10.4zm-562.2-8c.5 1.4.4 1.5-.9.4-1.7-1.4-1.9-2-.6-2 .5 0 1.2.7 1.5 1.6zM1175 525c2.7 4.9 5 9.2 5 9.4 0 .2-4.9-1.9-11-4.7-6-2.8-11-5.4-11-5.8 0-1.1 10.4-8.8 11.2-8.3.4.3 3 4.5 5.8 9.4zm-1051.3-4.5c-1 4.4-2 5.5-3.2 3.6-.4-.8 3.1-8.1 4-8.1.1 0-.2 2-.8 4.5zm-19.1.5c2.4 1.7 4.4 3.3 4.4 3.5 0 1.1-8.3-3.1-9.1-4.7-1.4-2.5-.4-2.3 4.7 1.2zm583.4.4c.7.9.9 1.6.6 1.6-1.5 0-4.4-2-5-3.5-.4-1.2-.2-1.3 1.3-.6 1 .6 2.3 1.7 3.1 2.5zm-252 3.1 52.5.6 20.9 9.2c19.1 8.4 23 10.7 21.2 12.4-.6.7-138.2-2.3-152.2-3.3l-8.1-.6-2.3-4.9c-1.3-2.6-3.4-5.8-4.7-7-1.2-1.3-2.3-3.3-2.3-4.5 0-2.7 1.2-3 13.5-2.7 5 .2 32.6.5 61.5.8zm-329 1.4c0 1.6-1.4 2-2.7 1-1.9-1.7-1.6-2.8.7-2.2 1.1.3 2 .9 2 1.2zm583.2.3c-1.1 1.1-3.2.3-3.2-1.2 0-.4.9-.6 2.1-.3 1.3.4 1.7.9 1.1 1.5zm291.7 7.8c17.8 4.9 32.6 9.2 32.9 9.5.3.3-1.5.5-3.9.5s-8.4.2-13.4.5c-57 2.8-52.5 2.8-52.5 0 0-1.3-.6-3-1.4-3.8-1.3-1.2-1.2-2.3.1-7.8 2.1-9.2 2.1-9.1 4.1-8.5 1 .3 16.4 4.6 34.1 9.6zm-442-8h3.5l-3.4 3.5c-1.9 1.9-3.9 3.5-4.6 3.5-.6 0-4.9-1.7-9.4-3.8l-8.1-3.7 9.3.2c5.1.1 10.9.2 12.7.3zM79 537.3c.8.3-4.6.6-12 .6-7.4.1-19.2.4-26.2.8l-12.8.6v-6c0-3.3.2-6.2.5-6.5.5-.4 47.5 9.3 50.5 10.5zm67.5-7.2c-3.1 2.7-3.9 3-7.6 2.4-4.9-.8-4.4-1.5 2.9-3.7 8.1-2.3 8.7-2.2 4.7 1.3zm494 1.1c4.9 1 9.1 2.1 9.3 2.2.2.2-7.4.7-16.8 1.1-9.4.4-17.4.5-17.7.2-1.3-1.4.8-5.6 3-5.9 4-.6 13 .4 22.2 2.4zm-85.6 4.4c.1 1.7-.6 2.3-3.4 2.8-3.7.7-8-.8-6.9-2.5.3-.6 2.5-2.4 4.7-4l4.2-3 .6 2.3c.4 1.3.7 3.3.8 4.4zm112.5-4.3 4.1 1.2-6.5.3c-6.8.4-21.8-1.7-20.2-2.7 1.7-1 18.3-.1 22.6 1.2zm10.2.5c-2.1.2-4.2 0-4.7-.5-.4-.4 1.3-.6 3.9-.3l4.7.5-3.9.3zm483 .7c1 .8 1.4 1.5.8 1.5-.5 0-1.9-.7-3-1.5-1-.8-1.4-1.5-.8-1.5.5 0 1.9.7 3 1.5zm-438.7 1.2c.3.2-.4 1.2-1.5 2.3-2 2-2 2-3.1-1-1.1-2.9-1.1-3 1.5-2.4 1.5.4 2.9.9 3.1 1.1zm-583.1.2 2.4.6-2.5 2.3-2.5 2.3-1-3c-1.2-3.3-.9-3.5 3.6-2.2zm1044.7 17.2c1.9 1.7 3.4 3.3 3.2 3.5-.2.2-5.5-.3-11.8-1.2-6.3-.8-13-1.7-15-1.9-2-.2-6.4-1.7-9.8-3.4l-6.1-3.1 3-6 3-6 14.9 7.5c8.3 4.1 16.6 8.9 18.6 10.6zM100.7 536.6c-.2.2-1.2.1-2.2-.3-1.8-.6-1.8-.7.1-1.3 1.7-.7 3.3.5 2.1 1.6zm485.3-1.1c1 1.2 1 1.5-.4 1.5-.9 0-1.6-.7-1.6-1.5s.2-1.5.4-1.5.9.7 1.6 1.5zm163.4 6.4c-.3.3-6.4 1.3-13.7 2.2-13.1 1.7-13.2 1.7-14.9-.3-2.5-2.8-2.3-4.2 1.1-7.1l2.9-2.4 12.5 3.6c6.9 2 12.3 3.8 12.1 4zm436.3 1.9c2.5 3.4 1.1 3.1-7.4-1.2-13.7-6.8-15.9-9.4-3.8-4.5 5.4 2.2 10.5 4.8 11.2 5.7zM160.5 540c4.4 1.2 8.3 2.5 8.8 2.9.4.4-5.9 1.5-14 2.4-13.6 1.6-14.8 1.6-16.5 0-2.6-2.3-2.2-4.8 1.2-7.7 2.9-2.4 3.2-2.4 7.8-1.1 2.6.7 8.3 2.3 12.7 3.5zm-65-3c.4.6-.6 1-2.2 1-2.2 0-2.5-.2-1.3-1 1.9-1.2 2.7-1.2 3.5 0zm227.3 9c-.2 1.1-2.1 1.6-7.1 2-7.6.6-8.2-.2-5.1-6.3 3.1-6.1 3.4-6.2 8.1-1.5 2.4 2.3 4.2 5 4.1 5.8zm930.6-7.5c.9 1.3 1.6 2.6 1.6 2.9 0 .4-8.5 3.4-15 5.3-.8.3 1.2-2 4.5-5.1 3.3-3 6.3-5.5 6.6-5.6.4 0 1.4 1.1 2.3 2.5zm-892.6 2c1.1 2.4 1 2.5-1.8 2.5s-2.9-.1-1.8-2.5c.6-1.4 1.4-2.5 1.8-2.5.4 0 1.2 1.1 1.8 2.5zm-286-1c-.7.7-43.8 12.5-45.5 12.5-.9 0-1.3-1.9-1.3-6v-6l18.3-.3c10-.1 20.6-.3 23.6-.5 3-.1 5.2 0 4.9.3zm20.6.8 4.9 1.2-7.7 6.7c-4.2 3.8-8.4 6.8-9.3 6.8-.8 0-12.8 2.5-26.5 5.5s-25 5.5-25.2 5.5c-.6 0-2.7-11.2-2.2-11.7 1.3-1.3 53.5-15.1 57.1-15.1 2.2 0 6.2.5 8.9 1.1zm5.3-.7c-.3.3-1.2.4-1.9.1-.8-.3-.5-.6.6-.6 1.1-.1 1.7.2 1.3.5zm532.3 1c-15.5 1.6-18 1.6-18 .5 0-1.6 2.9-1.9 17-1.9l13.5.1-12.5 1.3zm151.6 7.9c-.4 1-2.3.8-8.8-1.1-4.6-1.4-10.1-3-12.3-3.6-3.9-1.1-3.7-1.2 8.5-2.7l12.5-1.6.3 3.9c.2 2.1.1 4.4-.2 5.1zm-578-2.8c-.3 2.5-.8 4.8-1 5-.6.6-24.6-6.1-24.6-6.8 0-.6 14.7-2.5 21.9-2.7l4.4-.2-.7 4.7zm-105.4 1.1c-2.9 4-4.2 4.9-8.2 5.6l-3.5.7 6-5.5c6.2-5.6 9.4-6.1 5.7-.8zm668.3.2c7.7 2.2 14.2 4 14.4 4 1.5 0-5.5 22.9-7.3 23.6-1.3.5-44.5-15.9-45.6-17.4-3.8-4.5-7.1-9.4-6.8-9.8.5-.4 24.8-4 29.3-4.3 1.1 0 8.3 1.7 16 3.9zm426.7 4.4c1.9 5.1.8 6.1-1.9 1.8-1-1.5-3-3.9-4.5-5.4-4-3.8-3.5-5.2 1-2.9 2.8 1.4 4.1 3 5.4 6.5zm62.6-.1c1.4 4.3 2.2 8 2 8.2-.2.3-7.7 2.1-16.6 4.2-15.4 3.5-16.4 3.6-20.8 2.2l-4.7-1.4 8.3-7.5c7.2-6.5 9.3-7.8 17.3-10.6 5.1-1.8 9.9-3.2 10.7-3.1.9.1 2.4 3.3 3.8 8zm-1075.3-4.7c5 1.4 12 3.4 15.7 4.5l6.6 1.9-1.4 6.3c-1.9 8.3-5.4 17.8-6.8 18.3-.7.3-11.5-3.6-24.1-8.5l-23-8.9-4.2-5.3c-2.4-3-4.3-5.7-4.3-6 0-.3 7.1-1.5 15.8-2.6 8.6-1.1 15.9-2.1 16.2-2.2.3 0 4.6 1.1 9.5 2.5zm536-1.6c.3.5.1 1-.4 1-.6 0-1.1-.5-1.1-1 0-.6.2-1 .4-1 .3 0 .8.4 1.1 1zm-582 .9c.3.5.1 1.2-.5 1.6-.5.3-1-.1-1-.9 0-1.8.6-2.1 1.5-.7zm551.3 2.2c-.7.5-2.2.9-3.2.9-1.8 0-1.8-.1-.1-2 1.4-1.6 2.1-1.7 3.2-.8 1.1.9 1.1 1.3.1 1.9zm-582 1.4c-.2.1-1.8.5-3.6.8l-3.3.7 1.8-2.4c1.7-2.2 1.9-2.3 3.6-.8.9.8 1.6 1.6 1.5 1.7zm567.6-.4c-2.9 2.8-5 3.5-29 8.8-20.2 4.5-26.1 5.5-26.7 4.5-.4-.7-1-3.3-1.3-5.8-.6-4-.4-4.6 1.2-4.7 1.4 0 52.1-5.1 57.9-5.8.5 0-.4 1.3-2.1 3zm8.4-1.2c-1.2 1.9-3.7 3.1-6.7 3.1-1 0-.7-.8.9-2.5 1.3-1.4 3.4-2.5 4.7-2.5 2 0 2.2.2 1.1 1.9zm354.9 1.6c7 1.9 12.8 3.6 13 3.9.2.2-.4 2.8-1.4 5.9l-1.8 5.5-10.5.6c-17.2 1.1-56.7 2.6-68.5 2.6h-11l-2.3-5.1c-1.3-2.8-4.2-6.9-6.4-9.1-2.2-2.2-3.8-4.1-3.6-4.3.2-.1 7.7-.5 16.8-.9 20.4-.7 34.2-1.4 34.6-1.8.1-.2 6.6-.4 14.4-.6 13.6-.2 14.7-.1 26.7 3.3zm44.3-2.8c-.1 2.4-1.4 5.3-2.4 5.3-2.5 0-11.6-3.1-11.6-4 0-.9 3.6-1.6 10.3-1.8 2-.1 3.7.1 3.7.5zm35.8 1.8c6.9.7 7.3.9 6.8 2.9-.3 1.1-.8 4.5-1.2 7.3-.7 5.7-.6 5.6-7.8 4.7-4.3-.6-4.7-.9-5.6-4.5-.6-2.1-2.1-4.6-3.4-5.6-1.2-1-2.8-2.8-3.4-4-1.1-2-.9-2.2 1.6-2.5 1.5-.2 3.4-.1 4.2.3.8.4 4.8 1 8.8 1.4zm-392.5 3.4 3.7 5-4-1.4c-6.2-2.2-8-3.4-8-5.5 0-1.6.9-2.2 4-2.9.3 0 2.2 2.1 4.3 4.8zm422.4-3.7c4.6 1.7 4.1 2.7-.7 1.5-2.2-.6-4-1.5-4-1.9 0-1.1.8-1 4.7.4zm54.3 8.6c0 .7-.5 1-1 .7-1.1-.7-5-7.9-5-9.1 0-1.3 5.9 7.1 6 8.4zm-1059.3-4.1c4.7 6.1 4.6 6.3-1.4 3.8-4.7-1.9-5.9-2.8-6.1-4.9-.5-4.2 3.9-3.5 7.5 1.1zm547.8-2.8c-.6.4-2.3 1.3-4 1.9-1.6.5-3.9 1.4-5 1.8-1.8.7-1.8.6-.7-.9.8-.9 3.2-2 5.5-2.6 2.3-.5 4.4-.9 4.7-1 .2-.1 0 .3-.5.8zm4.5 1.1c0 .5-.2 1-.4 1-.3 0-.8-.5-1.1-1-.3-.6-.1-1 .4-1 .6 0 1.1.4 1.1 1zm519.2 1.5c-.4 2.4-3.8 5.3-4.8 4.2-.4-.4 4.3-6.7 5.1-6.7.1 0 0 1.1-.3 2.5zm-1107.3-1.1c-.2.2-2.8 1.4-5.7 2.5-3.7 1.5-5.2 1.7-5 .9.3-.7 2.2-1.8 4.4-2.5 4-1.2 7.1-1.6 6.3-.9zM1190 554c0 1.5-.5 1.2-2.6-1.1-1.9-2.2-1.9-2.2.4-1 1.2.6 2.2 1.6 2.2 2.1zm40.4-1.2c-1.2.9-4.7 3.9-7.7 6.5-4.2 3.7-6.1 4.7-7.7 4.2-2.3-.7-2.6-3.3-.7-5.8.6-.9 4.4-2.8 8.2-4.1 8.6-3 10.8-3.2 7.9-.8zm-1118.4.7c0 .9-2.1 5.7-4.6 10.8-4.3 8.6-5.8 10.4-23.7 28.4C73.2 603.3 64.1 612 63.5 612c-.5-.1-3-1.9-5.3-4-4.4-3.9-4.4-3.9-2.5-6.3 1-1.3 9.7-11.4 19.3-22.5L92.4 559l8.6-3.4c9.6-4 11-4.2 11-2.1zm565.9.1c-1.4 1.7-4.1 2.9-8.7 4l-2.7.7 1.9-2.2c1.8-1.9 6.1-3.8 9.5-4 1.1-.1 1.1.2 0 1.5zm36.8-.8c1 .6 3.6 23.1 2.8 24-.6.7-13.6-20.9-13-21.8.3-.5 1.6-1 2.8-1 1.2 0 2.9-.5 3.7-1 1.8-1.2 2.2-1.2 3.7-.2zm442.3.7c2.7.3 20.6 8.3 19.9 8.9-.2.2-8.4.6-18.1 1l-17.8.6v-3.7c0-2.1.3-4.8.6-6.1.7-2.4.4-2.4 15.4-.7zm-466.4 9.2c-4.1 8-6.3 10.5-22.8 27.1L649.5 608l-4.8-4.2-4.8-4.3 15.6-18c19.5-22.5 20.5-23.4 24-24.1 2.9-.5 5.5-1.2 12-3.1 1.7-.5 3.2-.8 3.3-.7.2.1-1.7 4.2-4.2 9.1zm10.1-8.1c.3 1-.4 2.6-2.1 4.2l-2.6 2.7v-2.7c0-3.7 1-5.8 2.6-5.8.8 0 1.7.7 2.1 1.6zm-606.8 1c-1.4 1.7-7.2 4.5-11.9 5.8-2.2.6-2 .3 1.4-2.8 3.6-3.3 5.5-4.1 10-4.5 1.6-.1 1.7.1.5 1.5zM118 557c0 .5-1.1 2.2-2.5 3.7l-2.4 2.8-.1-3.2c0-4.9.9-6.4 3.1-5.2 1 .5 1.9 1.4 1.9 1.9zm14.7-2.2c.6.4 1.4 5.1 1.8 11.2.4 5.8.9 11.4 1.2 12.5.5 1.8.3 1.8-.9.5-3-3.1-13.8-21.1-13.3-22.1.4-.5 1.6-.9 2.8-.9 1.2 0 2.9-.5 3.7-1 1.8-1.2 3.1-1.2 4.7-.2zm181.9 1.5c.2.2-.8 1.4-2.2 2.8-2.1 2-2.7 2.1-3.4.9-.5-.8-1-2.5-1-3.7 0-1.9.3-2.1 3.1-1.3 1.8.5 3.3 1.1 3.5 1.3zm351.3.3c-1.7 1.7-5.1 3.2-10.5 4.5-4.3 1.1-8.6 2.2-9.4 2.5-.8.3-1.6.5-1.7.5-.2 0-1.7.5-3.5 1-1.8.6-4.6 1.3-6.3 1.6-1.6.3-3.7.8-4.5 1.3-.8.4-3.2 1-5.2 1.4-3.1.6-3.7.4-4.3-1.4-.4-1.2-.4-2.4-.2-2.7.3-.3 11.1-2.9 23.9-5.8 12.8-2.9 23.5-5.3 23.8-5.4.2-.1-.7 1.1-2.1 2.5zm58.5.1 6.7 2.8 15 19.5 15.1 19.5-5 4.6c-4.7 4.4-13.9 10.9-15.1 10.9-.3-.1-5.4-7.7-11.2-17l-10.6-16.9-.7-11.3c-.4-6.2-.9-12.1-1.2-13.1-.7-2.2-.9-2.2 7 1zm449.6-1c1.1-.3 2.2-.2 2.5.3.3.4 3.8 1.1 7.9 1.5 4.2.4 8 1.2 8.6 2 1.5 1.8.3 2.3-6.5 2.6-5 .2-7.2-.3-13.2-3.1-7.2-3.2-10.1-5.9-4.3-3.8 1.7.5 3.9.8 5 .5zm-724.5.8c36.3.9 69.3 1.8 73.2 2.1l7.3.6 1.1 4.1c.6 2.3 2.2 6.2 3.5 8.6 2.4 4.3 2.4 4.5.7 6.3-1.8 1.7-6.4 1.8-86.6 2.2l-84.7.3v-2.4c0-1.3 1.1-4 2.5-6.1 1.4-2.1 3.2-6.8 4.1-10.5l1.7-6.7h5.6c3.1 0 35.3.7 71.6 1.5zm142.1 4.2c.9 5.6-.7 5.5-2.7-.2-1.1-3.1-1.3-4.5-.5-4.8 1.7-.7 2.4.5 3.2 5zm472-4.1c2.1.5 6.2 6 5.2 6.9-.2.1-3.3.5-7 .7-6.2.4-6.8.2-6.8-1.5 0-2.9 3.3-7.8 4.8-7.2.8.3 2.5.8 3.8 1.1zM79.5 560c-3.3 3.4-6.9 5.2-23.3 11.6-10.6 4.2-19.5 7.4-19.7 7.3-.6-.7-4.6-11.2-4.3-11.4.2-.1 48-10.9 50.8-11.4.2-.1-1.3 1.7-3.5 3.9zm65.1-.5c4.6 2 6.5 4.1 20.7 22.5 8.7 11.1 15.7 20.5 15.7 21 0 2.1-19.4 16.5-20.9 15.6-.5-.3-5.8-8.3-11.8-17.8l-11-17.3-.7-10.5c-.4-5.8-1-12-1.3-13.9-.5-3.1-.4-3.3 1.8-2.6 1.3.4 4.7 1.8 7.5 3zm802.2 3c-1.3 1.3-7.8 1.3-8.8 0-.8-1-.5-1.9 1.2-3.7l2.3-2.5 2.9 2.8c1.7 1.6 2.7 3.1 2.4 3.4zm-236.3 6.4 7.6 12 1.6 19.5c.9 10.7 1.3 20.1 1 20.9-.7 1.9-11 3.7-21.5 3.7H691v-2.8c0-1.5 1.1-15.4 2.4-30.9 2.4-27.7 2.5-28.2 5.2-31.2 1.5-1.7 3.1-3.1 3.5-3.1.4 0 4.2 5.4 8.4 11.9zm206.5-5.1c-.4.2-2.5-.4-4.6-1.3-3.6-1.5-3.7-1.5-1.8-3.6l1.8-2 2.8 3.3c1.5 1.8 2.3 3.4 1.8 3.6zm296-6.1c-.1 1.8-1.8 3.5-2.4 2.4-.4-.6-.4-1.6-.1-2.1.7-1.2 2.5-1.3 2.5-.3zM128.1 571.8l7.9 12.3 1.8 21.5c1.6 19.8 1.7 21.6.2 22.4-4.3 2.3-28.6 3.8-30.4 1.9-.3-.3.7-14.7 2.2-32l2.7-31.6 2.9-3.7c1.7-2 3.4-3.5 3.9-3.3.6.2 4.5 5.8 8.8 12.5zM548 559.7c0 .8-6.5 6.3-7.3 6.3-.4 0-2.7-5.7-2.7-6.6 0-.2 2.3-.4 5-.4 2.8 0 5 .3 5 .7zm145.5 3.9c-2.3 3.6-3 2.3-.9-1.8 1-1.8 1.9-2.7 2.2-2 .2.7-.4 2.4-1.3 3.8zM72 580.7c-9.5 10.9-17.6 20.2-18.1 20.7-1 1.1-4-1.4-7-5.5l-1.9-2.7 15-13.7c12.4-11.2 16.2-14.1 21.8-16.4 3.7-1.6 6.8-2.7 7-2.5.2.1-7.4 9.2-16.8 20.1zm291-19.2c0 .8-.4 1.5-1 1.5-.5 0-1-.7-1-1.5s.5-1.5 1-1.5c.6 0 1 .7 1 1.5zm307.8.2c-10.6 12.5-29.4 34.1-30.5 35.3-1.3 1.3-1.7 1.2-3.9-1.5-5.1-6.1-5.5-5.3 9.4-18.7 13.6-12.4 16.2-14.4 21.1-15.9 4.6-1.3 5.6-1.1 3.9.8zm-561.4 5.4c-2.5 2.8-2.8 1.7-.7-2.6 1.6-3.3 1.8-3.5 2.1-1.6.2 1.3-.4 3.1-1.4 4.2zm646.6 1.8c10.2 4 18.8 7.6 19.2 7.9.4.4-1 3.7-3.2 7.2-4.3 7.1-9.6 13.8-10.3 13-.2-.3-5.3-6.8-11.2-14.5-5.9-7.7-12.2-15.8-13.9-17.9-3.7-4.8-4.8-5.1 19.4 4.3zm505.4-5.7c.9 3.3.7 12.1-.3 13.6-.6 1-3.9.3-15.4-3.4-8.1-2.6-14.4-5-14.1-5.3.5-.5 25.4-6.7 28-7 .7 0 1.4.9 1.8 2.1zm-1086.8 7.9c11.5 4.5 21.2 8.4 21.6 8.8.4.4-.9 3.5-3 7-3.8 6.6-10.7 15-11.4 14.1-1.8-2.1-27.6-35.8-28.2-36.8-.4-.6-.5-1.2-.3-1.2.3 0 9.9 3.6 21.3 8.1zm1014.9-7.2c-1.6.7-1.7.9-.5 1.3.8.3.4.3-1 .1-4.4-.8-4.7-2.3-.4-2.2 3 0 3.4.2 1.9.8zm-6.5 1.1c0 1.1-7.8 1.1-18.5 0-6.3-.6-5.8-.7 5.8-.8 7.9-.1 12.7.2 12.7.8zm-527 .4c0 .5-24 22-24.9 22.4-.8.3-6.5-9.7-5.9-10.3.2-.3 29-12 30.6-12.4.1-.1.2.1.2.3zm564.8 1c1.7.4 3.2 1.1 3.2 1.6 0 1.1-6.3 1.9-7.4.9-1.4-1.3-1.6-3.7-.2-3.5.6.1 2.6.6 4.4 1zM637.1 571c-6.8 2.7-12.8 4.7-13.3 4.4-2.4-1.5 1-3.9 7.2-5 2.4-.5 4.4-1.1 11.5-3.3 1.7-.5 3.9-1 5-1s-3.6 2.2-10.4 4.9zm54.6 24.7c-1.3 15-2.7 27.6-3 28-1 1-14.3-2.3-19.9-5l-4.8-2.2 11.4-21.9c10.5-20 17.7-30.8 18.3-27.4.2.7-.7 13.6-2 28.5zm217.4-28.1c1.8 1.6 1.8 1.8-.2 4.5-1.9 2.6-4.9 4-4.9 2.1 0-1.7 2.1-8.2 2.7-8.2.4 0 1.5.7 2.4 1.6zm-842.7 4.2c-2.2 2-8.2 7.4-13.2 12l-9.1 8.3-3-4.8c-1.7-2.6-3.1-5.3-3.1-5.9 0-1 29-13.2 31.5-13.3.6 0-.8 1.7-3.1 3.7zm44.2.4c-.8 5.3-4.6 52.1-4.6 55.5 0 2.4-.2 2.4-4.2 1.8-5.9-1-19-5.2-21-6.7-1.6-1.2-.7-3.3 10.3-24.3 10.9-20.7 16.9-30.2 19.2-30.4.5-.1.6 1.8.3 4.1zm1011.8-2c.3.7.7 4.3 1 7.9l.6 6.5-8.2 1.2c-4.6.7-9.7 1.4-11.3 1.6l-3.1.4 2.8-5.6c1.6-3.2 2.8-7.1 2.8-9.3V569h7.5c5.2 0 7.7.4 7.9 1.2zm122.4 4c8.9 2.8 16.2 5.7 16.2 6.3 0 1.9-4.1 13.9-5 14.9-.6.6-6-1.2-13.5-4.4-11.5-4.9-12.9-5.7-17.2-10.9-2.6-3.1-5.3-6.4-6.1-7.3-1.3-1.5-1.1-1.8 1.9-2.7 5.6-1.5 6.7-1.3 23.7 4.1zm-91.3-3.3 4 .7-6 1.2c-3.3.7-7 1.5-8.2 1.8-2 .5-2.3.2-2.3-2 0-2.4.3-2.6 4.3-2.5 2.3 0 6 .3 8.2.8zm27.3.8c5.5.4 8 .9 7.3 1.6-1 1-3.7 1.5-20.6 4.2-4.9.8-10.1 1.7-11.5 1.9-1.4.2-5 .8-8.1 1.1-5.3.7-5.6.6-6.2-1.6-.3-1.3-.5-2.4-.4-2.6.2-.1 5-1.3 10.7-2.6 11.4-2.7 16.2-3 28.8-2zm41 5.8c2.9 3.6 5.1 6.5 4.8 6.5-.2 0-2.6-.9-5.3-2.1-2.6-1.1-6.3-2.7-8.2-3.5l-3.4-1.4 2.8-3c1.6-1.7 3.2-3 3.5-3 .4 0 3 2.9 5.8 6.5zm-121.3-3.3c-1.4 4.5-3.7 8.6-6 10.8l-2.4 2.2-1.4-3.4c-3.1-7.5-3.1-7.4 2-9.6 6.6-2.8 8.6-2.8 7.8 0zm-36-.3c2.8.6 3 .9 2.8 4.7-.1 2.2-.8 5.5-1.5 7.4l-1.4 3.3-3.2-3.3c-3.3-3.2-5.4-6.6-6.6-10.8-.7-2-.4-2.2 3.1-2.1 2.1.1 5.2.4 6.8.8zm-16.5 1.8c.1 3.1 3.7 9.9 7.5 14.2 2.1 2.2 3.3 4.1 2.9 4.1-6.8.2-46.2 1.8-59.9 2.5-28.7 1.4-50.5 2.2-50.5 1.8 0-.2 1.6-2.4 3.5-4.9 2-2.5 4.3-7.2 5.2-10.4l1.6-5.8 18.1-.7c9.9-.3 25.8-1 35.1-1.4 31.2-1.4 36.5-1.3 36.5.6zm-452.3 1.5c-.3.8-.6.5-.6-.6-.1-1.1.2-1.7.5-1.3.3.3.4 1.2.1 1.9zm599.5 3c-.2 1.8-.9 3.9-1.4 4.5-.7.9-.7 1.3 0 1.3 1.4 0 .5 3-1.8 6-1.8 2.3-2 2.4-2 .4 0-1.1.6-2.9 1.4-3.9.8-1.1 1.2-2.5.9-3.1-.6-1.7 1.6-9.6 2.6-9 .4.3.6 2 .3 3.8zm-521.4 14.5c-5.1 9.8-9.8 18.6-10.4 19.7-1.1 1.7-1.4 1.6-6.9-1.9l-5.8-3.7 15.9-15.9c8.7-8.7 16-15.9 16.2-15.9.1 0-3.9 8-9 17.7zM951 579.3c0 1.3-.6 3.1-1.2 4-1.2 1.6-1.5 1.5-4.2-.7l-3-2.3 3-1.5c4.2-2.2 5.4-2.1 5.4.5zm233-1.5c0 .8-32.2 14.6-35.9 15.4-.8.2-2.1-1.5-3.2-3.9l-1.8-4.3 2.2-.5c11.7-2.6 24.7-5.1 32.1-6 2.1-.2 4.1-.7 4.4-1 .8-.8 2.2-.6 2.2.3zm7.2 5.2c-1.5 5.4-2.8 7.1-14 19-6.8 7.1-12.7 13-13 13-.4 0-2-1-3.5-2.3l-2.8-2.2 12.8-15c11.7-13.7 17.1-18.5 21-18.5.8 0 .7 1.7-.5 6zm6.7-3.4c-1.5 1.8-2.2 1.3-1.3-1 .3-.9 1-1.3 1.6-1 .5.3.4 1.2-.3 2zm10.3 1.9c-1 2.2-.1 4.2 9.8 21.7 6.1 10.6 11 19.6 11 19.9 0 1.5-16.1 6.3-17.1 5.1-.8-.9-4.3-31.6-4.1-36.7.1-2.1-.3-4.4-.7-5-.5-.5-.8-2.8-.6-5 .3-5.1.3-5.1 1.7-3.7.9.9.9 1.8 0 3.7zm-2.8 4.6c.7 6.5.5 9.7-2.3 24.4-1.7 9.4-3.1 17.3-3.1 17.7 0 1.2-7.8 1-8.5-.2-.3-.5.4-9.4 1.6-19.7 1.8-15.9 2.5-19.4 4.5-22.5 2.9-4.5 3.1-6.3.4-2.8-1.1 1.4-2 2-2 1.4 0-1.5 3.5-4.6 4.3-3.8.4.4.9-.1 1.3-1 1.3-3.5 2.9-.7 3.8 6.5zm14.8-3.5c8.7 3.6 8.7 3.6 17.9 15.1l9.2 11.4-3.4 3.5c-4.5 4.7-11.7 9.7-13.2 9.1-.7-.3-5.8-8.6-11.5-18.6-8.8-15.5-10.3-18.6-9.7-21.1.4-1.7 1-3 1.3-3 .4 0 4.6 1.6 9.4 3.6zM88.6 600.2c-7 13.5-11 20.3-12.1 20.2-.8-.1-3.8-1.6-6.6-3.4l-5.1-3.3 16.9-16.9c9.2-9.2 16.9-16.8 17.1-16.8.2 0-4.4 9.1-10.2 20.2zm994.6-15.5c4.3 4.2 4.5 4.8 2.1 5.8-3.1 1.1-15.3 1.8-15.3.7 0-1.5 7-10.2 8.3-10.2.6 0 2.8 1.7 4.9 3.7zm95.3-1.8c-.6.5-6.8 5-13.9 10.1-9.9 7.1-13.1 8.9-13.8 7.8-2.4-3.5-2.9-5.1-2.1-5.9.7-.7 29-12.8 30.3-12.9.2 0 0 .4-.5.9zm-448.1 17.2c4.7 7.5 8.6 14.1 8.6 14.7 0 1-15.1 7.4-15.8 6.7-.3-.3-3.2-32.3-3.2-35.5 0-2.1.8-1 10.4 14.1zm210.1-12.6c5.6 2.5 5.7 2.6 4 4.5-2.2 2.4-9.5 6-12.2 6-2.2 0-2.2-.1.2-10.8.7-2.8 1-2.8 8 .3zm227.4 9.5-10.2 12.1-2.4-2.3c-1.3-1.2-2.2-2.8-2.1-3.5.2-1 23.5-18.3 24.6-18.3.2 0-4.3 5.4-9.9 12zM924 589.4c0 1.3.3 3.8.6 5.5.6 2.7.4 3.1-1.5 3.1-2.6 0-9.2-3.2-11-5.3-1-1.3-.3-1.8 4.6-3.5 7.4-2.6 7.3-2.6 7.3.2zm-774.7 15.7c4.8 7.5 8.7 14.1 8.7 14.6 0 1.1-9.7 5.7-14.2 6.8-2 .5-2.8.3-2.8-.6 0-.8-.7-8.6-1.5-17.4-.8-8.8-1.5-17.1-1.5-18.5 0-2.9-.9-4.1 11.3 15.1zm1094.4-12.5c5.9 2.6 11 4.8 11.2 5 .5.5-6 10.4-6.8 10.4-.3-.1-3.3-3.5-6.6-7.6-8.6-10.8-9.7-12.4-9.2-12.4.3 0 5.4 2.1 11.4 4.6zm-54.4.4c.3 1.1.1 1.8-.4 1.4-.5-.3-.9.3-.9 1.3s-.7 2.8-1.5 4c-.8 1.2-1.3 2.7-1 3.5.5 1.3-3.8 20.4-4.8 21.4-.3.3-2.1-.3-4.1-1.3l-3.6-1.8 6.1-8.8c3.4-4.9 5.9-9 5.7-9.3-.3-.2-2.9 3.1-5.8 7.5-6.7 10.3-6.8 10.4-10.8 7.9l-3.2-2 8.2-8.9c4.6-4.9 9.9-10.7 11.8-12.9 1.9-2.2 3.6-3.9 3.6-4 .1 0 .4.9.7 2zm2.5 17c-1.1 9.6-2.1 17.6-2.2 17.7-.1.1-1.9-.2-4-.8-2.7-.8-3.6-1.5-3.2-2.7.2-.9 1.6-6.9 3.1-13.2 1.6-6.5 3.8-13.2 5.2-15.3 1.3-2.2 2.6-3.7 2.8-3.5.2.1-.6 8.2-1.7 17.8zm16.7 1.6c2.3 18 2.4 17.4-3 17.4-2.5 0-4.5-.3-4.5-.8 0-.4 1.1-6.7 2.5-14.1 1.4-7.4 2.5-13.9 2.5-14.4 0-.6.2-.8.5-.5.3.3 1.2 5.9 2 12.4z"></path></svg>