<?xml version="1.0" standalone="no"?>
<!DOCTYPE svg PUBLIC "-//W3C//DTD SVG 20010904//EN"
 "http://www.w3.org/TR/2001/REC-SVG-20010904/DTD/svg10.dtd">
<svg version="1.0" xmlns="http://www.w3.org/2000/svg"
 width="1302.000000pt" height="1302.000000pt" viewBox="0 0 1302.000000 1302.000000"
 preserveAspectRatio="xMidYMid meet">
<metadata>
Created by potrace 1.14, written by Peter Selinger 2001-2017
</metadata>
<g transform="translate(0.000000,1302.000000) scale(0.100000,-0.100000)"
fill="#000000" stroke="none">
<path d="M7858 10675 c-2 -2 -55 -6 -118 -9 -264 -14 -301 -34 -306 -171 -3
-100 20 -116 166 -116 111 0 392 15 480 26 133 16 171 19 220 17 289 -11 273
-10 265 -22 -3 -5 -8 -35 -11 -66 -6 -73 -29 -124 -90 -199 -26 -33 -51 -62
-55 -65 -6 -5 -104 -124 -148 -181 -29 -38 -31 -129 -3 -173 3 -6 7 -15 8 -21
3 -16 50 -155 73 -211 11 -29 17 -55 14 -58 -4 -3 0 -6 7 -6 7 0 11 -3 7 -6
-3 -3 3 -29 15 -58 25 -63 87 -253 93 -283 2 -13 6 -26 8 -30 3 -5 7 -31 11
-60 5 -48 2 -59 -35 -130 -41 -77 -178 -344 -288 -558 -31 -60 -59 -111 -63
-113 -5 -2 -8 -10 -8 -17 0 -8 -11 -34 -24 -57 -13 -24 -69 -133 -126 -243
-151 -294 -271 -522 -341 -646 -127 -225 -458 -619 -698 -829 -77 -68 -222
-172 -278 -200 -24 -12 -43 -25 -43 -29 0 -3 -12 -12 -27 -18 -30 -13 -65 -34
-73 -44 -3 -3 -39 -25 -80 -48 -41 -23 -82 -46 -90 -51 -118 -74 -533 -285
-618 -314 -40 -14 -43 -14 -49 2 -3 9 -11 24 -18 32 -6 8 -25 47 -40 85 -16
39 -32 75 -35 80 -4 6 -15 33 -25 60 -10 28 -25 68 -35 90 -9 22 -24 60 -34
85 -18 44 -50 125 -67 165 -4 11 -54 137 -109 280 -56 143 -105 269 -110 280
-14 33 -56 144 -95 250 -20 55 -43 114 -50 130 -7 17 -21 50 -31 75 -10 25
-43 95 -74 155 -31 61 -80 166 -109 235 -29 69 -59 139 -66 155 -8 17 -28 66
-45 110 -17 44 -37 94 -45 110 -7 17 -22 53 -34 82 -11 28 -26 64 -33 80 -6
15 -12 30 -13 33 -1 3 -7 18 -14 34 -42 101 -70 174 -75 191 -5 18 12 30 136
92 183 92 354 157 468 179 14 3 43 9 65 14 22 5 63 11 90 15 28 3 68 8 90 10
22 3 53 16 69 29 26 20 29 29 30 83 0 50 -4 68 -27 102 -30 46 -100 101 -128
101 -10 0 -21 4 -24 10 -4 6 -70 8 -173 5 -176 -4 -194 -6 -362 -28 -107 -15
-116 -16 -184 -17 -37 -1 -139 8 -179 16 -10 2 -48 6 -85 10 -36 3 -75 8 -87
10 -64 13 -456 20 -550 10 -53 -6 -89 -18 -131 -47 -62 -42 -126 -133 -128
-181 -1 -9 -4 -19 -8 -23 -12 -12 2 -79 28 -130 14 -29 46 -67 76 -92 52 -43
276 -163 303 -163 9 0 23 -4 33 -9 62 -34 140 -46 292 -45 69 0 144 3 167 6
44 6 63 -4 63 -33 0 -10 4 -19 9 -21 4 -1 27 -48 51 -103 23 -55 49 -115 57
-132 21 -48 154 -376 157 -388 2 -5 8 -23 14 -38 7 -16 12 -31 12 -34 0 -3 6
-19 14 -36 31 -69 77 -207 87 -263 14 -76 14 -74 27 -107 7 -16 12 -31 12 -34
0 -3 6 -19 14 -36 8 -18 26 -61 40 -96 l25 -63 -128 -131 -129 -130 -79 62
c-43 34 -86 68 -96 76 -9 8 -19 15 -22 15 -4 0 -29 19 -59 45 -23 20 -156 105
-165 105 -5 0 -11 4 -13 8 -6 17 -305 175 -403 213 -224 87 -413 139 -645 175
-105 17 -723 8 -820 -11 -14 -3 -41 -8 -60 -11 -19 -3 -46 -9 -60 -14 -14 -4
-50 -13 -80 -20 -68 -15 -167 -44 -225 -66 -11 -4 -29 -9 -40 -11 -10 -2 -23
-9 -27 -16 -4 -6 -8 -9 -8 -5 0 13 -313 -125 -338 -149 -7 -7 -18 -13 -23 -13
-6 0 -35 -16 -65 -35 -30 -19 -56 -35 -58 -35 -3 0 -37 -23 -78 -50 -40 -28
-81 -56 -91 -63 -134 -90 -389 -330 -487 -457 -19 -25 -40 -49 -46 -55 -23
-20 -190 -259 -208 -297 -3 -7 -19 -35 -35 -63 -87 -149 -231 -477 -247 -564
-3 -13 -9 -31 -13 -40 -9 -17 -46 -170 -56 -231 -3 -19 -8 -42 -10 -50 -6 -19
-17 -103 -20 -155 -2 -22 -4 -40 -5 -40 -3 0 -12 -194 -14 -300 -1 -104 0
-110 19 -108 11 1 74 4 140 8 66 3 132 7 147 9 40 5 46 -4 53 -74 16 -177 44
-330 85 -465 18 -59 79 -234 88 -252 5 -10 38 -76 73 -148 34 -71 66 -132 69
-135 4 -3 9 -13 13 -23 24 -64 276 -407 300 -407 6 0 8 -3 4 -6 -13 -13 224
-233 343 -319 30 -22 57 -42 60 -45 3 -3 14 -10 25 -17 11 -6 57 -35 102 -63
79 -49 246 -137 328 -172 105 -45 328 -118 405 -133 14 -3 36 -7 50 -10 14 -3
36 -8 50 -11 14 -2 48 -9 75 -14 152 -31 623 -34 735 -5 8 2 35 7 60 10 25 3
61 10 80 15 19 5 46 11 60 14 14 2 32 7 40 10 8 3 26 7 40 10 41 7 301 96 324
111 12 8 23 13 26 12 5 -1 185 88 248 123 56 31 207 133 210 141 2 5 10 9 17
9 7 0 15 3 17 8 2 4 26 25 53 47 28 22 52 43 53 47 2 5 8 8 13 8 12 0 234 221
291 290 141 172 271 373 341 530 21 47 45 97 53 112 8 14 14 32 14 40 0 7 7
26 15 42 9 16 17 37 18 45 1 9 6 21 9 27 4 6 9 21 12 35 15 65 75 279 81 288
17 29 70 -5 79 -51 2 -7 8 -26 14 -41 7 -16 12 -33 12 -38 0 -5 12 -33 26 -62
89 -176 230 -301 408 -361 59 -20 127 -28 260 -30 l99 -1 45 -95 c24 -52 45
-99 47 -105 1 -5 8 -23 15 -40 7 -16 25 -62 40 -102 l28 -72 -34 -11 c-33 -11
-84 -63 -91 -92 -1 -7 -9 -37 -17 -66 -9 -30 -14 -77 -13 -105 l2 -52 255 0
255 0 21 40 c11 22 24 54 28 70 8 30 8 196 1 204 -3 2 -26 3 -52 2 -84 -3 -92
-2 -113 16 -11 10 -20 25 -20 35 0 10 -4 18 -10 18 -5 0 -10 6 -10 13 0 7 -10
33 -21 57 -12 24 -22 49 -24 54 -1 6 -7 22 -12 36 -49 120 -101 272 -97 283 4
6 32 35 63 62 64 57 138 141 162 185 9 16 21 35 26 42 17 21 52 131 62 195 14
91 4 261 -20 304 -5 10 -7 19 -5 19 8 0 -45 121 -66 152 -10 14 -18 30 -18 35
0 6 -9 18 -20 28 -11 10 -20 23 -20 29 0 7 27 45 61 86 33 41 74 92 91 112 16
20 37 46 46 57 10 10 35 40 57 67 22 26 52 61 67 78 14 17 55 65 89 106 34 41
65 77 68 80 3 3 29 32 56 65 28 33 60 71 72 85 12 14 31 36 43 50 11 14 38 45
59 70 35 40 125 146 192 224 13 15 33 38 44 50 11 12 38 44 60 71 22 26 55 64
73 82 17 19 32 37 32 39 0 2 8 12 18 22 9 10 37 42 62 72 25 29 50 58 56 64 5
6 52 61 104 121 51 61 101 117 109 126 9 9 34 38 56 64 84 102 118 140 126
143 5 2 9 8 9 13 0 5 8 17 18 27 9 10 36 40 59 67 23 28 55 66 71 85 16 19 85
100 152 180 67 80 132 156 144 170 19 22 100 120 220 265 76 92 108 125 116
120 4 -3 11 -17 15 -32 3 -16 12 -41 19 -58 8 -16 25 -61 39 -100 14 -38 37
-102 51 -141 15 -39 24 -78 21 -87 -4 -8 -21 -22 -38 -31 -18 -8 -42 -24 -54
-35 -12 -12 -25 -21 -28 -21 -4 0 -28 -17 -53 -37 -26 -21 -51 -41 -57 -46
-136 -103 -428 -395 -510 -511 -11 -16 -25 -34 -31 -40 -21 -22 -134 -203
-134 -214 0 -6 -4 -12 -9 -14 -8 -3 -130 -244 -158 -314 -18 -43 -65 -167 -68
-179 -1 -5 -5 -17 -8 -25 -27 -67 -95 -346 -112 -460 -22 -149 -40 -475 -26
-504 2 -4 5 -36 7 -70 2 -33 6 -81 9 -106 3 -25 8 -69 11 -99 7 -65 26 -127
40 -125 5 1 27 5 49 8 22 3 51 8 65 11 74 16 117 16 132 2 13 -13 38 -93 53
-168 7 -37 68 -215 76 -223 5 -6 9 -17 9 -25 0 -36 207 -430 231 -439 5 -2 9
-9 9 -15 0 -11 24 -45 110 -157 86 -113 399 -427 400 -401 0 3 4 1 8 -5 4 -6
34 -30 67 -55 33 -24 62 -47 63 -51 2 -5 8 -8 14 -8 6 0 26 -11 44 -25 18 -14
35 -25 38 -25 3 0 24 -13 48 -29 85 -57 405 -203 493 -225 6 -2 17 -6 25 -9
13 -5 106 -31 150 -41 8 -2 33 -9 55 -14 41 -11 101 -22 145 -27 14 -2 43 -6
65 -9 182 -27 468 -27 650 -1 17 2 46 6 65 9 43 6 72 12 181 36 84 19 102 24
137 37 9 3 22 7 29 9 31 6 89 28 101 37 6 5 12 7 12 4 0 -7 140 51 158 65 6 6
12 8 12 4 0 -8 158 76 255 135 112 69 109 67 204 137 212 156 394 346 554 579
65 95 179 293 169 293 -4 0 -2 4 4 8 13 9 87 178 120 275 40 116 96 328 95
362 0 2 4 19 9 35 37 128 33 698 -6 860 -6 24 -9 40 -18 94 -7 40 -59 221 -65
226 -3 3 -7 14 -8 25 -1 11 -8 36 -17 55 -8 19 -14 37 -15 40 -1 19 -128 281
-162 335 -10 17 -22 37 -26 45 -8 18 -124 193 -132 200 -3 3 -31 37 -62 75
-185 232 -387 410 -629 558 -156 95 -174 108 -163 116 5 3 32 55 61 114 39 80
50 112 42 122 -15 18 -300 134 -370 150 -8 2 -50 13 -92 25 -43 11 -85 23 -95
25 -10 2 -52 11 -93 20 -41 9 -86 18 -100 20 -79 11 -117 16 -135 20 -112 23
-519 22 -675 -1 -19 -3 -48 -7 -65 -9 -16 -2 -30 -4 -30 -5 0 -1 -16 -3 -35
-5 -19 -3 -42 -6 -50 -8 -8 -2 -42 -9 -75 -16 -33 -7 -89 -21 -123 -32 -35
-10 -68 -17 -72 -14 -5 3 -11 1 -14 -4 -3 -5 -38 -17 -77 -26 -70 -17 -72 -17
-83 1 -12 20 -94 267 -91 272 10 13 91 19 385 27 118 4 226 7 240 9 14 1 33
-2 42 -6 9 -5 19 -4 22 0 2 4 42 9 88 11 46 1 112 4 148 6 145 9 237 16 270
19 172 19 215 24 215 26 0 1 14 4 30 6 68 11 104 25 110 43 12 39 21 97 30
206 6 63 11 113 21 193 3 26 8 63 10 82 2 19 6 55 10 80 3 25 7 62 9 84 3 35
10 88 20 156 2 14 7 48 10 75 3 28 8 70 11 94 3 24 7 57 9 75 2 17 6 51 9 76
3 25 8 65 11 90 2 25 7 70 11 100 3 30 8 66 9 80 2 14 4 25 4 25 1 0 4 27 6
59 2 33 6 73 9 90 13 85 17 184 7 191 -11 6 -247 7 -381 0 -41 -2 -138 -7
-215 -10 -166 -8 -255 -13 -350 -20 -38 -3 -114 -7 -168 -10 -54 -3 -123 -7
-155 -10 -58 -5 -187 -13 -322 -20 -41 -2 -118 -7 -170 -10 -52 -3 -144 -8
-203 -10 -59 -3 -112 -7 -117 -10 -5 -3 -7 -14 -5 -25 2 -11 5 -55 7 -97 l3
-78 -70 -29 c-74 -31 -220 -85 -245 -91 -8 -2 -60 -19 -115 -38 -55 -19 -104
-33 -108 -30 -12 7 -92 172 -141 293 -75 180 -91 255 -63 291 7 9 53 37 102
62 50 25 100 56 111 68 12 13 34 55 49 93 16 39 44 99 63 135 51 96 85 164 90
181 16 63 -3 135 -45 170 -57 48 -214 90 -350 94 -24 0 -43 4 -43 7 0 6 -556
9 -562 4z m1256 -1426 c12 -51 24 -115 30 -149 3 -19 8 -46 11 -60 3 -14 8
-41 11 -60 8 -54 11 -72 18 -110 3 -19 8 -48 11 -65 8 -47 34 -192 42 -233 19
-101 -11 -296 -63 -417 -10 -22 -18 -42 -19 -45 -1 -3 -5 -18 -10 -33 -4 -15
-12 -26 -18 -24 -8 2 -52 96 -66 142 -1 6 -9 25 -17 44 -8 18 -14 36 -14 40 0
3 -13 40 -29 81 -16 41 -48 125 -71 185 -22 61 -47 126 -55 145 -25 63 -157
424 -166 453 -7 25 -5 29 19 38 15 6 32 12 37 13 17 3 148 47 170 56 16 7 110
35 150 45 12 3 22 -13 29 -46z m-426 -781 c77 -195 140 -360 160 -420 l15 -48
-84 -102 c-46 -57 -93 -114 -105 -128 -12 -14 -88 -104 -168 -200 -81 -96
-163 -193 -181 -215 -19 -22 -44 -51 -56 -65 -11 -14 -30 -36 -42 -50 -22 -25
-168 -196 -217 -254 -14 -17 -43 -50 -65 -75 -22 -25 -43 -50 -48 -56 -4 -5
-17 -21 -30 -35 -12 -14 -42 -50 -67 -79 -25 -29 -54 -63 -65 -75 -11 -12 -40
-46 -65 -76 -25 -29 -49 -58 -55 -64 -5 -6 -37 -43 -70 -81 -33 -39 -64 -75
-70 -81 -5 -6 -21 -24 -34 -40 -38 -46 -135 -158 -141 -164 -3 -3 -62 -70
-130 -150 -69 -80 -129 -150 -135 -156 -5 -6 -32 -37 -60 -69 -27 -32 -54 -63
-60 -69 -5 -6 -35 -40 -65 -76 -30 -36 -57 -67 -60 -70 -3 -3 -30 -34 -60 -70
-30 -36 -58 -67 -61 -70 -3 -3 -65 -77 -138 -165 -73 -88 -146 -174 -163 -192
l-29 -32 -62 23 c-34 13 -78 26 -97 30 -19 3 -46 8 -59 11 -13 2 -63 7 -110
10 -47 4 -92 8 -99 10 -12 4 -155 285 -145 285 4 0 -2 8 -11 19 -16 18 -14 20
76 64 464 226 589 286 595 286 3 0 9 3 12 8 3 6 35 26 71 45 36 20 81 45 100
57 19 11 42 24 50 28 35 17 175 107 178 114 2 5 8 9 13 9 10 0 103 62 107 73
2 4 10 7 17 7 7 0 15 3 17 8 2 4 48 43 103 87 89 71 257 231 310 296 108 131
139 172 236 311 43 62 83 118 89 125 5 7 10 15 10 18 0 4 14 26 30 50 17 24
30 48 30 54 0 6 5 11 10 11 6 0 10 4 10 10 0 5 14 32 30 59 32 51 70 121 141
256 23 44 63 121 89 170 26 50 96 187 156 305 60 118 112 217 117 218 4 2 7
11 7 21 0 9 4 21 10 27 5 5 43 77 85 159 87 169 165 315 170 315 2 0 30 -69
63 -152z m645 -340 c16 -55 30 -115 33 -133 0 -5 4 -17 7 -25 3 -8 12 -40 21
-70 8 -30 28 -95 43 -145 15 -49 28 -93 29 -97 1 -5 3 -10 4 -13 1 -3 3 -8 4
-12 1 -5 4 -13 8 -18 3 -6 9 -27 13 -47 l7 -38 -73 -35 c-40 -19 -79 -35 -85
-35 -7 0 -26 37 -44 83 -17 45 -36 91 -40 102 -16 38 -69 190 -75 215 -4 16 2
44 16 75 12 28 23 52 24 55 5 15 19 49 31 77 8 17 14 33 14 36 0 15 32 77 39
77 5 0 16 -24 24 -52z m1437 -1032 c118 -13 147 -17 200 -26 147 -24 147 -24
124 -102 -3 -10 -7 -28 -9 -40 -3 -13 -23 -86 -45 -163 -23 -77 -43 -148 -45
-158 -5 -23 -134 -465 -145 -497 -14 -45 -54 -175 -56 -187 -3 -15 -42 -147
-54 -183 -7 -21 -36 -119 -46 -155 -1 -5 -12 -41 -24 -80 -12 -38 -22 -74 -24
-80 -15 -56 -52 -165 -57 -165 -5 0 -36 100 -43 141 -1 8 -5 23 -9 34 -3 11
-8 31 -11 45 -3 14 -10 42 -15 63 -5 20 -7 37 -4 37 3 0 1 6 -4 13 -9 11 -17
42 -29 107 -2 14 -8 42 -14 63 -5 20 -14 54 -20 75 -14 56 -68 283 -75 317 -3
17 -7 35 -9 40 -8 29 -16 63 -20 88 -3 16 -10 43 -15 60 -10 32 -18 66 -27
122 -3 17 -8 37 -11 45 -5 13 -11 39 -29 120 -9 42 -44 193 -55 235 -5 22 -11
51 -13 65 -1 14 -5 31 -9 37 -4 6 -9 31 -11 56 -5 43 -3 46 22 51 57 13 79 16
152 22 41 3 76 7 77 8 5 5 299 -2 353 -8z m-710 -121 c15 -64 20 -84 26 -115
3 -14 7 -33 10 -42 7 -23 15 -59 19 -83 2 -11 4 -20 5 -20 2 0 4 -9 5 -20 2
-11 11 -49 20 -85 9 -36 18 -74 20 -85 3 -17 18 -79 56 -230 5 -22 11 -49 13
-60 2 -11 11 -47 19 -80 9 -33 18 -71 21 -85 3 -14 9 -40 15 -57 5 -18 8 -33
5 -33 -3 0 0 -8 5 -17 5 -10 11 -31 14 -48 12 -66 18 -91 23 -105 3 -8 8 -26
11 -40 2 -14 18 -79 34 -145 17 -66 32 -131 35 -145 3 -14 7 -33 10 -42 3 -9
7 -25 9 -35 2 -10 13 -53 23 -95 19 -76 19 -78 1 -78 -11 0 -19 3 -19 8 0 8
-45 58 -174 193 -96 100 -180 195 -205 232 -8 12 -18 24 -21 27 -31 26 -203
342 -215 394 -2 12 -11 38 -26 73 -5 13 -27 78 -49 145 -23 68 -45 132 -50
143 -10 25 -70 218 -70 227 0 6 104 60 120 63 16 3 78 34 83 41 2 5 -6 45 -19
89 -15 53 -20 83 -13 91 12 14 94 50 135 59 84 19 100 21 105 16 4 -3 12 -28
19 -56z m1367 -55 c120 -58 216 -112 329 -187 31 -21 65 -42 75 -48 11 -5 19
-13 19 -17 0 -3 16 -16 35 -28 56 -35 145 -122 145 -142 0 -20 -182 -205 -449
-458 -84 -80 -186 -176 -226 -215 -41 -38 -127 -120 -192 -181 -65 -61 -146
-138 -180 -170 -34 -33 -99 -93 -144 -134 -142 -131 -139 -128 -134 -100 2 11
9 35 15 53 12 36 98 324 104 348 3 9 14 49 26 89 12 40 23 80 25 89 2 9 12 43
23 76 19 58 44 145 44 155 0 3 6 21 13 40 8 19 46 145 85 280 40 135 83 283
97 330 14 47 26 90 27 95 2 6 6 17 9 25 3 8 13 41 22 72 22 72 45 98 82 92 16
-3 83 -31 150 -64z m-1727 -56 c0 -28 -34 -53 -83 -61 -31 -5 -35 -3 -41 22
-9 35 13 60 62 73 43 10 62 0 62 -34z m-4680 -219 c50 -132 98 -255 106 -273
9 -18 17 -40 19 -50 4 -17 74 -189 102 -251 8 -18 16 -39 17 -45 1 -6 10 -29
20 -51 10 -22 27 -62 38 -90 10 -27 31 -77 45 -110 47 -111 51 -120 78 -185
29 -69 57 -133 83 -190 9 -19 17 -37 17 -40 1 -10 69 -145 75 -150 4 -3 9 -13
13 -22 7 -21 -1 -22 -83 -19 -30 2 -63 9 -74 17 -11 8 -17 14 -13 14 4 0 3 9
-3 20 -6 10 -12 32 -14 47 -2 15 -13 69 -25 118 -13 50 -24 97 -26 105 -11 49
-83 248 -122 340 -32 74 -143 292 -162 319 -12 16 -21 31 -21 34 0 10 -123
192 -132 195 -4 2 -8 8 -8 14 0 8 -87 121 -137 178 -121 138 -114 128 -101
150 7 11 16 20 20 20 4 0 22 15 40 33 64 64 142 127 149 119 4 -4 49 -115 99
-247z m-1995 231 c17 -3 46 -7 65 -10 119 -16 206 -39 203 -53 -1 -6 -5 -26
-8 -45 -3 -18 -13 -57 -22 -87 -8 -29 -16 -59 -17 -65 -1 -6 -4 -15 -7 -21 -5
-8 -30 -99 -34 -125 0 -3 -8 -27 -18 -55 -9 -27 -18 -59 -20 -70 -2 -11 -13
-54 -26 -95 -60 -199 -112 -374 -115 -392 -2 -7 -6 -20 -9 -28 -3 -8 -22 -69
-41 -135 -19 -66 -47 -158 -61 -205 -15 -47 -28 -89 -29 -95 -8 -32 -30 -105
-41 -140 -7 -22 -26 -80 -41 -130 -29 -95 -30 -95 -48 -15 -2 8 -9 35 -16 60
-7 25 -13 52 -15 60 -2 8 -20 80 -40 160 -20 80 -38 152 -40 160 -2 8 -9 38
-15 65 -6 28 -13 58 -15 68 -2 10 -7 27 -10 37 -3 10 -8 29 -11 42 -9 38 -12
53 -14 53 -1 0 -3 11 -5 25 -2 14 -18 81 -35 150 -18 69 -33 134 -35 145 -4
19 -18 85 -29 130 -3 11 -21 90 -41 175 -21 85 -39 166 -42 180 -2 13 -13 62
-24 107 -10 46 -19 90 -19 99 0 16 35 32 84 38 17 2 56 7 86 11 30 4 56 8 58
10 6 5 414 -3 447 -9z m-793 -85 c-1 -7 2 -20 7 -30 6 -10 13 -31 15 -47 3
-16 10 -44 15 -61 5 -18 7 -33 5 -33 -3 0 -2 -6 3 -12 4 -7 8 -15 8 -18 5 -30
28 -131 35 -150 4 -14 22 -88 40 -165 17 -77 34 -147 37 -155 8 -20 13 -41 28
-113 3 -15 24 -103 46 -195 76 -319 100 -419 139 -592 53 -231 61 -223 -81
-79 -124 126 -205 211 -453 473 -72 77 -158 167 -191 201 -33 34 -115 120
-181 191 -67 71 -163 172 -213 224 -50 52 -91 100 -91 105 0 12 68 72 167 146
86 65 247 163 343 209 36 17 73 35 82 40 10 6 23 10 29 10 6 0 25 7 42 14 51
24 151 56 162 52 6 -2 9 -9 7 -15z m1243 -25 c143 -47 390 -184 550 -305 82
-62 83 -63 111 -91 l25 -25 -454 -450 c-680 -674 -791 -779 -772 -722 5 15 93
319 107 367 5 19 12 42 15 50 3 8 7 20 9 27 3 19 85 296 91 313 3 8 7 20 8 25
3 10 57 190 147 485 27 91 59 197 70 235 11 39 24 75 29 81 5 6 5 14 1 19 -6
7 32 1 63 -9z m5916 -141 c13 -33 23 -63 21 -67 -1 -5 3 -8 8 -8 6 0 10 -6 10
-14 0 -7 14 -44 31 -82 16 -38 37 -85 46 -104 8 -19 23 -52 34 -72 10 -21 17
-38 15 -38 -2 0 4 -17 14 -37 10 -21 17 -40 15 -41 -4 -5 -107 100 -235 237
-52 57 -112 121 -133 143 -38 39 -38 40 -20 60 10 11 47 43 82 69 73 56 70 58
112 -46z m-15 -412 c199 -210 320 -343 370 -403 16 -19 34 -39 41 -43 7 -4 13
-15 13 -22 0 -8 4 -15 9 -15 6 0 34 -33 65 -72 30 -40 77 -98 105 -128 28 -30
50 -58 51 -61 0 -4 15 -22 33 -41 31 -32 125 -138 166 -188 12 -14 31 -36 44
-49 l22 -24 -30 7 c-16 3 -41 9 -55 11 -14 3 -41 11 -60 17 -19 7 -38 13 -42
14 -5 1 -9 2 -10 4 -2 1 -10 3 -19 5 -16 3 -107 30 -212 62 -26 8 -53 16 -60
17 -7 2 -37 10 -67 20 -75 24 -222 67 -240 71 -8 2 -51 14 -95 28 -164 50
-200 61 -207 63 -5 1 -9 2 -10 4 -2 1 -10 3 -18 5 -8 2 -46 13 -85 25 -38 12
-92 28 -120 36 -27 8 -57 16 -65 19 -8 2 -38 10 -65 18 -28 8 -62 20 -75 27
-14 7 -25 12 -25 9 0 -2 -37 7 -82 21 -92 27 -92 26 -52 117 11 23 19 44 19
48 0 12 45 101 54 107 6 4 8 8 4 8 -8 0 55 115 115 210 71 111 148 211 226
293 l75 78 80 -85 c45 -46 136 -142 202 -213z m2838 96 c35 -45 164 -244 190
-293 14 -27 30 -54 34 -60 7 -9 32 -68 84 -196 6 -14 17 -37 25 -52 7 -15 14
-31 13 -35 0 -5 7 -30 16 -56 17 -52 13 -63 -26 -71 -14 -3 -90 -21 -170 -41
-172 -42 -385 -93 -420 -101 -34 -7 -54 -12 -60 -14 -3 -1 -8 -2 -12 -1 -4 0
-19 -4 -33 -9 -14 -5 -36 -12 -48 -14 -12 -2 -53 -12 -92 -21 -38 -9 -79 -18
-90 -20 -11 -1 -27 -5 -35 -8 -15 -5 -137 -35 -176 -42 -10 -2 -19 -4 -19 -5
0 -2 -11 -4 -55 -13 -14 -3 -45 -10 -70 -16 -25 -5 -56 -12 -70 -15 -14 -3
-63 -15 -110 -26 -95 -22 -254 -59 -285 -65 -20 -4 116 131 405 405 85 80 175
165 201 190 73 70 319 303 369 350 145 135 267 250 303 288 l42 44 35 -40 c19
-21 43 -50 54 -63z m-10706 -256 c104 -109 212 -221 239 -249 26 -28 112 -118
190 -200 77 -82 164 -174 193 -204 28 -30 111 -118 184 -195 234 -246 259
-275 235 -275 -6 0 -142 39 -303 86 -160 47 -316 93 -346 101 -30 8 -62 18
-70 21 -19 7 -17 6 -70 21 -59 17 -141 41 -160 48 -8 4 -20 7 -26 8 -23 5
-129 36 -144 42 -8 3 -19 7 -25 8 -5 2 -72 21 -147 44 -75 23 -144 41 -152 41
-9 0 -16 4 -16 8 0 4 -9 8 -19 9 -11 1 -39 8 -63 16 -23 8 -76 25 -116 37 -80
25 -80 25 -50 97 6 15 12 33 14 40 1 6 34 76 74 155 65 130 178 314 215 352 8
8 15 17 15 20 0 3 8 14 18 24 9 10 29 34 44 53 47 61 73 88 84 88 6 1 97 -88
202 -196z m2866 72 c150 -177 373 -600 390 -741 4 -32 2 -37 -29 -49 -18 -8
-47 -17 -65 -20 -18 -3 -41 -10 -50 -15 -10 -5 -20 -7 -23 -4 -3 3 -22 1 -43
-5 -35 -9 -66 -14 -151 -26 -15 -2 -41 -6 -58 -9 -27 -4 -74 -10 -190 -21 -22
-2 -67 -7 -100 -10 -33 -4 -80 -8 -105 -10 -84 -6 -185 -16 -245 -25 -33 -4
-63 -6 -67 -3 -5 2 -8 1 -8 -4 0 -4 -21 -9 -48 -9 -46 -1 -84 -5 -187 -20 -27
-3 -63 -8 -80 -10 -16 -1 -30 -3 -30 -4 0 -1 -20 -3 -45 -5 l-45 -4 135 132
c75 73 203 196 285 273 83 78 177 168 210 199 33 31 111 105 174 163 62 59
157 149 210 199 53 51 99 93 103 93 4 0 31 -29 62 -65z m4233 -576 c15 -6 37
-13 48 -15 11 -2 74 -20 140 -39 66 -20 158 -47 205 -61 47 -14 121 -36 165
-49 44 -14 157 -47 250 -76 94 -28 193 -58 220 -66 28 -8 55 -16 60 -17 15 -3
188 -56 205 -63 8 -3 20 -7 27 -9 12 -2 153 -45 318 -96 l100 -31 -45 -14
c-25 -7 -54 -15 -65 -18 -11 -2 -31 -7 -45 -10 -14 -4 -32 -8 -40 -9 -9 -1
-20 -5 -25 -8 -6 -3 -28 -9 -50 -13 -51 -10 -48 -10 -125 -30 -36 -9 -72 -18
-80 -20 -8 -2 -91 -22 -184 -44 -93 -23 -178 -43 -190 -46 -12 -2 -59 -14
-106 -26 -47 -11 -92 -22 -100 -24 -26 -6 -234 -55 -260 -62 -14 -4 -32 -8
-40 -9 -8 -2 -71 -17 -140 -34 -69 -17 -136 -33 -150 -36 -25 -5 -131 -31
-160 -39 -36 -11 -52 26 -67 155 -14 120 -5 593 12 620 2 3 6 26 10 50 4 25 8
50 9 57 1 7 5 16 9 19 4 4 7 15 7 25 0 21 26 49 45 49 8 0 26 -5 42 -11z
m4028 -184 c16 -93 20 -150 20 -340 0 -226 -8 -335 -31 -435 -3 -14 -8 -36
-11 -50 -2 -14 -10 -31 -18 -39 -14 -14 -53 -6 -260 55 -27 8 -57 17 -65 19
-8 2 -15 4 -15 5 0 1 -7 3 -15 5 -14 3 -133 38 -365 107 -55 16 -115 34 -134
40 -18 5 -41 11 -50 13 -9 2 -35 10 -58 19 -24 8 -43 13 -43 10 0 -3 -6 -2
-12 3 -7 4 -17 8 -23 9 -5 1 -29 9 -53 18 -23 8 -46 15 -50 16 -4 0 -32 8 -62
17 -30 9 -59 18 -65 19 -16 4 -127 38 -275 84 -74 22 -143 43 -152 45 -9 2
-25 8 -36 14 -11 6 -22 8 -26 6 -3 -3 -3 0 2 5 7 9 73 29 144 44 12 3 41 10
63 16 71 19 80 21 105 26 14 3 61 14 105 25 44 12 88 23 98 25 10 2 27 6 37 9
10 3 28 8 39 10 12 3 30 7 41 10 11 3 28 7 38 9 9 3 46 12 82 21 36 9 74 18
85 19 11 2 21 5 23 6 2 3 6 4 57 14 22 4 54 11 70 16 23 7 130 33 188 46 4 1
8 2 10 4 1 1 9 3 18 5 14 2 127 28 179 40 8 2 40 10 70 19 30 8 69 17 85 20
37 6 54 10 130 29 99 26 109 25 117 -3 4 -14 10 -38 13 -55z m-11771 -50 c22
-5 84 -24 106 -32 8 -3 20 -7 25 -8 6 -2 44 -13 85 -25 41 -12 80 -23 85 -25
6 -1 17 -4 25 -7 21 -8 133 -41 145 -44 6 -1 64 -18 130 -38 105 -32 167 -51
290 -86 85 -24 282 -81 293 -85 7 -3 16 -5 20 -6 4 -1 31 -10 61 -20 29 -10
57 -16 61 -14 5 3 11 1 14 -4 3 -4 20 -12 38 -16 18 -4 35 -9 38 -10 3 0 39
-12 80 -24 41 -13 100 -31 130 -41 l55 -17 -45 -13 c-25 -7 -52 -14 -60 -16
-8 -1 -53 -12 -100 -24 -47 -12 -104 -25 -128 -30 -24 -6 -47 -12 -51 -15 -5
-2 -23 -7 -42 -9 -19 -3 -68 -14 -109 -26 -41 -11 -91 -23 -110 -26 -19 -3
-43 -10 -52 -15 -10 -5 -18 -7 -18 -5 0 3 -11 1 -26 -4 -14 -6 -39 -12 -57
-15 -18 -4 -68 -15 -112 -26 -44 -10 -90 -21 -102 -24 -26 -6 -23 -5 -168 -40
-239 -57 -493 -118 -541 -130 -29 -7 -56 -10 -62 -6 -30 19 -57 449 -38 596 2
17 7 55 10 85 3 30 8 66 11 80 4 14 8 34 10 45 2 11 6 27 8 35 2 8 7 36 11 62
l8 46 31 -10 c18 -5 41 -11 51 -13z m9490 -430 c-4 -10 -184 -185 -344 -335
-25 -23 -112 -106 -194 -183 -328 -313 -627 -593 -720 -678 -27 -24 -56 -52
-65 -61 -32 -36 -42 -30 -124 82 -26 36 -54 72 -60 80 -75 93 -205 344 -270
520 -57 155 -56 162 49 185 10 2 73 18 139 35 66 17 132 33 147 35 15 3 37 9
50 14 13 5 26 9 31 9 4 0 20 3 35 6 15 4 36 8 47 10 11 2 97 23 190 46 94 22
179 43 190 44 11 2 52 12 90 21 39 9 81 19 95 21 14 3 50 11 80 19 90 24 233
56 269 61 18 2 37 7 42 10 5 3 17 7 28 9 10 2 63 13 117 25 55 12 110 24 124
26 13 3 26 6 27 8 9 8 30 1 27 -9z m499 -7 c9 -5 17 -6 17 -3 0 3 16 -1 35 -9
20 -9 36 -15 38 -15 1 1 22 -4 47 -11 25 -7 53 -14 62 -15 10 -2 23 -7 28 -10
5 -3 18 -8 27 -10 10 -2 65 -18 123 -35 58 -17 110 -32 115 -34 6 -1 37 -11
70 -21 33 -10 65 -19 70 -21 6 -1 37 -10 70 -20 33 -10 65 -19 72 -20 7 -1 41
-11 75 -22 108 -34 212 -66 228 -68 8 -2 83 -24 165 -49 83 -25 157 -48 165
-50 31 -8 256 -76 270 -82 8 -3 18 -5 23 -5 25 6 -17 -115 -101 -288 -83 -173
-210 -362 -325 -485 l-57 -60 -167 171 c-93 93 -249 255 -348 358 -99 104
-209 219 -243 255 -217 225 -467 492 -517 549 l-19 23 29 -7 c17 -4 38 -11 48
-16z m-408 -110 c-2 -18 -32 -125 -65 -238 -34 -113 -62 -209 -64 -215 -1 -5
-9 -35 -19 -65 -29 -98 -69 -235 -71 -245 -2 -5 -13 -43 -25 -84 -13 -41 -24
-81 -27 -90 -2 -9 -15 -54 -30 -101 -14 -47 -27 -89 -28 -95 -10 -42 -29 -102
-34 -110 -4 -5 -7 -14 -7 -20 0 -5 -9 -37 -19 -70 -11 -33 -20 -64 -21 -70
-17 -77 -106 -343 -119 -354 -23 -20 -382 150 -521 247 -44 30 -82 58 -85 61
-3 3 -32 26 -64 51 -80 60 -156 130 -156 141 0 10 147 158 302 304 46 44 159
150 249 236 206 196 229 218 379 359 68 63 140 131 160 150 20 19 81 76 135
125 53 50 102 95 109 102 19 21 26 14 21 -19z m336 -43 c10 -11 73 -77 141
-146 142 -145 390 -405 638 -668 63 -68 153 -162 198 -209 46 -48 112 -116
146 -152 35 -36 66 -70 69 -77 14 -24 -177 -186 -288 -243 -5 -3 -28 -17 -50
-30 -22 -14 -42 -23 -44 -22 -2 2 -7 -1 -10 -6 -11 -16 -225 -115 -339 -156
-88 -31 -108 -32 -122 -6 -6 11 -8 20 -5 20 4 0 3 6 -2 13 -4 6 -8 14 -8 17
-1 3 -7 32 -15 65 -7 33 -14 65 -16 70 -1 6 -7 30 -14 55 -7 25 -14 53 -16 62
-2 10 -6 26 -8 36 -3 9 -16 67 -30 128 -14 61 -39 164 -55 230 -17 65 -32 130
-35 144 -2 14 -16 72 -29 130 -32 132 -76 318 -82 348 -3 12 -7 30 -9 40 -2 9
-9 40 -16 67 -6 28 -15 66 -20 85 -15 55 -52 222 -57 255 l-5 30 33 -30 c18
-16 41 -39 50 -50z m-192 13 c5 -18 19 -71 31 -118 11 -47 23 -93 25 -102 3
-10 7 -27 9 -38 3 -11 12 -48 21 -83 9 -34 19 -73 21 -87 3 -14 17 -70 30
-125 14 -55 27 -107 29 -115 3 -17 50 -212 95 -400 17 -69 32 -134 34 -145 2
-11 18 -76 35 -145 17 -69 33 -136 35 -150 2 -14 5 -25 6 -25 2 0 8 -23 15
-60 3 -16 7 -40 10 -52 3 -13 6 -25 6 -28 0 -2 7 -28 15 -57 7 -29 14 -54 14
-54 0 -3 -56 -16 -90 -20 -19 -2 -46 -7 -60 -9 -122 -23 -489 -23 -630 0 -14
2 -38 6 -55 9 -16 2 -55 13 -85 23 -63 21 -64 25 -35 118 10 33 20 67 22 75 1
8 28 98 58 200 56 187 62 206 69 238 3 14 39 139 52 180 2 7 4 14 4 17 0 3 7
23 15 45 8 22 12 40 8 40 -3 0 -1 6 5 13 6 7 13 25 16 40 3 16 16 63 30 105
25 78 44 149 47 167 0 6 5 16 11 23 6 6 8 12 5 12 -3 0 5 30 17 68 13 37 23
69 23 72 0 3 8 32 18 65 10 33 19 65 21 70 1 6 15 51 30 100 15 50 32 107 37
128 14 46 22 47 36 5z m-8236 -245 c-178 -175 -383 -372 -597 -574 -49 -46
-113 -107 -143 -135 -50 -47 -145 -137 -313 -293 -36 -34 -70 -61 -77 -61 -13
0 -85 96 -168 223 -74 114 -177 316 -190 372 -2 6 -12 31 -23 55 -19 43 -35
90 -51 156 -10 36 -6 38 144 74 50 12 97 24 105 26 56 14 189 46 210 50 13 3
96 23 185 44 310 76 510 123 530 126 11 1 20 3 20 4 0 1 7 3 15 5 148 34 250
57 270 61 14 3 43 10 65 16 22 6 56 13 75 15 19 3 42 8 53 12 10 4 32 8 50 9
28 2 15 -14 -160 -185z m817 121 c27 -6 53 -12 85 -18 29 -6 157 -41 282 -77
59 -17 113 -32 118 -34 6 -1 30 -8 55 -15 25 -8 47 -14 50 -15 3 -1 25 -7 50
-14 25 -7 52 -15 60 -16 8 -2 16 -4 18 -4 1 -1 4 -1 7 -1 2 -1 20 -7 40 -16
19 -8 38 -14 42 -14 10 -1 142 -39 163 -47 8 -3 21 -8 28 -10 6 -1 18 -5 25
-6 6 -2 19 -7 27 -10 13 -4 30 -9 80 -22 3 0 37 -11 75 -23 39 -12 80 -24 92
-26 12 -3 32 -10 45 -17 13 -7 25 -12 28 -12 7 1 16 -2 85 -22 33 -10 64 -18
70 -20 5 -1 17 -5 25 -8 8 -3 32 -11 53 -17 20 -6 37 -15 37 -19 0 -10 -19
-70 -30 -96 -13 -29 -39 -95 -40 -100 -2 -12 -97 -185 -127 -232 -18 -29 -33
-56 -32 -59 0 -4 -3 -10 -8 -13 -4 -3 -31 -38 -59 -77 -68 -93 -77 -105 -160
-192 l-71 -75 -64 67 c-79 83 -127 134 -299 316 -74 79 -178 188 -230 243 -52
55 -115 121 -140 147 -113 119 -379 397 -412 431 -21 21 -38 43 -38 49 0 5 -5
10 -10 10 -14 0 -59 52 -60 68 0 10 14 12 58 7 31 -3 68 -8 82 -11z m25 -338
c77 -81 169 -178 205 -215 36 -38 117 -124 181 -192 64 -68 145 -154 180 -191
35 -36 129 -135 209 -219 80 -84 166 -173 192 -198 l46 -47 -41 -36 c-160
-139 -455 -300 -705 -385 -152 -52 -142 -55 -167 47 -20 82 -24 100 -30 125
-5 21 -23 98 -25 102 -6 20 -14 51 -44 178 -20 83 -39 164 -42 180 -3 17 -15
64 -25 105 -11 41 -21 84 -23 95 -2 11 -18 79 -36 150 -17 72 -34 139 -36 150
-3 11 -6 25 -8 30 -1 6 -9 37 -16 70 -17 74 -17 74 -20 78 -1 1 -4 15 -6 31
-3 16 -14 66 -25 110 -12 45 -24 99 -29 121 -5 22 -18 78 -29 125 -12 47 -21
91 -21 97 0 14 111 -95 315 -311z m-595 177 c-17 -65 -35 -129 -40 -143 -5
-14 -12 -36 -14 -50 -3 -14 -16 -63 -31 -110 -14 -47 -27 -94 -29 -105 -2 -11
-12 -42 -21 -69 -9 -26 -19 -57 -21 -67 -2 -11 -6 -27 -8 -36 -5 -21 -90 -309
-111 -373 -7 -25 -25 -83 -39 -130 -14 -47 -48 -161 -76 -255 -28 -93 -53
-174 -54 -180 -2 -5 -6 -17 -9 -25 -3 -8 -11 -32 -17 -52 -6 -21 -16 -38 -22
-38 -19 0 -218 83 -218 90 0 4 -10 10 -22 14 -73 18 -340 203 -491 339 l-76
68 142 139 c78 76 169 165 203 197 159 151 401 381 429 408 18 17 97 91 175
165 203 192 211 199 277 258 70 61 97 82 101 77 2 -2 -10 -57 -28 -122z m184
43 c4 -21 9 -43 13 -49 4 -6 8 -20 9 -32 1 -11 21 -94 44 -185 41 -162 46
-185 54 -225 2 -11 18 -76 35 -145 17 -69 33 -134 35 -145 2 -11 7 -27 10 -35
3 -8 8 -26 10 -40 3 -14 17 -74 31 -135 33 -138 34 -146 39 -170 3 -11 27
-112 55 -225 80 -330 89 -384 63 -385 -4 -1 -23 -4 -42 -8 -144 -29 -503 -30
-640 -2 -14 3 -40 8 -59 11 -18 3 -43 8 -55 10 -11 3 -34 7 -51 10 -47 8 -100
37 -98 54 3 24 9 46 67 245 31 105 58 197 60 205 2 8 10 35 17 60 7 25 13 50
14 55 0 6 3 15 7 20 3 6 13 37 22 70 9 33 20 67 23 75 3 8 7 21 9 28 4 19 44
155 51 172 3 8 8 23 9 32 3 16 68 232 107 361 9 26 15 50 16 52 2 14 45 155
57 188 8 20 11 37 8 37 -4 0 -1 7 6 15 6 8 9 19 6 24 -4 5 -2 12 4 16 5 3 10
12 10 19 0 8 7 31 16 52 18 43 28 35 38 -30z m1191 49 c33 -3 78 -8 100 -11
22 -2 74 -7 115 -9 41 -3 93 -7 115 -9 22 -3 76 -8 120 -11 44 -3 98 -7 120
-10 22 -2 72 -7 110 -10 39 -3 81 -8 95 -10 14 -3 43 -7 64 -10 69 -8 85 -41
60 -127 -3 -9 -7 -27 -9 -39 -10 -53 -21 -53 -176 -9 -79 22 -155 45 -169 50
-14 5 -59 18 -100 30 -41 12 -109 33 -150 46 -41 13 -151 46 -245 75 -191 58
-221 70 -155 63 25 -2 72 -6 105 -9z"/>
</g>
</svg>
