<svg width="167.032" height="14.528" viewBox="0 0 167.032 14.528" xmlns="http://www.w3.org/2000/svg"><g id="svgGroup" stroke-linecap="round" fill-rule="evenodd" font-size="9pt" stroke="transparent" stroke-width="0.25mm" fill="currentColor" style="stroke:transparent;stroke-width:0.25mm;fill:currentColor"><path d="M 42.736 4.552 L 41.992 7.44 Q 41.84 8.04 41.84 8.432 A 1.905 1.905 0 0 0 41.849 8.626 Q 41.859 8.722 41.879 8.803 A 0.901 0.901 0 0 0 41.912 8.908 A 0.881 0.881 0 0 0 41.985 9.057 A 0.639 0.639 0 0 0 42.108 9.204 Q 42.232 9.312 42.396 9.352 A 1.427 1.427 0 0 0 42.673 9.39 A 1.641 1.641 0 0 0 42.744 9.392 A 1.352 1.352 0 0 0 43.444 9.195 A 1.623 1.623 0 0 0 43.488 9.168 A 1.925 1.925 0 0 0 43.905 8.805 A 2.483 2.483 0 0 0 44.108 8.536 A 2.987 2.987 0 0 0 44.368 8.041 A 4.02 4.02 0 0 0 44.532 7.556 A 4.366 4.366 0 0 0 44.662 6.833 A 5.581 5.581 0 0 0 44.688 6.288 A 5.797 5.797 0 0 0 44.611 5.32 A 4.261 4.261 0 0 0 44.332 4.352 A 4.059 4.059 0 0 0 43.734 3.359 A 3.643 3.643 0 0 0 43.356 2.964 A 4.017 4.017 0 0 0 42 2.169 A 4.634 4.634 0 0 0 41.892 2.132 Q 41.048 1.856 40.072 1.856 Q 39 1.856 38.064 2.264 Q 37.128 2.672 36.432 3.392 Q 35.736 4.112 35.336 5.096 A 5.504 5.504 0 0 0 34.948 6.846 A 6.478 6.478 0 0 0 34.936 7.24 A 7.321 7.321 0 0 0 35.029 8.437 A 5.375 5.375 0 0 0 35.364 9.628 A 5.191 5.191 0 0 0 36.05 10.822 A 4.58 4.58 0 0 0 36.532 11.352 Q 37.272 12.048 38.268 12.4 Q 39.264 12.752 40.408 12.752 A 9.608 9.608 0 0 0 41.418 12.701 Q 42.032 12.637 42.556 12.488 A 7.762 7.762 0 0 0 43.412 12.193 A 5.733 5.733 0 0 0 44.168 11.816 A 0.643 0.643 0 0 1 44.246 11.776 Q 44.287 11.758 44.325 11.75 A 0.291 0.291 0 0 1 44.384 11.744 A 0.235 0.235 0 0 1 44.58 11.843 Q 44.608 11.88 44.629 11.929 A 0.548 0.548 0 0 1 44.632 11.936 L 44.832 12.464 A 6.893 6.893 0 0 1 43.383 13.201 A 8.128 8.128 0 0 1 42.884 13.368 A 7.543 7.543 0 0 1 41.602 13.629 A 10.135 10.135 0 0 1 40.408 13.696 A 7.675 7.675 0 0 1 38.557 13.478 A 6.84 6.84 0 0 1 37.832 13.256 A 6.008 6.008 0 0 1 35.833 12.052 A 5.812 5.812 0 0 1 35.764 11.988 A 5.745 5.745 0 0 1 34.519 10.254 A 6.707 6.707 0 0 1 34.388 9.96 A 6.423 6.423 0 0 1 33.958 8.335 A 8.247 8.247 0 0 1 33.888 7.24 Q 33.888 6.368 34.108 5.56 Q 34.328 4.752 34.728 4.052 Q 35.128 3.352 35.688 2.772 Q 36.248 2.192 36.936 1.78 Q 37.624 1.368 38.416 1.14 Q 39.208 0.912 40.072 0.912 Q 40.808 0.912 41.512 1.072 Q 42.216 1.232 42.844 1.544 Q 43.472 1.856 44 2.316 Q 44.528 2.776 44.908 3.372 Q 45.288 3.968 45.5 4.7 A 5.384 5.384 0 0 1 45.691 5.765 A 6.471 6.471 0 0 1 45.712 6.288 A 5.362 5.362 0 0 1 45.617 7.316 A 4.546 4.546 0 0 1 45.468 7.884 A 4.396 4.396 0 0 1 45.113 8.684 A 3.697 3.697 0 0 1 44.796 9.152 Q 44.368 9.688 43.788 9.992 Q 43.208 10.296 42.536 10.296 A 2.123 2.123 0 0 1 42.101 10.254 Q 41.817 10.194 41.599 10.052 A 1.289 1.289 0 0 1 41.52 9.996 A 1.196 1.196 0 0 1 41.156 9.526 Q 41.066 9.326 41.024 9.072 A 3.774 3.774 0 0 1 40.642 9.53 Q 40.411 9.763 40.163 9.917 A 2.131 2.131 0 0 1 40.016 10 Q 39.472 10.28 38.848 10.28 Q 38.376 10.28 38.028 10.122 A 1.489 1.489 0 0 1 38.016 10.116 Q 37.664 9.952 37.428 9.66 A 1.88 1.88 0 0 1 37.135 9.144 A 2.259 2.259 0 0 1 37.076 8.968 A 2.958 2.958 0 0 1 36.968 8.346 A 3.519 3.519 0 0 1 36.96 8.104 A 3.798 3.798 0 0 1 37.143 6.953 A 4.424 4.424 0 0 1 37.22 6.732 Q 37.48 6.04 37.992 5.484 A 3.801 3.801 0 0 1 38.902 4.765 A 4.578 4.578 0 0 1 39.268 4.576 A 3.771 3.771 0 0 1 40.287 4.278 A 4.975 4.975 0 0 1 41.032 4.224 A 5.802 5.802 0 0 1 41.476 4.24 Q 41.745 4.261 41.972 4.308 Q 42.376 4.392 42.736 4.552 Z M 157.472 11.784 L 156.048 11.784 L 156.048 3.68 L 156.896 3.68 A 0.468 0.468 0 0 1 157.049 3.703 Q 157.187 3.751 157.252 3.896 A 0.547 0.547 0 0 1 157.28 3.976 L 157.384 4.808 A 4.28 4.28 0 0 1 158.117 4.093 A 3.866 3.866 0 0 1 158.388 3.904 A 2.269 2.269 0 0 1 159.367 3.569 A 2.851 2.851 0 0 1 159.68 3.552 A 2.422 2.422 0 0 1 160.265 3.619 A 1.719 1.719 0 0 1 161.012 4.008 A 2.347 2.347 0 0 1 161.556 4.744 A 3.141 3.141 0 0 1 161.744 5.24 A 2.703 2.703 0 0 1 161.996 4.737 A 2.311 2.311 0 0 1 162.188 4.48 Q 162.464 4.16 162.808 3.952 Q 163.152 3.744 163.54 3.648 Q 163.928 3.552 164.328 3.552 Q 164.968 3.552 165.468 3.756 Q 165.968 3.96 166.316 4.352 A 2.487 2.487 0 0 1 166.717 4.975 A 3.121 3.121 0 0 1 166.848 5.316 A 3.702 3.702 0 0 1 166.992 5.97 A 5.044 5.044 0 0 1 167.032 6.624 L 167.032 11.784 L 165.608 11.784 L 165.608 6.624 A 3.482 3.482 0 0 0 165.568 6.08 Q 165.48 5.52 165.192 5.18 A 1.342 1.342 0 0 0 164.442 4.736 A 2.061 2.061 0 0 0 163.984 4.688 Q 163.632 4.688 163.316 4.812 Q 163 4.936 162.76 5.176 Q 162.52 5.416 162.38 5.78 A 2.026 2.026 0 0 0 162.271 6.199 Q 162.24 6.399 162.24 6.624 L 162.24 11.784 L 160.816 11.784 L 160.816 6.624 Q 160.816 5.648 160.424 5.168 A 1.267 1.267 0 0 0 159.675 4.726 A 1.942 1.942 0 0 0 159.28 4.688 Q 158.752 4.688 158.3 4.972 A 2.977 2.977 0 0 0 157.741 5.431 A 3.742 3.742 0 0 0 157.472 5.744 L 157.472 11.784 Z M 1.424 11.784 L 0 11.784 L 0 0 L 1.424 0 L 1.424 4.768 A 4.419 4.419 0 0 1 2.42 3.97 A 4.136 4.136 0 0 1 2.576 3.884 A 2.879 2.879 0 0 1 3.536 3.584 A 3.686 3.686 0 0 1 4.032 3.552 A 3.42 3.42 0 0 1 4.62 3.6 A 2.58 2.58 0 0 1 5.204 3.772 Q 5.712 3.992 6.052 4.396 A 2.617 2.617 0 0 1 6.456 5.061 A 3.202 3.202 0 0 1 6.568 5.368 A 3.896 3.896 0 0 1 6.719 6.125 A 4.888 4.888 0 0 1 6.744 6.624 L 6.744 11.784 L 5.32 11.784 L 5.32 6.624 A 3.24 3.24 0 0 0 5.275 6.065 Q 5.223 5.768 5.111 5.531 A 1.577 1.577 0 0 0 4.9 5.196 Q 4.511 4.725 3.74 4.691 A 2.778 2.778 0 0 0 3.616 4.688 Q 2.984 4.688 2.436 4.992 A 3.73 3.73 0 0 0 1.661 5.569 A 4.454 4.454 0 0 0 1.424 5.816 L 1.424 11.784 Z M 89.216 0 L 90.648 0 L 90.648 6.936 L 91.016 6.936 Q 91.136 6.936 91.224 6.911 A 0.461 0.461 0 0 0 91.28 6.892 A 0.443 0.443 0 0 0 91.354 6.851 Q 91.423 6.804 91.501 6.723 A 1.488 1.488 0 0 0 91.512 6.712 L 94.072 3.968 Q 94.192 3.84 94.312 3.76 Q 94.412 3.693 94.568 3.682 A 0.905 0.905 0 0 1 94.632 3.68 L 95.928 3.68 L 92.944 6.856 A 3.151 3.151 0 0 1 92.819 6.999 A 2.472 2.472 0 0 1 92.724 7.096 Q 92.616 7.2 92.48 7.28 Q 92.624 7.376 92.74 7.5 A 1.939 1.939 0 0 1 92.894 7.688 A 2.316 2.316 0 0 1 92.96 7.784 L 96.128 11.784 L 94.848 11.784 A 0.761 0.761 0 0 1 94.709 11.772 Q 94.625 11.756 94.557 11.721 A 0.475 0.475 0 0 1 94.548 11.716 A 0.647 0.647 0 0 1 94.428 11.63 Q 94.368 11.577 94.312 11.504 L 91.648 8.184 Q 91.528 8.016 91.408 7.964 Q 91.3 7.917 91.097 7.913 A 2.047 2.047 0 0 0 91.048 7.912 L 90.648 7.912 L 90.648 11.784 L 89.216 11.784 L 89.216 0 Z M 77.096 11.784 L 76.176 11.784 L 76.176 0 L 77.608 0 L 77.608 4.848 Q 78.112 4.264 78.764 3.908 A 2.913 2.913 0 0 1 79.835 3.576 A 3.65 3.65 0 0 1 80.256 3.552 Q 80.96 3.552 81.528 3.816 A 2.569 2.569 0 0 1 82.494 4.602 A 2.43 2.43 0 0 1 82.496 4.604 A 3.344 3.344 0 0 1 82.888 5.272 A 4.529 4.529 0 0 1 83.112 5.9 Q 83.315 6.624 83.327 7.555 A 9.205 9.205 0 0 1 83.328 7.68 A 5.905 5.905 0 0 1 83.225 8.803 A 5.091 5.091 0 0 1 83.088 9.348 A 4.308 4.308 0 0 1 82.717 10.212 A 3.661 3.661 0 0 1 82.396 10.684 Q 81.944 11.248 81.292 11.572 A 3.11 3.11 0 0 1 80.222 11.876 A 3.825 3.825 0 0 1 79.824 11.896 A 3.386 3.386 0 0 1 79.226 11.846 Q 78.862 11.781 78.564 11.63 A 2.086 2.086 0 0 1 78.492 11.592 A 2.972 2.972 0 0 1 77.654 10.892 A 3.497 3.497 0 0 1 77.536 10.744 L 77.464 11.48 Q 77.4 11.784 77.096 11.784 Z M 127.36 4.496 L 127.04 5.016 Q 126.944 5.192 126.744 5.192 A 0.396 0.396 0 0 1 126.641 5.177 Q 126.594 5.165 126.543 5.141 A 0.884 0.884 0 0 1 126.472 5.104 A 4.55 4.55 0 0 0 126.348 5.035 Q 126.293 5.005 126.231 4.974 A 8.72 8.72 0 0 0 126.1 4.908 A 2.799 2.799 0 0 0 125.891 4.817 Q 125.747 4.76 125.576 4.708 A 2.007 2.007 0 0 0 125.272 4.643 Q 125.128 4.623 124.966 4.618 A 3.562 3.562 0 0 0 124.856 4.616 A 2.423 2.423 0 0 0 124.504 4.64 A 1.859 1.859 0 0 0 124.208 4.708 A 1.744 1.744 0 0 0 123.926 4.825 A 1.382 1.382 0 0 0 123.716 4.96 A 1.169 1.169 0 0 0 123.49 5.192 A 1.042 1.042 0 0 0 123.404 5.332 Q 123.296 5.544 123.296 5.792 A 0.89 0.89 0 0 0 123.33 6.044 A 0.711 0.711 0 0 0 123.476 6.312 A 1.381 1.381 0 0 0 123.715 6.528 A 1.856 1.856 0 0 0 123.952 6.672 Q 124.248 6.824 124.624 6.94 A 35.856 35.856 0 0 1 125.347 7.172 A 39.208 39.208 0 0 1 125.396 7.188 Q 125.792 7.32 126.168 7.48 A 2.851 2.851 0 0 1 126.736 7.8 A 2.605 2.605 0 0 1 126.84 7.88 Q 127.136 8.12 127.316 8.468 Q 127.491 8.806 127.496 9.276 A 2.613 2.613 0 0 1 127.496 9.304 A 2.748 2.748 0 0 1 127.397 10.05 A 2.474 2.474 0 0 1 127.296 10.34 Q 127.096 10.816 126.704 11.164 A 2.664 2.664 0 0 1 126.098 11.565 A 3.341 3.341 0 0 1 125.744 11.712 A 3.4 3.4 0 0 1 125.091 11.868 Q 124.781 11.912 124.432 11.912 A 4.497 4.497 0 0 1 123.53 11.825 A 3.677 3.677 0 0 1 122.896 11.636 A 4.281 4.281 0 0 1 122.188 11.276 A 3.482 3.482 0 0 1 121.728 10.928 L 122.064 10.384 Q 122.128 10.28 122.216 10.224 A 0.33 0.33 0 0 1 122.31 10.184 Q 122.371 10.168 122.448 10.168 A 0.424 0.424 0 0 1 122.591 10.194 Q 122.647 10.214 122.706 10.25 A 0.848 0.848 0 0 1 122.752 10.28 Q 122.912 10.392 123.14 10.528 Q 123.336 10.645 123.603 10.744 A 4.131 4.131 0 0 0 123.692 10.776 A 1.829 1.829 0 0 0 123.982 10.849 Q 124.127 10.873 124.295 10.882 A 3.796 3.796 0 0 0 124.504 10.888 A 2.723 2.723 0 0 0 124.848 10.867 Q 125.03 10.844 125.188 10.795 A 1.635 1.635 0 0 0 125.232 10.78 A 1.757 1.757 0 0 0 125.517 10.653 A 1.347 1.347 0 0 0 125.752 10.488 A 1.185 1.185 0 0 0 126.003 10.18 A 1.106 1.106 0 0 0 126.06 10.064 Q 126.16 9.824 126.16 9.552 Q 126.16 9.216 125.98 8.996 A 1.385 1.385 0 0 0 125.71 8.746 A 1.798 1.798 0 0 0 125.504 8.62 Q 125.208 8.464 124.828 8.348 Q 124.448 8.232 124.052 8.104 Q 123.656 7.976 123.276 7.812 A 2.776 2.776 0 0 1 122.704 7.483 A 2.541 2.541 0 0 1 122.6 7.4 Q 122.304 7.152 122.124 6.788 Q 121.958 6.452 121.945 5.984 A 2.9 2.9 0 0 1 121.944 5.904 Q 121.944 5.44 122.136 5.012 Q 122.328 4.584 122.696 4.26 A 2.543 2.543 0 0 1 123.236 3.899 A 3.231 3.231 0 0 1 123.6 3.744 A 3.196 3.196 0 0 1 124.251 3.589 A 4.279 4.279 0 0 1 124.824 3.552 A 4.36 4.36 0 0 1 125.617 3.621 A 3.437 3.437 0 0 1 126.26 3.804 A 3.473 3.473 0 0 1 127.149 4.312 A 3.213 3.213 0 0 1 127.36 4.496 Z M 134.304 4.496 L 133.984 5.016 Q 133.888 5.192 133.688 5.192 A 0.396 0.396 0 0 1 133.585 5.177 Q 133.538 5.165 133.487 5.141 A 0.884 0.884 0 0 1 133.416 5.104 A 4.55 4.55 0 0 0 133.292 5.035 Q 133.237 5.005 133.175 4.974 A 8.72 8.72 0 0 0 133.044 4.908 A 2.799 2.799 0 0 0 132.835 4.817 Q 132.691 4.76 132.52 4.708 A 2.007 2.007 0 0 0 132.216 4.643 Q 132.072 4.623 131.91 4.618 A 3.562 3.562 0 0 0 131.8 4.616 A 2.423 2.423 0 0 0 131.448 4.64 A 1.859 1.859 0 0 0 131.152 4.708 A 1.744 1.744 0 0 0 130.87 4.825 A 1.382 1.382 0 0 0 130.66 4.96 A 1.169 1.169 0 0 0 130.434 5.192 A 1.042 1.042 0 0 0 130.348 5.332 Q 130.24 5.544 130.24 5.792 A 0.89 0.89 0 0 0 130.274 6.044 A 0.711 0.711 0 0 0 130.42 6.312 A 1.381 1.381 0 0 0 130.659 6.528 A 1.856 1.856 0 0 0 130.896 6.672 Q 131.192 6.824 131.568 6.94 A 35.856 35.856 0 0 1 132.291 7.172 A 39.208 39.208 0 0 1 132.34 7.188 Q 132.736 7.32 133.112 7.48 A 2.851 2.851 0 0 1 133.68 7.8 A 2.605 2.605 0 0 1 133.784 7.88 Q 134.08 8.12 134.26 8.468 Q 134.435 8.806 134.44 9.276 A 2.613 2.613 0 0 1 134.44 9.304 A 2.748 2.748 0 0 1 134.341 10.05 A 2.474 2.474 0 0 1 134.24 10.34 Q 134.04 10.816 133.648 11.164 A 2.664 2.664 0 0 1 133.042 11.565 A 3.341 3.341 0 0 1 132.688 11.712 A 3.4 3.4 0 0 1 132.035 11.868 Q 131.725 11.912 131.376 11.912 A 4.497 4.497 0 0 1 130.474 11.825 A 3.677 3.677 0 0 1 129.84 11.636 A 4.281 4.281 0 0 1 129.132 11.276 A 3.482 3.482 0 0 1 128.672 10.928 L 129.008 10.384 Q 129.072 10.28 129.16 10.224 A 0.33 0.33 0 0 1 129.254 10.184 Q 129.315 10.168 129.392 10.168 A 0.424 0.424 0 0 1 129.535 10.194 Q 129.591 10.214 129.65 10.25 A 0.848 0.848 0 0 1 129.696 10.28 Q 129.856 10.392 130.084 10.528 Q 130.28 10.645 130.547 10.744 A 4.131 4.131 0 0 0 130.636 10.776 A 1.829 1.829 0 0 0 130.926 10.849 Q 131.071 10.873 131.239 10.882 A 3.796 3.796 0 0 0 131.448 10.888 A 2.723 2.723 0 0 0 131.792 10.867 Q 131.974 10.844 132.132 10.795 A 1.635 1.635 0 0 0 132.176 10.78 A 1.757 1.757 0 0 0 132.461 10.653 A 1.347 1.347 0 0 0 132.696 10.488 A 1.185 1.185 0 0 0 132.947 10.18 A 1.106 1.106 0 0 0 133.004 10.064 Q 133.104 9.824 133.104 9.552 Q 133.104 9.216 132.924 8.996 A 1.385 1.385 0 0 0 132.654 8.746 A 1.798 1.798 0 0 0 132.448 8.62 Q 132.152 8.464 131.772 8.348 Q 131.392 8.232 130.996 8.104 Q 130.6 7.976 130.22 7.812 A 2.776 2.776 0 0 1 129.648 7.483 A 2.541 2.541 0 0 1 129.544 7.4 Q 129.248 7.152 129.068 6.788 Q 128.902 6.452 128.889 5.984 A 2.9 2.9 0 0 1 128.888 5.904 Q 128.888 5.44 129.08 5.012 Q 129.272 4.584 129.64 4.26 A 2.543 2.543 0 0 1 130.18 3.899 A 3.231 3.231 0 0 1 130.544 3.744 A 3.196 3.196 0 0 1 131.195 3.589 A 4.279 4.279 0 0 1 131.768 3.552 A 4.36 4.36 0 0 1 132.561 3.621 A 3.437 3.437 0 0 1 133.204 3.804 A 3.473 3.473 0 0 1 134.093 4.312 A 3.213 3.213 0 0 1 134.304 4.496 Z M 15.12 7.736 L 9.728 7.736 A 5.538 5.538 0 0 0 9.776 8.37 Q 9.82 8.693 9.904 8.971 A 3.209 3.209 0 0 0 9.936 9.072 Q 10.128 9.64 10.464 10.02 Q 10.8 10.4 11.264 10.588 A 2.554 2.554 0 0 0 11.921 10.754 A 3.206 3.206 0 0 0 12.304 10.776 A 3.911 3.911 0 0 0 12.715 10.756 Q 12.998 10.726 13.228 10.652 A 5.449 5.449 0 0 0 13.547 10.54 Q 13.703 10.479 13.836 10.414 A 3.083 3.083 0 0 0 13.896 10.384 A 6.904 6.904 0 0 0 14.093 10.279 Q 14.189 10.225 14.271 10.175 A 3.415 3.415 0 0 0 14.364 10.116 A 1.094 1.094 0 0 1 14.466 10.056 Q 14.581 9.997 14.674 9.992 A 0.308 0.308 0 0 1 14.688 9.992 Q 14.864 9.992 14.96 10.128 L 15.36 10.648 A 2.705 2.705 0 0 1 14.729 11.204 Q 14.36 11.44 13.94 11.592 Q 13.52 11.744 13.072 11.82 Q 12.624 11.896 12.184 11.896 A 4.341 4.341 0 0 1 11.139 11.774 A 3.796 3.796 0 0 1 10.636 11.612 Q 9.928 11.328 9.412 10.78 A 3.586 3.586 0 0 1 8.81 9.904 A 4.462 4.462 0 0 1 8.608 9.424 Q 8.32 8.616 8.32 7.568 A 4.893 4.893 0 0 1 8.454 6.407 A 4.378 4.378 0 0 1 8.58 5.984 A 3.826 3.826 0 0 1 9.112 4.972 A 3.527 3.527 0 0 1 9.328 4.708 A 3.438 3.438 0 0 1 10.498 3.87 A 3.926 3.926 0 0 1 10.52 3.86 A 3.668 3.668 0 0 1 11.571 3.582 A 4.597 4.597 0 0 1 12.104 3.552 A 3.806 3.806 0 0 1 13.011 3.657 A 3.339 3.339 0 0 1 13.448 3.796 Q 14.064 4.04 14.512 4.5 A 3.059 3.059 0 0 1 15.064 5.292 A 3.743 3.743 0 0 1 15.212 5.636 A 3.916 3.916 0 0 1 15.419 6.48 A 5.181 5.181 0 0 1 15.464 7.176 A 2.456 2.456 0 0 1 15.46 7.321 Q 15.448 7.531 15.396 7.618 A 0.203 0.203 0 0 1 15.392 7.624 A 0.22 0.22 0 0 1 15.284 7.71 Q 15.244 7.725 15.194 7.732 A 0.591 0.591 0 0 1 15.12 7.736 Z M 65.584 7.736 L 60.192 7.736 A 5.538 5.538 0 0 0 60.24 8.37 Q 60.284 8.693 60.368 8.971 A 3.209 3.209 0 0 0 60.4 9.072 Q 60.592 9.64 60.928 10.02 Q 61.264 10.4 61.728 10.588 A 2.554 2.554 0 0 0 62.385 10.754 A 3.206 3.206 0 0 0 62.768 10.776 A 3.911 3.911 0 0 0 63.179 10.756 Q 63.462 10.726 63.692 10.652 A 5.449 5.449 0 0 0 64.011 10.54 Q 64.167 10.479 64.3 10.414 A 3.083 3.083 0 0 0 64.36 10.384 A 6.904 6.904 0 0 0 64.557 10.279 Q 64.653 10.225 64.735 10.175 A 3.415 3.415 0 0 0 64.828 10.116 A 1.094 1.094 0 0 1 64.93 10.056 Q 65.045 9.997 65.138 9.992 A 0.308 0.308 0 0 1 65.152 9.992 Q 65.328 9.992 65.424 10.128 L 65.824 10.648 A 2.705 2.705 0 0 1 65.193 11.204 Q 64.824 11.44 64.404 11.592 Q 63.984 11.744 63.536 11.82 Q 63.088 11.896 62.648 11.896 A 4.341 4.341 0 0 1 61.603 11.774 A 3.796 3.796 0 0 1 61.1 11.612 Q 60.392 11.328 59.876 10.78 A 3.586 3.586 0 0 1 59.274 9.904 A 4.462 4.462 0 0 1 59.072 9.424 Q 58.784 8.616 58.784 7.568 A 4.893 4.893 0 0 1 58.918 6.407 A 4.378 4.378 0 0 1 59.044 5.984 A 3.826 3.826 0 0 1 59.576 4.972 A 3.527 3.527 0 0 1 59.792 4.708 A 3.438 3.438 0 0 1 60.962 3.87 A 3.926 3.926 0 0 1 60.984 3.86 A 3.668 3.668 0 0 1 62.035 3.582 A 4.597 4.597 0 0 1 62.568 3.552 A 3.806 3.806 0 0 1 63.475 3.657 A 3.339 3.339 0 0 1 63.912 3.796 Q 64.528 4.04 64.976 4.5 A 3.059 3.059 0 0 1 65.528 5.292 A 3.743 3.743 0 0 1 65.676 5.636 A 3.916 3.916 0 0 1 65.883 6.48 A 5.181 5.181 0 0 1 65.928 7.176 A 2.456 2.456 0 0 1 65.924 7.321 Q 65.912 7.531 65.86 7.618 A 0.203 0.203 0 0 1 65.856 7.624 A 0.22 0.22 0 0 1 65.748 7.71 Q 65.708 7.725 65.658 7.732 A 0.591 0.591 0 0 1 65.584 7.736 Z M 73.968 7.736 L 68.576 7.736 A 5.538 5.538 0 0 0 68.624 8.37 Q 68.668 8.693 68.752 8.971 A 3.209 3.209 0 0 0 68.784 9.072 Q 68.976 9.64 69.312 10.02 Q 69.648 10.4 70.112 10.588 A 2.554 2.554 0 0 0 70.769 10.754 A 3.206 3.206 0 0 0 71.152 10.776 A 3.911 3.911 0 0 0 71.563 10.756 Q 71.846 10.726 72.076 10.652 A 5.449 5.449 0 0 0 72.395 10.54 Q 72.551 10.479 72.684 10.414 A 3.083 3.083 0 0 0 72.744 10.384 A 6.904 6.904 0 0 0 72.941 10.279 Q 73.037 10.225 73.119 10.175 A 3.415 3.415 0 0 0 73.212 10.116 A 1.094 1.094 0 0 1 73.314 10.056 Q 73.429 9.997 73.522 9.992 A 0.308 0.308 0 0 1 73.536 9.992 Q 73.712 9.992 73.808 10.128 L 74.208 10.648 A 2.705 2.705 0 0 1 73.577 11.204 Q 73.208 11.44 72.788 11.592 Q 72.368 11.744 71.92 11.82 Q 71.472 11.896 71.032 11.896 A 4.341 4.341 0 0 1 69.987 11.774 A 3.796 3.796 0 0 1 69.484 11.612 Q 68.776 11.328 68.26 10.78 A 3.586 3.586 0 0 1 67.658 9.904 A 4.462 4.462 0 0 1 67.456 9.424 Q 67.168 8.616 67.168 7.568 A 4.893 4.893 0 0 1 67.302 6.407 A 4.378 4.378 0 0 1 67.428 5.984 A 3.826 3.826 0 0 1 67.96 4.972 A 3.527 3.527 0 0 1 68.176 4.708 A 3.438 3.438 0 0 1 69.346 3.87 A 3.926 3.926 0 0 1 69.368 3.86 A 3.668 3.668 0 0 1 70.419 3.582 A 4.597 4.597 0 0 1 70.952 3.552 A 3.806 3.806 0 0 1 71.859 3.657 A 3.339 3.339 0 0 1 72.296 3.796 Q 72.912 4.04 73.36 4.5 A 3.059 3.059 0 0 1 73.912 5.292 A 3.743 3.743 0 0 1 74.06 5.636 A 3.916 3.916 0 0 1 74.267 6.48 A 5.181 5.181 0 0 1 74.312 7.176 A 2.456 2.456 0 0 1 74.308 7.321 Q 74.296 7.531 74.244 7.618 A 0.203 0.203 0 0 1 74.24 7.624 A 0.22 0.22 0 0 1 74.132 7.71 Q 74.092 7.725 74.042 7.732 A 0.591 0.591 0 0 1 73.968 7.736 Z M 103.296 7.736 L 97.904 7.736 A 5.538 5.538 0 0 0 97.952 8.37 Q 97.996 8.693 98.08 8.971 A 3.209 3.209 0 0 0 98.112 9.072 Q 98.304 9.64 98.64 10.02 Q 98.976 10.4 99.44 10.588 A 2.554 2.554 0 0 0 100.097 10.754 A 3.206 3.206 0 0 0 100.48 10.776 A 3.911 3.911 0 0 0 100.891 10.756 Q 101.174 10.726 101.404 10.652 A 5.449 5.449 0 0 0 101.723 10.54 Q 101.879 10.479 102.012 10.414 A 3.083 3.083 0 0 0 102.072 10.384 A 6.904 6.904 0 0 0 102.269 10.279 Q 102.365 10.225 102.447 10.175 A 3.415 3.415 0 0 0 102.54 10.116 A 1.094 1.094 0 0 1 102.642 10.056 Q 102.757 9.997 102.85 9.992 A 0.308 0.308 0 0 1 102.864 9.992 Q 103.04 9.992 103.136 10.128 L 103.536 10.648 A 2.705 2.705 0 0 1 102.905 11.204 Q 102.536 11.44 102.116 11.592 Q 101.696 11.744 101.248 11.82 Q 100.8 11.896 100.36 11.896 A 4.341 4.341 0 0 1 99.315 11.774 A 3.796 3.796 0 0 1 98.812 11.612 Q 98.104 11.328 97.588 10.78 A 3.586 3.586 0 0 1 96.986 9.904 A 4.462 4.462 0 0 1 96.784 9.424 Q 96.496 8.616 96.496 7.568 A 4.893 4.893 0 0 1 96.63 6.407 A 4.378 4.378 0 0 1 96.756 5.984 A 3.826 3.826 0 0 1 97.288 4.972 A 3.527 3.527 0 0 1 97.504 4.708 A 3.438 3.438 0 0 1 98.674 3.87 A 3.926 3.926 0 0 1 98.696 3.86 A 3.668 3.668 0 0 1 99.747 3.582 A 4.597 4.597 0 0 1 100.28 3.552 A 3.806 3.806 0 0 1 101.187 3.657 A 3.339 3.339 0 0 1 101.624 3.796 Q 102.24 4.04 102.688 4.5 A 3.059 3.059 0 0 1 103.24 5.292 A 3.743 3.743 0 0 1 103.388 5.636 A 3.916 3.916 0 0 1 103.595 6.48 A 5.181 5.181 0 0 1 103.64 7.176 A 2.456 2.456 0 0 1 103.636 7.321 Q 103.624 7.531 103.572 7.618 A 0.203 0.203 0 0 1 103.568 7.624 A 0.22 0.22 0 0 1 103.46 7.71 Q 103.42 7.725 103.37 7.732 A 0.591 0.591 0 0 1 103.296 7.736 Z M 106.88 14.528 L 105.456 14.528 L 105.456 3.68 L 106.304 3.68 A 0.468 0.468 0 0 1 106.457 3.703 Q 106.595 3.751 106.66 3.896 A 0.547 0.547 0 0 1 106.688 3.976 L 106.808 4.936 A 4.375 4.375 0 0 1 107.821 4.026 A 4.111 4.111 0 0 1 107.996 3.92 A 2.887 2.887 0 0 1 109.111 3.56 A 3.642 3.642 0 0 1 109.536 3.536 A 3.133 3.133 0 0 1 110.317 3.63 A 2.703 2.703 0 0 1 110.8 3.804 Q 111.368 4.072 111.768 4.596 Q 112.168 5.12 112.384 5.896 Q 112.593 6.648 112.6 7.617 A 9.313 9.313 0 0 1 112.6 7.68 A 5.905 5.905 0 0 1 112.497 8.803 A 5.091 5.091 0 0 1 112.36 9.348 A 4.376 4.376 0 0 1 112.002 10.191 A 3.694 3.694 0 0 1 111.672 10.684 Q 111.224 11.248 110.572 11.572 A 3.11 3.11 0 0 1 109.502 11.876 A 3.825 3.825 0 0 1 109.104 11.896 A 3.826 3.826 0 0 1 108.529 11.855 Q 108.21 11.806 107.941 11.7 A 2.231 2.231 0 0 1 107.82 11.648 Q 107.288 11.4 106.88 10.944 L 106.88 14.528 Z M 49.272 11.784 L 47.84 11.784 L 47.84 4.896 L 46.944 4.792 A 0.882 0.882 0 0 1 46.811 4.75 Q 46.73 4.716 46.668 4.668 A 0.272 0.272 0 0 1 46.565 4.49 A 0.408 0.408 0 0 1 46.56 4.424 L 46.56 3.84 L 47.84 3.84 L 47.84 3.056 A 4.217 4.217 0 0 1 47.886 2.418 A 3.144 3.144 0 0 1 48.036 1.82 Q 48.232 1.28 48.596 0.908 Q 48.96 0.536 49.472 0.344 Q 49.984 0.152 50.624 0.152 A 3.246 3.246 0 0 1 51.304 0.221 A 2.803 2.803 0 0 1 51.632 0.312 L 51.6 1.024 Q 51.595 1.122 51.545 1.172 A 0.17 0.17 0 0 1 51.464 1.216 Q 51.348 1.245 51.148 1.248 A 3.149 3.149 0 0 1 51.104 1.248 L 50.856 1.248 A 2.448 2.448 0 0 0 50.484 1.275 A 1.935 1.935 0 0 0 50.188 1.344 Q 49.888 1.44 49.672 1.656 A 1.253 1.253 0 0 0 49.453 1.956 A 1.706 1.706 0 0 0 49.34 2.224 A 2.076 2.076 0 0 0 49.265 2.538 Q 49.239 2.694 49.23 2.873 A 4.18 4.18 0 0 0 49.224 3.096 L 49.224 3.84 L 51.568 3.84 L 51.568 4.872 L 49.272 4.872 L 49.272 11.784 Z M 120.24 6.6 L 120.24 11.784 L 119.608 11.784 A 1.106 1.106 0 0 1 119.474 11.776 Q 119.408 11.768 119.352 11.751 A 0.506 0.506 0 0 1 119.272 11.72 Q 119.17 11.669 119.124 11.527 A 0.66 0.66 0 0 1 119.104 11.448 L 118.944 10.696 A 9.751 9.751 0 0 1 118.55 11.033 A 8.081 8.081 0 0 1 118.32 11.212 Q 118.016 11.44 117.68 11.596 Q 117.344 11.752 116.964 11.832 A 3.651 3.651 0 0 1 116.512 11.897 A 4.777 4.777 0 0 1 116.12 11.912 Q 115.648 11.912 115.236 11.78 A 2.071 2.071 0 0 1 114.679 11.508 A 1.902 1.902 0 0 1 114.52 11.384 A 1.832 1.832 0 0 1 114.108 10.863 A 2.192 2.192 0 0 1 114.036 10.716 Q 113.861 10.324 113.856 9.792 A 3.348 3.348 0 0 1 113.856 9.76 A 1.76 1.76 0 0 1 114.073 8.92 A 2.116 2.116 0 0 1 114.12 8.836 A 1.881 1.881 0 0 1 114.458 8.423 Q 114.626 8.267 114.845 8.126 A 3.512 3.512 0 0 1 114.972 8.048 Q 115.427 7.782 116.101 7.59 A 8.396 8.396 0 0 1 116.512 7.484 A 8.448 8.448 0 0 1 117.286 7.345 Q 117.72 7.287 118.218 7.257 A 17.177 17.177 0 0 1 118.84 7.232 L 118.84 6.6 A 3.526 3.526 0 0 0 118.802 6.067 Q 118.76 5.792 118.671 5.571 A 1.487 1.487 0 0 0 118.436 5.172 A 1.296 1.296 0 0 0 117.728 4.743 Q 117.513 4.69 117.257 4.688 A 2.579 2.579 0 0 0 117.24 4.688 A 3.425 3.425 0 0 0 116.873 4.707 Q 116.685 4.727 116.525 4.769 A 1.752 1.752 0 0 0 116.364 4.82 A 3.906 3.906 0 0 0 116.042 4.955 A 2.843 2.843 0 0 0 115.749 5.116 Q 115.549 5.242 115.392 5.348 A 7.801 7.801 0 0 0 115.3 5.412 A 0.823 0.823 0 0 1 115.154 5.495 Q 115.051 5.539 114.949 5.544 A 0.514 0.514 0 0 1 114.928 5.544 A 0.46 0.46 0 0 1 114.782 5.521 A 0.405 0.405 0 0 1 114.676 5.468 Q 114.568 5.392 114.504 5.28 L 114.248 4.824 Q 114.92 4.176 115.696 3.856 A 4.249 4.249 0 0 1 116.898 3.561 A 5.183 5.183 0 0 1 117.416 3.536 A 3.519 3.519 0 0 1 118.058 3.592 A 2.71 2.71 0 0 1 118.624 3.76 A 2.528 2.528 0 0 1 119.346 4.217 A 2.371 2.371 0 0 1 119.512 4.384 A 2.548 2.548 0 0 1 119.966 5.109 A 3.075 3.075 0 0 1 120.056 5.352 A 3.78 3.78 0 0 1 120.22 6.166 A 4.646 4.646 0 0 1 120.24 6.6 Z M 145.584 4.608 L 145.208 5.12 Q 145.158 5.189 145.107 5.234 A 0.441 0.441 0 0 1 145.08 5.256 A 0.213 0.213 0 0 1 145.016 5.288 Q 144.987 5.297 144.951 5.301 A 0.505 0.505 0 0 1 144.896 5.304 A 0.339 0.339 0 0 1 144.785 5.284 Q 144.74 5.269 144.693 5.241 A 0.742 0.742 0 0 1 144.636 5.204 A 2.673 2.673 0 0 0 144.52 5.126 Q 144.415 5.059 144.28 4.984 A 2.366 2.366 0 0 0 144.073 4.883 Q 143.965 4.836 143.841 4.793 A 4.192 4.192 0 0 0 143.756 4.764 A 1.86 1.86 0 0 0 143.471 4.697 Q 143.326 4.675 143.158 4.667 A 3.684 3.684 0 0 0 143 4.664 A 2.812 2.812 0 0 0 142.443 4.717 A 2.186 2.186 0 0 0 141.952 4.876 Q 141.496 5.088 141.188 5.488 A 2.539 2.539 0 0 0 140.862 6.054 A 3.248 3.248 0 0 0 140.724 6.456 Q 140.568 7.024 140.568 7.728 A 5.518 5.518 0 0 0 140.605 8.382 Q 140.646 8.727 140.733 9.026 A 3.409 3.409 0 0 0 140.736 9.036 A 3.328 3.328 0 0 0 140.923 9.532 A 2.482 2.482 0 0 0 141.208 9.996 Q 141.512 10.384 141.948 10.588 A 2.166 2.166 0 0 0 142.631 10.776 A 2.678 2.678 0 0 0 142.928 10.792 Q 143.302 10.792 143.581 10.728 A 1.665 1.665 0 0 0 143.784 10.668 Q 144.071 10.562 144.277 10.435 A 1.811 1.811 0 0 0 144.344 10.392 A 5.653 5.653 0 0 0 144.501 10.282 Q 144.576 10.227 144.64 10.176 A 2.689 2.689 0 0 0 144.712 10.116 A 0.62 0.62 0 0 1 144.811 10.045 Q 144.905 9.992 145 9.992 Q 145.184 9.992 145.272 10.128 L 145.672 10.648 Q 145.144 11.296 144.352 11.596 Q 143.56 11.896 142.68 11.896 A 3.626 3.626 0 0 1 141.58 11.732 A 3.354 3.354 0 0 1 141.268 11.616 Q 140.616 11.336 140.136 10.804 A 3.594 3.594 0 0 1 139.583 9.979 A 4.513 4.513 0 0 1 139.38 9.496 A 4.655 4.655 0 0 1 139.157 8.555 A 6.201 6.201 0 0 1 139.104 7.728 A 5.694 5.694 0 0 1 139.202 6.651 A 4.836 4.836 0 0 1 139.356 6.056 A 3.983 3.983 0 0 1 139.787 5.139 A 3.51 3.51 0 0 1 140.092 4.732 A 3.33 3.33 0 0 1 141.266 3.874 A 3.824 3.824 0 0 1 141.288 3.864 A 3.658 3.658 0 0 1 142.246 3.598 A 4.788 4.788 0 0 1 142.92 3.552 Q 143.768 3.552 144.424 3.828 Q 145.08 4.104 145.584 4.608 Z M 54.336 11.784 L 52.912 11.784 L 52.912 3.68 L 53.728 3.68 Q 53.96 3.68 54.048 3.768 A 0.305 0.305 0 0 1 54.102 3.844 Q 54.141 3.918 54.162 4.034 A 1.195 1.195 0 0 1 54.168 4.072 L 54.264 5.336 A 4.425 4.425 0 0 1 54.681 4.644 A 3.246 3.246 0 0 1 55.292 4.012 A 2.258 2.258 0 0 1 56.664 3.537 A 2.81 2.81 0 0 1 56.728 3.536 Q 57.064 3.536 57.336 3.612 Q 57.608 3.688 57.84 3.824 L 57.656 4.888 Q 57.6 5.088 57.408 5.088 A 0.501 0.501 0 0 1 57.338 5.082 Q 57.262 5.071 57.152 5.04 A 2.868 2.868 0 0 1 57.064 5.012 Q 56.853 4.943 56.489 4.937 A 4.29 4.29 0 0 0 56.416 4.936 A 2.117 2.117 0 0 0 55.812 5.019 A 1.712 1.712 0 0 0 55.172 5.368 A 2.557 2.557 0 0 0 54.741 5.857 Q 54.575 6.098 54.434 6.398 A 4.915 4.915 0 0 0 54.336 6.624 L 54.336 11.784 Z M 17.44 0 L 18.864 0 L 18.864 11.784 L 17.44 11.784 L 17.44 0 Z M 21.536 0 L 22.96 0 L 22.96 11.784 L 21.536 11.784 L 21.536 0 Z M 28.752 3.552 Q 29.64 3.552 30.356 3.848 Q 31.072 4.144 31.572 4.688 A 3.591 3.591 0 0 1 32.212 5.677 A 4.306 4.306 0 0 1 32.34 6.004 A 4.801 4.801 0 0 1 32.57 7.039 A 6.1 6.1 0 0 1 32.608 7.728 A 5.912 5.912 0 0 1 32.535 8.68 A 4.598 4.598 0 0 1 32.34 9.456 A 3.935 3.935 0 0 1 31.901 10.348 A 3.443 3.443 0 0 1 31.572 10.768 Q 31.072 11.312 30.356 11.604 A 3.932 3.932 0 0 1 29.316 11.865 A 4.928 4.928 0 0 1 28.752 11.896 A 4.659 4.659 0 0 1 27.832 11.809 A 3.782 3.782 0 0 1 27.148 11.604 Q 26.432 11.312 25.928 10.768 A 3.634 3.634 0 0 1 25.263 9.739 A 4.325 4.325 0 0 1 25.152 9.456 Q 24.88 8.688 24.88 7.728 Q 24.88 6.776 25.152 6.004 Q 25.424 5.232 25.928 4.688 Q 26.432 4.144 27.148 3.848 Q 27.864 3.552 28.752 3.552 Z M 150.432 3.552 Q 151.32 3.552 152.036 3.848 Q 152.752 4.144 153.252 4.688 A 3.591 3.591 0 0 1 153.892 5.677 A 4.306 4.306 0 0 1 154.02 6.004 A 4.801 4.801 0 0 1 154.25 7.039 A 6.1 6.1 0 0 1 154.288 7.728 A 5.912 5.912 0 0 1 154.215 8.68 A 4.598 4.598 0 0 1 154.02 9.456 A 3.935 3.935 0 0 1 153.581 10.348 A 3.443 3.443 0 0 1 153.252 10.768 Q 152.752 11.312 152.036 11.604 A 3.932 3.932 0 0 1 150.996 11.865 A 4.928 4.928 0 0 1 150.432 11.896 A 4.659 4.659 0 0 1 149.512 11.809 A 3.782 3.782 0 0 1 148.828 11.604 Q 148.112 11.312 147.608 10.768 A 3.634 3.634 0 0 1 146.943 9.739 A 4.325 4.325 0 0 1 146.832 9.456 Q 146.56 8.688 146.56 7.728 Q 146.56 6.776 146.832 6.004 Q 147.104 5.232 147.608 4.688 Q 148.112 4.144 148.828 3.848 Q 149.544 3.552 150.432 3.552 Z M 85.232 3.68 L 86.656 3.68 L 86.656 11.784 L 85.232 11.784 L 85.232 3.68 Z M 28.752 10.784 Q 29.952 10.784 30.544 9.98 A 2.746 2.746 0 0 0 30.954 9.138 Q 31.136 8.535 31.136 7.736 A 5.756 5.756 0 0 0 31.078 6.894 Q 31.011 6.438 30.864 6.067 A 2.616 2.616 0 0 0 30.544 5.48 Q 29.952 4.672 28.752 4.672 A 3.007 3.007 0 0 0 28.251 4.712 Q 27.948 4.763 27.696 4.88 Q 27.248 5.088 26.948 5.48 A 2.388 2.388 0 0 0 26.645 6.009 A 3.17 3.17 0 0 0 26.5 6.444 A 4.496 4.496 0 0 0 26.385 7.094 A 6.065 6.065 0 0 0 26.352 7.736 A 6.01 6.01 0 0 0 26.387 8.398 A 4.412 4.412 0 0 0 26.5 9.024 A 3.047 3.047 0 0 0 26.679 9.532 A 2.309 2.309 0 0 0 26.948 9.98 Q 27.248 10.368 27.696 10.576 A 2.168 2.168 0 0 0 28.246 10.743 A 3.002 3.002 0 0 0 28.752 10.784 Z M 150.432 10.784 Q 151.632 10.784 152.224 9.98 A 2.746 2.746 0 0 0 152.634 9.138 Q 152.816 8.535 152.816 7.736 A 5.756 5.756 0 0 0 152.758 6.894 Q 152.691 6.438 152.544 6.067 A 2.616 2.616 0 0 0 152.224 5.48 Q 151.632 4.672 150.432 4.672 A 3.007 3.007 0 0 0 149.931 4.712 Q 149.628 4.763 149.376 4.88 Q 148.928 5.088 148.628 5.48 A 2.388 2.388 0 0 0 148.325 6.009 A 3.17 3.17 0 0 0 148.18 6.444 A 4.496 4.496 0 0 0 148.065 7.094 A 6.065 6.065 0 0 0 148.032 7.736 A 6.01 6.01 0 0 0 148.067 8.398 A 4.412 4.412 0 0 0 148.18 9.024 A 3.047 3.047 0 0 0 148.359 9.532 A 2.309 2.309 0 0 0 148.628 9.98 Q 148.928 10.368 149.376 10.576 A 2.168 2.168 0 0 0 149.926 10.743 A 3.002 3.002 0 0 0 150.432 10.784 Z M 77.608 5.912 L 77.608 9.832 Q 77.96 10.316 78.382 10.538 A 1.692 1.692 0 0 0 78.46 10.576 Q 78.928 10.792 79.504 10.792 A 2.542 2.542 0 0 0 80.252 10.688 A 1.927 1.927 0 0 0 81.248 9.984 A 2.698 2.698 0 0 0 81.658 9.163 Q 81.776 8.789 81.823 8.336 A 6.27 6.27 0 0 0 81.856 7.68 A 7.516 7.516 0 0 0 81.833 7.073 Q 81.81 6.787 81.763 6.538 A 3.941 3.941 0 0 0 81.716 6.32 Q 81.576 5.752 81.312 5.388 A 1.637 1.637 0 0 0 80.914 4.995 A 1.508 1.508 0 0 0 80.664 4.856 A 1.988 1.988 0 0 0 80.122 4.709 A 2.545 2.545 0 0 0 79.792 4.688 A 2.56 2.56 0 0 0 79.129 4.771 A 2.105 2.105 0 0 0 78.572 5.008 A 3.162 3.162 0 0 0 77.979 5.481 A 4.158 4.158 0 0 0 77.608 5.912 Z M 106.88 5.912 L 106.88 9.832 Q 107.272 10.36 107.74 10.576 Q 108.208 10.792 108.784 10.792 A 2.513 2.513 0 0 0 109.528 10.688 A 1.928 1.928 0 0 0 110.52 9.984 A 2.698 2.698 0 0 0 110.93 9.163 Q 111.048 8.789 111.095 8.336 A 6.27 6.27 0 0 0 111.128 7.68 A 7.516 7.516 0 0 0 111.105 7.073 Q 111.082 6.787 111.035 6.538 A 3.941 3.941 0 0 0 110.988 6.32 Q 110.848 5.752 110.584 5.388 A 1.637 1.637 0 0 0 110.186 4.995 A 1.508 1.508 0 0 0 109.936 4.856 A 1.988 1.988 0 0 0 109.394 4.709 A 2.545 2.545 0 0 0 109.064 4.688 A 2.56 2.56 0 0 0 108.401 4.771 A 2.105 2.105 0 0 0 107.844 5.008 A 3.162 3.162 0 0 0 107.251 5.481 A 4.158 4.158 0 0 0 106.88 5.912 Z M 40.88 7.568 L 41.488 5.208 A 2.795 2.795 0 0 0 41.076 5.146 A 3.457 3.457 0 0 0 40.808 5.136 A 2.483 2.483 0 0 0 39.997 5.266 A 2.299 2.299 0 0 0 39.708 5.388 Q 39.208 5.64 38.848 6.048 Q 38.488 6.456 38.284 6.984 Q 38.08 7.512 38.08 8.064 A 2.043 2.043 0 0 0 38.114 8.447 Q 38.174 8.764 38.344 8.988 A 0.854 0.854 0 0 0 38.891 9.316 A 1.308 1.308 0 0 0 39.128 9.336 A 1.632 1.632 0 0 0 39.589 9.268 A 1.84 1.84 0 0 0 39.628 9.256 A 1.304 1.304 0 0 0 39.937 9.109 A 1.675 1.675 0 0 0 40.116 8.976 Q 40.335 8.79 40.52 8.48 A 2.873 2.873 0 0 0 40.548 8.432 Q 40.744 8.088 40.88 7.568 Z M 68.624 6.848 L 73.032 6.848 A 3.149 3.149 0 0 0 72.987 6.303 A 2.579 2.579 0 0 0 72.896 5.94 A 2.106 2.106 0 0 0 72.648 5.426 A 1.891 1.891 0 0 0 72.496 5.228 Q 72.232 4.928 71.852 4.764 A 1.978 1.978 0 0 0 71.337 4.623 A 2.575 2.575 0 0 0 70.984 4.6 Q 69.952 4.6 69.36 5.196 Q 68.8 5.76 68.641 6.737 A 4.359 4.359 0 0 0 68.624 6.848 Z M 97.952 6.848 L 102.36 6.848 A 3.149 3.149 0 0 0 102.315 6.303 A 2.579 2.579 0 0 0 102.224 5.94 A 2.106 2.106 0 0 0 101.976 5.426 A 1.891 1.891 0 0 0 101.824 5.228 Q 101.56 4.928 101.18 4.764 A 1.978 1.978 0 0 0 100.665 4.623 A 2.575 2.575 0 0 0 100.312 4.6 Q 99.28 4.6 98.688 5.196 Q 98.128 5.76 97.969 6.737 A 4.359 4.359 0 0 0 97.952 6.848 Z M 9.776 6.848 L 14.184 6.848 A 3.149 3.149 0 0 0 14.139 6.303 A 2.579 2.579 0 0 0 14.048 5.94 A 2.106 2.106 0 0 0 13.8 5.426 A 1.891 1.891 0 0 0 13.648 5.228 Q 13.384 4.928 13.004 4.764 A 1.978 1.978 0 0 0 12.489 4.623 A 2.575 2.575 0 0 0 12.136 4.6 Q 11.104 4.6 10.512 5.196 Q 9.952 5.76 9.793 6.737 A 4.359 4.359 0 0 0 9.776 6.848 Z M 60.24 6.848 L 64.648 6.848 A 3.149 3.149 0 0 0 64.603 6.303 A 2.579 2.579 0 0 0 64.512 5.94 A 2.106 2.106 0 0 0 64.264 5.426 A 1.891 1.891 0 0 0 64.112 5.228 Q 63.848 4.928 63.468 4.764 A 1.978 1.978 0 0 0 62.953 4.623 A 2.575 2.575 0 0 0 62.6 4.6 Q 61.568 4.6 60.976 5.196 Q 60.416 5.76 60.257 6.737 A 4.359 4.359 0 0 0 60.24 6.848 Z M 118.84 9.824 L 118.84 8.136 A 16.065 16.065 0 0 0 118.144 8.173 Q 117.803 8.199 117.507 8.239 A 7.826 7.826 0 0 0 117.168 8.292 Q 116.48 8.416 116.048 8.616 A 2.256 2.256 0 0 0 115.779 8.762 Q 115.644 8.848 115.544 8.945 A 1.074 1.074 0 0 0 115.42 9.088 Q 115.224 9.36 115.224 9.696 A 1.653 1.653 0 0 0 115.244 9.957 Q 115.267 10.102 115.317 10.223 A 1 1 0 0 0 115.328 10.248 A 1.119 1.119 0 0 0 115.477 10.494 A 0.969 0.969 0 0 0 115.608 10.628 A 1.084 1.084 0 0 0 115.958 10.823 A 1.276 1.276 0 0 0 116.024 10.844 Q 116.264 10.912 116.544 10.912 A 3.236 3.236 0 0 0 116.941 10.889 A 2.552 2.552 0 0 0 117.232 10.836 Q 117.544 10.76 117.82 10.62 Q 118.096 10.48 118.348 10.28 A 4.427 4.427 0 0 0 118.719 9.949 A 5.056 5.056 0 0 0 118.84 9.824 Z M 86.976 1.136 Q 86.976 1.344 86.892 1.524 Q 86.808 1.704 86.668 1.844 Q 86.528 1.984 86.344 2.064 Q 86.16 2.144 85.952 2.144 A 0.951 0.951 0 0 1 85.598 2.078 A 0.915 0.915 0 0 1 85.564 2.064 Q 85.384 1.984 85.244 1.844 Q 85.104 1.704 85.024 1.524 A 0.941 0.941 0 0 1 84.944 1.149 A 1.077 1.077 0 0 1 84.944 1.136 Q 84.944 0.928 85.024 0.74 Q 85.104 0.552 85.244 0.412 Q 85.384 0.272 85.564 0.192 A 0.941 0.941 0 0 1 85.939 0.112 A 1.077 1.077 0 0 1 85.952 0.112 Q 86.16 0.112 86.344 0.192 Q 86.528 0.272 86.668 0.412 Q 86.808 0.552 86.892 0.74 Q 86.976 0.928 86.976 1.136 Z M 135.824 10.904 Q 135.824 10.696 135.9 10.512 Q 135.976 10.328 136.108 10.192 A 0.975 0.975 0 0 1 136.413 9.981 A 1.109 1.109 0 0 1 136.424 9.976 Q 136.608 9.896 136.816 9.896 Q 137.024 9.896 137.208 9.976 Q 137.392 10.056 137.528 10.192 Q 137.664 10.328 137.74 10.512 Q 137.816 10.696 137.816 10.904 A 1.07 1.07 0 0 1 137.786 11.16 A 0.929 0.929 0 0 1 137.74 11.3 Q 137.664 11.48 137.528 11.616 Q 137.392 11.752 137.208 11.828 Q 137.024 11.904 136.816 11.904 Q 136.608 11.904 136.424 11.828 Q 136.24 11.752 136.108 11.616 Q 135.976 11.48 135.9 11.3 A 0.974 0.974 0 0 1 135.828 10.997 A 1.165 1.165 0 0 1 135.824 10.904 Z" vector-effect="non-scaling-stroke"/></g></svg>