<svg xmlns="http://www.w3.org/2000/svg" viewBox="0 0 651.4 417.8"><path d="M128 417A125 125 0 0 1 18 307v-6l-9 1H0v-11c1-20 5-37 15-56 19-38 53-65 95-74 9-2 11-2 27-2 17 0 19 0 27 2 24 5 43 15 64 31l2 2 7-6 6-7-3-8-3-8c1-2-20-54-21-53h-8c-9 1-15 0-24-5-13-6-17-12-14-20 2-4 6-8 10-9 5-1 23-1 36 1 12 2 12 2 21 0 14-2 24-2 28-1 4 2 7 6 7 10v4c-1 2-4 3-7 3-7 0-23 4-33 10l-8 4 1 2a15620 15620 0 0 1 59 140 271 271 0 0 0 57-33 201 201 0 0 0 61-85 2296 2296 0 0 1 23-47l-1-5-4-13-8-25c0-2 2-4 7-10 8-10 8-10 9-16l1-4h-19l-22 2c-16 0-16 0-16-6 0-3 0-4 2-6s2-2 17-3c24-1 43 1 49 5 5 3 5 7 0 16l-4 9c-2 5-3 5-8 8l-6 3c-1 2 0 5 2 11l9 18 23-8 4-1-1-5v-5l12-1 38-2c29-2 54-3 55-2a802 802 0 0 1-11 88c-3 3-25 5-56 5l-21 2 3 8c1 6 2 6 3 6l8-2a141 141 0 0 1 100 9l-3 6-2 6 6 4a123 123 0 0 1 6 209 123 123 0 0 1-188-74c-2-6-2-6-10-4h-5l-3-20a139 139 0 0 1 65-121l-8-22-2 2a4334 4334 0 0 1-113 133l-7 9 2 2c4 5 6 12 6 18 1 11-2 20-11 28l-5 5 4 10 5 13c2 2 2 2 6 2h4v5c0 4 0 6-2 8l-1 3h-25l-1-3c0-5 3-13 6-13h2l-6-15-3-6h-7l-11-2c-11-4-19-12-22-23l-3-5-2 1-2 8a123 123 0 0 1-132 91zm25-18 7-1-2-11a42777 42777 0 0 1-20-81l-26 89 5 2c12 3 24 3 36 2zm21-4c11-4 25-12 34-19l3-2-6-6a4037 4037 0 0 1-61-64l10 44 12 49 8-2zm-55-46 13-44-13 11a55720 55720 0 0 1-46 44l-8 8 4 3a109 109 0 0 0 37 22l13-44zm426 39 6-1a3864 3864 0 0 0-22-91l-27 89 15 4 28-1zm22-6c11-5 25-13 31-19l2-2-3-3a17399 17399 0 0 1-62-64l21 90c1 1 3 1 11-2zm-68-5a5132 5132 0 0 0 23-83 4232 4232 0 0 0-66 66l16 13c6 4 22 11 24 11l3-7zm-273-20 7-12c4-6 8-17 8-18a1635 1635 0 0 0-90-24l6 7 40 42 17 18 4-4 8-9zM96 330c18-16 31-30 31-30l-88 21 8 21 9 15 5 6 2-2 33-31zm512 23a104 104 0 0 0 21-37l-90-27 65 68 4-4zm-128-27a38318 38318 0 0 1 38-37 3060 3060 0 0 0-91 24c1 5 7 18 11 24l12 17 30-28zm-237-6 1-5c1-3 1-3-1-4l-16-2a1890 1890 0 0 1-36-3 1988 1988 0 0 0 52 14zM83 305l44-11-39-12-43-13-6-2-1 5a104 104 0 0 0 0 43l45-10zm549-3a125 125 0 0 0-1-40l-90 22 88 26c2 0 2-1 3-8zm-159-8 45-11-90-27c-4-1-7 36-3 48l2 1 46-11zm-351-14a9503 9503 0 0 1-56-59 130 130 0 0 0-24 37v4l86 26-6-8zm0-42-10-44c-1-1-12 3-18 6l-21 14-3 3 13 14a133061 133061 0 0 1 50 52l-11-45zm30 0 13-45c-1-1-16-3-25-3-10-1-22 1-23 2 0 1 21 91 22 90l13-44zm170 39 27-32c48-55 94-110 94-111l-12-31-13 26c-21 42-26 50-34 62-12 17-20 26-33 36a291 291 0 0 1-64 35l4 8 4 8h7l11 2 4 2 5-5zm308-21a116 116 0 0 0-21-40l-2-2-3 3-5 4a10670 10670 0 0 0-59 57l90-22zm-443-18 21-21-3-3c-4-4-15-11-22-14l-12-5-24 81 40-38zm-15 38 29-3c17-1 34-4 37-6s-10-29-20-40l-2-3-26 25c-33 31-31 29-29 29l11-2zm110 0-2-4a1053 1053 0 0 1-33-81l-1-2-2 2-5 5-4 3 6 6c15 18 27 42 31 64 1 6 2 6 3 7h7zm224-10-13-17-21-23-17-17-3 3a108 108 0 0 0-23 38l86 26-9-10zm67-28c29-27 30-28 29-30-6-6-20-16-31-21-10-4-9-5-13 10a144248 144248 0 0 0-23 76c0 1 5-3 38-35zm-49 34-21-89c0-1-3-1-8 1l-5 3 1 4 1 4-5 3-5 2 4 14c8 26 13 33 28 49a549 549 0 0 1 10 9zm19-45 13-45a100 100 0 0 0-48-1l21 90c1 1 0 6 14-44zm-67-9a474 474 0 0 1-8-20l-9 7 21 22-4-9zm7-24c2-1 3-3 2-5-1-1-1 0-4 1-2 1-3 1-2 3s1 2 4 1zm-11-35 3-2-7-26c-2-7-2-8-3-5l-3 8-3 6 2 6 6 15 5-2zm-13-33 3-11a1128 1128 0 0 1-7-46l-20 7a558 558 0 0 0 22 56l2-6z" fill="currentColor"/></svg>