<svg version="1.1" xmlns="http://www.w3.org/2000/svg" xmlns:xlink="http://www.w3.org/1999/xlink" x="0" y="0" viewBox="0, 0, 651.445, 417.771">
  <g id="layer1">
    <path d="M127.966,417.091 C98.12,413.947 68.69,398.83 49.152,376.609 C31.821,356.897 20.486,331.233 18.445,307.078 L17.964,301.398 L8.982,301.905 L0,302.413 L0.414,290.949 C1.148,270.613 5.445,253.78 14.635,235.234 C33.777,196.61 68.241,169.822 110.409,160.793 C119.117,158.928 121.157,158.776 137.452,158.776 C153.748,158.776 155.788,158.928 164.496,160.793 C187.81,165.785 207.385,175.56 227.864,192.434 L230.15,194.318 L236.651,187.776 L243.151,181.234 L239.886,173.238 C237.889,168.349 236.89,164.972 237.313,164.549 C238.368,163.494 217.454,111.405 216.121,111.771 C215.547,111.928 211.702,112.217 207.577,112.413 C198.683,112.835 193.473,111.707 184.095,107.326 C170.892,101.158 166.673,94.997 170.077,86.852 C171.773,82.793 175.767,79.21 179.699,78.22 C185.213,76.831 202.521,77.183 215.811,78.954 C227.521,80.515 228.002,80.522 236.811,79.257 C251.268,77.183 260.546,76.905 264.529,78.426 C269.337,80.262 272.456,84.065 272.441,88.073 C272.435,89.812 272.182,91.606 271.878,92.06 C270.91,93.511 268.129,94.609 265.426,94.609 C257.906,94.609 242.232,99.493 231.713,105.114 L224.482,108.978 L225.461,111.356 C226,112.664 230.616,124.028 235.719,136.609 C240.821,149.191 245.894,160.666 246.99,162.109 C248.087,163.553 251.099,170.472 253.684,177.484 C259.233,192.54 277.329,238.291 280.605,245.547 C281.861,248.331 283.2,250.609 283.579,250.609 C284.641,250.609 301.274,242.547 308.827,238.37 C321.489,231.369 335.594,222.683 341.34,218.348 C352.198,210.157 369.268,191.067 378.851,176.399 C381.127,172.914 391.406,153.508 401.693,133.274 C411.98,113.04 421.561,94.48 422.984,92.029 C424.87,88.784 425.447,87.053 425.111,85.654 C424.856,84.598 424.521,82.722 424.366,81.484 C424.21,80.247 422.33,74.341 420.188,68.359 C412.997,48.28 411.952,45.047 411.952,42.874 C411.952,41.224 413.595,38.816 418.89,32.706 C427.093,23.239 427.389,22.738 428.041,17.239 L428.544,12.993 L424.011,13.404 C421.146,13.664 419.102,13.502 418.454,12.965 C417.687,12.328 415.441,12.393 409.509,13.226 C405.153,13.838 395.397,14.562 387.83,14.835 C371.901,15.41 371.786,15.368 371.883,8.954 C371.927,6.033 372.342,4.879 373.911,3.31 C375.847,1.374 376.17,1.322 391.48,0.459 C415.264,-0.881 434.314,0.772 439.76,4.65 C444.913,8.32 444.945,12.132 439.893,20.799 C438.231,23.651 436.269,27.672 435.532,29.734 C433.706,34.851 433.276,35.296 427.702,37.823 C425.021,39.039 422.579,40.417 422.276,40.884 C421.171,42.59 421.757,46.057 424.234,52.47 C426.22,57.612 431.682,69.424 432.532,70.414 C432.815,70.744 452.153,64.071 455.91,62.348 L459.614,60.648 L459.329,55.604 L459.044,50.559 L470.561,50.043 C476.895,49.76 494.059,48.72 508.702,47.734 C538.131,45.75 563.234,44.9 563.831,45.866 C564.24,46.528 562.106,65.701 557.821,99.859 C556.398,111.203 555.008,123.438 554.732,127.047 C554.457,130.656 553.859,133.888 553.404,134.229 C550.335,136.528 527.917,138.552 497.226,139.3 C477.835,139.773 475.673,139.95 476.087,141.031 C476.342,141.693 477.456,145.211 478.563,148.849 C480.316,154.607 480.771,155.42 482.077,155.133 C482.902,154.951 486.615,153.898 490.327,152.793 C516.303,145.062 545.677,145.612 572.658,154.334 C580.965,157.019 590.452,160.957 590.452,161.72 C590.452,161.952 589.121,164.791 587.493,168.028 L584.535,173.913 L591.056,177.776 C600.99,183.661 607.313,188.633 615.952,197.352 C633.761,215.325 645.401,237.745 649.825,262.593 C651.651,272.851 652,291.913 650.532,301.234 C647.506,320.451 641.207,336.777 630.856,352.234 C621.185,366.674 611.225,376.612 596.565,386.448 C569.03,404.922 534.888,411.396 502.327,404.318 C456.299,394.313 419.601,358.574 408.604,313.047 C407.108,306.851 407.341,306.959 399.202,308.713 C396.521,309.29 394.1,309.532 393.821,309.249 C393.063,308.478 391.763,298.095 391.24,288.62 C389.706,260.88 399.204,229.09 416.263,204.859 C424.999,192.452 443.595,175.086 455.978,167.772 C456.146,167.673 448.59,146.911 448.212,146.432 C448.08,146.266 447.209,147.102 446.275,148.29 C442.524,153.06 409.29,192.498 398.954,204.445 C372.682,234.812 338.981,274.243 333.322,281.236 L326.441,289.738 L327.964,291.876 C331.595,296.975 334.088,303.773 334.492,309.673 C335.285,321.288 331.816,330.086 323.353,337.921 L318.092,342.793 L322.021,353.332 C324.183,359.129 326.583,364.911 327.356,366.182 C328.678,368.356 328.993,368.478 332.669,368.239 L336.577,367.984 L336.798,373.011 C336.97,376.922 336.675,378.712 335.47,381.074 L333.922,384.109 L321.228,384.109 L308.534,384.109 L308.306,380.547 C307.983,375.525 311.383,368.359 314.088,368.359 C315.113,368.359 315.952,368.106 315.952,367.797 C315.951,366.796 312.966,359.141 310.172,352.976 L307.449,346.968 L300.263,346.895 C295.005,346.841 291.924,346.403 288.777,345.26 C278.287,341.451 270.354,333.113 267.12,322.496 C266.023,318.895 265.185,317.399 264.106,317.117 C263.283,316.902 262.481,317.123 262.323,317.605 C262.165,318.089 261.161,321.852 260.092,325.967 C254.802,346.322 244.703,364.256 229.771,379.814 C203.332,407.359 165.854,421.082 127.966,417.091 z M152.818,399.075 C156.526,398.65 159.779,398.062 160.048,397.769 C160.316,397.475 159.437,392.678 158.094,387.109 C156.751,381.541 151.857,361.122 147.218,341.734 C142.579,322.347 138.653,306.344 138.493,306.172 C138.333,306 138.061,306.001 137.888,306.173 C137.46,306.602 111.765,393.206 111.66,394.573 C111.603,395.328 113.296,396.068 117.202,396.994 C128.774,399.736 140.874,400.443 152.818,399.075 z M173.572,394.576 C185.366,390.732 199.059,383.218 208.323,375.506 L210.569,373.636 L204.886,367.81 C201.761,364.606 189.806,352.028 178.32,339.859 C154.133,314.233 144.041,303.751 143.827,304.034 C143.743,304.144 148.46,324.147 154.308,348.484 C166.822,400.561 165.906,396.859 166.274,396.859 C166.435,396.859 169.719,395.832 173.572,394.576 z M119.325,349.258 C126.393,325.347 131.924,305.531 131.616,305.223 C131.309,304.916 125.661,309.778 119.067,316.029 C112.473,322.281 101.002,333.145 93.577,340.174 C86.152,347.202 76.702,356.266 72.577,360.315 L65.077,367.678 L69.202,371.426 C78.614,379.977 88.443,386.371 99.706,391.267 C102.922,392.665 105.76,393.567 106.014,393.272 C106.267,392.976 112.257,373.17 119.325,349.258 z M545.452,387.826 C548.546,387.346 551.17,386.867 551.284,386.762 C551.602,386.469 529.914,296.321 529.403,295.81 C529.155,295.562 528.834,295.5 528.69,295.672 C528.263,296.18 502.495,383.545 502.407,384.782 C502.318,386.043 507.57,387.462 516.537,388.599 C522.965,389.414 537.783,389.018 545.452,387.826 z M566.696,381.873 C578.223,377.362 592.31,368.758 597.854,362.844 L599.631,360.948 L597.104,358.336 C595.714,356.899 581.272,341.694 565.01,324.546 C548.747,307.399 535.299,293.513 535.125,293.687 C534.872,293.939 555.219,380.434 556.351,383.922 C556.832,385.403 558.544,385.064 566.696,381.873 z M498.878,376.797 C504.797,357.478 522.952,295.721 522.952,294.907 C522.952,294.4 522.634,294.097 522.244,294.234 C521.508,294.495 461.519,351.2 457.009,355.9 C454.453,358.563 454.447,358.584 455.884,360.187 C457.611,362.115 468.087,370.25 472.388,373.003 C478.136,376.683 493.598,383.899 496.108,384.073 C496.399,384.093 497.646,380.819 498.878,376.797 z M225.624,356.98 C227.941,353.762 231.332,348.51 233.159,345.307 C236.648,339.192 241.313,327.97 240.644,327.301 C240.428,327.085 222.775,321.702 201.415,315.339 C175.821,307.714 160.659,303.566 156.952,303.174 C153.859,302.847 151.184,302.702 151.008,302.851 C150.833,303.001 153.702,306.245 157.383,310.062 C168.626,321.716 179.053,332.663 197.036,351.689 L214.241,369.894 L217.827,366.362 C219.799,364.42 223.308,360.198 225.624,356.98 z M96.474,330.127 C113.628,313.843 127.419,300.286 127.12,299.999 C126.616,299.515 40.123,319.939 39.333,320.729 C38.59,321.472 43.363,334.412 47.197,342.045 C49.39,346.412 53.392,352.955 56.09,356.585 L60.995,363.185 L63.139,361.46 C64.319,360.511 79.319,346.411 96.474,330.127 z M607.853,352.887 C612.861,347.212 617.593,340.303 621.4,333.109 C624.844,326.602 629.19,316.069 628.635,315.578 C628.189,315.183 539.202,288.86 539.002,289.063 C538.639,289.434 603.391,357.169 603.907,356.959 C604.21,356.836 605.986,355.003 607.853,352.887 z M480.311,326.172 C496.519,310.806 511.812,296.318 514.296,293.977 C516.78,291.635 518.597,289.504 518.334,289.241 C517.963,288.87 443.617,306.23 429.681,309.941 C426.985,310.659 426.816,310.865 427.229,312.928 C428.153,317.548 433.835,330.741 437.629,337.076 C441.669,343.821 449.322,354.109 450.299,354.109 C450.598,354.109 464.104,341.538 480.311,326.172 z M243.127,320.172 C243.478,319.244 244.005,317.053 244.298,315.303 C244.803,312.299 244.714,312.075 242.705,311.284 C241.535,310.824 234.502,309.97 227.077,309.388 C219.652,308.805 208.523,307.85 202.344,307.265 C196.166,306.679 191.019,306.293 190.906,306.406 C190.715,306.597 240.631,321.66 241.908,321.797 C242.228,321.832 242.776,321.1 243.127,320.172 z M82.531,304.58 C106.72,298.789 126.659,293.903 126.839,293.722 C127.268,293.294 130.281,294.224 87.952,281.713 C67.534,275.678 48.231,269.956 45.058,268.999 L39.289,267.258 L38.157,272.246 C36.041,281.576 35.287,293.236 36.18,302.831 C37.005,311.698 37.568,315.109 38.208,315.109 C38.396,315.109 58.342,310.371 82.531,304.58 z M632.107,302.172 C633.779,292.879 633.975,276.933 632.527,268.047 C631.973,264.644 631.307,261.848 631.048,261.834 C629.685,261.762 541.104,283.265 541.409,283.595 C541.972,284.201 627.378,309.689 629.15,309.779 C630.567,309.851 630.861,309.095 632.107,302.172 z M472.89,294 C497.537,288.114 517.699,283.115 517.694,282.891 C517.689,282.592 436.933,258.337 428.32,256.048 C423.899,254.872 421.44,292.166 425.154,304.078 C425.41,304.897 426.062,305.281 426.825,305.062 C427.514,304.863 448.243,299.885 472.89,294 z M121.985,280.402 C117.911,276.163 103.648,261.144 90.291,247.027 C76.933,232.91 65.795,221.36 65.541,221.36 C64.805,221.36 59.103,228.21 54.511,234.61 C50.569,240.105 44.683,251.353 41.909,258.694 C40.852,261.494 40.838,261.958 41.8,262.328 C44.302,263.288 127.41,287.973 128.36,288.038 C128.928,288.078 126.059,284.641 121.985,280.402 z M122.451,238.474 C116.595,214.005 111.678,193.853 111.524,193.692 C111.042,193.191 99.828,197.41 94.327,200.163 C87.219,203.72 77.875,209.886 73.354,214.002 L69.631,217.393 L82.729,231.2 C89.933,238.794 104.064,253.697 114.131,264.318 C124.197,274.939 132.583,283.479 132.766,283.296 C132.949,283.113 128.307,262.943 122.451,238.474 z M152.439,237.673 C159.598,213.439 165.266,193.423 165.035,193.192 C163.656,191.813 148.902,189.687 140.077,189.597 C130.393,189.497 118.318,190.911 117.496,192.242 C116.953,193.12 138.414,282.984 138.995,282.265 C139.231,281.973 145.281,261.907 152.439,237.673 z M321.688,277.047 C323.79,274.263 335.931,259.977 348.668,245.302 C396.548,190.137 443.452,134.963 443.452,133.807 C443.452,132.818 431.842,102.86 431.463,102.872 C431.251,102.878 425.201,114.438 418.019,128.559 C396.62,170.633 391.932,179.175 383.626,191.222 C371.89,208.246 364.197,216.576 350.827,226.735 C339.293,235.5 321.073,245.833 300.015,255.551 C293.106,258.739 287.469,261.548 287.488,261.791 C287.508,262.035 289.28,265.778 291.426,270.109 L295.327,277.984 L302.077,278.449 C306.135,278.728 310.323,279.52 312.577,280.435 C314.64,281.271 316.674,281.991 317.097,282.033 C317.52,282.075 319.586,279.831 321.688,277.047 z M630.032,256.258 C630.511,255.83 625.284,242.246 622.52,236.734 C619.506,230.724 612.379,219.882 608.771,215.82 L606.849,213.656 L603.788,216.57 C602.104,218.173 600.169,219.991 599.486,220.609 C598.293,221.691 592.559,227.119 556.327,261.469 C547.252,270.073 539.733,277.337 539.619,277.612 C539.441,278.037 629.449,256.778 630.032,256.258 z M186.559,238.397 L208.327,216.81 L205.327,214.143 C200.585,209.926 189.641,202.859 182.955,199.695 C175.79,196.305 171.392,194.669 170.864,195.198 C170.493,195.568 147.754,271.661 146.763,275.845 C146.188,278.272 149.32,275.325 186.559,238.397 z M172.429,276.147 C178.21,275.343 191.184,273.981 201.259,273.12 C218.03,271.687 235.113,268.864 238.069,267.038 C241.148,265.134 227.519,237.581 218.332,227.138 L215.827,224.291 L189.577,249.136 C156.634,280.316 159.372,277.609 160.765,277.609 C161.4,277.609 166.649,276.952 172.429,276.147 z M282.202,275.63 C282.202,275.366 281.259,273.594 280.106,271.692 C277.542,267.463 261.091,227.987 253.349,207.484 C250.233,199.234 247.348,191.703 246.937,190.748 L246.19,189.011 L244.166,190.602 C243.053,191.478 240.529,193.703 238.558,195.547 L234.973,198.9 L240.628,205.442 C256.01,223.238 267.769,246.896 272.1,268.756 C273.299,274.809 273.533,275.3 275.359,275.581 C278.755,276.105 282.202,276.129 282.202,275.63 z M506.254,265.797 C501.178,260.125 495.032,252.784 492.597,249.484 C490.163,246.184 480.724,235.651 471.624,226.076 L455.077,208.667 L451.834,211.826 C444.482,218.985 435.517,232.849 431.008,244.031 C429.644,247.415 428.624,250.281 428.743,250.4 C429.005,250.662 514.085,276.006 514.905,276.067 C515.223,276.089 511.33,271.469 506.254,265.797 z M573.452,237.861 C601.84,210.932 603.045,209.678 601.838,208.334 C596.479,202.367 581.647,192.467 570.577,187.468 C561.074,183.176 562.208,182.302 557.746,197.359 C555.607,204.578 549.763,224.322 544.76,241.234 C539.757,258.147 535.504,272.433 535.309,272.981 C534.811,274.38 539.76,269.823 573.452,237.861 z M524.081,272.172 C523.715,271.112 502.702,183.14 502.702,182.666 C502.702,181.963 499.871,182.46 495.068,184.007 C492.254,184.913 489.952,186.041 489.952,186.513 C489.952,186.985 490.455,189.028 491.069,191.053 C491.684,193.078 492.19,194.934 492.194,195.178 C492.2,195.421 489.84,196.572 486.952,197.734 C484.065,198.897 481.703,200.047 481.704,200.291 C481.704,200.535 483.715,206.856 486.173,214.337 C494.468,239.59 498.765,247.169 513.507,262.544 C517.695,266.911 521.618,271.062 522.224,271.768 C523.525,273.282 524.541,273.503 524.081,272.172 z M543.482,226.609 C552.47,196.353 556.251,182.579 555.663,182.235 C553.715,181.093 541.468,179.254 533.064,178.841 C523.288,178.36 508.812,179.701 508.261,181.139 C507.974,181.886 528.294,268.017 529.428,270.859 C530.003,272.3 528.53,276.938 543.482,226.609 z M476.351,218.172 C474.273,213.531 471.56,207.203 470.323,204.109 C469.085,201.016 467.958,198.37 467.82,198.229 C467.361,197.766 459.146,204.315 459.364,204.971 C459.605,205.691 479.404,226.609 479.846,226.609 C480.001,226.609 478.428,222.813 476.351,218.172 z M483.091,193.536 C485.441,192.717 486.046,191.207 484.807,189.254 C484.306,188.462 483.655,188.526 481.444,189.58 C478.585,190.943 478.409,191.221 479.158,193.173 C479.698,194.582 480.009,194.61 483.091,193.536 z M471.638,159.489 C474.566,158.195 475.741,157.292 475.458,156.554 C473.645,151.829 468.801,135.564 467.749,130.667 C466.41,124.436 465.681,123.359 464.794,126.297 C464.514,127.225 463.118,130.73 461.692,134.085 L459.099,140.186 L461.334,146.46 C464.394,155.052 466.861,161.359 467.16,161.359 C467.297,161.359 469.312,160.518 471.638,159.489 z M459.065,126.297 C460.286,123.1 461.689,118.122 462.182,115.234 C462.99,110.498 462.893,108.994 461.191,99.859 C460.153,94.291 458.545,85.094 457.618,79.422 C456.676,73.66 455.578,69.109 455.131,69.109 C454.328,69.109 435.81,75.117 435.314,75.538 C435.168,75.661 439.312,87.006 444.522,100.748 C449.732,114.491 454.52,127.169 455.161,128.922 C455.802,130.675 456.443,132.109 456.585,132.109 C456.727,132.109 457.843,129.494 459.065,126.297 z" fill="currentColor"/>
  </g>
</svg>
