<?xml version="1.0" standalone="no"?>
<!DOCTYPE svg PUBLIC "-//W3C//DTD SVG 20010904//EN"
 "http://www.w3.org/TR/2001/REC-SVG-20010904/DTD/svg10.dtd">
<svg version="1.0" xmlns="http://www.w3.org/2000/svg"
 width="769.000000pt" height="769.000000pt" viewBox="0 0 769.000000 769.000000"
 preserveAspectRatio="xMidYMid meet">
<metadata>
Created by potrace 1.14, written by Peter Selinger 2001-2017
</metadata>
<g transform="translate(0.000000,769.000000) scale(0.100000,-0.100000)"
fill="#000000" stroke="none">
<path d="M343 6018 c2 -920 7 -1698 10 -1728 4 -30 9 -82 12 -115 3 -33 8 -71
11 -85 3 -14 6 -38 8 -55 5 -37 15 -103 21 -135 3 -13 7 -42 10 -65 4 -22 10
-56 15 -75 9 -34 17 -72 25 -115 11 -56 17 -79 21 -87 3 -5 8 -21 10 -36 4
-24 16 -66 32 -112 3 -8 6 -20 8 -27 3 -15 24 -83 31 -103 3 -8 7 -22 9 -30 2
-8 9 -30 18 -50 8 -19 31 -80 52 -135 21 -55 48 -125 62 -155 13 -30 23 -56
23 -58 -4 -7 194 -381 249 -472 66 -109 199 -311 210 -320 3 -3 17 -21 30 -40
34 -49 191 -251 215 -276 11 -11 32 -36 48 -55 111 -137 393 -420 561 -564 26
-22 62 -53 81 -70 48 -43 223 -182 331 -262 113 -84 155 -113 163 -113 5 0 11
-4 13 -8 4 -11 94 -72 106 -72 6 0 12 -4 14 -8 5 -13 191 -132 206 -132 6 0
12 -4 12 -8 0 -5 28 -23 63 -41 34 -19 69 -39 77 -47 8 -7 26 -17 40 -23 14
-6 57 -29 95 -51 92 -52 409 -210 424 -210 6 0 11 -4 11 -8 0 -5 6 -9 13 -9
10 0 61 -21 133 -55 15 -7 28 -6 45 3 13 7 24 11 24 10 0 -4 51 16 113 45 31
14 59 26 62 27 3 0 24 11 48 24 23 13 42 20 42 16 0 -4 4 -3 8 2 4 6 52 32
107 60 120 59 278 147 435 242 63 38 126 75 140 83 14 8 27 17 30 20 3 3 52
36 110 74 58 38 107 73 108 78 2 4 8 8 13 8 6 0 27 13 47 28 20 16 85 65 144
109 95 71 148 113 208 163 9 8 37 31 61 52 172 143 414 376 549 527 30 33 73
81 95 105 22 24 48 55 58 69 10 14 36 45 58 69 21 24 39 46 39 49 0 3 8 15 18
26 19 23 42 52 101 133 22 30 45 60 51 67 5 7 10 14 10 17 0 3 20 33 44 68 24
35 76 117 115 183 40 66 76 127 81 135 19 29 188 375 195 398 3 12 10 22 14
22 4 0 8 6 8 13 0 11 30 91 72 192 14 33 50 143 81 245 15 52 31 102 34 110 3
8 8 26 11 40 2 14 16 72 30 130 13 58 27 121 30 140 3 20 8 47 11 60 10 50 23
126 29 170 3 25 7 56 10 70 2 14 7 54 10 90 3 36 9 94 12 130 3 36 8 811 10
1723 l4 1657 -3501 0 -3501 0 4 -1672z"/>
</g>
</svg>
