<svg xml:space="preserve" xmlns="http://www.w3.org/2000/svg" clip-rule="evenodd" stroke-linecap="round" stroke-linejoin="round" viewBox="241 27.15 754 744.85"><g><path d="M621 316s-3 11 4 16l46-13s3-11-3-16l-47 13Z"/><path d="M707 327s4 1 2 5l-18 7-13-2v-1s-32 9-31 18c0 0-4 0-3-1 1 0 0-5 8-9l25-12s-2-12-6-13c0 0-1-16-3-16-1-1 4-6 9-6 0 0 5-1 8 4l1 14 8-2s3 4-3 9l-3 4 4 2 15-1Z"/><path d="M691 320h9v4s-4 2-13 2l4-6Z"/><path d="M683 302s10-3 20-2c10 0 15 3 22 11l11 11s1 11-9 10l-7-7c-8-9-12-15-26-12l-10 4-1-15Z"/><path d="m722 324-7 5s-4 1 0 12l17 43s5 1 7-3l-15-39s-2-5 0-7l5-4-7-7Z"/><path d="M727 331v5h6l1-6-7 1Zm5 53s-3 2 0 4l9-4s2-4-2-3l-7 3Zm1 4s-2 2 0 4l11-4s1-3-2-4l-9 4Z"/><path d="m734 392-4 2v4s13-3 19-9c0 0 1-3-2-3l-5 2-8 4Z"/><path d="M730 397s-3 4 2 5c0 0 11-2 18-8 0 0 3-6-1-5-3 0-19 8-19 8Z"/><path d="m735 398 31 82s13-3 13-8l-32-80-12 6Z"/><path d="m604 634-14-12 164-178 11 15-161 175ZM504 438l70 181-13 1-68-178 11-4Z"/><path d="M501 460 393 608l6 6 113-141-11-13Z"/><path d="M383 606h1c12 0 22 11 22 24 0 14-10 25-22 25h-1c-13 0-23-11-23-25 0-13 10-24 23-24Z"/><path d="m401 630 160 15-3 9-158-16 1-8Z"/><path d="M574 615h4c21 0 37 17 37 39 0 21-16 39-37 39h-4c-21 0-37-18-37-39 0-22 16-39 37-39Z"/><path d="m378 607 201 9-7 4-193-11m1 43 186 36-1 4-186-38m475-58h4c14 0 25 12 25 27s-11 27-25 27h-4c-14 0-25-12-25-27s11-27 25-27Z"/><path d="M851 481c-74 0-134 65-134 145 0 81 60 146 134 146h10c74 0 134-65 134-146 0-80-60-145-134-145h-10Zm-1 28h8c59 0 107 52 107 115 0 64-48 116-107 116h-8c-59 0-107-52-107-116 0-63 48-115 107-115Zm-465-27c-74 0-134 65-134 145s60 145 134 145h10c74 0 134-65 134-145s-60-145-134-145h-10Zm-1 27h7c60 0 107 52 107 116s-47 116-107 116h-7c-60 0-108-52-108-116s48-116 108-116Zm200 182 12 25 11 1-11-32-12 6Z"/><path d="M587 715h30v13l-30 1v-14Zm-98-277 13-5h2l1 3s1 1-1 2l-13 5s-5-1-2-5Z"/><path d="m492 438-6-18 9-2 7 16-10 4Z"/><path d="M493 426s20-3 33-10c0 0 16-11 23-13l13-1s3-17-11-17c-15 0-39 5-46 5s-41-8-47 2c0 0-13 17 6 26 5 2 7 6 29 8Zm272 52s-1 2 1 4l13-5c1-1 3-3 0-4l-14 5Z"/><path d="M768 481s5 19 13 33c8 15 69 111 69 111v-1s10 13 8-3l-61-114c-5-7-11-19-20-31-10-11-9 5-9 5Z"/><path d="m705 649 6-5s-16-83 66-143c0 0 33-22 70-21l4-5s-55-2-91 33c0 0-70 57-55 141Z"/><path d="M707 625h123l-1 3H707"/><path d="M851 481c-74 0-134 65-134 145 0 81 60 146 134 146h10c74 0 134-65 134-146 0-80-60-145-134-145h-10Zm-1 28h8c59 0 107 52 107 115 0 64-48 116-107 116h-8c-59 0-107-52-107-116 0-63 48-115 107-115Z"/><path d="m828 480 28 128-3 1-28-128M708 329l13-5 1 1-13 6-1-2Zm-8-8h18l1 1-20 1 1-2Zm34 1c0-2 20-9 22 0 3 9 3 37-1 46-3 7-2 18-1 23 1 4 5 14 6 22 1 4 0 6-1 10l-2 5 1 2 1-3s3-6 2-14c0-8-5-18-5-21-2-10-2-18 1-24s3-25 2-37-2-12-3-13c-1-3-14-4-23 2"/><path d="m730 316 8-2c1 0 11-1 14 1 2 2 3 9 3 14a365 365 0 0 0 10 70l-2 11c-2 7-4 11-7 13l-1-3s2-1 5-8c2-6 5-14-1-37-4-13-3-24-5-33l-2-23c-1-2-1-6-13-3-6 1-8 3-8 3l-1-3ZM241 601l10-8s7-47 46-78c38-31 57-30 80-34 23-5 70 2 101 31s45 52 54 103c0 0-1 6 5 0 2-1 2-44-34-88-42-51-101-55-101-55s-59-9-113 39c-37 31-48 90-48 90"/><path d="m256 568 114 47-1 2-113-47m131 172v-8h2l1 8h-3Zm567-173-8 6 2 4 7-4 1-2-2-4ZM428 462l-44 154-11 1s-76-125-87-158v3h8s66 129 83 152l44-153c-1 4 7 1 7 1Zm-114-17-41 17"/><path d="m273 462 158 5s9-3 14-16c0 0-4-6-10 0 0 0 0 10-25 8l-138-3s-6 3 1 6Zm242 91-118 68 1 2 119-68-2-2Zm342 46c12 0 22 10 22 23v1c0 13-10 23-22 23s-21-10-21-23v-1c0-13 9-23 21-23Zm-12 42v107"/><path d="m845 640-1 108 1 3h2l-1-109 1-4-2 2Zm23 0-3 108s5 2 2 0l3-109m-30-10-15 118 2 1 14-117 1-5s1-12-1-4l-1 7Z"/><path d="m802 740 65-105-2 4-61 102m-17-16 80-92-2 4-76 89m-16-13 72-99-2 4-68 96"/><path d="m760 695 88-82-2 4-85 80"/><path d="m748 674 112-32-4 3-107 31m-3-28 115-7-4 1-111 8m130-14 96-7m-97 7 98-6h2v-3l-99 7h-3l2 2Zm-2-26 99-2s0-6-1-3l-99 4"/><path d="m865 643 108 8 1-2-108-8-4-1s-11 0-4 2l7 1Z"/><path d="m967 677-99-64 4 1 96 61"/><path d="m955 694-88-82 4 2 85 79m-12 17-94-72 4 1 92 70"/><path d="m929 726-79-91 3 2 78 87"/><path d="m911 740-36-120 3 3 35 116m-25 5-14-125 1 4 15 121m-21-141 1-107m-1 108 1-108v-3h-2l-1 109v4l2-2Zm-24 0 5-109s-6-1-3 1l-3 109m30 10 15-118-1-1-15 118-2 4s-1 12 2 5l1-8Z"/><path d="m912 505-65 104 1-4 63-101m16 16-80 91 2-4 77-88m15 13-73 99 2-5 69-95"/><path d="m954 550-88 81 2-4 85-78"/><path d="m966 571-112 31 3-3 108-30m3 28-115 6 4-1 111-7m-128 12-97 8m98-8-99 7h-2v3l99-8h4l-2-2Zm2 26-99 3v3l100-4"/><path d="m851 601-109-8-1 2 108 7 5 1s10 0 3-2h-6Z"/><path d="m748 567 99 64-4-1-96-61m13-19 88 81-3-2-86-78m11-17 95 71-4-1-92-69"/><path d="m785 518 80 91-3-2-78-88"/><path d="m804 504 36 120-3-4-35-116m25-5 15 126-2-4-15-121"/><path d="M857 599c12 0 22 10 22 23v1c0 13-10 23-22 23s-21-10-21-23v-1c0-13 9-23 21-23Zm-12 42v107"/><path d="m845 640-1 108 1 3h2l-1-109 1-4-2 2Zm23 0-3 108s5 2 2 0l3-109m-30-10-15 118 2 1 14-117 1-5s1-12-1-4l-1 7Z"/><path d="m802 740 65-105-2 4-61 102m-17-16 80-92-2 4-76 89m-16-13 72-99-2 4-68 96"/><path d="m760 695 88-82-2 4-85 80"/><path d="m748 674 112-32-4 3-107 31m-3-28 115-7-4 1-111 8m130-14 96-7m-97 7 98-6h2v-3l-99 7h-3l2 2Zm-2-26 99-2s0-6-1-3l-99 4"/><path d="m865 643 108 8 1-2-108-8-4-1s-11 0-4 2l7 1Z"/><path d="m967 677-99-64 4 1 96 61"/><path d="m955 694-88-82 4 2 85 79m-12 17-94-72 4 1 92 70"/><path d="m929 726-79-91 3 2 78 87"/><path d="m911 740-36-120 3 3 35 116m-25 5-14-125 1 4 15 121m-21-141 1-107m-1 108 1-108v-3h-2l-1 109v4l2-2Zm-24 0 5-109s-6-1-3 1l-3 109m30 10 15-118-1-1-15 118-2 4s-1 12 2 5l1-8Z"/><path d="m912 505-65 104 1-4 63-101m16 16-80 91 2-4 77-88m15 13-73 99 2-5 69-95"/><path d="m954 550-88 81 2-4 85-78"/><path d="m966 571-112 31 3-3 108-30m3 28-115 6 4-1 111-7m-128 12-97 8m98-8-99 7h-2v3l99-8h4l-2-2Zm2 26-99 3v3l100-4"/><path d="m851 601-109-8-1 2 108 7 5 1s10 0 3-2h-6Z"/><path d="m748 567 99 64-4-1-96-61m13-19 88 81-3-2-86-78m11-17 95 71-4-1-92-69"/><path d="m785 518 80 91-3-2-78-88"/><path d="m804 504 36 120-3-4-35-116m25-5 15 126-2-4-15-121m20 141v107m0-108-1 108 1 3h2l-1-109 1-4-2 2Zm23 0-3 108s5 2 2 0l3-109"/><path d="m840 629-15 118 2 1 14-117 1-5s1-12-1-4l-1 7Z"/><path d="m802 740 65-105-2 4-61 102m-17-16 80-92-2 4-76 89m-16-13 72-99-2 4-68 96"/><path d="m760 695 88-82-2 4-85 80"/><path d="m748 674 112-32-4 3-107 31m-3-28 115-7-4 1-111 8m130-14 96-7m-97 7 98-6h2v-3l-99 7h-3l2 2Zm-2-26 99-2s0-6-1-3l-99 4"/><path d="m865 643 108 8 1-2-108-8-4-1s-11 0-4 2l7 1Z"/><path d="m967 677-99-64 4 1 96 61"/><path d="m955 694-88-82 4 2 85 79m-12 17-94-72 4 1 92 70"/><path d="m929 726-79-91 3 2 78 87"/><path d="m911 740-36-120 3 3 35 116m-25 5-14-125 1 4 15 121m-21-141 1-107m-1 108 1-108v-3h-2l-1 109v4l2-2Zm-24 0 5-109s-6-1-3 1l-3 109m30 10 15-118-1-1-15 118-2 4s-1 12 2 5l1-8Z"/><path d="m912 505-65 104 1-4 63-101m16 16-80 91 2-4 77-88m15 13-73 99 2-5 69-95"/><path d="m954 550-88 81 2-4 85-78"/><path d="m966 571-112 31 3-3 108-30m3 28-115 6 4-1 111-7m-128 12-97 8m98-8-99 7h-2v3l99-8h4l-2-2Zm2 26-99 3v3l100-4"/><path d="m851 601-109-8-1 2 108 7 5 1s10 0 3-2h-6Z"/><path d="m748 567 99 64-4-1-96-61m13-19 88 81-3-2-86-78m11-17 95 71-4-1-92-69"/><path d="m785 518 80 91-3-2-78-88"/><path d="m804 504 36 120-3-4-35-116m25-5 15 126-2-4-15-121m20 141v107m0-108-1 108 1 3h2l-1-109 1-4-2 2Zm23 0-3 108s5 2 2 0l3-109"/><path d="m840 629-15 118 2 1 14-117 1-5s1-12-1-4l-1 7Z"/><path d="m802 740 65-105-2 4-61 102m-17-16 80-92-2 4-76 89m-16-13 72-99-2 4-68 96"/><path d="m760 695 88-82-2 4-85 80"/><path d="m748 674 112-32-4 3-107 31m-3-28 115-7-4 1-111 8m130-14 96-7m-97 7 98-6h2v-3l-99 7h-3l2 2Zm-2-26 99-2s0-6-1-3l-99 4"/><path d="m865 643 108 8 1-2-108-8-4-1s-11 0-4 2l7 1Z"/><path d="m967 677-99-64 4 1 96 61"/><path d="m955 694-88-82 4 2 85 79m-12 17-94-72 4 1 92 70"/><path d="m929 726-79-91 3 2 78 87"/><path d="m911 740-36-120 3 3 35 116m-25 5-14-125 1 4 15 121m-21-141 1-107m-1 108 1-108v-3h-2l-1 109v4l2-2Zm-24 0 5-109s-6-1-3 1l-3 109m30 10 15-118-1-1-15 118-2 4s-1 12 2 5l1-8Z"/><path d="m912 505-65 104 1-4 63-101m16 16-80 91 2-4 77-88m15 13-73 99 2-5 69-95"/><path d="m954 550-88 81 2-4 85-78"/><path d="m966 571-112 31 3-3 108-30m3 28-115 6 4-1 111-7m-128 12-97 8m98-8-99 7h-2v3l99-8h4l-2-2Zm2 26-99 3v3l100-4"/><path d="m851 601-109-8-1 2 108 7 5 1s10 0 3-2h-6Z"/><path d="m748 567 99 64-4-1-96-61m13-19 88 81-3-2-86-78m11-17 95 71-4-1-92-69"/><path d="m785 518 80 91-3-2-78-88"/><path d="m804 504 36 120-3-4-35-116m25-5 15 126-2-4-15-121M373 648v107m-1-108v111h3l-1-109 1-4-3 2Zm24-1-3 109s5 2 2 0l3-109m-31-10-15 118 2 1 15-118 1-5s1-11-2-4l-1 8Z"/><path d="m329 746 66-104-1 4-64 102m-16-17 81-91-2 4-78 89m-16-14 74-99-2 4-70 96"/><path d="m286 702 90-82-3 4-86 79"/><path d="m274 680 114-31-4 2-109 31m-3-27 117-8-4 2-113 8m132-14 98-7m-99 7 100-6 2-1 1-2-101 7h-4l2 2Zm-2-26 101-3s1-6-1-2l-101 3"/><path d="m393 649 110 9 1-2-110-8-4-1s-11-1-4 1l7 1Z"/><path d="m497 684-100-65 4 1 97 62m-13 19-90-82 4 2 87 78m-12 18-96-73 4 2 93 69"/><path d="m459 733-81-92 3 2 79 88"/><path d="m440 747-36-121 2 4 36 116m-26 5-14-126 2 4 14 122m-21-142 1-106m-1 107 1-108v-2l-2-1-1 109v4l2-2Zm-24 1 5-109h-3l-4 109m31 11 16-118-2-1-15 117-1 5s-1 12 1 4l1-7Z"/><path d="m442 512-67 103 1-4 64-101"/><path d="m456 527-82 90 2-4 79-88m16 14-74 98 1-4 71-95"/><path d="m484 557-90 81 2-4 87-79"/><path d="m496 578-114 30 3-2 110-30m3 28-117 6 3-2 114-6m-131 12-98 7m99-7-100 7h-2v3l101-8h3l-2-2Zm2 26-100 3v2l101-4"/><path d="m378 607-110-8-1 2 110 8 4 1s11 0 4-2l-7-1Z"/><path d="m273 573 102 64-4-1-99-61"/><path d="m286 556 90 81-4-1-87-78m12-18 96 72-4-1-94-69"/><path d="m312 524 82 91-4-2-79-87"/><path d="m331 510 36 120-2-3-36-116m25-5 15 125-2-4-15-121m21 142v107m-1-108v111h3l-1-109 1-4-3 2Zm24-1-3 109s5 2 2 0l3-109"/><path d="m367 636-15 118 2 1 15-118 1-5s1-11-2-4l-1 8Z"/><path d="m329 746 66-104-1 4-64 102m-16-17 81-91-2 4-78 89m-16-14 74-99-2 4-70 96"/><path d="m286 702 90-82-3 4-86 79"/><path d="m274 680 114-31-4 2-109 31m-3-27 117-8-4 2-113 8m132-14 98-7m-99 7 100-6 2-1 1-2-101 7h-4l2 2Zm-2-26 101-3s1-6-1-2l-101 3"/><path d="m393 649 110 9 1-2-110-8-4-1s-11-1-4 1l7 1Z"/><path d="m497 684-100-65 4 1 97 62m-13 19-90-82 4 2 87 78m-12 18-96-73 4 2 93 69"/><path d="m459 733-81-92 3 2 79 88"/><path d="m440 747-36-121 2 4 36 116m-26 5-14-126 2 4 14 122m-21-142 1-106m-1 107 1-108v-2l-2-1-1 109v4l2-2Zm-24 1 5-109h-3l-4 109m31 11 16-118-2-1-15 117-1 5s-1 12 1 4l1-7Z"/><path d="m442 512-67 103 1-4 64-101"/><path d="m456 527-82 90 2-4 79-88m16 14-74 98 1-4 71-95"/><path d="m484 557-90 81 2-4 87-79"/><path d="m496 578-114 30 3-2 110-30m3 28-117 6 3-2 114-6m-131 12-98 7m99-7-100 7h-2v3l101-8h3l-2-2Zm2 26-100 3v2l101-4"/><path d="m378 607-110-8-1 2 110 8 4 1s11 0 4-2l-7-1Z"/><path d="m273 573 102 64-4-1-99-61"/><path d="m286 556 90 81-4-1-87-78m12-18 96 72-4-1-94-69"/><path d="m312 524 82 91-4-2-79-87"/><path d="m331 510 36 120-2-3-36-116m25-5 15 125-2-4-15-121m385-104s-3 5 1 4m-5-53s5-15 15-16l1 32s-15 3-16-16Z"/><path d="m728 350 7-4 2 21-7 2-2-19Zm18-13 2 33h4l-2-34-4 1ZM430 466l66 3m-72-3 70 7v-2l-65-8-5 3Zm77 7s1 1-1 2m-209-7-11-1-2 31 10 1 3-31Z"/><path d="M288 478h16s6 2 2 6l-19 1 1-7Zm-7-9s-5-2-7 13c0 0-1 12 4 14 5 3 7-13 7-13s3-14-4-14Zm468-130s9 1 9 11c0 0 1 14-8 18 0 0-5-6-6-17s1-6 5-12ZM284 457s-21-34 11-74l126 5s29 24 1 72"/><path d="m323 395 7-58 70 5-3 57-74-4Z"/><path d="m295 384 35-47 2 2-34 45h-3Zm126 4-21-46-2 2 20 44h3Zm87 69 248-32 4 19-247 31-5-18Zm78-357c3-2 6 2 8 3l4 3c4 4 6 8 8 13l2 3"/><path d="M586 100c3-2 6 2 8 3l4 3c4 4 6 8 8 13l2 3"/><path d="M561 35h1c32 0 58 24 58 53 0 28-26 52-58 52h-1c-32 0-58-24-58-52 0-29 26-53 58-53Z"/><path d="M619 79v4c-2 2-3 6-3 7l-2 6c1 8 1 14 4 17l5 7c0 2-1 5-8 6l-1 9c1 1-6 2-6 2s5 2 3 5l-4 4s-5 16-11 17l-30-3s-58-5-42-65c0 0 15-55 63-46 0 0 24-6 32 30Z"/><path d="M512 115s23 36 12 53c0 0 42 16 53 7 0 0-5-9 3-20M539 32c-5 1-7 5-9 9l-5 17"/><path d="M529 35c-4 1-4 4-4 7 0 6 1 11 6 14"/><path d="m516 47 6-1c5-1 8 0 12 2"/><path d="M512 54c6-5 15-8 22-5m17-10c3-4 12-3 17-2l19 5 4 1 6-1c4 0 8-2 10-4"/><path d="M583 42c2-1 4 0 6 1l10 4h17l10-5"/><path d="M630 53h1-15c-9-1-18-4-25-8-3-1-4-2-5-4"/><path d="M597 49h11s13 14 16 27l4 6m-116 46c4-1 10-8 9-12 0-4-3-7-2-11"/><path d="M515 131c4-3 5-9 4-13l-1-5m-1 21c1-2 3-3 3-5l1-5 2-7m-3 22c7-7 8-17 5-26"/><path d="M521 133c-1-2 1-4 2-6l1-7m-24-27c4-2 6-7 8-10l2-5m-8 24c5-1 8-11 10-14m57-53c-5-2-9 1-13 2l-8 1h-5m-18 129s-9-5-7 1c0 0-7-3-6 1 0 0-18 3-25 10s-10 72-10 72l60-14 59-11-5 12 13-32c4-10 3-19-4-24-17-12-14-5-14-5s0-3-4-1c0 0-2-4-6-1"/><path d="M561 35h1c32 0 58 24 58 53 0 28-26 52-58 52h-1c-32 0-58-24-58-52 0-29 26-53 58-53Z"/><path d="M619 79v4c-2 2-3 6-3 7l-2 6c1 8 1 14 4 17l5 7c0 2-1 5-8 6l-1 9c1 1-6 2-6 2s5 2 3 5l-4 4s-5 16-11 17l-30-3s-58-5-42-65c0 0 15-55 63-46 0 0 24-6 32 30Z"/><path d="M512 115s23 36 12 53c0 0 42 16 53 7 0 0-5-9 3-20M539 32c-5 1-7 5-9 9l-5 17"/><path d="M529 35c-4 1-4 4-4 7 0 6 1 11 6 14"/><path d="m516 47 6-1c5-1 8 0 12 2"/><path d="M512 54c6-5 15-8 22-5m17-10c3-4 12-3 17-2l19 5 4 1 6-1c4 0 8-2 10-4"/><path d="M583 42c2-1 4 0 6 1l10 4h17l10-5"/><path d="M630 53h1-15c-9-1-18-4-25-8-3-1-4-2-5-4"/><path d="M597 49h11s13 14 16 27l4 6m-116 46c4-1 10-8 9-12 0-4-3-7-2-11"/><path d="M515 131c4-3 5-9 4-13l-1-5m-1 21c1-2 3-3 3-5l1-5 2-7m-3 22c7-7 8-17 5-26"/><path d="M521 133c-1-2 1-4 2-6l1-7m-24-27c4-2 6-7 8-10l2-5m-8 24c5-1 8-11 10-14m57-53c-5-2-9 1-13 2l-8 1h-5"/><path d="M609 41s-90 78-90 84c0 0-16 4-13-13 0 0 56-65 86-79 0 0 13-5 17 8Z"/><path d="M597 34s-45-16-72 1c0 0-40 26-25 62 0 0 6 27 23 31"/><path d="M546 29s-26-4-55 37c0 0-4 14 10 10m-28 117-13 75-6 76s74 37 125 8l-5-71 3-30 14-42-26 5"/><path d="M462 349s-20 28 2 50c23 21 81 17 100-4 0 0 27-3 10-39l-100-10m88 337-2 30s2 4 21 3h53c12-1 23 0 30-4 0 0 3-23-20-24l-36-6 4-32-48-1-2 34Z"/><path d="M612 678s-7-8-11 1l2 3s1-8 6-3c0 0 4 3 2 6l3 2s5-5-2-9Z"/><path d="M612 685s5-1 7-6l2 2-4 6M462 389l132 105s-23 32-22 74c0 0-2 71-1 104l17 2 49-189s9-29-23-51-56-50-56-50l-96 5Z"/><path d="m533 400 107 30s-40 36-44 69c0 0-24 44-26 70l17 10 96-140s26-32-8-53c-35-21-105-35-105-35l-37 49Z"/><path d="m533 400 107 30s-40 36-44 69c0 0-24 44-26 70l17 10 96-140s26-32-8-53c-35-21-105-35-105-35l-37 49Z"/><path d="m553 575-17 25s-1 4 16 14l45 30c11 7 19 13 27 14 0 0 15-18-4-31l-28-27 19-24-40-29-18 28Z"/><path d="M598 599s-3-10-10-5v4s5-6 6 1c0 0 3 5-1 6l1 4s7-2 4-10Z"/><path d="M594 605s5 3 9 0l1 3-7 2M493 177s-32 14-23 56c0 0 15 70 28 90 0 0 58 15 86 8l27-6s13-15 10-30-21-10-39-9c0 0-38-17-58-7 0 0-1-37-6-67 0 0 2-37-25-35Zm126 115 11 2"/><path d="M616 290h12s4 20-3 29l-15 2"/><path d="M626 292s21-9 28 4c8 13 17 18 12 27 0 0-6 3-8-2 0 0-3 12-8 4 0 0-3 11-9 2l-3 4-3 1-5-4 1 1s-9-6-11-20"/><path d="M493 177s-32 14-23 56c0 0 15 70 28 90 0 0 58 15 86 8l27-6s13-15 10-30-21-10-39-9c0 0-38-17-58-7 0 0-1-37-6-67 0 0 2-37-25-35Zm41 181-78-15v10l75 5m-73-42s-13 15-7 19l14 8-3-25-4-2Z"/><path d="M576 350s5 4 8-3c3-8-4-12-8-16m18-67 1 38m-42 2 13-27 9-6 3 31-25 2Zm85 124s-8 4 0 6c9 3 6-4 6-4l-6-2Zm-38 61s-7-2-4 2c2 4 4 4 6 2"/><path d="M599 488s-7 1-3 4 5 2 6 0"/><path d="M599 488s-7 1-3 4 5 2 6 0"/><path d="M600 492s-8 0-4 3 6 2 6 0m-30-309s-7 38 20 57c0 0 33 39 60 35 4-1 9-5 16-17 7-11 16-29 19-39l14-44s-6-24-17-21c-3 1-4-2-5-1-2 1-5 6-7 10l-1 4-4 8-3 3-3 5c-4 9-18 20-21 39 0 0-20-24-38-39 0 0-19-26-30 0Zm110-31 6-8"/><path d="m679 156 6-9s20 8 22 18l-5 8"/><path d="M686 148s2-24 18-26c15-2 14-5 25-1 0 0 3 5 0 7 0 0 7 6-1 11 0 0 7 5-1 10l2 4c0 1-2 3-5 4l-4 2-3 1s-3 4-17 0m-8 26s11-6 11-13c0-6-5-8-6-9s-11 6-11 6 4 18 5 17"/><path d="m694 126 4-11 2-3 1-3 2-4h1c2 1 5 3 5 6l-2 6v7m-38 55s-3-4-4-2c0 3 2 5 3 5m32-2s3 1 2 2c-2 2-3 2-4 1m-58 42s0-2 1-1v2l-1-1Z"/></g></svg>