<svg xmlns="http://www.w3.org/2000/svg" width="4743.03" height="5085.81" x="0" y="0" viewBox="0, 0, 4743.03, 5085.81"><path style="fill:#e40303" d="m1687.63 0-1 1.5-.5 7.69 2 8.22 2.5 1 2.09-.5 1-2.1 1-4.62-2.6-7.6-1.5-3.59h-3zm236.59 3.4-12.6 4.6-4 3.1-4.09 4.59-3 4.62-4.5 21 1.6 20.38-.5 3-.5 8.72-2 5.59-4.5 5.19-2 17.31 1.5-1 5.59-6.69 5-1 9.6-1.62 4.59-2 3.5-4.6 4.5-8.18 4.62-2 3-1.1 3-3 2-3.62.5-2.6 2.1-4.09-2.1-6.6 1-7.71 2.5-7.6 1.5-6.68 4-6.6V19.7l.5-7.19-1-1 .5-1 .5-3.1-.5-2-1.5-2-2.62 1-4 .5h-4.6l-3-.5-4.6-1zm-127.4 1.41-1.5.5-1 1.6-1 3.5v8.68l.5 1.5h2l2-4.59.5-4.6.5-4-2-2.59zm-47.5 21.6-5 3.09-2.1 1.5-2.5 6.1-4.5 1.09-4.6.5-3.5-.5-6.59.5-1.5 3.12-3.5 7.1.5 12.28 1 2.5 4.1 1.62 4.5 1 3.09-9.22 2-2.59 1.5-4.1.5-6.59 6-4.12 5.6-3.1 5-5.09 2-3.6-2-1.5zm3.59 15.78-2.5 2-1 3.12-1.5 5.1 1 4.59 2 2 1.5.6 2.62-.1 2-1.5 1-8.69 1-3.5-2.62-3.12-1.5-.5h-2zm60.72.31-2.5 2.1-2.6 3.09-2.5 5.62.5 1.5 2.6 3.6 1 5.09 1 10.69 1.09 7.62 2 5.1 1 2.59 3.1 2.5 2.5 1.6 2.5-3.1 3.5-6.69 2.09-5.62-.1-3-1.5-3.6-5.1-7.68-5-4-2.09-2.6-1.5-1.5-1-4.12 2-4.1 2-3-1-1-2-1.09zm-150.72 6.6-1 1.5-8.6 6.71-1.5 6.6 2 10.68 1.6 8.22 4.5 1.5 5.12 2.5 1.5 1.6 4.1 2.5h3l1.5-1-.5-7.72 4-5.6 1-4.09v-2l-1.5-3.1.5-1-3.5-5.09-6.1-7.72-2.62-4.5h-3.5zm49.62 28.9-1.5 1.6-2.5 4.09-1.5 6.62-4.12 8.19.12 5.1 1.5 2 7.1 1 3.5-1 5.59-6.2 4-2.5 3-3.09 2.5-3.12 4.6-1.5v-3.1l-2-1.5-2.1-.5-5-3.59-6.1-1-1-1h-3l-3.09-.5zm63.69.4-6.5 1-2.5 4.1v3.1l1.5 2 1.5 5.59 1.5 4.12 2.1 2.5 8.59-3.62 4.5-8.1-6.1-8.68-4.6-2zm-245.81 3.1-.5 3.6v4.09l-2.5 3.12-5.1 2-2 2.1-5.5-1.1-13.68 4.19-5 4-.5 3.1.5 3.09 1 5.12 5.59 2 2.5 3.6 2 4.59 1 1.5h2.6l7.59-1.6 6.5 2.1 4.62-.1 4.5.5 2.1-1.5v-5.09l-1.6-5.12-1.5-4.6-.5-6.09 5.5-3.1 2.6-3v-1.59l-4.1-1.5-.5-10.72-3-3.59h-2.62zm45.62 14.19-1 1.62v2l.5 2.5 3 1.6 7.1 4 3.09 5.09h3l3.5-4.6 1-4.09-3-3-1.5.5-4.6 1.5h-2l-2.5-.5-2.59-1.5-1-3.62-1.5-1-1.5-.5zm65.19 12.12-3 2.1-1.5 4-5 2.59-.5 1.5.5 1.6 3.5 2.5h3l4.1-2 1-4.6 3-3.6-1-3.09-4.1-1zm117.4 1.69-2 .1-7.09 2.5-10.12 7.21-4.5 7.19-2.5 5.6-3.1 1-1 4.09 1 2.5 2.6 2.12 4 1.5 7.12-5.62 6.1-6.19 5-4.6 4.59-3.59 4-6.62-1-3.1.5-2-2.1-2.09h-1.5zm81.5 14.1-8.59 5.09-10.12 3.62-21.7 3.69-10.68 3.6-5 3-6.62 3.59-2.5 1.62-4 1h-3.6l-2 .5-3 1.6-2.6 2-4 5.59-4 5.69-3.08 4.62-1.5 3-1 4.6V182l12.18 10.19 5.1-.5 5-2.1 4.62-2.5 2-2.09 2.5-2 3-6.19 1-1h3.6l1 .5 4.59 5.6 5 .5 6.1-2.6 4-5.12 3.09-1 3-1.5 4 1 4.12 3.5 3.5 2.62 2.1 3.5-1 6.69.5 1 1 .5h2.5l3.09-1.5 2.5-1.6-1-4.09-3.6-2.5-1.5-10.22 1-3.59 4.5-5.1h4.1l2.5 1.5 3.5-1 1.5-6.09 2.6-6.22 2-4.09 2.5-2 4-5.6 2-2.09v-1.5l-9.6-9.22-8.6-2.5zm-160.9 3-5 4.09-2.5 2.62-4.1 4-5 5.69-1 2.5 3.5 7.19 3.1 4 1 8.72 5.6 2.5 2 4.59 3.09 7.19 4.5 4 3.62.5 3-1.5 15.69-3.1h4l7.1 1 2-3.59-1-4.6-.5-5.09-1-5.62-1.1-5.1-3.5-3.59-2-2-3.1-4.1-3-4.5-.5-3.09-1.09-2.62-1-2.5-5.62-2h-4.5l-3-.5h-3.1l-.5-1-1-2.6-2.5-1.5h-2.6zm-93 .21-3.1 1.1-3.5 1.5-2 1.5-1.59 1-1 1.09-1.5 5.6-.5 2-2 2.09-8.12 3.12-5.5 1.5-1.6.5-3 3.1-3 4.59-5.6 5.6-2.5.5h-3.58l-7-1-1-.5-1.1-2.5-1-1.1-5-1.5h-1.12l-7-2.5-3.6-4.1-2.5-.5h-2.5l-3.1 1.6-4 7.6h-.5l-2.5 6.71-3.58 5.1-7.6 7.59-6.5.6-2.12-.5-1 .5-4.5 2-3 2.09-2.1 1-4 3.62-2 1-3.1 1.5-2.5 3.1-1.5 4.59-1.5 8.19-1.5 4-5.08 3.62-1 2.6-.5.5-5 2-7.1 2.59-2.62-.5-5.5-4.1-8.1-1.5-3.1 1-3.5 4.1-1 1.6 1 1-1 6.09-.5 8.72-1.5 2-3 2.59-5.08 1.5-8.1 2.1-5.62-1-4.5-1.6-2.5-3 2.5-7.19v-3.5l-2.1-3.62-2.5-.5-2 1-2.5 2.62-2.6 6.1-.5 7.09-1.5 1.6-9.58 2-4.5 10.8-3.1 1.5-8.62-2.59-12.6-9.62-2.1-3.6.5-2.5 3.1-3.09 1-2.6 1-3 .5-2.59 1.5-2 7.6-5.12 3.5-3.6.5-1.5.5-2.09-1-2-1-.5-2-.5h-1.5l-1.5 1-2.6 4.1-3.5 5.09-5.1 5.62-8.58 5.6-7.5 1.09-2.6 1-2.5 1.5-3 3.6-4.62 6.59-4 4.12-7.1 11.28-1.5.5-2 1-2.6 1.5-8.08 4.1-9.6-.5-1.5.5-2.5 2.62-1.5.5h-5.62l-6.6 1.6-15.18 7.59-10.1 6.19-5.5 5.12-4.62 6.1-2 3.59-3.5 5.1-3.1 2.5-3 1.59-6.1 1-2 .5-1 1.5-1.5 1.62-1.58 2-.5 1-.5 3.1-1 1.5-1 1.59-.5.5h-1l-1-.5-1.5-1.1-1.1-.5h-1.5l-2.5 3.6h-1l-.5-.5-.5-1 .5-1.6 1.5-1.5 1.5-.5 6.6-.5v-1l.5-3.59h-.5l-7.1-4.12-2-2-2.12-.5h-1.5l-5.5 5.12-10.7 9.19-4.5 1-16.18 7.19-13.72 4.62-9.6 1-2 3.1-2.5-1.6h-1.58l-4 3.6-15.72 6.68-5.1 1.5-15.68-1-9.6-.5-7.12-1-3.5-1-2.5.5-6.6 2.5-9.6 2.1-8.58 3.62-3.1 3.5-8.62 2.1-12.1 8.18-6.6 2-13.68 5.6-12.12 3.12-6.6 2-16.18 4.6-10.1 3.09-6.62 2-3 2.1-5.6 2-11.18 4.59-2.5 1.62-6.1 2.5-8.12 4.1-4 2-5.1 2.09-10.1 2-15.18 1.1h-3l-11.72-.5-3-.5-3.6-1.1-2 .5-1 .6-3 7.09-1 .5h-1.08l-.5-.5 1-6.1-.5-1h-10.6l-8.62 1.5-19.2 4.6-13.68 4.62-7.62 1h-7.6l-8.6-4.12-21.3-15.78-10.6-8.6-4-2.12h-2.6l-1.5 1.62v1.5l3.5 1.5 3.1 2.1 5.6 4.59 4.5 3.5 9.12 7.19 3.6 3-.5 1-1.1.5-3-1h-.5l-1.5 1.62-2 .5h-1.62l-2.5-2.62-1-.5h-1l-5.1 1.5-1.5.5-1-1-15.18-17.78-20.22-21.91-28.38-31.6-2.9-9.21-.6.12-7.62.38-7.6 3-9.28 5.5-5.72 4.81-.4.31-2 4.88-1.28 4.9-.32 3.32-.9 2.4-1.7 4.6-2 2.68-3.3.91-.38.1-2.5-1.5-3-1.2-4.72-1.09-4.28-.81-4.62.81-2.6 1.1-2.1 1.28-5.18 3.31-3.62 4.1-.88.9-3.5 4.9-.62 3 .62 3.91 3.1 2.88 4.59.22h.4l4 1 2.6.9 2.6 1.88.3.31 1 2-.21 3.6-1.1 3.3-.6.7-2.68 2.9-2.62 2-4.7 3.81-5.3 4.88-2.6 2.5-1.68 2.9-.22 3.91.8 4.5-.8 4.19-2.5 3.12-3.38 1.38-3.22-.1-5-.68-6.6-.82-5.08.32-4.5-.22-3.6-.19-2.9-2.1-2.1-1.4-.4-.31-3-.1-3.6.41-2.5.9-2.62-.09-3.1-1.9-.4-.22-1.7-2.6-2-3.59-2.08-4-1.22-3-2-1.1-.2 5.1-2.8 77.4-2.6 83.7-1.78 54.4-1.62 57.6-2.28 81.59-1.7 56.06h1745.38l-72.18-20.34-3-2.82.09-2.4v-5l.1-.5.8-3.6-.21-4.59-.1-3.1-.18-1.8-2-3.6-.72-1.31-1.38-2.69-2-3.1-.9-1.5-.72-1-1.38-2.59-1.62-4.22-.1-2.68-.6-3-.8-2.5-.38-1.1-1.12-4-1.2-3-1.5-2.5-2.18-3.5-.9-1.4-1.22-2.1-2.88-5.4-1.4-3.72-2.6-4.6-1-5.09v-3.4l-.22-4.5V727l-.1-2-.18-4.31-1.62-4.28-1.6-2.5-1.69-3.5-.4-.32-2.4-2.09-2.5-1.6-2.1-2-.6-1.09-1.4-2.4.4-2.6.41-2.4-.12-2.5-.38-1.41-.4-.81-1-2.5-1.5-2-.91-.69-1.1-.9-2.09-.5-2-2.6-1-3-.31-1.4-.19-1.6-1.5-4.1-2.62-2.5-5.1-7.09-.78-1.12-.5-1.19-2.72-4.5-2.19-4.5-.9-3-.1-1.81v-2.28l-1.5-4-1.5-3.1-3.09-.5-1.72-.62-2.28-.88-3.12-.5-2.6-.62-2.9.62-.6.1-2 .5-2.5.5-1.4.18-1.6.32-4.1.9-5.09.1-4-1-1.3-.22-1.29-.5-2.12-.88-1-1.12-.88-1.28-.22-1.22-.28-1.38.5-2-1-2.12-.5-1.5.5-1.6.88-1.5-.1-2.09-.9-1.31-1.5-.1-2.1.6-1.5.5-2.5-.1-2.5.6-2.19.31-1.3.19-4.7 1-3.4.62-3.6 1h-1.3l-1.2-.22-2.09-.9-1-1.1-.5-1.4-.5-3.5 1.6-3.28 1.5-4 1.4-2.72-.12-3.6-.1-3-.4-2.09-.38-1.69-2-2.62-2.12-2.5-.79-.88-2.4-2.22-2.6-2.4-2.3-2.1-2.29-.78-2.5.1-1.31.09-4 2.6-3.31 5.3-1.79 2.91-1.5 3.1-1.5 1.5-2 1.18-2.3-.28-2.29-1-2.5-.22-1-.09-4.4.6-4.82.8-3.5 1.2-3 1.9-3.1.1-2.5-1.6-2.9-3.69-3.69-4.9-4.8-7.1-3.2-4.72-2.21-3.5-2.88-7.4-.4.12-6.32 4.28-4.6 1-6 2.1-6.59-2.5-6.09-2-4.62-1.6-4-3.5-4.6-3.09-1-.5-2.6-1.5-6-3-4.59-4.6-3.59-2.5-4.5-3.09-2.62-3.5h-2l-2.5 1-3.6 1-4.5-.5-8.1.6-1 5.59-6.09 3-6.09-2.5-1.5-1-17.31-10.6-9.6-9.21-13.71-11.19-10.2-9.1-8.59-7.59-4-2.62-3.09-3-8.62-6.6h-1.5v1l6.12 6.1v1l-3.12 3.62-1.5 1.5h-1l-3-5.62.5-3-.6-1.6-1.5-1-2-1-1.5.5-1 .5-1 1.1h-1.1v-3.6l1-.5 3.1.5 2-1.59.5-1-1-2-3.1-2-12.09-11.69-9.71-9.22-12.7-11.68-18.68-16.22-14.81-17.28-1.5-.5-1 .5v1.5l4.1 4.59 6.09 8.6 4 4.59 9.21 6.12 12.1 11.69 1.1 2.5 6.59 3.6 3 3 .5.59-1 1-1.5.5-3.6-1.5-4.5-4.1-5.1-2.5-4.59-1.59-6.59-2-6.5-1-8.72-.5h-1.5l-1.5 1.1-7.1 4.59-3.5 2-.5 1v2.12l.5.5h1l10.1-3.12 9.1-.5 4.62-.6 14.19 2 4.6 2.6 15.21 6.12 1.5 1v1l-3.62.5-6.6-1.5-4.5-2.5h-2l-1.6 1-1 4.1-1 2.5h-1.5l-6.59-5-3.5-1.6-13.71 2.6-4 1.5-3.1 2.59-5.5 7.69-8.1 7.62-5.09 3.1-8.59 5.59-12.62 4.6-3.6.59-11.1 1.5-2.5 4.62-12.68 4.1-10.12 6.68-10.1 3.6-4.1 3.5-8.09 6.22-6 4.59-6.09 3.6-2 1.5-2 1-1.62.5-3.5.5-6.1-2-18.19-5.5-1-1.1.5-5.1-1.09-1.5-2-2-.5-1.5.5-1.59 1-2 3.6-2.62 3.5-2.5 8.09-11.78 8.6-10.72.5-3.1V489l1.5-5.1 1-3 .5-7.21 1.5-15.78 1.5-3.5 2.5-2.1 5.09-1 13.62-6.22 14.19-12.18 4-4.6 5.6-8.22V417l-5.6-11.69-2.6-4-3-6.22-3.09-7.09-2.5-6.1-3.12-7.59-2.5-7.22-2-4.09v-4.5l2-7.19 4-3.12 6.12-2 3.5-2.6 2.5-4.09 1.5-4 1.1-3.1-.6-2.59 2.1-6.12 1.5-2 2-.5h2l3.59.5 3 1 5.1-2.1 3.5-4.09 1.5-5.1 3.5-10.21 1.5-2.5 3.59-3.1 4-1.5 4.12-3.59 5-5.6 3.5-5.71 2.1-5.6 2-3 3.5-5.68v-5.1l-.5-1.5v-1.5l1-3.62.5-4.1 2.5-4.09 3.5-4.6 4.09-7.59 1.5-8.72v-2l-.5-2.09-2.1-2 .5-2.1 10.2 2.1 3.5-2.1 3-4.09.5-3v-4.62l-7.6-12.28-1-1-3.1-1.5-9.09-1.5-1.5-.5-1-1v-5.1l-.5-6.72-2.62-7.09-.5-2-2.5-3.1-1-1.5-4.1-3.59-2-1.5-2-.5h-2.1l-1.5.5h-1.5l-4 6.1-1.09 1.09h-3l-5.59-2.6-1.5-.5-2 .5-1-1 1.5-2 2-7.71v-2.5l-1-4.6-1.5-5.09-1.62-2.1-.5-.5-7.1-2.5-6-2.5-7.6-2.59-2-.5zM1467.32 149l-3.5.5-.5.6-1.1.5 1.1 2.5 2 .5 2.5.5 2-2-1.5-2.6-1-.5zm434.21 51.5-2.5 1-6.12 3.6-2.5 2-.5.5-3.5 1.09-4.6 2.5-4 1.12-3.1.5-3.5.5h-2l-2 1-4.09 4.1-4 4.59-7.59 3.6.5 2.09 5.6 2 7.09 3 5-.5 5.1-2 3.5-2.1 4.59-1.5 3-6.68 6.12-3.1 6.5-7.12 3.6-3.1 1.5-5.59-.6-1-.5-.5h-1zm-173 3.5-13.72 4.1-4 2.09-2 1.5-.5 3.12 1 4.6 8.1 2.5 5-.5 4.12-2.1 5-1.5 3.1-5.12.5-4.6-.5-2.59-2.6-1-3.5-.5zm44.6 23.9-2.6 1.5-2 2.6-8.62 9.19-6 7.62-4 5.69-5.1 4.1-6.1 6.09-7.5 6.12-11.09 6.69-9.21 4.1-12.1 6.71-6.5 6.1-4.6 3.59-.5 9.19-2.5 1-2 1.5-7.09 2.12h-5.59l-3.5 1-10.62 8.19-12.7 1.6-3 2-1.5 3.09 1 4.12 4.1 5.6 2 4.59-1 4-3 5.6-.5 3.09 1 4.12-.5 3.6 2 1.5 5.1-.5 9.62-2.1 7.6-5.12 4.5-4.6 5.09-5.59 1.5-.6 7.6-6.59 4-4.62 3.5-3.1 4.09-3 4-.09 4.62 1.1 6.6 1 7.59-.6 5-1 5.1-2.6 6.5-.5 5.59-1.5 4.12-4.59 1-4.62-.62-2.6h-1.5l-6.1-2-5 .5-1.5-.5-2.1-7.09-.5-11.81 1.5-2.5 7.1-2.6 11.1-4.09 12.62-4.6 15.19-7.21 11.69-1.6 9.12-1 6.5-2.59 2-1.5 2.1-2.1 2-2.5-1-3.09-3.6-2-1-.5-5.62-5.62-3-2.5-3.1-6.19-4-5.6-2.6-4-5.5-1-7.58-.5zm-89.1.2-4.5 2.59-3.62 4.12-3.5 6.6-2.5 4.09-1.5 5.6-2 4.59-2.6 4.62-1 3.6-1.5 9.18.5 1 2.1 1 4.5-1 4.12-3.09 8.5-7.19 4.1-5.62 6-11.19 3.09-6.19-.1-5.12-1.5-3.5-1.5-1.5-2.5-2.1-4.59-.5zm-50.31 157.21-4.5.5-4.6 1.6-.5.5.5 1h1.5l12.7 2 4.09 2.09 9.12 6 5.6 5.1-.6-4.6-1.5-2-2.5-3-4.12-4.6-4.5-2-3.1-.59-3.5-1-4.1-1z"/><path style="fill:#ff8c00" d="m483.44 845.25-1.03 33.84-1.7 48.91-2.08 66.81-2.72 82.78-.6 15.5-9.9 2.41-9.2 1.6-6.4 3.09-5.1 4.12-3.68 3.38-1.72 4-2.19 4.5-.09 3-.81 4.4-2.19 3.5v.6l-.31 2.5 1.19 2.72 1.3 3.59-.59 3-2.09 4.81-2.31 2.69-2.19 3.5-1.62 3-1 1-.6.81-.5.6-2.19 2-2.71 1.28-2.38-.6-3.22-.09h-.78l-3-1.19-5-1.72-5.5-2.78-3-.12-3.22-2-1.69-2.28-3.09-1.91-4.4-2-3.72-.6-3.29-.71-3.59.9-3.12.82-3.29 1.78-4.21 2.62-3.88 2.78-2.22 1.91-1.1 3-.68 3.1-.5 2.71-.22 1.78-2.1 2-2.09.91-2.09 1.4-1.12 2.5-.1 2.5-1 2.6-1.69 1.4-1.59 1.5-2.4 1.79-1.32 2.12-.78 1.78-.12.6.3 2.5.32 1.72v1l-1.12 2-1.6 1-2.1 1.4-2.09 1-3.09.69-.4-.1-3.1-.4-5-1.81-2.5.4-2.62-.1-2.5-1.9-.38-.28-1.9-2.62-2-1.6h-3.6l-2.5-.18-2.5-1.72-2-.88-.4-.22-2.6-.1-4.12.32-2.88.69-.62.31-3 1.38-2.79 1.3-3.71 3.42-2.6 2.4-1.78 2.19-1.5 2.81-1.62 3-1.2 2.5.41 3-.09 3.1.88 3.09-.2 3-1.59 2-1 .5-.5.1-1.59.09h-7.5l-4.12 1.4-.5.1-4.2 1.62-5.9 3-3.1 2-3.5.5-3.5-.12-3.68.72-.31.28-2.19 1.4-.5.32-3 2-2.81 1.9-2.6 1.38-2.59.9-3 .41-2.72.5-3.1-.5-2 .5-.4.19-2.19.31-2 2.5-.59 2 .1 1.5-1.22 1.5-2.1.4h-1.5l-2.78.2-2.5-.5-2.62 1-2.79 1.4-5.3 3.69-5 3.12-2.29 2.28-.12 1.5-.6 2-.1 2.1-.59 2.5-2.21 1.62-2.29 1.1-3.09 2.09-2.81.81-2.31 1.28-2.88 2.1-2.12 1.4-2.6 1-2.6.82-2 1.5-.59.5-2.4 2.28-5.69 5.72-.31.4-4.4 5.28-4.29 6.41-2.62 6-1 4.6-1.79 7-1.3 7.3-1.2 3.29-.8 2.31-3 4.1-3.1 2.4-4.19 2.9-4.22 2.41-3.28 2.88-1.31 2.12.31 6 2 6.1 1.5 4.09 2 4.1-.4 3.71-1.22 3.5-2.88 4-2.62 3-2.5 1.69-.5.4-3.2 2.6-1.59 2.5-3.4 7-.6 3.5-.71 4.6-1.29 6-1.71 4.5-1.6 4.09-1.69 3.81-3.09 4-2.22 2.31-2.28 2.19-2.72 2.4-2.1 1.91-.3.38-2.29 2.12-2.3 2.38-1.7 2.12-.4.5-2 2.28-5.1 4.32-5.5 3.9-3.21 1.5-2.38 1.19-4.62 2-4.79 2.31-4.21 2.38-3.1.81-2.69.4-3 1.2-.4.3-2.1 1.7-1.59 2.59-1.5 6.12-1.72 6-.69 5.1.29 4-.6 3.59-2.19 3.4-.8 6.1-.7 5.6-1.3 6.8-.79 4.79-.22 4.62-1.78 3.78-.22.6-.9 3.62-1.7 4-1 3-.21 1.35v88.5l2.22 2.75.4.28 3 1.9 3.5.72 3.6.5.5.1 3.6.5 4.5-.1 4 .69 5.5 1.81 5.59 1.78 4.21 1.91 4.7 2 4 .5 3.71-.19 4.6-1.31 4.9-2 3.38-2.19 3.62-.9 5.1-1.32 3.59.22h.6l3.5.19.59.31 3.3 1.88 4.2 2.4 4.21 3.5 4.5 2.82 3.5 3.28.41.4 4.19 3.72 2.81 2.78 2.78 2.91.4.5 2.41 2.81 1.91 3.69.88 3.6.62 3.21-.22 2.88-.78 3-.22.62-.5 2.38-1 3.4.19 3.78h3841.06l-.03-1.28-.62-3-.7-4.09-1.4-1.5-1.28-1.4-2.72-3-3.1-2.41-5.18-2.28-1.62-1.41-2.88-2.5-1.72-1.69-1.1-1.31-.08-2 .4-2.1.88-2.5 1.5-1.59 3-.12 1.5-.1 2.62-.1 3.6.92 3.09.78 3.5 2.12 3.6.88 1.5.62 1.09.38 3.5-1 2.12-1.5 1.88-2.1 1.3-5.1-.09-3.4-.09-2.68-.12-2.6.4-1.12 1-2.88.5-3.62 2.72-4.2.78-.9.6-3.28.9-3.31v-3.5l.1-.81.4-2.78-.5-3.6-1.19-4.22-1.59-2.5-2.12-2-2.6-2-2.5-.9-2.28-2.1-2.12-1.9-1.6-3-1.5-2.28-1.19-2-1.5-2-1.4-2.32-.9-2.68-.7-1.91-2.5-3-1.59-2.6-2.22-3.4-2.6-.9-2.8-1.79-.5-.31-1.88-2.31-1.22-2.5-.6-3 .41-2.6.41-3.5.19-1.4.1-1.28 1.59-1.91 1.3-.9.82-.6 1.28-.81 2.5-1.1 2.5-.1 2.6-.58 2.9-1.6 3-1.72 1.6-1.68 2.5-1.6 3.12-.5 2.5-.72 2.28-1 3.22-2 1.1-2.5-.1-2.1-1.12-3.08-3.6-4.1-.78-.62-4-3.7-4.81-5.08-1.6-1.1-2-1.4-2.09-1.72-1.5-1.78.5-2.1.28-1.5.22-1.12v-2l-1.12-2-2-2.5-2.5-1.5-4.1-1-2.4-.88-1.7-.62-4.18-1.1-.62-.1-2.5-.8-3.88-2-2.81-1.38-.5-.31-2.19-2.5-.5.1-1.72-2.5-2.5-2-3.1-2-4.4-5.79-1.19-3.81-.59-3.5-1.12-3.31-.88-3.38-2.12-3-3.1-2.5-3.6-3-3-.9-3.09-.32-1.8-.28h-1.2l-2.5 1-2.59.6-2.5-.5-2.12-.91-3.1-2.4-1.6-.5-.9-.2-2.6.5-1.9-.5-.5-.09-1.69-.4-2 .18-1.5 1.5-1 .5-2.09-.6-2-.68-3.12-1.31-2.6-.5-4.5 1.69-4.4.4-5.7-.4-3.59-.1-3.9-1.4-2.6-1.5-2.5-1.88-1.59-1.12-2.5-2.1-3.12-1.5-3.5-2-2.6-1-2.69-1.6-.9-1.4 1-2.5 1-1 1-1.1 1.6-2.5.9-3.09-1-2.3-1.19-4.1-1.12-2.4-1.29-2.29-3.09-3.12-2.5-1.5-1.5.5-3.12 1.12-2.5 2.5-1.5.6-1.5.5-2.79 1.4-4.59 1.19-7.5 1.81-1.31.28-1.6.5-4.5 1.5-3.59 2.22-4.5 1.69-.9.4-3.1 1.29-2.62.12h-1l-3.6 1.1-4-.5-1.28-.41-1.81-.81-3.6-2.29-2.09-1.5-4.5-2-3.5-1-3.4-1.59-3-1-3.32-2.4-2.69-3.22-1.5-2.7-2.09-2.5-3.72-2.3-3.6-2-2.8-1.38-3-2.12-.6-.6-2.5-2.9-2.19-2.7-1.4-2.3-.5-3.6 1.1-3.28 1.9-2.62 2-2.7 2.5-2.59 5.31-5.21 2.78-3 .31-.38 2.29-1.9 2.4-2.22 1-2.7 1.5-2.59 1.31-1.9 2.41-3.19 1.88-2.62 2.5-2.1 2-2.4 2-2.5 1.9-2.2 1.6-2.5 2.71-2.09 3.5-1.71 2.41-3.6.5-2.5.28-.9-1.5-1.5-2.1-1.6-2.59-1.9-3.3-1-2.6-1.38-.6-.22-2.8-1.1-6.2-3.8-1.09-3-1.5-3.1-.5-1.4-.31-2.1-1.4-6.6.4-3.5.1-3.09 1-2.59.21-.5.5-.5 1.88-2.62 1-2.1 2-1.5.9-1.1-.6-1.5-1.5-1.5-5.18-3-3.12-.8-3.1-1.38-1.9-.4-1.7-.5-3.18-.32-3.62-1-2-1.5-2.6-1.9-.9-1.2-1.1-1.4-3.19-2.69-2.59-2.5-2.12-1.4-2.79-1.5-3.59-2-1.62-.4-2.5-.6-3-.6-3.6-.9-3.6-2-2.5-2.5-2.3-2.69-3.1-2.5-2.5-.4-3.28-1-2.62-.91-2.88-.81-1.31-.5-1.4-.29-1.1 1.2-.4.4-2.7 3.5-1.8 2.1-2.6 1.59h-3.5l-2.69-1.6-3.12-.9-3.6-.5h-2.5l-2.28-.5-3.62-1.38-.38-.31-1.4-1-2.1-1.9-2.22-3.5-1.6-3.1-1.68-1.9-2.5-1.41-3.12-.88h-1l-1.29.28-2.59 1.6-2.5 1-3.12 2.62-3.38 2.5-3.12 2.6-5.5 1.5-5.6-.91-4.1-1.5-5.18-4.6-2.62-1.5-3.1-1.5-3.6.1-1.9.69-.9 1.3-1 .7-1.6.71-2 .6-1.5-1.1-1-1.9-1.5-2.5-1-1.6-.4-.9-1.29-3.1-2.5-2.8-1.59-3-4.22-2.41-4.9-2.88-3.5-2-3.1-2.5-2.1-.9-2.5-1.32-3.09-1.9-2.59-1.5-2.62-2.5-2.6.21-2 .1-1.78 1.81-2 2.6-2 3-2.12 2.5-3.5 1.09-4.6.6-3.19-.1h-.8l-2.6.69-2.5.9-2 .1-2.1-.5-2-1-1.59-2.5-.5-.6-1-1-3-1.6-3.12-1.9-3.1-.4-2.5-1.1h-.5l-2-.9-1.19-.7-2.09-1.58-.4-.41-1.72-2-2.7-3-2.59-3-2.59-1.9-2.62-.91-1.29.12-1.21.19-1.5 1.6-1.5 1.4-2 2.69-1.5 2.5-2 2-2 .62-3.6.5-1.1-.31-.68-.4-3.62-2.41-2.7-2-2.59-2.5-1.5-3.5-1.09-3.6v-2.5l-1-3.1-.62-2.4-1.5-1.9-2.2-2.88-2-1.4-4.09-1-4.09-.41-3.5 1.19-1.5.5-2 .72-5 1.68-4.5 2.6h-1.62l-2.5-.2-3 .1-2.5-.9-4.1-.5-3.6.22-1.5.28-2 .62-3 1.38-1.5 1.72-2.59 3-2.5 2.18h-2.5l-2.5-1.1-3.59-4.5-2.72-3.68-2.6-2.9h-2.09l-1.8.59-1.41 2.19-1.2 2-1.68 6.22-.4 1.59-.32 2.69v4.12l-.4 3.1-.5 4v3l-.38 1-.81 1.5-2.4 2.09-4.1 1.69-3.4.4-1.79.32-1.81.09-5.81.1-3.29-.91-3.59-1-2.22-1.1-.78-.5-2.12.6-3.1.5-3.1-.5-1.4-.88-1-1.12.22-.69.28-1.31 1-2.5.5-2.6-.5-2-2.1-2-2-3.09-.59-2.4-.4-1.7-1.6-2-1.5-2-1.09-1-1.5-1-3-1.59-1.12-.4-5.1-1.91-3.1-.81-1.9-.28-3.6-.1-4.59 1.19-3.59 1.19-1.12.81-1.79 1.31-3.5.69-2.09.1-1-1.5-.12-2.1.9-2 2-2.1-.5-.9-.78-1.1-1.5-2.09-2.62-1.9-2.5-1.91-1.38-.31-2.22-.28h-3.6l-3.8 1.5-3.79 2.09-2.5 2.6-1.9 1.5-3.9 1.4-1.29.1-.4-.1-1.91-.9-.6-2-1.71-1.41-1.88-.1-1.4 2.72-1.41 2.1-.4 1.9-1.5.19-1.6.1-2 .09-1.9-.88-.6-1.12-.69-1.5-.12-2.5 1.4-3.1.5-1.59.9-2v-2.1l-1.18-2-1.31-.8-1.1.3-1.59 1.1-1.5.6-1.12-1.41-1.5-1-1.6-.5-1.78.9-2 2-.5 2-.4 3v2.6l-1.6 1.5-2 .12h-2l-1.5-1-1.62-1.5-2-1.81-1.7-.81-1.4-.38-3.1-.5-2.5-.12-3.5.12-3.59-2-4.21-2.22-.38-.4-3.31-3.5-2.81-4.5-64-36.69-42.79-24.5-75.9-43.1-112.1-31.9-28.21-8.1-84.6-23-39.69-10.8-66.5-18.2-15.21-4.09-38.6-10.4-118.69-31.82-17.8-4.78-130.5-35.62-50.5-14.1-22.5-6.34H483.43z"/><path style="fill:#ffed00" d="m116.5 1693.38.03.43-.12 2.6-.1 2.5 1.4 2.59 2.6 2.6 2 2.5 5.1 5.59 4.8 6.22 3.32 5.78 2.28 5.62 1.81 6.19.7 2.6 1.8 3.59 3.29 5.62.3.5 2.82 4.38 4.19 4.72 3.69 2.68 3.4 2.1.6.31 5 1.81.5.5 2.12 2.28 3.19 2.32 2.4 4.28 2.41 3.62.78 3 .31 4.6.2 2.68-.2 1.91-.5 4.6-.5 3.5-.9 3.21-.31 1.28-.2 4.1.32 4.12.6 2.6.28 1.5-.2 5-.68 3.59-1.12 3-1.7 3.5-1.4 1.69-2.9 3.5-1 .9-5.6 5.22-4.6 5-2.68 2.78-1 1.41-2.9 3.5-1.32 3.1-1.28 1.3-1.62 2-4.7 3.29-2.59 1.9-3.71 3.41-2.79 2-1.8 3.31-1.5 3-.6 4.1.4 3.59 1.2 4 .5 3.5.4 2.31-.4 3.78v3.1l-2.1 4.5-1.81 4.12-.29.38-5 7.62-3.4 4.38-1.5 2-3.4 3-.41.31-4.1 3.4-3.5 3.29-3.4 2-4.2 3.4-3.59 2.32-3.21 1.5-2.88 1.4-2.81.88-2.6 2.4-1.21 3.5-.6 3 .81 5.72 2.2 6.19 2.4 5.1.81 4.09-1 3.4-.9 4.72-2.22 4.69-1.2 4.31.2 6.6.8 5.09.1 4.6 1 5.59.1 3.22 1 4.59-.1 4.5-.69 3-1.59 3.5-2.22 3.19-.5 1-1.78 3.12-.22.5-1.4 2.6-1.2 3.5-.5 4-.5 8.68.7 4.6.5.72 2.4 4 2.4 3.59 2.7 2.5 2.21 3.31.79 3.6.4 3.4v3.69l-1 4.1.5 5.09v4l-1 3.62-.6 4-.09 3 .29 5.1 1.71 7.18 1.2 5 1 6.1.71 4.31-.72 4-.9 1.69-1.1 2.22-1.78 2.59-.31.31-3.4 3-2.79 2-3.5 2.88-.4.4-2.32 2.5-5.28 4.82-4.4 4.09-4.91 4.31-3.5 2-1.9 1.6-1.2.9-2.59 1.6-2.62 2-.5.5-2.2 2.28-1.59 2.5-.59 2.5-.72 3.62-.4 2.28v5.6l.8 3.4 1.5 4 2.41 3.6 1.91 2.12 3.5 3.19 3.38 3.69 3.3 2.81 3.7 2.81.3.28 2.6 3 1.81 2.22 1.41 3.69 1.38 3.1.3 3.09-.18 4.62-1.72 9.69-2 9.4-.4 2-.1.79-1.19 9.81.1 10.19.1 2.4.9 3.5 1.5 4.72.4 1.28.2.5 3.59 7.72 3.5 7.6 1.3 5 .1.59.1 4.6-1 12.3v.79l-.78 13.9-1.41 8.6-2 5.9-3 4.1-3.19 2.31-2 .69-.5.31-2.4 1.31-1.91 1.5-1.69 3 .38 3.5.4 2 1.22 3.1 1.6 4.5.68 2 .32.59 2.18 5.4 1.6 4v.7l.22 4.21-.32 4.88-1.4 5.4-.88 1.82-2.31 5.59-.19 2.69.88 4.12 1.3 3.6.32 4.28v4.62l-1 4.5-.5 3.6-1.72 4.68-.5.82-2.9 5.18-2.7 5.41-2.8 4-1.38 3.19-.12.62-.78 3.69-1.22 3-.7 6.9-2.58 8.1-4.22 5.5-3.7 4.4-3.3 3.91-2.2 4-2.18 4.88-1.31 6.62-.81 6.5-.25 1.66h3860.87l.69-1.56 1.5-2 3.5-7.1 2-6.62-.6-6.6 2.5-5.09 3.5-7.6 1.5-5.59 1.5-4.12 1-4.6 4.5-6.09 17.2-13.81 6.09-.1 1.5-1.5.5-3 1.5-4.09 2-4.1 4.62-9.09.38-4.62 2.5-4.6 3.62-4.59.38-6.1.5-.5h2.12l1 .5 1.5 2 .5 1h.6l.5-.5-.6-4 1.5-2.09.5-1.5v-3.12l5.1-1v-1l-2.1-2v-7.6l-1.62-2.59-5.6-8.6-2.1-7-1.59-5.09.41-8.12.5-5.1 1.5-3.59 3-3 2.6-1.6.5-4.5 3.5-3.59 2.5-2.12 1-3.5 2-3.6 2-2 4.59-1.59 10.69-4.1 11.12-4.71 12.19-3.6 6.1-1.59 6.09-1.1 10.12-1.59 8.69-4.62 12.69-1.1 17.21-2.68 8.2-.6h8.09l3.62.5 6.1 2.5 4-4.12 1-1.1-1-3.5 1-.5 3.59 1.5 4.6-1.09.4-2h-6.1l-1-1.5.5-2 1-.5 7.7-.1 3.5 2.5 1.5-2 3-9.71-.1-8.6 1.5-13.18-1.1-6.6-1.09-7.62.78-23.88 1-8.62 2.5-7.6 3.5-7.68 2.9-10.72 1.5-3 3.6-2.6 1.5-1 4-3.1 4.1-2 1.5-.08 1.62.5.5 2.59 1.5.5.5-1.6-1-3-1.62-2.5-2.5-2.5-2.1-.5h-4.1l-3-1-4.59-3.5-5.21-6-14.2-5-19.9-1.4-.69-1.1-.8-1.4-1.6-3-1.5-2.6-3.6-3-2.59-2.5-1.5-4-.72-2-.19-1 1-2-.21-2.71-.1-2.88-1.1-2-2.09-1.4-1.21-1.6-.6-.62-.9-1.5-.7-1.1-2-3.5-3.9-3.28-3.4-2.81-4.5-.4-2.79-1.6-3-1.6-.71-.5-1.5-1.4-1.7-2.5-2.59-1.4-2-1.6-3.09-2.5-2.72-2.6-2.6-2.5-2.4-3-2.5-1-3.1-2.4-1.59-2.6-.5-4.5-.21-2.71-.29-2.88-1.09-5.62-1-4-.12-3.1.4-2.9.31-1.5 1.91-3 2.5-3.2 2.38-2.18 2.12-2.5 2-2.5v-3.12l-1.12-2.1v-4.5l.5-3 1.3-2.1.7-1 .5-2.5-1.1-2.08-.5-3.1-.1-2.62 1.6-1.38 3.6-1.4 2.5-1.72 2-1.5.5-3.1-.5-3-.1-3.6.5-4.5.31-3 .2-2.08-.1-3.6.31-1.12.69-2.88 1-2.62 3.1-6.78 3.4-9 1.1-2.5 2.9-6.6 1.4-5.72.78-1.18 2.5-3.91 2.91-4.19 3.81-5.22 3.5-4.6.41-.4 2.78-2.4 3.6-3.2 1.4-3.58 1-3.41.4-4.6 1.7-3.8.9-1.5 2-3.2 2.4-2.21 1.1-3.6 1-3.5v-4.1l-.6-3-1.18-3.5-1.63-3-1.78-3.18-1-2.22.41-2.78-.63-2.81-.59-2.6-1.1-3-1.3-1.21-2.1-1-4-2.1-2.1-1.5-2.59-3-1.59-2.28-2.13-2-1.87-2.22-.5-.6-1.13-1.5-2.5-1.5-3.59-.9-2.5-.5-3.4 1.22-2 .88-.7.5-2.5 2-3.09 2.62-3 2.28-1.09.9-3.4 2.6-3.1 2.6-1 .8-3.5 4.6-2 2.6-1.5 4-2.5 4.12-1.5 2.6-1.22.18-1.28.32-3.81 1.68-.82.4-2 1.5-2.59 2-2.5 3.32-.9 1.38h-3.6l-1.1-.2-2-.3-1.5-.5-1.18-.5-1.5-.5-2.5.72-1.5 1-2.4.4h-2.1l-1.5-.22-2.63-.78-1.59-1-1.5-1-3.1-.9-2.09-.41-2.5.6-1.59.09-1.31.22-2.5 1-2.6 1-2.5.59-2.09-.4-3.9-.6h-1.1l-1 1-1.5 1.1-1.13-.1-1.59-.9-.9-.29-1.1-.22-1 .6-1.5 1-2 2.5-1.5 3-1.28 2.3-3 1.7-2.72.8-.28-.68-1.13-1.5-.59-2.5-.6-2-1.59-2.5-2.5-1.5-3.09-1.5-2-2.12-.4-.6-1-2.1-1.73-4-.09-2.4-1-2.1-2.1-1.4h-.9l-1.1.1-.5.9-.5 3.1 1.1 1.4 1 1.6.5 2.5-.5 1.12-1.4 1.69-.79.9-1.5 1.5-2.9 1-2.19-.71-1.5-1.5-1.4-1.28v-1.5l.18-1.22-.1-2 1-3.1 1.91-3.4 2.5-2.5 3-2.69.5-.6 1.1-1.4-.1-2.5-.9-2.5.4-2.1.5-2.5 2.5-2.59 2.5-2 3.69-3.72 1.9-1.5 1.5-2.5-.59-2-1-2.59.69-3.9 1.1-1.5 2.9-2.7 1.9-2.59.91-3.12-.6-3.5-1.12-2.5-.59-1.6-.78-1.5-2-3.5-2.22-3.5-.9-3.59-1.1-3.5v-1.6l.22-1.3.28-3.5 1.5-3.29 1.5-3.12 3.31-3.5 5.28-5.78 2-1.32 3-2.18 2.72-2.5 2.69-2.6 6.4-6.4 3.82-3.6 2.6-1.72 3-3.18 1.77-2.6.82-1.81.4-1.19.5-3.72.4-3.9 2-3 1.5-2.6 1.1-1.09 1.19-.81 2-.5 2-1.6 2.5-1.18 2.5-1 2-1.1.9-1.62v-.6l-.09-3-1.1-2-2.12-2-.68-1.18-1.2-1.72-4-3.5-.4-.38-2.22-3.12-2.09-3.6-.6-1.4-.68-2.38-1.72-3.5-.69-5.31-1-4.1v-4.09l-.5-3-.06-3.44H116.5zm4615.22 98.8-8.19.13-2 1.6-1 3 1.1 3.59 1 3.5.09 5.1-.5 3.5-.5 1.59-1.5 5.62 2.1-.5 3-.62 2-1 1-1 2-1.6 6.21 1 3-.09 1.5-.5 1.5-1.5.5-3.6-1.12-5.59-1-3-1.6-3.5-1.5-2.62-2.1-1-1.5-1.5-2.5-1zm-87.9 10.5-3 .13h-1.5l-1.5 1.5-2 2.1-1.1.5-2 3.5-1.9 7.18-2.91 16.32-1 5-1.5 4.09.62 4.6 3.1 8.09.5 3.5 1.59 1 1.5 2.12.6 3 .5 3.5v2.1l2.59 5v2.09l-3.5-.5-2.1-1-1-2.5-1.1-2.1-1 .1-1 1-1.4 10.69.1 6.62 1.5 1 2.12 2.5 2.5 2 1.5.5 2.6 1h2l3-4.62.5-5.1 1.5-.59 2.09 2.1 1.4-7.2v-3l8.1-2.59 1.5 1.5 2.6 2.5 1.59 5.6 1.5 1.5 1.62 3.5 2 2.5 1.6 2.09 2.5 1.5 3-4.1 4.09.41 2.1 1 7.09 2.5 3.62 1 1.5 2h1l1.5-.5 3.6-3.12 1-2.6 1-2-.1-2.5-1.5-3.09-3.12-7 1.5-2.6 2-3.09.4-6.12 1-1v-1l.5-3.6 1.5-1.5 3-1 1.5-2.59 5.1-.1.5-1.5 1-7.09 1.5-3.62 3.4-13.19v-3.1l-1.6-1.5-5.09-3.5-2 1.1-.5 2.5-1.5.5-3.09-3.5 1-3.1 1.5-1.5-.5-1.5-4.72-5.09-1-.4-2-.5-3.6-.5-3.5-1h-3.08l-2.5-.41-2.1 1.5-4 3.1-4 1-3.62.59-4.1-.5-5.6.62h-2.5l-2 .5-3.08 1.6-1.5 2.5-.41 3.09-1.5 2.5h-.5l-2.1.1-.5-1.1v-3l.41-5.6v-3l-.5-2.59-.62-4.62-2.6-3.5zm12.09 93.91-2 3.5-2 .1-4.1-2-1 1.5 2.6 3 1 .5 1 3.62 2.12 6.1 3.1 2.5 2.59 3 3 1.5 2.6 2.5 1 1 1.59.5 1 3 2.12 6.09-.5 4.1 1.1 4h1.5l1-.5 1.5-3.6-.5-4-1.1-6.1-1.12-2.5-4.1-4.09-2-2.5-1-.5-1.6-7.62-5.18-6.5-1.62-6.1-1-.5zm-27.7 24.6-2.5 3.12.5 5.6 1.6 2.5 3.1 1.5 2.5 1.5 3.62-.6.38-4.5v-2.62l-5.1-4.5-4.1-2zm-48.59 18.72-2 2.09-2.59 3.6-.4 7.09-1 2h-1l-4.1-1.5-1.5.12-2.5 1-5.12 2.1-2.6-.5-2.5-1.5-3.1-4.6-.59-4.5-1.5-1.5-2-1.5-3.09.5-3.5 2.6-1.5 3.5-.4 8.18-.5 3.5-1.5 10.22-1.91 10.69.6 4 1.5 3.6v2l-.5 1-2 1.09-3-.5-3.6-.5-3.6-2-1-.5-1-2-3.59-1-2-.5-3.62.62-3 1.5-1 2-.88 12.19-3.12 3.6-1.38 4.09-1 7.12-.5 4.6-3 7.09 2.1 7.6.59 4.09v5l1.1 6.62.09 9.19-.5 1h-1l-7.2-2.5-2.5 1.1-3 1-4.08-.5-2 1.09-1 3-1 3.12-2 .5-2.6-1.5h-2.5l-2.12.6-2.5 2.5-3.5 3.59-2 3.6-1.5 4 .5 5.09 1.12 5.12.1 8.6v6.09l-2.5 2.1-3.5-.5-3.1-1.5-3.62-6.1-3.6-4.5-2.6-2-3.5-1-8.18-1.5-7.12.1-1-1 1-2.5.4-5.6-.5-1-4.6 1-4.5 2.1-3.08 3.09-.91 2v2l2.5 1.5.6 2.62-3.6 2-1 5.1-1.4 7.59v5.6l.59 5.09v6.62l3.12 4.5-1 1.1-3.5.5-2.62-2.5h-2l-7.6 4.59.5 1.5 2.6 1-2 7.69-1 7.12-.38 9.6 1.6 6.59-.91 9.19-2 7.12-2.5 4.1-2.1 1h-4l-2 .59-2 5.6-1 6.09-1.5 4 .6 7.12 1 5.1-.4 4.59-1 2-6.1.1-2.6-3.6-1-2.5-1.59-1h-3l-1.5 1.6-1.5 3-.5 4.59-3 3.62-3.62 2.5-4 2.6 1 4.1-2 4.5-3 4.08-2.5 7.1-3 6.22-2.5.5-3 .5-1.1 1.6-.4 2.5-1.5 8.08-2 4.1-8.6 10.22-.5 1.6-1.4 5.5-1.5 5.58-.5 4.1-3 8.12-.88 4.1-3.5 8.18-2 5.6-2.5 7.12-2 4.6-2 3-3.12 2.1-1 1.5-1 2.58-.88 3.5-2 4.1v8.62l-1.5 2.1-5 7.6-.5 4.08.1 4 3 4.1 5.68 3 2.5 2.5 6.72 8.5-.5 2.12-.4 10.1.59 10.18 2.1 10.6.09 5.12-.5 1.5-1 4.6v5.6l1.12 3 3.1 7.58 2 2.5 3.59 2 8.69 3.5 8.22 4.5 2.5-.59 3.09-2.5 1.5 2.5.5 4 4.19 5.6 3.62 4 7.6 6 6.18 5.09 4.6 4h1.5l3.62-3.6-.12-4.09 2-2.5 5.12-2.6 3-3.59 3.1-2 3.5-1.12 1.5-1 1.5-6.6 1.5-9.18 1.9-6.6 2.5-8.62 2.5-5.1 4.1-3.59 2.5-1.5 8.59-5.19 5-4.12 2.1-1.5 6.59-2.6 2.5-2.09 4.5-5.6 2-1 6.62-2.09 4.6-2.62 1-1.5v-3.1l-1.1-3.5.5-7.59-5.72-5.5-2-4.1-2.09-6.09 1-4.5 3.5-5.12 7.5-8.19 7.6-5.69 9.59-4.62 4.12-2.6.5-3.5-.12-3.09-1-4.5-.5-1.6-3.1-1.5-6.18-5-2.5-4.5-.6-9.09.78-14.8 2.1-2.5 2.4-7.7 5.1-8.12 3.9-10.69 6-11.19 4.6-4.12 9.12-4.19 4-2.5 2-9.69 1.5-4.62.88-6.6 1.5-4.09 3-5.1 1-3-.5-6.09.4-5.62.5-7.6.9-7.59 1.5-2.1 2.5-2 4.1.41 4.1.5 4.12 1.5 2 .5.5.5.6 4.1.5 2 1.5 1.5 1.09 2 .5 4.6.5.5h1l4.6-4.6 3.5-.6v-1l-1.1-8.12 1.5-5.1-.5-1-3 .5-1.1-.5-1-6.59-1.09-1-4.5-.4-2.62-2.5-2.1-4.1v-2l.5-2.6 1.5-2 2.5-3.09 4.6-.5 3 .5 2.12 2.5 3.1 4 4.09 2.5 2 2.5 1.1 4.1 1 1 2.5-1 1.5-5.6 2-2.12.5-5.6 3.5-.5 2.59 4.5V2166l-3.1-1-.1-6.6 3-6.09v-2l-1.59-4.62-.5-3-1-1.5-4.09-3.6.5-1-2.12-2h-3.5l-8.2-3.4-1.5-1-.09-5.1-1.5-4.09-2.59-4-1.62-3-.5-2.6 2-3-1.1-6.09 1.5-3.12 3.1-1.5 3-1.1 3.12 1.5 11.78 17.22 2.1 3.5 2 2.5 5.12-2 3.6-1.62 4-4.6 1.4-5.59-5.12-2.5v-3l-5.1-2.5-1.1-6.1-1.5-6.09-1.09-6.12 1.5-6.1 1.91-12.18 2-5.6-1.62-5.5-.6-4.62v-3.1l-.5-1.5-.1-5 1-1.59 3.1-.5 1.5-.5v-2.6l-4.19-10.59-3.09-4.5.5-1.62-1.62-5-2.5-4.1-3.6-3.5-.6-2 1-2.59 2.1-2 2 1.5 1.6 6.6 2 2 3.21 8.59 1 1 4.5-4.1 1-.5 3.1 1 2.6 3.5 4.09 2 5.12 2 1 2.5 2.1 9.1 2.09 3.62 5.6-.12.5-4.6 2-.5 3 .5 2.09 1h1.5l1-2.59-.5-3.5 3-5.6-.6-1.59-2-1-1.6-3-1.5-2v-3l1-1.62 7.1-3.1 1-1.5.4-3.09-1-2.5-4.59-2.5-2.09-2.5-1-5.1-.12-6.09 1-3.5 9-12.8v-4.6l-7.29-14.1-3-2.12-5.59-1.38-3.62-1.5-2-.5-2.1.5-2 2.6-2.5 1-3.6-.5-4.09-4.5h-3zm-247.21 104.78-2.5 2-1.5 3.12-1 4.1-3 3.5-4 2.59-3.1.6-2-2.1-.1-3-1-1-2-.5-4.59 5.1-3.5 1.59-.5 1.5.5 4.62.1 3.5-1 5.6 1.1 4.09.5 4 6.09 2 12.8 7 16.92 11 1 .5.5-1-4.1-7.1-.62-1.5-1.5-1.5-1-2 .4-3.09 1.5-10.62.4-5.6V2068l-1-2-1.09-5.6-1-3 1.91-6.59v-3.62l-.5-2-1.5-.5h-1.62zm62 49.22-2.6 1.5.6 2.59 1.5 1.5 2.62-.5 1-1.6.5-1-1.12-1.5-1.5-.5-1-.5zm-33 69.78-3.5 1.62v3.5l2.12 1.5h1.5l2-1 1-3.62-1.62-1.5-1.5-.5zm-205.6 35.81-2.1 1.5 1.1 3.5 2.5 1 1-.5 1-2v-1.5l-.5-1.1-3-.9zm175.9 2-1 1.1.1 2.5 1.5 1 1 1 1.5-.5 2.1-1.5.9-3.1-.5-.5h-5.6zm-115.8 16.69-.5 1.62 1.12 2v1l1 1h4.1l2-2.12v-2l-.6-1-2.5-.5h-4.62zm49.9 184.31-2.6 1.6-3 3.5-1 4.09-2.5 2.12-5.59 4.1-6.5 6.09-4.59 3.1-1.5 4.59-2 2.5h-1.5l-1.5.5-1.5 2.12-1 6.1-3.5 2.5-2.12.59-3-1-4.6-2.5-1.1-1v-1.5l1.5-3.1-.5-1-1.5-1-3.09-1.5-3.59-3.5-2-.5-1.5 1-.5 1.5 1.5 5.1 4.69 5.5v2.1l-2 3-3.6 3.59-2.5 1-1.5-.5-6.71-1.38-1.5-1.5-.5-2.62-1.1-1.5h-1l-1 1.12-.4 9.1-3.6 4.09-.4 3.5-2 8.69-1 2-3.5 2.62-5.6 6.1-1 .5-1-2 1.4-8.1-.5-.5-3 5.6-2 .5-1-.5.41-4.1 2.5-7.12 1.5-7.1v-1l6.6-1.59.5-1v-2l-2.6-2-4.09-1.5-15.31-.4-2.5 1.5-6 5.71-14.69 8.69-2.12 1-4 4.6-3.5 5.09-3.5 7.22-5.1 5.09-5 7.6-4 11.21-1.5 3.6-2 2.5-5.1 2.59-5 6.6-1.5 6.09-4 7.12-4.55 5.66h278.43l3.03-5.88-.09-6.09-1.12-7.1v-3.5l1-3.09 2.5-3.62-.5-2-4.6-4-9.78-8.5-16.31-10.5-4.1-4.6-3.59-1.5-9.72-2.9-6.19-6.6-2-1-3.09-.4-5.22-10.69-4.6-9.6-4.18-9.59-3.12-6-7.7-13.62-2.59-2.1-7.59-.9-2.12-1.5h-1l-2 .5-2 1.62-1.5 1.5-.6-1v-2l2-3.62.5-2.6 1.5-1.5 2.6.5 6.62.5 4.1.41v-1l-2.6-3.5-.5-2-2.12-1-8.1-.5z"/><path style="fill:#008026" d="m22.66 2541.47-.44 2.94.81 4.59.5 1 2.38 3.1.5.5 4.22 3.3 4.59 3.79 7.5 4.4.4.32 6.1 3 4.9 3.18 3.5 3.22 3.41 3.19 3 1.19 4.6 2.4 4.4 1.5 3.5 2.22 2.38 1.78 1 .91.3.31 2.6 2.88 2.4 3.12 3 3.19 4.1 2.81 4.9 4.38 3.92 3.9 3.78 4.22 4.12 4.6 3.1 3.4 3 3.6.18.5 2.31 3 .29.5 2.9 4 2.9 4.09.32.5 2.6 3.69 3 3.9 3.78 3.5 5.4 4.32 10.4 8.09 8.92 8.4 4.18 4.79 2.4 3.4 1.6 4.5 1.72 3.5-1.12 4.1-.1.5-.69 2.5-.59 3.5.38 3.12 1.3 3.6 2 1.09 4.32 2.1 2.88.9 4.12.9.38.29 2.62 1.81 3.19 2.31.4.19 3.6 2 3 1.69 3 .12 1.4.28h1.2l3.59.5 2.9 1.6 2.22 2 2.5 3 1.6 2.62 2.4 2.88.88 3.12.3.38 1.6 2.72 1.5 1.59.4.4 1 1.2.41 2.59.1 2.81v4.1l.5 3.5.5 2 1.5 2.59h2.6l3.4-1 3.19-1 2.5-.78.62-.22 3-1.1 2.6-.9.5-.1 1.5.41.5.31 1.5 1.1 2 2.09 2.4 2.1 3 1.71 2 .78 3.6.41 3.5-.4 2.09-.91 3.1.22 3 .09 2.5.6 3.59 1.21 2.5.6 3.4.4 3.22-.12h2l3.5.12 3.19-.31 3.9-.19 4.1-.5 3.4.6 5.2.9 10.3 1.88 5 1.62.5.19 6.1 3.5.4.19 4.7 2.31 5.59 1.5 4.8-.1 2.82.1 4.88-.69 4.62-.9 4.6.18 5 2.32 6.4 2.09 10.69 4.6 6.9 4.4 6.41 4.4.38.29 3.62 2.62h.5l3.28 4.6.32.5 2.59 4.09 2 3.4 1 5.1 1 4.6.81 4.21v1.1l.78 5.09.4 4.6 1.32 5.21.69 6.6 1.81 5.59 3.1 5.31.18.5 3.1 5.38 6.22 5.62 7.09 4.5 6.19 4.69 5.5 5.9 4.12 5.91.5.6 2.5 2.9 3.6 4.28.28.32 5.8 6.28 8.2 6.62 6.72 4.78 5 2 .5.1 6.59 1.31.5.1 7.1 1.3 6.71 1.29 10.38 3.5 9.9 3.81 11.22 3.69 11.28 5.5 6.22 1.81 4.6.69 5 1.12.9.28 3.69 1.5 4.5 1.22.5.1 4.5 1.28 4.19 2.62 1.8 2.1 2.42 1.6 2.59.8 2.9 1.1 4.1 1 4 1.5 3.1 2 4.4 3.1 2.9 3.18.41.62 3.19 4.28.4.32 4.29 3.68 4.3 3.1 6.6 3 5.72 2.62 5.88 2.38 4.4 3.81 3.5 2.6.4.21 3.5 2 3.6 1.2 3.5 1.18.6.22 3.9 1.5 3.5.6 2.32.9 3.5 3.1 3.68 3.18.4.4 2.92 5.1 1.59 2.62 1.19 2.1 1.9 5.1 2.82 4.18 3.5 2.31.5.4 3 2.1.5.31 4.78 3.88 2.62 2.81 3 5.69.19.5 2.31 6.72 1.69 3.68.19.5.9 3 .1 4.1-.38 3-2.22 1.72-.4.5-1.7 2-2.58 2.6-1.41 2.4-.5 2 .5 3.6v3.5l1.6 3.58 4.5 3.5 6.59 4.22 4.12 2.88 2.28 1.9 2 2.1.32 3.12.59 2-1.1 4 1.5 3.38 2.5 4.9 2.41 3.72 2 2.6 1.1 3.5v.6l-.32 3.08-1.28 2.91-1.72 3.19-1.78 4.62v3.2l-.12 3.5.8 4.58 1.32 4.72 2.88 4.6 2.4 4.18 3.22 5.5 1 2.6 1.88 3.81 1.62 2.6.28.5 2.4 3 .5.71 2.5 3 4.1 2.6.9.6 2.7 1.5 1 .58 2.12 1 .5.6 2.88 2.81 4.62 4.5.38.5 4.22 6.1 3.59 6.09 4.31 4.4 3.88 4.22 5.72 6.1.4.28 6.69 4.81 2.9 2 2.6 1.31 6 3.78 4.19 2.41 4.12 1 4.1 1.5 6 5 4.68 3.6 4.82 2.3 6.5 2.79 3.5.5 4.09.81.5.19 5.5 1.62 1.69.5 2.8 2.7 3.2 3.8 1.4 2.7 1 3.68.72 3.9.5 3.91 1.1 3.5 1.5 4.1 2.18 2.3 3.5 2.7 3.1 2.8 2.9 2.29 5.6 3 5.12 3.12 4.1 1.6 1.09.68 3.5 2.22 1.81 3.1 1.78 3 2.6 3.78 2.9 3.12 3.72 4.2 2.69 2.3 1.1 1 4.5 3.88 4.21 3 3.28 3.4 2.1 1.91.4.4 3.6 1.79 3.62 1.9.38.32 3.22 1.9 2.28 1.28 2.8 3.22 2.6 2.6 2.4 3.68 1.6 2.32 1.5 2 1.72 2.4.28.5 2.1 1.7 1.62 1.5.5.3 3.38 1.88 4 1.72 4.5 2.18 4.9 2 3.72-.09 4.6.81 1.9.38 2.6.72 8.09 1.18 3.1 1.1.5.12 4.09.2.5.08 4.62.22h.5l3.5.1h.5l4.1.68.5.1 4.68 1.62 4.32 2.2 2.5 1.68 2.4 1.31.06.1h3054.6l1.12-4.6 4.5-14.19 7-10.21 7.1-9.2 4.5-6.59 1.5-9.12-2.1-8.1.4-14.18 2.5-10.6-1.09-4.12 2-7.6.5-4.59 7.6-7.6 6-5.59 7.1-5.21 3.09-3 8.12-4.1 7.6-3.6 9.09-4.21 10.69-5.1 9.12-6.68 6.6-2 2-7.72 7.09-7.1 7.6-8.68 4-6.6 4.5-7.62 4.09-6.1 2.9-13.68 2-6.6.4-11.71.5-4.5v-2.6l-.59-6.6-2.59-11.59-1.62-8.62-3.7-8.1-4.09-12.09-5.21-10.1-6.7-13.09-5.3-17.21-2.6-10.1-1.1-14.69 1.41-13.12 3.5-6.19 3-5.5-1.5-4.6 2.41-11.21 5.6-9.1 3.5-9.68.9-5.1.5-9.12-.62-10.1 1.4-10.18 2-9.1 3-12.22 3.4-10.09.5-10.69-.09-9.12 1.41-8.6-.5-4.59 6.5-14.69 5.38-30 1.9-14.72 4-13.18 2.4-9.22v-7.1l1.41-9.59 5.5-10.69 4.6-8.12 4.4-11.19 3-10.69 2.5-8.62 3-4.6.41-8.59 6.1-5.19 6.09-5.12 3-5.1 6.5-10.18 4.1-2.5 3-5.1 6-8.72 1.5-7.09 2.5-3.6 4-8.09 3.5-10.22 2.4-11.68 1.1-1.5 7.5-14.32 2.5-6.09 6-9.1 3-10.71 3.5-7.69 1.4-10.1.5-6.59 1.4-6.12.5-5.6 1-3.5 2.5-7.68 4.5-9.1 1.47-2.84h-278.43l-2.04 2.53-6 8.69-6 10.22-10.59 18.78-9.62 10.22-1.38 5.1 1.1 11.68 2.59 14.12-2.5 8.7-6 9.68-4.5 5.62-3.6 5.1-5.5 7.1-3 6.58-.5 5.6-2 4.12-3.5 5.1-2 3-4.09 4.1-2 2.08-7.12 2.6-7.6-.5-11.19 1.12-5.59 1.6-3.62 2.5-6.5 6.18-15.7 12.32-2.59.5-2.5-.5-3.09-1-1.5-.5-2 .5-6.62 5.68-3.5 6.1-5.6 4.12-2 2.5-1.5 7.1-4.5 5.1-3.6 6.08-5.5 5.1-4.59 2.62-6.09 4.1v1l1.1 1h1.5l3.5-2 3.59.5 1.5.4-.9 4.6-.5 3.1v2l-2 4.08-2 2.5-5.1 8.72-5.5 11.2-2 1.5-3 7.58-2.5 3.6-4.6 3.12-8.09 1.5-12.81-.4-11.69-1.9-9.22-3.5-9.69-6-5.59-1.5-2.12-1-1-2-1-.5-1 .5-1.5 4.08-2.1 1.5h-3l-.5-.5 4-3.5.5-.59v-1l-.5-1-2.6-2v-2.5l-.5-1-2.5-2-5.68-5.6v-1l.5-1h1l4.1 1.5 1.5-.5 1.59-1.09 1-1v-1l-2.1-1.5-2-2.5-4.09-3-4.12-2-1 1-.5 3-1.6 1.1-2-.5-2-1.5-.1-4.1.5-2.5.5-1.12 5.6-4.6 2-.5 7.72 2.5 2.5-1h1.5l.6 2 1.5 1.5 1-1 .5-1.59-1-1.5-.5-2.5h-1.1l1-7.6-2.12-5.59v-2.5l.5-1.5 1.5-1v-3.12l.4-13.19-.6-10.6.5-5.09.5-1.5h1l.6 1 1 1 2.6 12.1v1.6l.5.5h1.62l5.6 2.5 9.18 8 3.1 6.58 1 3.5 1.62 2 1.1 7.6 1-.5.4-5.6.5-5.09-.5-1-1.5-1.5-10.31-13.1-5.1-5.5-5.21-1.5-.5-1-3.6-12.09-2.6-9.22-.5-.5-2.59-.4-.5-1.1 3.5-7.59v-1l-.5-3v-1l.5-.1 2.5 1h.5l.5-.5.5-12.59.41-7.12-.5-4.1.5-.5h.5l4.6 3.5h.5l.5-.5.5-1.5V2663l-.5-.5-4.6-2.5-1-1.5-.62-1.5 1-1 .62-.5 2.5.5 3.1 2h1.5l1-3.1.5-.5h1.5l1.59 3.5h1l1-1v-5.59l-.6-5-1.09-9.22-.5-10.09-2.12-3-2.1-2 1.6-2.1 4.62 2.5.38-8.09-2.1-3.5 5.6-7.22 3-2.5 2.5-5.09.5-3.6 2.5-6.09 3-4.62 6.12-6.1 2-3 1.5-3.59 5.1-3.6 5.59-.5 1.5-1.09-.5-3.5-1.1-.5-1-1.5 1-1.5 3.6-3.12 5.31-12.22H22.66z"/><path style="fill:#004dff" d="m1041.1 3389.6.3.5 2.13 2.59 1 1.31 1.5 1.1 3 .59 2.5.62 3.69.6.4.18 2.1 1.22 3.4.38 2.79.12 5.62 1 5.78 2.5 5.9 2.5 4.6 2.5 4.1 3.1.8.68 2.2 1.82 2.62 3.5 1.69 2.18.5 1.22 1.4 3.69 2 4.1 2.6 2.71 2 2.6 2.1 3.18.3.41 3.2 4.19 2.09 3 2.8 3.22 3 3.28 3 1.81.5.5 3.5 2.9 3 2.5 2.1 4 2.72 3.1 2 1.69.38.4 2.22 1.41 2.18 2.81 2 3.19 2.82 4.1 1.5 4.59 4.59 12.12 2.19 5.38 3.62 4.4 2.1 3.1 1 .81 3 3.81 1.9 2.69 1.78 3.31 3.1 2.88 3 2.62 2.9 2.69 3 3.1 2.4 3.21.7 3 1.5 3 1.12 4 1.5 4.1 2.1 3.9 1.68 4.19.32.5 1.18 2.1 1.4 2.4 3.5 4.81 2.2 2.69.3.4 2.6 3.29 2.72 3 4 4 3.6 6.12 2.59 4.5 1.31 4.6.78 5.09.4 3.6 1 5.5 1.1 4.5 1.72 4.4 1.38 8 1.9 4.19.5 3.22 1.22 5.4v2.6l2.78 3.59 1.9 2.6 1.5 1.71.41.5 2.1 2.6.4.4 2.1 2.28 1.69 3.5.9 3.6.22 1.4-.12 1-.1.6-.19 2.62-1.3 4-1.1 3.5-.6 4.5-.3 1.6-.41 1.9-.1 3.5-.78 5.6-1.81 9.18-1.5 7.1-2 5.62-1 3-1 1.1-.9 1-2.6 3.59-1.31 2.81-.6 3-.69 5.1-.71 4.5-.38 3-.5 3.18-.31 9.91-1.4 10.6-1.7 5-1.09 4.9v13.69l1.1 3 2.09 1.81 1.4 1.6 1.7 1.3 1.4 2.29.19.62.62 1.88.1.62-.41 2-.5 2.6-.81 2.09-1.88 3.81-.72 4-.1 3 .41 3.1-.21 3.5.3 6.09 2.1 5.69 3.31 6.31 4.29 6.4 4.4 4.6 4.72 4.6 3.69 4.4.69.81 2.4 3.69 1.4 3.1.82 4.09-.62 7-1 7.62-2.29 7-1.71 4.38-2.1 4.72-1 4.09v9.1l1 3.59 1.81 4.12 1.7 3.88 2.3 4.12 1.6 3.38.19.5 2.62 2.22 2 1.68 2.38 3.22 2.3 2.6 1 3.09v3l-.8 5-1.29 7.1-.9 11.21-.4 9.88-.2.62-1.21 6.38-1.7 4.5-1.09 3-.71 1.12-1.5 2.38-2.29 4.4-.5 5.1.2 3.5.9 4.62 1.5 4.5 3 3.6 3.1 3.5 6.21 8.59 4.6 7.6.4 1.5 1.69 5.4 2.69 10.31 1.4 10.6-.5 7.5-1 5.59-1.6 4.6-2 6.5-2 4.9-2.68 2.9-1.9 3.41-1 3 1 3.5 1 4.1 2.18 4.28 4 3.81 4 1.1 4.72.59 3.88.72 4.21 2.09 5.2 4 6.59 3.69 3.62-.88 7 2.28 7.78 4 9.72 6.32 9.38 8 10 8.9 6.8 5.88 5.32 7.81 4.28 8.81.5 1.19 6.4 15.31.82 5.88.28 4.72 2.4 6.18 2.91 3.6 4.5 1.72.79 1.4 1.12 1.78.03.1h2559.56v-4.19l-.09-6.1 1.5-9.09 2.5-10.62 3-8.1 3-8.59 4.5-11.69 2-7.62-.12-5.6 2-6v-8.59l2.5-12.19.4-12.62 2.4-14.19 2.5-13.69.5-1.5 2-5.12 2-3 2.6.5 1.5-1.1-.5-2-1.6-2.5 1-4.5 1.5-5.09 7.1-11.19 7-12.22 9.1-13.18 11.62-19.82 7.6-16.68 8-21.91 3-10.6-.22-21.21-1.1-14.19.31-24.31v-1.5l-.09-11.1 1.5-15.18 4-7.6 4.5-8.12 3-6.1 3.1-6.09 7.5-14.19 4.59-8.72 3-2.5 8.5-16.78 9.6-17.31 6-13.69 5.09-9.62 2-5.6 3.5-10.59.9-8.1.9-15.21-5.8-33.88.4-7.62 3.5-9.1-1.1-10.59 4.1-4.1 2.5-1.5-.5-2.59-5.6-3-2.09-3.5-3.09-9.12-5.72-8-.6-7.1-5.09-7.09-3.71-9-2.7-28.9.41-14.6-1.09-8.1-1.62-6.59-3.1-8.62-1.6-8.1.5-6.5 1.41-7.59 2.5-7.69 2-12.12 2.5-12.19 1.91-15.69.5-4 1.88-6.62 2.12-5.6 8-12.68 3.5-11.72.88-11.69 1-10.6 1.9-10.09 3.88-15.72h-3054.6z"/><path style="fill:#750787" d="m1379.06 4237.69.85 3.9-1 5.5-1.38 2.5-2.9 3.6-4.6 4.22-10.12 11.28-8.5 9.72-10.7 11.59-8.8 10-.28.5-3.72 5.19-3 6.12-3.78 6.88-2.82 6.72-2.4 8.28-4.5 10.4-1.7 4.6-1.8 4.9-3.28 6.22-4.22 3.69-.5.19-5.2 2-3.4 1.5-.78.4-2.81 1.91-2 2.5-1.69 3.9-.72 4.5-.28 7.6.69 5.69.31 10.62.28 6.6-.1 12-1.5 11.59v1.5l.1 7.31-.5 8.5.4 8 .7 8.6.62 10.09 3 13.81 3.1 11.1 4.09 13.5 2.69 9.18.71 2.6 1.1 3.5.1 4.5-.5 6.12-1.5 6 1.59 4.1.5 1 3.12 5 1.19 1.78 3.19 7.72.62 10.18-.31 8 .1 5.6.09 2.5 1.12 11.72-.81 11.09v7.1l2.6 6 3.09 4.8 5 4.79 7.5 4.31 6.9 4.81 6.9 6.88 3.82 8.22.28 1.09 1.9 7 2 9.1 1.6 6 1.22 4.9 1.38 4.1 2.5 2.09 1 .72 1.9 1.5 2.22 2.9 1.69 2.78-.1 3.72-.5 5.1-.09 8.78.1 12.4 1 11.41 2.18 9.69 1.6 9.72 1.3 6.09.6 4 1.6 4.19 1.4 3.12 1.72 2.78.69 2.82-.19 3.18-1.12 3.32-.38 1.78.1.62.4 1.88 1.6 2.5 2.09 1.5.4.22 1.6.9 1 2v1.5l.5 2 2.1 3.5 2 1.6 2.09.5 1.5.4 2.5.1 2.12-.1 3.1.5 2.5 1.6 1.4 1.9.38 3-.1 2.5 1.4 3.1 1.5 1.59.5.5 2.6 2 3.6 2.5 8.72 5 7.68 4.6 6.32 5.21 5 4.28 3.28 4.72 5.4 4.38 4.6 3 6.12 3.62 4.78 2.88 4.9 1.62 5.7 1h2.5l4.12-.5 4.6-.12 4.09 1.5 4.6 2.62 5 2.38 3.5 1.72 6.59 2.68 2 1 4.9 2.22 10.82 2.1 8.09 2.28 21.5 7.12 16.4 3.5 11.2 2.5 11.8 3.38 13.79 2.62 10.3 2.88 5.6 1.81 8.22 1.31 7.5 1.78 5.6 1.82 6.78 2.9 6.8 2.6 6 5 3.32 5 1.38 2 3.9 7.28 2.22 5.31 2.1 5.6 1.09 6 .81 5.09 1.38 5.12 2.62 5.19 3.88 9.9 4.8 10.1 1.92 6 2.09 7.31 2.5 5.78 3.81 5 5.88 5.82 4.22 3.28 3.59 5.12 2 5 1.6 6 2.3 8.38.29 5.62-1.7 5-4.4 5.88 4.6-.1h.5l12.3.5 158.5 2.32 2.6.18h161l128.9-.5 25.82.1 35 .5 19.19 1.12 14.1.78 26-.09h42.09l30-.1 28.72-.09 100.18.1 91.9 1.59 66.6 1.19 28.4.5 41.7.72h1l30.72-.22 37.78.3 39.5.1 29.62.1 66.19.31 88.19.69 55 .31 34 .19 13.9.12h148.75l28.57-1.22 26.4-1 37-1.4 102-1.19 78-.9 88.88-1.91 85.9-1.88h2.22l14.69-.31 49.6-.4 42.4-.91 57.31-1 90.1-1.5 67.9-1.1-1.62-3.4-1.5-6-2.1-8.1-2.68-12.09-1.6-13.1-.62-11.09.4-14.72v-9l-.6-7.59-.09-9.1v-6.09l-2.59-5.5-1-4-.62-5.12-.5-5.5-1.1-6.6.5-5-.1-7.09 1-5.6 2-8.59 3-13.62 3-12.19 1.41-7.5 2-7.6.5-2.09 4-11.12 2-7.6 1-5 4.6-8.68.4-6 1.5-6.1 4.1-9.62-.1-3.1-1.5-5-.09-4-2.62-16.68 1.5-5-.1-7.1 4.5-11.22 7.1-10.09 4.62-3.6v-2.5l-2.62-4.5-5.7-6.09-9.18-4.9-7.22-5.5-5.1-5.1-8.3-10-7.7-9.5-7.18-10.12-3.72-9.5-.5-2.6-2.6-5-4.09-5.5-2.59-6.09-1.12-4-4.1-8.1-1.6-4.5-1-4.5-1.59-5.09-2.09-11.62.88-7.6 1.5-3.5 4.62-4.59v-4l-.5-2-3.72-6.1-1-6 1.4-14.71-.09-17.69-1.59-8.5-1.63-4.6-2.5-4-2.09-3-5.19-7.09-5.09-5.5-14.4-14-1.6-6.12-1-1-3.63-1-1.59-3-4.1-6.5-5.09-3-2.09-1.5-.5-1.5 1.5-6.1 2.5-8.59 1.5-4.1 2.5-6.5 6.6-10.21 7.59-10.19 10.1-11.1 1-4.59-4.1-3-2.69-16.22-2.13-6-4.09-5.5-4.6-4-2.09-4.09-4.59-7-5.72-6.5-2-4.6-.1-6.5.5-5.09 2-6.12 2-4 2.5-5.1 3-7.59 2.5-6.1 2-7.59.5-5-1.59-4.62-1.5-5-1.59-6.6-3.13-4-2.59-4-1-1-1.6-2.59-1-4v-5.5l-.09-5.1-1-5.59-2.6-2.5-2.62-5.5-1.59-5.5-1.5-5.62-1.1-5-1.59-7.1v-5.4H1379.06z"/></svg>