<svg xmlns="http://www.w3.org/2000/svg" viewBox="0 0 167 14.5" width="167"><path d="M42.7 4.6 42 7.4l-.2 1a2 2 0 0 0 0 .2v.2a.9.9 0 0 0 .1.1.9.9 0 0 0 0 .2.6.6 0 0 0 .2.1l.3.2a1.4 1.4 0 0 0 .3 0 1.6 1.6 0 0 0 0 0 1.4 1.4 0 0 0 .7-.2 1.6 1.6 0 0 0 0 0 2 2 0 0 0 .5-.4 2.5 2.5 0 0 0 .2-.3 3 3 0 0 0 .3-.5 4 4 0 0 0 .1-.4 4.4 4.4 0 0 0 .2-.8 5.6 5.6 0 0 0 0-.5 5.8 5.8 0 0 0 0-1 4.3 4.3 0 0 0-.4-1 4 4 0 0 0-.6-1 3.6 3.6 0 0 0-.3-.3 4 4 0 0 0-1.4-.8 4.6 4.6 0 0 0-.1 0q-.9-.3-1.8-.3-1.1 0-2 .4-1 .4-1.7 1-.7.8-1 1.8a5.5 5.5 0 0 0-.5 1.7 6.5 6.5 0 0 0 0 .4 7.3 7.3 0 0 0 .1 1.2 5.4 5.4 0 0 0 .4 1.2 5.2 5.2 0 0 0 .6 1.2 4.6 4.6 0 0 0 .5.6q.8.6 1.8 1t2.1.4a9.6 9.6 0 0 0 1-.1l1.2-.2a7.8 7.8 0 0 0 .8-.3 5.7 5.7 0 0 0 .8-.4.6.6 0 0 1 0 0h.1a.3.3 0 0 1 0 0 .2.2 0 0 1 .3 0v.1a.5.5 0 0 1 0 0l.2.6a6.9 6.9 0 0 1-1.4.7 8.1 8.1 0 0 1-.5.2 7.5 7.5 0 0 1-1.3.2 10.1 10.1 0 0 1-1.2.1 7.7 7.7 0 0 1-1.8-.2 6.8 6.8 0 0 1-.8-.2 6 6 0 0 1-2-1.2 5.8 5.8 0 0 1 0-.1 5.7 5.7 0 0 1-1.3-1.7 6.7 6.7 0 0 1-.1-.3 6.4 6.4 0 0 1-.4-1.7 8.2 8.2 0 0 1-.1-1q0-1 .2-1.7.2-.8.6-1.5.4-.7 1-1.3.5-.6 1.2-1l1.5-.7q.8-.2 1.7-.2l1.4.2q.7.1 1.3.4l1.2.8 1 1 .5 1.4a5.4 5.4 0 0 1 .2 1 6.5 6.5 0 0 1 0 .6 5.4 5.4 0 0 1 0 1 4.5 4.5 0 0 1-.2.6 4.4 4.4 0 0 1-.4.8 3.7 3.7 0 0 1-.3.5q-.4.5-1 .8-.6.3-1.3.3a2.1 2.1 0 0 1-.4 0l-.5-.2a1.3 1.3 0 0 1 0-.1 1.2 1.2 0 0 1-.4-.5l-.2-.4a3.8 3.8 0 0 1-.4.4l-.4.4a2.1 2.1 0 0 1-.2.1q-.5.3-1.2.3L38 10a1.5 1.5 0 0 1 0 0l-.6-.4a1.9 1.9 0 0 1-.3-.6 2.3 2.3 0 0 1 0-.1 3 3 0 0 1-.1-.7 3.5 3.5 0 0 1 0-.2 3.8 3.8 0 0 1 0-1 4.4 4.4 0 0 1 .1-.3q.3-.7.8-1.2a3.8 3.8 0 0 1 .9-.7 4.6 4.6 0 0 1 .4-.2 3.8 3.8 0 0 1 1-.3 5 5 0 0 1 .7 0 5.8 5.8 0 0 1 .5 0h.5q.4 0 .7.3Zm114.8 7.2H156V3.7h.9a.5.5 0 0 1 .1 0q.2 0 .3.2a.5.5 0 0 1 0 0v1a4.3 4.3 0 0 1 .8-.8 3.9 3.9 0 0 1 .3-.2 2.3 2.3 0 0 1 1-.3 2.9 2.9 0 0 1 .3 0 2.4 2.4 0 0 1 .6 0 1.7 1.7 0 0 1 .7.4 2.3 2.3 0 0 1 .6.7 3.1 3.1 0 0 1 .1.5 2.7 2.7 0 0 1 .3-.5 2.3 2.3 0 0 1 .2-.2l.6-.5.7-.4h.8q.7 0 1.2.2t.8.6a2.5 2.5 0 0 1 .4.6 3.1 3.1 0 0 1 .1.3 3.7 3.7 0 0 1 .2.7 5 5 0 0 1 0 .6v5.2h-1.4V6.6a3.5 3.5 0 0 0 0-.5q-.1-.6-.4-1a1.3 1.3 0 0 0-.8-.4 2 2 0 0 0-.4 0l-.7.1q-.3.1-.5.4-.3.2-.4.6a2 2 0 0 0-.1.4v5.6h-1.5V6.6q0-1-.4-1.4a1.3 1.3 0 0 0-.7-.5 2 2 0 0 0-.4 0q-.5 0-1 .3a3 3 0 0 0-.6.4 3.7 3.7 0 0 0-.2.3v6Zm-156 0H0V0h1.4v4.8a4.4 4.4 0 0 1 1-.8 4.1 4.1 0 0 1 .2-.1 2.9 2.9 0 0 1 1-.3 3.7 3.7 0 0 1 .4 0 3.4 3.4 0 0 1 .6 0 2.6 2.6 0 0 1 .6.2q.5.2.9.6a2.6 2.6 0 0 1 .4.7 3.2 3.2 0 0 1 0 .3 3.9 3.9 0 0 1 .2.7 4.9 4.9 0 0 1 0 .5v5.2H5.3V6.6a3.2 3.2 0 0 0 0-.5L5 5.5a1.6 1.6 0 0 0-.2-.3q-.4-.5-1.2-.5a2.8 2.8 0 0 0 0 0q-.7 0-1.3.3a3.7 3.7 0 0 0-.7.6 4.5 4.5 0 0 0-.3.2v6ZM89.1 0h1.4v7h.7a.5.5 0 0 0 0-.1.4.4 0 0 0 .2 0l.1-.2a1.5 1.5 0 0 0 0 0L94.1 4q0-.2.2-.2l.3-.1a1 1 0 0 1 0 0H96l-3 3.2a3.2 3.2 0 0 1 0 .1 2.5 2.5 0 0 1-.2.1l-.2.2.2.2a2 2 0 0 1 .2.2 2.3 2.3 0 0 1 0 0l3.2 4h-1.3a.8.8 0 0 1 0 0h-.2a.5.5 0 0 1 0 0 .6.6 0 0 1-.2 0v-.2l-2.8-3.3q0-.2-.2-.2h-.3a2 2 0 0 0 0 0h-.5v3.8h-1.4V0Zm-12 11.8h-1V0h1.5v4.8l1.2-.9a3 3 0 0 1 1-.3 3.6 3.6 0 0 1 .5 0q.7 0 1.2.2a2.6 2.6 0 0 1 1 .8 2.4 2.4 0 0 1 0 0 3.3 3.3 0 0 1 .4.7 4.5 4.5 0 0 1 .2.6q.2.7.2 1.7a9.2 9.2 0 0 1 0 0 6 6 0 0 1 0 1.2 5 5 0 0 1-.2.5 4.3 4.3 0 0 1-.4 1 3.7 3.7 0 0 1-.3.4l-1.1.9a3.1 3.1 0 0 1-1 .3 3.8 3.8 0 0 1-.5 0 3.4 3.4 0 0 1-.6 0l-.6-.3a2 2 0 0 1-.1 0 3 3 0 0 1-.8-.7 3.5 3.5 0 0 1-.2-.2v.8q-.1.3-.4.3Zm50.3-7.3-.4.5q0 .2-.3.2a.4.4 0 0 1 0 0h-.2a.9.9 0 0 1 0-.1 4.5 4.5 0 0 0-.2 0V5a8.7 8.7 0 0 0-.2 0 2.8 2.8 0 0 0-.2-.2h-.3a2 2 0 0 0-.3-.2h-.3a3.6 3.6 0 0 0-.1 0 2.4 2.4 0 0 0-.4 0 1.9 1.9 0 0 0-.3.1 1.7 1.7 0 0 0-.3.1 1.4 1.4 0 0 0-.2.2 1.2 1.2 0 0 0-.2.2 1 1 0 0 0-.1.1l-.1.5a.9.9 0 0 0 0 .2.7.7 0 0 0 .2.3 1.4 1.4 0 0 0 .2.2 1.9 1.9 0 0 0 .3.2l.6.2a35.9 35.9 0 0 1 .7.3 39.2 39.2 0 0 1 .1 0l.8.3a2.9 2.9 0 0 1 .5.3 2.6 2.6 0 0 1 .1 0l.5.7q.2.3.2.8a2.6 2.6 0 0 1 0 0 2.7 2.7 0 0 1-.1.8 2.5 2.5 0 0 1-.1.2q-.2.5-.6.9a2.7 2.7 0 0 1-.6.4 3.3 3.3 0 0 1-.4.1 3.4 3.4 0 0 1-.6.2h-.7a4.5 4.5 0 0 1-.9 0 3.7 3.7 0 0 1-.6-.3 4.3 4.3 0 0 1-.7-.3 3.5 3.5 0 0 1-.5-.4l.4-.5.1-.2a.3.3 0 0 1 .1 0h.1a.4.4 0 0 1 .2 0h.1a.8.8 0 0 1 0 0l.4.3.5.2a4.1 4.1 0 0 0 0 0 1.8 1.8 0 0 0 .4.1h.3a3.8 3.8 0 0 0 .2 0 2.7 2.7 0 0 0 .3 0h.4a1.6 1.6 0 0 0 0 0 1.8 1.8 0 0 0 .3-.1 1.3 1.3 0 0 0 .3-.2 1.2 1.2 0 0 0 .2-.3 1.1 1.1 0 0 0 0-.1l.2-.5q0-.4-.2-.6a1.4 1.4 0 0 0-.3-.3 1.8 1.8 0 0 0-.2 0l-.7-.4q-.4 0-.7-.2l-.8-.3a2.8 2.8 0 0 1-.6-.3 2.5 2.5 0 0 1-.1-.1q-.3-.2-.5-.6L122 6a2.9 2.9 0 0 1 0-.1q0-.5.2-.9t.6-.7a2.5 2.5 0 0 1 .5-.4 3.2 3.2 0 0 1 .4-.2 3.2 3.2 0 0 1 .7-.1 4.3 4.3 0 0 1 .5 0 4.4 4.4 0 0 1 .8 0 3.4 3.4 0 0 1 .7.2 3.5 3.5 0 0 1 .8.5 3.2 3.2 0 0 1 .3.2Zm6.9 0-.3.5q-.1.2-.3.2a.4.4 0 0 1-.1 0h-.1a.9.9 0 0 1 0-.1 4.5 4.5 0 0 0-.2 0l-.1-.1a8.7 8.7 0 0 0-.2 0 2.8 2.8 0 0 0-.2-.2h-.3a2 2 0 0 0-.3-.2h-.3a3.6 3.6 0 0 0-.1 0 2.4 2.4 0 0 0-.4 0 1.9 1.9 0 0 0-.2.1 1.7 1.7 0 0 0-.3.1 1.4 1.4 0 0 0-.2.2 1.2 1.2 0 0 0-.3.2 1 1 0 0 0 0 .1q-.2.2-.2.5a.9.9 0 0 0 0 .2.7.7 0 0 0 .2.3 1.4 1.4 0 0 0 .3.2 1.9 1.9 0 0 0 .2.2l.7.2a35.9 35.9 0 0 1 .7.3 39.2 39.2 0 0 1 0 0l.8.3a2.9 2.9 0 0 1 .6.3 2.6 2.6 0 0 1 0 0q.4.3.6.7l.1.8a2.6 2.6 0 0 1 0 0 2.7 2.7 0 0 1 0 .8 2.5 2.5 0 0 1-.2.2q-.2.5-.6.9a2.7 2.7 0 0 1-.6.4 3.3 3.3 0 0 1-.3.1 3.4 3.4 0 0 1-.7.2h-.6a4.5 4.5 0 0 1-1 0 3.7 3.7 0 0 1-.6-.3 4.3 4.3 0 0 1-.7-.3 3.5 3.5 0 0 1-.4-.4l.3-.5.2-.2a.3.3 0 0 1 0 0h.2a.4.4 0 0 1 .1 0h.2a.8.8 0 0 1 0 0l.4.3.4.2a4.1 4.1 0 0 0 .1 0 1.8 1.8 0 0 0 .3.1h.3a3.8 3.8 0 0 0 .2 0 2.7 2.7 0 0 0 .4 0h.3a1.6 1.6 0 0 0 0 0 1.8 1.8 0 0 0 .4-.1 1.3 1.3 0 0 0 .2-.2 1.2 1.2 0 0 0 .2-.3 1.1 1.1 0 0 0 .1-.1l.1-.5q0-.4-.2-.6a1.4 1.4 0 0 0-.2-.3 1.8 1.8 0 0 0-.3 0l-.6-.4-.8-.2-.8-.3a2.8 2.8 0 0 1-.6-.3 2.5 2.5 0 0 1 0-.1q-.4-.2-.5-.6-.2-.3-.2-.8a2.9 2.9 0 0 1 0-.1q0-.5.2-.9l.5-.7a2.5 2.5 0 0 1 .6-.4 3.2 3.2 0 0 1 .3-.2 3.2 3.2 0 0 1 .7-.1 4.3 4.3 0 0 1 .6 0 4.4 4.4 0 0 1 .8 0 3.4 3.4 0 0 1 .6.2 3.5 3.5 0 0 1 .9.5 3.2 3.2 0 0 1 .2.2ZM15.1 7.7H9.7a5.5 5.5 0 0 0 0 .7l.2.6a3.2 3.2 0 0 0 0 0q.2.6.6 1 .3.4.8.6a2.6 2.6 0 0 0 .6.2 3.2 3.2 0 0 0 .4 0 4 4 0 0 0 .4 0l.5-.1a5.4 5.4 0 0 0 .3-.2h.3a3 3 0 0 0 .1-.1 6.9 6.9 0 0 0 .2-.1l.2-.1a3.4 3.4 0 0 0 0 0 1 1 0 0 1 .2-.1l.2-.1a.3.3 0 0 1 0 0l.3.1.4.5a2.7 2.7 0 0 1-.7.6l-.8.4-.8.2-1 .1a4.3 4.3 0 0 1-1-.1 3.8 3.8 0 0 1-.5-.2q-.7-.3-1.2-.8a3.6 3.6 0 0 1-.6-.9 4.5 4.5 0 0 1-.2-.5q-.3-.8-.3-1.8a4.9 4.9 0 0 1 .2-1.2 4.4 4.4 0 0 1 0-.4 3.8 3.8 0 0 1 .6-1 3.5 3.5 0 0 1 .2-.3 3.4 3.4 0 0 1 1.2-.8 4 4 0 0 1 0 0 3.7 3.7 0 0 1 1-.3 4.6 4.6 0 0 1 .6 0 3.8 3.8 0 0 1 1 0 3.3 3.3 0 0 1 .3.2q.7.2 1.1.7a3 3 0 0 1 .6.8 3.7 3.7 0 0 1 .1.3 4 4 0 0 1 .2.9 5.2 5.2 0 0 1 0 .7 2.5 2.5 0 0 1 0 .1v.3a.2.2 0 0 1 0 0 .2.2 0 0 1-.1.1h-.1a.6.6 0 0 1 0 0Zm50.5 0h-5.4a5.5 5.5 0 0 0 0 .7l.2.6a3.2 3.2 0 0 0 0 0l.5 1 .8.6a2.6 2.6 0 0 0 .7.2 3.2 3.2 0 0 0 .4 0 4 4 0 0 0 .4 0l.5-.1a5.4 5.4 0 0 0 .3-.2h.3a3 3 0 0 0 0-.1 6.9 6.9 0 0 0 .3-.1l.1-.1a3.4 3.4 0 0 0 .1 0 1 1 0 0 1 .1-.1l.2-.1a.3.3 0 0 1 0 0l.3.1.4.5a2.7 2.7 0 0 1-.6.6l-.8.4-.9.2-.9.1a4.3 4.3 0 0 1-1-.1 3.8 3.8 0 0 1-.5-.2q-.7-.3-1.2-.8a3.6 3.6 0 0 1-.6-.9 4.5 4.5 0 0 1-.2-.5q-.3-.8-.3-1.8a4.9 4.9 0 0 1 .1-1.2A4.4 4.4 0 0 1 59 6a3.8 3.8 0 0 1 .6-1 3.5 3.5 0 0 1 .2-.3A3.4 3.4 0 0 1 61 4a4 4 0 0 1 0 0 3.7 3.7 0 0 1 1-.3 4.6 4.6 0 0 1 .6 0 3.8 3.8 0 0 1 .9 0 3.3 3.3 0 0 1 .4.2q.6.2 1 .7a3 3 0 0 1 .6.8 3.7 3.7 0 0 1 .2.3 4 4 0 0 1 .2.9 5.2 5.2 0 0 1 0 .7 2.5 2.5 0 0 1 0 .1v.3a.2.2 0 0 1 0 0 .2.2 0 0 1-.2.1q0 0 0 0a.6.6 0 0 1-.1 0Zm8.4 0h-5.4a5.5 5.5 0 0 0 0 .7l.2.6a3.2 3.2 0 0 0 0 0l.5 1q.3.4.8.6a2.6 2.6 0 0 0 .7.2 3.2 3.2 0 0 0 .4 0 4 4 0 0 0 .4 0l.5-.1a5.4 5.4 0 0 0 .3-.2h.3a3 3 0 0 0 0-.1 6.9 6.9 0 0 0 .2-.1l.2-.1a3.4 3.4 0 0 0 .1 0 1 1 0 0 1 .1-.1l.2-.1a.3.3 0 0 1 0 0l.3.1.4.5a2.7 2.7 0 0 1-.6.6l-.8.4-.9.2-.9.1a4.3 4.3 0 0 1-1-.1 3.8 3.8 0 0 1-.5-.2q-.7-.3-1.2-.8a3.6 3.6 0 0 1-.6-.9 4.5 4.5 0 0 1-.2-.5q-.3-.8-.3-1.8a4.9 4.9 0 0 1 .1-1.2 4.4 4.4 0 0 1 .1-.4 3.8 3.8 0 0 1 .6-1 3.5 3.5 0 0 1 .2-.3 3.4 3.4 0 0 1 1.1-.8 4 4 0 0 1 0 0 3.7 3.7 0 0 1 1.1-.3 4.6 4.6 0 0 1 .6 0 3.8 3.8 0 0 1 .9 0 3.3 3.3 0 0 1 .4.2q.6.2 1 .7a3 3 0 0 1 .6.8 3.7 3.7 0 0 1 .2.3 4 4 0 0 1 .2.9 5.2 5.2 0 0 1 0 .7 2.5 2.5 0 0 1 0 .1v.3a.2.2 0 0 1 0 0 .2.2 0 0 1-.2.1q0 0 0 0a.6.6 0 0 1-.1 0Zm29.3 0h-5.4a5.5 5.5 0 0 0 0 .7l.2.6a3.2 3.2 0 0 0 0 0l.5 1 .8.6a2.6 2.6 0 0 0 .7.2 3.2 3.2 0 0 0 .4 0 4 4 0 0 0 .4 0l.5-.1a5.4 5.4 0 0 0 .3-.2h.3a3 3 0 0 0 0-.1 6.9 6.9 0 0 0 .3-.1l.1-.1a3.4 3.4 0 0 0 .1 0 1 1 0 0 1 .1-.1l.3-.1a.3.3 0 0 1 0 0l.2.1.4.5a2.7 2.7 0 0 1-.6.6l-.8.4-.9.2-.8.1a4.3 4.3 0 0 1-1-.1 3.8 3.8 0 0 1-.6-.2q-.7-.3-1.2-.8a3.6 3.6 0 0 1-.6-.9 4.5 4.5 0 0 1-.2-.5q-.3-.8-.3-1.8a4.9 4.9 0 0 1 .1-1.2 4.4 4.4 0 0 1 .2-.4 3.8 3.8 0 0 1 .5-1 3.5 3.5 0 0 1 .2-.3 3.4 3.4 0 0 1 1.2-.8 4 4 0 0 1 0 0 3.7 3.7 0 0 1 1-.3 4.6 4.6 0 0 1 .6 0 3.8 3.8 0 0 1 .9 0 3.3 3.3 0 0 1 .4.2q.6.2 1 .7a3 3 0 0 1 .6.8 3.7 3.7 0 0 1 .2.3 4 4 0 0 1 .2.9 5.2 5.2 0 0 1 0 .7 2.5 2.5 0 0 1 0 .1v.3a.2.2 0 0 1 0 0 .2.2 0 0 1-.1.1h-.1a.6.6 0 0 1-.1 0Zm3.6 6.8h-1.4V3.7h.8a.5.5 0 0 1 .2 0l.2.2a.5.5 0 0 1 0 0l.1 1a4.4 4.4 0 0 1 1-.9 4.1 4.1 0 0 1 .2 0 2.9 2.9 0 0 1 1.1-.4 3.6 3.6 0 0 1 .4 0 3.1 3.1 0 0 1 .8 0 2.7 2.7 0 0 1 .5.2q.6.3 1 .8t.6 1.3q.2.7.2 1.7a9.3 9.3 0 0 1 0 0 6 6 0 0 1-.1 1.2 5 5 0 0 1-.1.5 4.4 4.4 0 0 1-.4.9 3.7 3.7 0 0 1-.3.5l-1.1.9a3.1 3.1 0 0 1-1.1.3 3.8 3.8 0 0 1-.4 0 3.8 3.8 0 0 1-.6 0l-.6-.2a2.2 2.2 0 0 1 0 0q-.6-.3-1-.8v3.6Zm-57.6-2.7h-1.5V4.9l-.9-.1a.9.9 0 0 1 0 0l-.2-.1a.3.3 0 0 1-.1-.2.4.4 0 0 1 0 0v-.7h1.2v-.7a4.2 4.2 0 0 1 0-.7 3.1 3.1 0 0 1 .2-.6q.2-.5.6-.9.4-.4.9-.6l1.1-.1a3.2 3.2 0 0 1 .7 0 2.8 2.8 0 0 1 .3.1v.9a.2.2 0 0 1-.1 0H51a3.1 3.1 0 0 1 0 0h-.2a2.4 2.4 0 0 0-.4 0 2 2 0 0 0-.3.1q-.3.1-.5.4a1.3 1.3 0 0 0-.2.3 1.7 1.7 0 0 0-.2.2 2 2 0 0 0 0 .3V3a4.2 4.2 0 0 0 0 .2v.7h2.3v1h-2.3v7Zm71-5.2v5.2h-.7a1.1 1.1 0 0 1-.1 0h-.1a.5.5 0 0 1-.1 0l-.2-.3a.7.7 0 0 1 0 0l-.2-.8a9.8 9.8 0 0 1-.4.3 8 8 0 0 1-.2.2l-.6.4-.7.2a3.7 3.7 0 0 1-.5.1 4.8 4.8 0 0 1-.4 0l-.9-.1a2 2 0 0 1-.5-.3 1.9 1.9 0 0 1-.2-.1 1.8 1.8 0 0 1-.4-.5 2.2 2.2 0 0 1 0-.2q-.2-.4-.2-1a3.3 3.3 0 0 1 0 0 1.8 1.8 0 0 1 .2-.8 2.1 2.1 0 0 1 0 0 1.9 1.9 0 0 1 .4-.5l.3-.3a3.5 3.5 0 0 1 .2 0q.4-.3 1.1-.5a8.4 8.4 0 0 1 .4-.1 8.4 8.4 0 0 1 .8-.2h1a17.2 17.2 0 0 1 .5 0v-.7a3.5 3.5 0 0 0 0-.5l-.1-.5a1.5 1.5 0 0 0-.3-.4 1.3 1.3 0 0 0-.7-.5h-.4a2.6 2.6 0 0 0 0 0 3.4 3.4 0 0 0-.4 0h-.4a1.8 1.8 0 0 0-.1.1 4 4 0 0 0-.4.2 2.8 2.8 0 0 0-.3.1l-.3.2a7.8 7.8 0 0 0-.1.1.8.8 0 0 1-.1 0l-.3.1a.5.5 0 0 1 0 0 .5.5 0 0 1-.1 0 .4.4 0 0 1-.1 0l-.2-.2-.3-.5q.7-.6 1.5-1a4.2 4.2 0 0 1 1.2-.2 5.2 5.2 0 0 1 .5 0 3.5 3.5 0 0 1 .7 0 2.7 2.7 0 0 1 .5.2 2.5 2.5 0 0 1 .7.4 2.4 2.4 0 0 1 .2.2 2.5 2.5 0 0 1 .5.7 3 3 0 0 1 0 .3 3.8 3.8 0 0 1 .2.8 4.6 4.6 0 0 1 0 .4Zm25.3-2-.4.5v.1a.4.4 0 0 1-.1 0 .2.2 0 0 1 0 0l-.1.1a.5.5 0 0 1-.1 0 .3.3 0 0 1-.1 0h-.1a.7.7 0 0 1 0-.1 2.7 2.7 0 0 0-.2 0l-.2-.2a2.4 2.4 0 0 0-.2-.1l-.3-.1a4.2 4.2 0 0 0 0 0 1.9 1.9 0 0 0-.3-.1h-.3a3.7 3.7 0 0 0-.2 0 2.8 2.8 0 0 0-.6 0 2.2 2.2 0 0 0-.4.2q-.5.2-.8.6a2.5 2.5 0 0 0-.3.6 3.2 3.2 0 0 0-.2.4l-.1 1.2a5.5 5.5 0 0 0 0 .7l.1.6a3.4 3.4 0 0 0 0 0 3.3 3.3 0 0 0 .2.5 2.5 2.5 0 0 0 .3.5q.3.4.7.6a2.2 2.2 0 0 0 .7.2 2.7 2.7 0 0 0 .3 0h.7a1.7 1.7 0 0 0 .2-.1l.5-.3a1.8 1.8 0 0 0 0 0 5.7 5.7 0 0 0 .2-.1l.1-.1a2.7 2.7 0 0 0 .1 0 .6.6 0 0 1 .1-.2h.2l.3.1.4.5q-.6.7-1.3 1-.8.3-1.7.3a3.6 3.6 0 0 1-1.1-.2 3.4 3.4 0 0 1-.3 0l-1.2-.9a3.6 3.6 0 0 1-.5-.8 4.5 4.5 0 0 1-.2-.5 4.7 4.7 0 0 1-.2-1 6.2 6.2 0 0 1-.1-.8 5.7 5.7 0 0 1 .1-1 4.8 4.8 0 0 1 .2-.6 4 4 0 0 1 .4-1 3.5 3.5 0 0 1 .3-.4 3.3 3.3 0 0 1 1.2-.8 3.8 3.8 0 0 1 0 0 3.7 3.7 0 0 1 1-.3 4.8 4.8 0 0 1 .6 0q.9 0 1.5.2.7.3 1.2.8Zm-91.3 7.2H53V3.7h1a.3.3 0 0 1 .1.1V4a1.2 1.2 0 0 1 0 0l.2 1.3a4.4 4.4 0 0 1 .4-.7 3.2 3.2 0 0 1 .6-.6 2.3 2.3 0 0 1 1.4-.5 2.8 2.8 0 0 1 0 0l.6.1q.3 0 .5.2l-.1 1q-.1.3-.3.3a.5.5 0 0 1 0 0h-.2a2.9 2.9 0 0 1-.1 0q-.2-.2-.6-.2a4.3 4.3 0 0 0 0 0 2.1 2.1 0 0 0-.7.1 1.7 1.7 0 0 0-.6.4 2.6 2.6 0 0 0-.5.5l-.3.5a5 5 0 0 0 0 .2v5.2ZM17.4 0H19v11.8h-1.5V0Zm4.1 0H23v11.8h-1.5V0Zm7.3 3.6 1.6.2q.7.3 1.2.9a3.6 3.6 0 0 1 .6 1 4.3 4.3 0 0 1 .1.3 4.8 4.8 0 0 1 .3 1 6.1 6.1 0 0 1 0 .7 6 6 0 0 1 0 1 4.6 4.6 0 0 1-.3.8 4 4 0 0 1-.4.8 3.4 3.4 0 0 1-.3.5q-.5.5-1.2.8a4 4 0 0 1-1 .3 5 5 0 0 1-.6 0 4.7 4.7 0 0 1-1 0 3.8 3.8 0 0 1-.7-.3q-.7-.3-1.2-.8a3.6 3.6 0 0 1-.6-1 4.3 4.3 0 0 1-.1-.3q-.3-.8-.3-1.8t.3-1.7q.2-.8.7-1.3.5-.6 1.2-.9.8-.2 1.7-.2Zm121.6 0q1 0 1.6.2.8.3 1.3.9a3.6 3.6 0 0 1 .6 1 4.3 4.3 0 0 1 .1.3 4.8 4.8 0 0 1 .3 1 6.1 6.1 0 0 1 0 .7 6 6 0 0 1 0 1 4.6 4.6 0 0 1-.3.8 4 4 0 0 1-.4.8 3.4 3.4 0 0 1-.3.5q-.5.5-1.3.8a4 4 0 0 1-1 .3 5 5 0 0 1-.6 0 4.7 4.7 0 0 1-.9 0 3.8 3.8 0 0 1-.7-.3q-.7-.3-1.2-.8a3.6 3.6 0 0 1-.7-1 4.3 4.3 0 0 1 0-.3q-.3-.8-.3-1.8t.2-1.7q.3-.8.8-1.3.5-.6 1.2-.9.7-.2 1.6-.2Zm-65.2 0h1.5v8.2h-1.5V3.7Zm-56.4 7.2q1.2 0 1.7-.8a2.7 2.7 0 0 0 .5-1l.1-1.4a5.8 5.8 0 0 0 0-.8q0-.5-.2-.8a2.6 2.6 0 0 0-.4-.6q-.5-.8-1.7-.8a3 3 0 0 0-.5 0q-.4 0-.6.2-.5.2-.8.6a2.4 2.4 0 0 0-.3.5 3.2 3.2 0 0 0-.1.4 4.5 4.5 0 0 0-.1.7 6 6 0 0 0 0 .6 6 6 0 0 0 0 .7 4.4 4.4 0 0 0 .1.6 3 3 0 0 0 .2.5 2.3 2.3 0 0 0 .2.5q.3.4.8.6a2.2 2.2 0 0 0 .5.1 3 3 0 0 0 .6 0Zm121.6 0q1.2 0 1.8-.8a2.7 2.7 0 0 0 .4-.9q.2-.6.2-1.4a5.8 5.8 0 0 0 0-.8l-.3-.8a2.6 2.6 0 0 0-.3-.6q-.6-.8-1.8-.8a3 3 0 0 0-.5 0q-.3 0-.5.2-.5.2-.8.6a2.4 2.4 0 0 0-.3.5 3.2 3.2 0 0 0-.1.4 4.5 4.5 0 0 0-.1.7 6 6 0 0 0 0 .6 6 6 0 0 0 0 .7 4.4 4.4 0 0 0 0 .6 3 3 0 0 0 .3.5 2.3 2.3 0 0 0 .2.5q.3.4.8.6a2.2 2.2 0 0 0 .5.1 3 3 0 0 0 .5 0ZM77.6 5.9v4l.8.6a1.7 1.7 0 0 0 0 0q.5.3 1.1.3a2.5 2.5 0 0 0 .8-.1 2 2 0 0 0 1-.7 2.7 2.7 0 0 0 .4-.8l.1-.9a6.3 6.3 0 0 0 0-.6 7.5 7.5 0 0 0 0-.6v-.6a4 4 0 0 0 0-.2l-.5-1A1.6 1.6 0 0 0 81 5a1.5 1.5 0 0 0-.2-.1 2 2 0 0 0-.6-.2 2.5 2.5 0 0 0-.3 0 2.6 2.6 0 0 0-.7 0 2.1 2.1 0 0 0-.5.3 3.2 3.2 0 0 0-.6.5 4.2 4.2 0 0 0-.4.4ZM107 6v4q.4.5.8.7l1 .2a2.5 2.5 0 0 0 .8-.1 2 2 0 0 0 1-.7 2.7 2.7 0 0 0 .4-.8l.2-.9a6.3 6.3 0 0 0 0-.6 7.5 7.5 0 0 0 0-.6v-.6a4 4 0 0 0-.1-.2l-.4-1a1.6 1.6 0 0 0-.4-.3 1.5 1.5 0 0 0-.3-.1 2 2 0 0 0-.5-.2 2.5 2.5 0 0 0-.3 0 2.6 2.6 0 0 0-.7 0 2.1 2.1 0 0 0-.6.3 3.2 3.2 0 0 0-.5.5 4.2 4.2 0 0 0-.4.4ZM41 7.7l.6-2.4a2.8 2.8 0 0 0-.4 0 3.5 3.5 0 0 0-.3 0 2.5 2.5 0 0 0-.8 0 2.3 2.3 0 0 0-.3.2q-.5.2-.9.6l-.5 1-.2 1a2 2 0 0 0 0 .4q0 .4.2.6a.9.9 0 0 0 .6.3 1.3 1.3 0 0 0 .2 0 1.6 1.6 0 0 0 .5 0 1.8 1.8 0 0 0 0 0A1.3 1.3 0 0 0 40 9a1.7 1.7 0 0 0 .2-.1l.4-.5a2.9 2.9 0 0 0 0 0l.4-1Zm27.7-.8H73a3.1 3.1 0 0 0 0-.5 2.6 2.6 0 0 0-.1-.4 2.1 2.1 0 0 0-.3-.5 1.9 1.9 0 0 0-.1-.2l-.6-.4a2 2 0 0 0-.6-.2 2.6 2.6 0 0 0-.3 0q-1 0-1.6.6-.6.6-.8 1.5a4.4 4.4 0 0 0 0 .1Zm29.4 0h4.4a3.1 3.1 0 0 0 0-.5 2.6 2.6 0 0 0-.2-.4 2.1 2.1 0 0 0-.2-.5 1.9 1.9 0 0 0-.2-.2q-.2-.3-.6-.4a2 2 0 0 0-.5-.2 2.6 2.6 0 0 0-.4 0q-1 0-1.6.6-.6.6-.7 1.5a4.4 4.4 0 0 0 0 .1Zm-88.2 0h4.4a3.1 3.1 0 0 0 0-.5 2.6 2.6 0 0 0-.2-.4 2.1 2.1 0 0 0-.2-.5 1.9 1.9 0 0 0-.2-.2q-.2-.3-.6-.4a2 2 0 0 0-.5-.2 2.6 2.6 0 0 0-.4 0q-1 0-1.6.6-.5.6-.7 1.5a4.4 4.4 0 0 0 0 .1Zm50.4 0h4.4a3.1 3.1 0 0 0 0-.5 2.6 2.6 0 0 0 0-.4 2.1 2.1 0 0 0-.3-.5 1.9 1.9 0 0 0-.2-.2l-.6-.4a2 2 0 0 0-.5-.2 2.6 2.6 0 0 0-.4 0q-1 0-1.6.6-.6.6-.7 1.5a4.4 4.4 0 0 0 0 .1Zm58.6 3V8.1a16 16 0 0 0-.7 0l-.6.1a7.8 7.8 0 0 0-.3 0l-1.2.4a2.3 2.3 0 0 0-.2.2l-.3.1a1 1 0 0 0 0 .2q-.3.3-.3.6a1.7 1.7 0 0 0 0 .3l.1.2a1 1 0 0 0 0 0 1.1 1.1 0 0 0 .2.3 1 1 0 0 0 .1.1 1 1 0 0 0 .4.2 1.3 1.3 0 0 0 0 0l.5.1a3.2 3.2 0 0 0 .4 0 2.6 2.6 0 0 0 .3 0l.6-.3.5-.3a4.4 4.4 0 0 0 .4-.4 5 5 0 0 0 .1 0ZM87 1.1l-.1.4q0 .2-.2.3l-.4.3H86a1 1 0 0 1-.4 0 1 1 0 0 1 0 0l-.4-.3-.2-.3a1 1 0 0 1 0-.4 1 1 0 0 1 0 0V.7l.2-.3.4-.2a1 1 0 0 1 .3 0 1 1 0 0 1 0 0h.4l.4.2.2.3v.4Zm48.8 9.8.1-.4q0-.2.2-.3a1 1 0 0 1 .3-.2 1.1 1.1 0 0 1 0 0l.4-.1h.4l.3.3q.2.1.2.3l.1.4a1 1 0 0 1 0 .3 1 1 0 0 1 0 .1l-.3.3q-.1.2-.3.2l-.4.1h-.4l-.3-.3-.2-.3a1 1 0 0 1 0-.3 1.2 1.2 0 0 1 0-.1Z" vector-effect="non-scaling-stroke" stroke-linecap="round" fill-rule="evenodd" font-size="12" stroke="transparent" stroke-width=".9" fill="currentColor"/></svg>