<svg xml:space="preserve" xmlns="http://www.w3.org/2000/svg" clip-rule="evenodd" stroke-linecap="round" stroke-linejoin="round" viewBox="177 25 815 738"><g><path d="M588 311s-3 11 5 16l49-13s3-10-3-16l-51 13Z"/><path d="M680 322s5 1 3 5l-19 7-14-2v-1s-35 8-34 18c0 0-5 0-3-1 1 0 0-5 8-10l27-11s-2-12-6-13l-3-16c-2-1 4-5 9-5 0 0 6-2 9 3l2 14 8-2s3 4-4 9l-2 4 4 2 15-1Z"/><path d="m664 315 9 1v3s-4 2-14 2l5-6Z"/><path d="M655 297s11-3 21-2c11 1 17 3 25 11l12 11s1 11-10 10l-8-7c-9-9-13-15-28-12-11 3-11 5-11 5l-1-16Z"/><path d="m697 319-8 5s-4 1 1 12l18 42s5 2 7-2l-15-39s-3-5-1-7l6-4-8-7Z"/><path d="M703 326v5h6l1-6-7 1Zm5 52s-3 2 0 4l10-3s2-5-2-4l-8 3Z"/><path d="M709 382s-3 3 0 5l12-5s1-3-3-4l-9 4Z"/><path d="m710 387-5 1 1 4s14-2 20-9c0 0 2-3-1-2l-6 2-9 4Z"/><path d="M706 391s-3 4 1 5c0 0 13-1 21-8 0 0 2-5-1-5l-21 8Z"/><path d="m711 392 33 81s14-2 14-7l-33-80-14 6Z"/><path d="m716 403-71 71-79 80s-10 9-20 10l-30 4s-6 12 3 17h6l26-5s18-6 26-14l148-146-9-17ZM574 627l-20-13 177-177 10 25-167 165Z"/><path d="m462 431 76 180-15 1-74-177 13-4Z"/><path d="M458 453 341 601l6 5 116-144-5-9Z"/><path d="M330 598h1c14 0 25 11 25 24 0 14-11 24-25 24h-1c-13 0-24-10-24-24 0-13 11-24 24-24Z"/><path d="m350 621 173 16-3 9-171-16 1-9Z"/><path d="M537 607h5c22 0 40 17 40 39 0 21-18 38-40 38h-5c-22 0-40-17-40-38 0-22 18-39 40-39Z"/><path d="m326 599 217 9-8 4-209-10m2 42 200 36v3l-202-37m514-58h4c15 0 27 12 27 27s-12 27-27 27h-4c-15 0-27-12-27-27s12-27 27-27Z"/><path d="M837 475c-80 0-145 64-145 143 0 80 65 144 145 144h10c80 0 145-64 145-144 0-79-65-143-145-143h-10Zm-1 27h8c64 0 116 51 116 114 0 64-52 115-116 115h-8c-64 0-116-51-116-115 0-63 52-114 116-114Zm-503-27c-80 0-145 65-145 144s65 144 145 144h10c80 0 145-65 145-144s-65-144-145-144h-10Zm-2 28h9a114 114 0 1 1 0 228h-9c-64 0-116-51-116-114s52-114 116-114Zm217 179 13 25 12 1-12-31-13 5Z"/><path d="M551 706h32v13l-32 1v-14ZM446 432l13-5h3l1 3s1 1-2 2l-13 5s-7-1-2-5Z"/><path d="m449 432-7-18 9-1 8 15-10 4Z"/><path d="M442 420s17-3 29-10c0 0 13-10 19-12l11-2s3-16-10-16c-12-1-33 4-39 4-5 0-34-7-39 3 0 0-11 16 5 25 4 2 5 6 24 8Zm302 52s-1 2 1 3l14-5c1 0 4-3-1-4l-14 6Z"/><path d="M747 475s6 18 14 32l75 110-1-2s12 14 9-2l-66-112c-5-8-11-20-22-31-10-12-9 5-9 5Z"/><path d="m679 641 6-6s-17-82 72-140c0 0 35-23 75-22l5-5s-60-2-98 33c0 0-77 56-60 140Z"/><path d="M681 617h133l-1 3H681"/><path d="M837 475c-80 0-145 64-145 143 0 80 65 144 145 144h10c80 0 145-64 145-144 0-79-65-143-145-143h-10Zm-1 27h8c64 0 116 51 116 114 0 64-52 115-116 115h-8c-64 0-116-51-116-115 0-63 52-114 116-114Z"/><path d="m811 473 31 128h-3l-30-127"/><path d="m745 368 89 232c1 5 5-4 6 0l-47-129 116-36s5-1 4-4-2-5-7-3l-116 37-37-99s-1-7-6-5c-5 1-2 7-2 7Z"/><path d="m854 593 61-117s8-13 5-23c-3-7-13-11-31-11h-3l13-6s19 3 25 14c0 0 10 6-11 43l-55 105-4-5Zm46-268 9 108-5 1-9-108s-2-4 2-6c4-1 3 5 3 5Zm-23 7 13 107-5 2-14-108s-1-2 2-3c4-2 4 2 4 2Zm-26 7 17 107-5 2-17-107s-2-2 1-4c4-1 4 2 4 2Zm-26 8 21 106-5 2-21-107s-2-1 1-3c4-1 4 2 4 2Zm-25 8 26 105-5 2-26-106s-2-1 1-3c4-2 4 2 4 2Zm-25 7 31 104-5 3-31-105s-2-2 1-3c4-2 4 1 4 1Z"/><path d="m896 327-143 44-3-5 146-44s3-1 3 1c1 3-3 4-3 4Zm3 27-139 43-2-5 137-43s6-1 6 2c0 2-2 3-2 3Zm2 27-132 40-2-5 133-41s3-2 4 2c0 4-3 4-3 4Zm2 28-125 38-1-5 125-38s2-3 3 1c1 5-2 4-2 4Zm-221-85 14-5 1 2-14 5-1-2Zm-9-8h20v2h-21l1-2Zm37 1c0-2 22-9 24 0 3 9 4 37-1 45-4 7-2 18-1 24 1 3 5 13 6 21 1 4 0 6-1 10l-3 5 2 2 1-3s4-6 3-14-6-18-6-21c-2-9-2-17 1-23s4-26 3-37c-1-12-3-12-4-13-1-3-15-4-25 2"/><path d="m705 312 9-2c2-1 13-2 16 0 2 2 3 9 3 14a331 331 0 0 0 10 69l-1 11c-3 7-5 11-8 13l-1-3s2 0 5-8c2-5 6-14-1-36-4-13-4-24-5-33l-2-23c-2-2-2-5-15-3l-8 3-2-2ZM177 593l11-7s8-47 49-78c42-31 62-30 87-34s76 2 109 31c34 29 49 51 58 102 0 0-1 6 7 0 1-1 2-43-37-87-47-51-110-55-110-55s-64-8-122 39c-40 31-52 89-52 89"/><path d="m194 560 123 47-2 2-121-46m142 170-1-8h2l1 7-2 1Zm612-171-9 5 2 5 8-5 1-1-2-4ZM379 456l-48 152-12 1s-82-123-93-156v2l9 1s71 128 89 150l47-151c0 4 8 1 8 1Zm-123-17-44 17"/><path d="m212 455 171 5s9-2 15-15c0 0-5-6-11 0 0 0 0 10-27 8l-149-4s-7 3 1 6Zm262 91-128 67 1 2 129-67-2-2Zm369 45c13 0 24 10 24 23v1c0 13-11 23-24 23-12 0-23-10-23-23v-1c0-13 11-23 23-23Zm-13 42v106"/><path d="M830 632v110h2l-1-108 1-4-2 2Zm25 0-4 107s6 2 3 0l3-108m-33-10-15 117 1 1 16-117 1-4s1-12-2-4l-1 7Z"/><path d="m784 730 69-103-1 4-67 101"/><path d="m768 716 86-91-2 4-83 88m-16-13 77-98-2 4-74 95"/><path d="m738 686 95-81-2 4-91 79"/><path d="m726 665 120-31-4 2-116 31m-3-27 124-8-4 2-120 8m140-14 105-7m-106 7 106-6h3v-3l-107 7h-4l2 2Zm-2-25 107-3s1-6-1-3l-107 4"/><path d="m851 634 117 9 1-2-116-8-5-1s-12 0-4 2h7Z"/><path d="m962 669-107-64 5 1 103 61"/><path d="m949 685-95-80 4 1 92 78m-12 17-102-71 4 1 99 69"/><path d="m921 717-86-91 4 2 84 87"/><path d="m901 731-38-119 3 3 37 115m-27 5-15-124 2 4 15 120m-22-140 1-105m-1 106 1-107v-2l-2-1-1 108v4l2-2Zm-26 0 5-107s-6-2-2 0l-4 108m32 10 17-117-2-1-16 117-1 4s-1 12 1 5l1-8Z"/><path d="m903 498-71 103 1-4 68-100m18 16-87 90 2-4 83-87m17 13-78 98 1-5 75-94"/><path d="m948 543-96 80 3-4 92-78"/><path d="m960 564-120 30 3-2 117-30m3 27-125 7 5-2 120-7m-139 13-104 7m105-8-106 7h-2v3l107-8h4l-3-2Zm3 26-107 3v3l108-4"/><path d="m836 593-117-8-1 2 117 7 4 1s12 1 5-1l-8-1Z"/><path d="m725 559 107 64-4-1-104-61m14-19 96 81-4-2-93-77m12-18 103 72-4-2-100-68"/><path d="m766 511 86 90-4-2-84-87"/><path d="m786 497 39 119-3-4-38-115"/><path d="m811 493 15 124-2-4-16-120"/><path d="M843 591c13 0 24 10 24 23v1c0 13-11 23-24 23-12 0-23-10-23-23v-1c0-13 11-23 23-23Zm-13 42v106"/><path d="M830 632v110h2l-1-108 1-4-2 2Zm25 0-4 107s6 2 3 0l3-108m-33-10-15 117 1 1 16-117 1-4s1-12-2-4l-1 7Z"/><path d="m784 730 69-103-1 4-67 101"/><path d="m768 716 86-91-2 4-83 88m-16-13 77-98-2 4-74 95"/><path d="m738 686 95-81-2 4-91 79"/><path d="m726 665 120-31-4 2-116 31m-3-27 124-8-4 2-120 8m140-14 105-7m-106 7 106-6h3v-3l-107 7h-4l2 2Zm-2-25 107-3s1-6-1-3l-107 4"/><path d="m851 634 117 9 1-2-116-8-5-1s-12 0-4 2h7Z"/><path d="m962 669-107-64 5 1 103 61"/><path d="m949 685-95-80 4 1 92 78m-12 17-102-71 4 1 99 69"/><path d="m921 717-86-91 4 2 84 87"/><path d="m901 731-38-119 3 3 37 115m-27 5-15-124 2 4 15 120m-22-140 1-105m-1 106 1-107v-2l-2-1-1 108v4l2-2Zm-26 0 5-107s-6-2-2 0l-4 108m32 10 17-117-2-1-16 117-1 4s-1 12 1 5l1-8Z"/><path d="m903 498-71 103 1-4 68-100m18 16-87 90 2-4 83-87m17 13-78 98 1-5 75-94"/><path d="m948 543-96 80 3-4 92-78"/><path d="m960 564-120 30 3-2 117-30m3 27-125 7 5-2 120-7m-139 13-104 7m105-8-106 7h-2v3l107-8h4l-3-2Zm3 26-107 3v3l108-4"/><path d="m836 593-117-8-1 2 117 7 4 1s12 1 5-1l-8-1Z"/><path d="m725 559 107 64-4-1-104-61m14-19 96 81-4-2-93-77m12-18 103 72-4-2-100-68"/><path d="m766 511 86 90-4-2-84-87"/><path d="m786 497 39 119-3-4-38-115"/><path d="m811 493 15 124-2-4-16-120m22 140v106m0-107v110h2l-1-108 1-4-2 2Zm25 0-4 107s6 2 3 0l3-108"/><path d="m824 621-15 117 1 1 16-117 1-4s1-12-2-4l-1 7Z"/><path d="m784 730 69-103-1 4-67 101"/><path d="m768 716 86-91-2 4-83 88m-16-13 77-98-2 4-74 95"/><path d="m738 686 95-81-2 4-91 79"/><path d="m726 665 120-31-4 2-116 31m-3-27 124-8-4 2-120 8m140-14 105-7m-106 7 106-6h3v-3l-107 7h-4l2 2Zm-2-25 107-3s1-6-1-3l-107 4"/><path d="m851 634 117 9 1-2-116-8-5-1s-12 0-4 2h7Z"/><path d="m962 669-107-64 5 1 103 61"/><path d="m949 685-95-80 4 1 92 78m-12 17-102-71 4 1 99 69"/><path d="m921 717-86-91 4 2 84 87"/><path d="m901 731-38-119 3 3 37 115m-27 5-15-124 2 4 15 120m-22-140 1-105m-1 106 1-107v-2l-2-1-1 108v4l2-2Zm-26 0 5-107s-6-2-2 0l-4 108m32 10 17-117-2-1-16 117-1 4s-1 12 1 5l1-8Z"/><path d="m903 498-71 103 1-4 68-100m18 16-87 90 2-4 83-87m17 13-78 98 1-5 75-94"/><path d="m948 543-96 80 3-4 92-78"/><path d="m960 564-120 30 3-2 117-30m3 27-125 7 5-2 120-7m-139 13-104 7m105-8-106 7h-2v3l107-8h4l-3-2Zm3 26-107 3v3l108-4"/><path d="m836 593-117-8-1 2 117 7 4 1s12 1 5-1l-8-1Z"/><path d="m725 559 107 64-4-1-104-61m14-19 96 81-4-2-93-77m12-18 103 72-4-2-100-68"/><path d="m766 511 86 90-4-2-84-87"/><path d="m786 497 39 119-3-4-38-115"/><path d="m811 493 15 124-2-4-16-120m22 140v106m0-107v110h2l-1-108 1-4-2 2Zm25 0-4 107s6 2 3 0l3-108"/><path d="m824 621-15 117 1 1 16-117 1-4s1-12-2-4l-1 7Z"/><path d="m784 730 69-103-1 4-67 101"/><path d="m768 716 86-91-2 4-83 88m-16-13 77-98-2 4-74 95"/><path d="m738 686 95-81-2 4-91 79"/><path d="m726 665 120-31-4 2-116 31m-3-27 124-8-4 2-120 8m140-14 105-7m-106 7 106-6h3v-3l-107 7h-4l2 2Zm-2-25 107-3s1-6-1-3l-107 4"/><path d="m851 634 117 9 1-2-116-8-5-1s-12 0-4 2h7Z"/><path d="m962 669-107-64 5 1 103 61"/><path d="m949 685-95-80 4 1 92 78m-12 17-102-71 4 1 99 69"/><path d="m921 717-86-91 4 2 84 87"/><path d="m901 731-38-119 3 3 37 115m-27 5-15-124 2 4 15 120m-22-140 1-105m-1 106 1-107v-2l-2-1-1 108v4l2-2Zm-26 0 5-107s-6-2-2 0l-4 108m32 10 17-117-2-1-16 117-1 4s-1 12 1 5l1-8Z"/><path d="m903 498-71 103 1-4 68-100m18 16-87 90 2-4 83-87m17 13-78 98 1-5 75-94"/><path d="m948 543-96 80 3-4 92-78"/><path d="m960 564-120 30 3-2 117-30m3 27-125 7 5-2 120-7m-139 13-104 7m105-8-106 7h-2v3l107-8h4l-3-2Zm3 26-107 3v3l108-4"/><path d="m836 593-117-8-1 2 117 7 4 1s12 1 5-1l-8-1Z"/><path d="m725 559 107 64-4-1-104-61m14-19 96 81-4-2-93-77m12-18 103 72-4-2-100-68"/><path d="m766 511 86 90-4-2-84-87"/><path d="m786 497 39 119-3-4-38-115"/><path d="m811 493 15 124-2-4-16-120M319 640v105m0-106v109h3l-1-107 1-4-3 2Zm26-1-4 108s6 1 3-1l3-108m-33-10-17 118h2l16-116 1-5s1-11-1-4l-1 7Z"/><path d="m272 737 71-104-1 5-68 100"/><path d="m256 722 88-90-2 4-85 88m-17-14 79-98-1 4-76 95"/><path d="m226 693 97-81-3 4-93 78"/><path d="m213 672 123-31-4 2-119 31m-3-28 127-7-4 1-123 8m143-14 107-6m-108 7 108-7h3v-2l-109 7-4-1 2 3Zm-2-26 109-3s1-6-1-2l-109 3"/><path d="m341 641 120 9v-2l-118-9-5-1s-12 0-4 2l7 1Z"/><path d="m454 675-109-64 5 1 106 61m-16 19-96-81 4 2 94 77m-13 18-104-72 5 1 100 69"/><path d="m412 723-87-90 4 2 85 87"/><path d="m392 737-39-119 3 4 38 115m-27 4-16-124 2 4 16 120m-23-140 1-105m-1 106 1-106v-3h-3v108l-1 4 3-3Zm-26 1 5-108s-6-1-3 1l-4 108m33 10 18-117-2-1-17 116-1 5s-1 11 1 4l1-7Z"/><path d="m394 505-72 102 1-4 69-100"/><path d="m410 520-89 89 2-4 86-87m16 14-80 97 2-4 77-95"/><path d="m440 549-98 80 3-3 93-78"/><path d="m452 570-123 30 4-2 119-30m3 28-127 6 4-1 123-7m-141 12-107 7m108-7-108 7h-3v3l109-8h4l-2-2Zm2 25-109 4s-1 6 1 2l109-4"/><path d="m326 599-120-8-1 2 119 8 5 1s12 0 4-2l-7-1Z"/><path d="m212 566 110 63-5-1-106-60"/><path d="m226 549 97 80-4-1-94-77m12-18 105 71-5-1-101-68"/><path d="m254 517 88 90-4-2-86-86"/><path d="m274 503 40 119-3-3-39-115m28-5 16 124-2-4-17-120m22 141v105m0-106v109h3l-1-107 1-4-3 2Zm26-1-4 108s6 1 3-1l3-108"/><path d="m314 627-17 118h2l16-116 1-5s1-11-1-4l-1 7Z"/><path d="m272 737 71-104-1 5-68 100"/><path d="m256 722 88-90-2 4-85 88m-17-14 79-98-1 4-76 95"/><path d="m226 693 97-81-3 4-93 78"/><path d="m213 672 123-31-4 2-119 31m-3-28 127-7-4 1-123 8m143-14 107-6m-108 7 108-7h3v-2l-109 7-4-1 2 3Zm-2-26 109-3s1-6-1-2l-109 3"/><path d="m341 641 120 9v-2l-118-9-5-1s-12 0-4 2l7 1Z"/><path d="m454 675-109-64 5 1 106 61m-16 19-96-81 4 2 94 77m-13 18-104-72 5 1 100 69"/><path d="m412 723-87-90 4 2 85 87"/><path d="m392 737-39-119 3 4 38 115m-27 4-16-124 2 4 16 120m-23-140 1-105m-1 106 1-106v-3h-3v108l-1 4 3-3Zm-26 1 5-108s-6-1-3 1l-4 108m33 10 18-117-2-1-17 116-1 5s-1 11 1 4l1-7Z"/><path d="m394 505-72 102 1-4 69-100"/><path d="m410 520-89 89 2-4 86-87m16 14-80 97 2-4 77-95"/><path d="m440 549-98 80 3-3 93-78"/><path d="m452 570-123 30 4-2 119-30m3 28-127 6 4-1 123-7m-141 12-107 7m108-7-108 7h-3v3l109-8h4l-2-2Zm2 25-109 4s-1 6 1 2l109-4"/><path d="m326 599-120-8-1 2 119 8 5 1s12 0 4-2l-7-1Z"/><path d="m212 566 110 63-5-1-106-60"/><path d="m226 549 97 80-4-1-94-77m12-18 105 71-5-1-101-68"/><path d="m254 517 88 90-4-2-86-86"/><path d="m274 503 40 119-3-3-39-115m28-5 16 124-2-4-17-120m422-105 34-17 1 5-35 16v-4Zm-6 2s-3 5 2 4m185-68s5-15 16-15v32s-16 2-16-17Z"/><path d="m894 329 8-3 1 20-7 2-2-19Zm20-13 2 33h4l-2-33h-4ZM381 459l72 4m-78-3 76 7v-3l-71-7-5 3Zm83 6s2 1-1 2m-226-6-11-2-3 31 11 1 3-30Z"/><path d="m228 472 17-1s7 2 2 7l-20 1 1-7Zm689-153s9 1 10 11c0 0 1 14-9 17 0 0-6-6-7-16 0-11 1-6 6-12ZM478 165l-2 1-2-1c-2 0-3 1-2 2 0 0-2-2-2 0 0 0-19-1-31 12-8 8-14 82-14 82l67-27 20 59 21-50 6-16 3-13c2-18 2-22-1-28-2-5-3-8-8-10l-10-3-4-1c-3 0-4-3-6-1"/><path d="M432 202s-11 36-13 64l-3 36-6 47s53 11 115-17l-15-27 19-62-3-27-2-31-82-6"/><path fill="none" d="m442 179 61 4 16 2h5v5-5h-2l-4-1-17-1-59-4Zm82 14 1 18-1-18Zm2 29 2 12v-1l-2-11Zm2 12v6-6Zm-96-32a406 406 0 0 0-12 57l-1 10-2 22-1 11-3 27-2 16-1 3v1h1l3 1h4-4l-2-1h-2v-1l1-2v-6l3-17 2-21 1-4v-8a7164 7164 0 0 0 3-31 329 329 0 0 1 12-57Zm-14 148 5 1h1l-6-1Zm6 1h9-9Zm9 0Zm3 0Zm10 0h2-2Zm2 0Zm12-1Zm3-1Zm12-1 2-1-2 1Zm2-1 4-1 5-1-9 2Zm9-2Zm8-2Zm8-2 2-1 5-2-7 3Zm7-3 6-2 4-1-10 3Zm10-3 4-2h1l1-1v-2l-1-2-6-10-3-5-2-3-1-2-1-1v-1 1l1 1 1 2 2 3 3 5 6 10v2c1 0 2 1 1 2l-2 1-4 2Zm-8-29-1-1 1 1Zm-1-1 1-2v-2l1-1v-2l2-5 10-35 3-10 1-4 1-1v-1 1l-1 1-1 4-3 10-10 34-2 6-1 3v2l-1 2Z"/><path d="M409 325s-15 46 12 67c26 21 93 18 114-3 0 0 82 1 62-35 0 0-34-7-54-13-20-7-25-14-25-14l-87 14"/><path d="M410 325h-1l-2 12a98 98 0 0 0 3-12Zm-4 39 2 11 5 9 1 1-5-10c-2-4-3-7-3-11Zm8 21Zm4 4Zm9 7a80 80 0 0 0 34 10h3l-9-1c-10-1-20-4-28-9Zm89-69h-1l-4 1-10 1 11-1 4-1Zm2 0 1 1-1-1Zm1 1 1 1 3 2-4-3Zm4 3 2 1 1 1-3-2Zm3 2Zm9 4Zm29 10a632 632 0 0 0 26 6l3 1h4l1 3v1-2l-1-2h-4l-3-1-9-2-17-4Zm34 11 1 1-1-1Zm1 1Zm1 4v1-1Zm0 1v1-1Zm0 1v3-3Zm0 3h-1 1Zm-1 0Zm-1 3Zm0 0Zm-2 3c-4 4-10 7-15 9a79 79 0 0 1-18 4h-1 1a133 133 0 0 0 19-4c5-2 11-5 14-9Zm-34 13Zm-14 1-5 1h-8l-1 1-1 1 1-1 1-1a110 110 0 0 0 10 0l3-1Zm-15 3-4 3 1-1 3-2Zm-4 3Zm-8 4-9 3a118 118 0 0 1-34 5h7c12-1 24-3 35-8h1Zm-43 8h-2 2Zm-2 0h-11 11Z" fill="none"/><path d="m525 670-2 33s2 5 26 3c0 0 22 2 48 1 16-1 28 2 37-2 0 0-2-30-31-31l-21-6 5-35-60-1-2 38Z"/><path d="M527 632s0-1 0 0Zm0 0h1-1Zm1 0h2-2Zm-1 0v1-1Zm34 0h2l19 1h5v2l-1 4 1-4v-2h-7l-19-1Zm25 7v1l-3 21-1 5v2-2l1-6 3-20v-1Zm-4 29h1l2 1a405 405 0 0 0 15 4h2-3l-8-2-6-2-3-1Zm20 5 1 1-1-1Zm15 4h1-1Zm1 0Zm3 3h1-1Zm1 0Zm-95-42v1l-1 5 1-6Zm-2 32-1 25-1 6v2l1 1-1-1v-2l2-31Zm-1 34Zm2 1h1l2 1-3-1Zm3 1h1-1Zm1 0h13-13Zm13 0h2-2Zm2 0h6l2 1h12l-16-1h-4Zm20 1Zm60-23a37 37 0 0 1 1 0h-1Zm8 14 1 5v2h-1l-1 1h-1 1l1-1h1v-1a37 37 0 0 0-1-6Zm-2 8Zm-6 1h-12l-7-1 18 1h1Zm-19-1h-2 2Zm-2 0h-3l-16 1h3l16-1Z" fill="none"/><path d="m436 397 139 87s-27 31-27 72c0 0-2 69-1 102l22 2 61-185s11-28-29-50c-40-21-71-48-71-48l-94 20Z"/><path d="M530 377h-1 1l2 1 3 3-3-3-2-1Zm-93 20h-1l13 8 20 12 60 38 31 20 11 6 3 3h1v1l-1 1-2 3-3 4a107 107 0 0 1 6-8v-1l-1-1-7-4-25-16-70-44-35-22Zm132 96-1 2-1 1 2-3Zm-2 3-2 3a127 127 0 0 0 2-3Zm4-89 11 7v1l-11-8Zm14 10 8 4 3 2-11-6Zm11 6 11 6h-1l-10-6Zm11 6 3 2-2-2h-1Zm3 2Zm3 3 3 2-3-2Zm3 2Zm3 3 2 2-2-2Zm2 2Zm3 4 2 3-2-3Zm2 3 2 5-2-5Zm2 5 1 2-1-2Zm3 7v2-2Zm0 2Zm0 4v1-1Zm0 1Zm0 5v1-1Zm0 1-2 6-2 7-7 21-37 109-8 26-3 8-1 4-1 3-1 1v1-1l1-1v-2l1-2 2-4 2-8 9-26 36-109 7-21 2-7 2-5Zm-62 186h-8l-4-1h-10v-10 10h10l6 1h4l1 1h1v-1Zm-22-11v-31 31Zm12-138Zm-3 8Zm-3 8-1 3a106 106 0 0 0 1-3Zm-3 10a98 98 0 0 0-2 21v14a3320 3320 0 0 0 0-2v-12a109 109 0 0 1 2-21Z" fill="none"/><path d="m489 393 133 28s-50 36-54 68c0 0-30 43-33 68l21 10 120-137s33-31-10-51c-43-21-131-34-131-34l-46 48Z"/><path d="M535 345h1-1Zm-2 2-1 1-1 1-2 2 3-3 1-1Zm15 0 9 2-3-1-6-1Zm9 2 12 2h-1l-11-2Zm24 5 11 2h-1l-10-2Zm15 3Zm15 4 18 4h-2l-16-4Zm18 4 13 5-1-1-12-4Zm18 6 5 2h-1l-4-2Zm7 3a200 200 0 0 1 11 5l-1-1-5-2-5-2Zm11 5 2 1-1-1h-1Zm2 1Zm5 2 3 2-3-2Zm3 2 4 4-4-4Zm4 4h1-1Zm1 0Zm2 3h1-1Zm1 0Zm2 3v1-1Zm0 1 2 2-2-2Zm2 2v2-2Zm0 2 1 3v-1l-1-2Zm1 3v3-3Zm0 3v2-2Zm-3 12Zm-196-24 20 4 37 8 51 11 25 5h-1l-3-1h-3l-24-5-68-15-34-7Zm133 28h-1a102 102 0 0 0-10 9 213 213 0 0 0 9-7l1-1 1-1Zm-39 37-1 2 1-2Zm-1 2-4 6-2 2 6-8Zm93-29-6 7-11 12-77 88-13 15-5 6-3 4-2 2-1 1-1 1-1-1h-1l-1-1-3-1-5-2-7-4h-1l-1-1 1 1 2 1 5 3 6 2 3 1 1 1h1l1 1 1-1 1-1 1-1 2-2 3-4 6-7 16-18 72-82 10-12 7-8ZM536 557Zm0 0v-3 3Zm0-3 1-5v2l-1 3Zm1-5 2-5-1 3-1 2Zm2-5 2-6-2 6Zm2-6 1-3-1 3Zm1-3 4-7-1 1-3 6Zm4-7a305 305 0 0 1 21-38l1-1-1 1a245 245 0 0 0-21 38Zm25-50Z" fill="none"/><path d="m533 551-25 32s-5 6 5 10c0 0 33 22 55 34 14 7 25 14 34 15 0 0 19-20-5-35l-34-29 23-28-39-22-14 23Z"/><path fill="none" d="M550 530h1l2 1-3-1Zm-5 2-2 3-4 6 4-6 2-3Zm15 3 9 5 12 7-12-7-9-5Zm23 13 1 1 1 1h1-1l-1-1-1-1Zm3 2-1 2-1 1-2 2 3-3 1-2Zm-53 1-20 25-4 6-2 3 2-3 2-3 22-28Zm-26 34Zm0 1v2-2Zm0 2c1 3 4 4 6 5l2 1 4 3a1127 1127 0 0 0 31 19l6 4a816 816 0 0 1-39-25l-3-1-1-1c-2-1-5-2-6-5Zm49 32 6 3 11 6 3 2-20-11Zm20 11Zm11 6 3 1a57 57 0 0 0-3-1Zm10 4h2l1 1h2-2l-1-1h-2Zm5 1 1-1v-1h1l-1 1-1 1Zm2-2Zm3-6v-1a22 22 0 0 0 0 1Zm-39-62-5 5 2-2 3-3Zm-5 6 1 1 2 2h1l-3-2-1-1Zm4 3 6 6 6 5-12-11Zm12 11 16 13 2 2a43 43 0 0 1 4 2l-4-2-18-15Zm25 21 3 4-1-1-2-3Zm3 4Zm1 3v1-1Zm0 1Zm1 2Z"/><path d="M569 576s-2-11-11-5v4s5-6 7 1c0 0 3 5-1 7l1 4s9-2 4-11Z"/><path d="m562 569 2 1-2-1Zm2 1Zm3 1 1 3v-1l-1-2Zm1 3 1 2v-1l-1-1Zm-6-5-2 1h-1l-1 1v4-4l1-1h1l2-1Zm-4 6Zm4-3 1 1-1-1Zm1 1Zm0 0Zm-1-1-2 1 2-1Zm-2 1-2 1 1-1h1Zm4 1 1 2 1 1-1-1-1-2Zm2 3v1-1Zm3-1-1 9 2-1c2-2 0 0-1-8Zm-1 9-1 1 1-1Zm-1 1-1 1 1-1Zm-1-7v1-1Zm0 1v1-1Zm0 1-1 1 1-1Zm-1 1-1 1 1-1Zm-1 1 1 1v2-2l-1-1Zm1 4Zm0 0Z" fill="none"/><path d="M565 583s6 3 11 0l1 3-8 3"/><path fill="none" d="M576 583h-2a12 12 0 0 1-8 0h-1 1a13 13 0 0 0 4 1h4l2-1 1 1v2h-1l-6 2 6-2h1v-3h-1Zm-11 0 2 3-2-3Zm2 3 2 3v-1l-2-2Z"/><path d="m596 287 13 2"/><path d="m596 287 13 2-13-2Z" fill="none"/><path d="M594 297s22-7 29 4c8 10 18 14 12 21 0 0-5 3-8-1 0 0-3 10-8 3 0 0-3 10-10 2 0 0 0 3-3 3l-3 1-5-4 1 1s-9-5-11-16"/><path d="M609 295a48 48 0 0 0 1 0h-1Zm1 0h2-2Zm2 0 9 3 4 5 4 4 4 4-1-1-2-2-2-2-3-4-4-4-9-3Zm21 16 1 1-1-1Zm1 1Zm2 3v1-1Zm0 1Zm1 1v2-2Zm0 2v1l-1 1-1 1-1 1 1-1 1-1 1-1v-1Zm-5 4h-2 2Zm-2 0-2-1 1 1h1Zm-2-1h-1v-1 1h1Zm-40-11Zm2 6Zm3 5 1 1-1-1Zm1 1 2 2-2-2Zm2 2 1 1h1l-2-1Zm2 1 1 1-1-1Zm1 1Zm28-6v1l-1 1v1-1l1-1v-1Zm-8 3Zm0 0 1 1 2 1-2-1-1-1Zm0 0Zm-1 2-1 1 1-1Zm-1 1Zm-1 1-1 1 1-1Zm-1 1h-1 1Zm-1 0h-2 2Zm11-4Zm-1 1h-2 2Zm-15 0v1l-1 1 1-1v-1Zm-1 2v1-1Zm0 1h-2 2Zm-10-3v1l1 1-1-1v-1Zm1 2Zm0 0h1-1 1-1Zm0 0v-1 1Zm10-1h1-1Zm-7 2 1 1-1-1Zm1 1Z" fill="none"/><path d="m566 260 1 37"/><path fill="none" d="M566 260Z"/><path d="m675 153 8-7"/><path fill="none" d="m683 146-8 7c-1 0-1 0 0 0l8-7Z"/><path d="M460 411s41 100 51 111c0 0 0 8 16 1l4 10s36-4 44-34l45-47"/><path d="M460 411a2387 2387 0 0 0 50 110l1 1v1-1l-8-13a756 756 0 0 1-43-98c0-1 0-1 0 0Zm51 112Zm0 0 1 1 1 1 1 1-1-1-2-2Zm3 3h3l6-2 3-1h1l1 1v2l1 3 1 2v1l1 1-1-1v-1l-1-2-1-3-1-3h-2l-2 1-7 2h-2Zm106-74-37 38-6 6-1 1 1-1 6-6 37-38Zm-45 47-1 2 1-2Zm-3 7Zm-4 7-1 1 1-1Zm-1 1-4 5v-1l4-4Zm-4 5-2 1 1-1h1Zm-2 1Zm-4 3-4 3 1-1 3-2Zm-4 3h-2 2Zm-2 0-7 4 2-1 5-3Zm-7 4h-1 1Zm-1 0-5 1h2l3-1Zm-5 1a70 70 0 0 1-5 2h-1a38 38 0 0 1-1 0h2a57 57 0 0 0 3-1l2-1Z" fill="none"/><path d="M614 418s-3 12-8 18c-5 5-45-26-45-26l15-15 38 23Z"/><path fill="none" d="M576 395h1-1Zm1 0v1h1l2 1h-1l-2-2Zm-2 1-1 1-2 2-1 1 2-2 1-1 1-1Zm-8 7-4 4-1 1v1l-1 1 1 1 4 3 2 1-5-4-2-1 6-7Zm2 13Zm27 17 1 1-1-1Zm1 1 2 1h2l-4-1Zm4 1Zm3 1h1-1Zm1 0h1-1Zm9-18v1a82 82 0 0 1-6 14l-2 3 1-2 1-2 5-10v-2l1-2Z"/><path d="M551 350s32-13 110 25c0 0-1 18-8 33-6 14-18 28-18 28s1-12-28 3"/><path d="M568 348a76 76 0 0 0 2 0h-2Zm2 0c15 1 30 4 44 8h-1c-14-4-28-7-43-8Zm44 8a293 293 0 0 1 34 13l6 3 3 1 2 1 1 1 1 1v4l-1 4v-2a124 124 0 0 0 1-5v-2h-1l-1-1-1-1h-2l-3-2a388 388 0 0 0-39-15Zm46 28-1 5v-1l1-4Zm-103-35h-2 2Zm-2 0-2 1 2-1Zm-2 1h-2s-1 0 0 0h2Zm106 40-2 8v-1l2-7Zm-2 8-1 3 1-2v-1Zm-1 3-2 5 2-5Zm-3 7-2 5 2-5Zm-9 16-3 5 3-5Zm-3 5a150 150 0 0 1-1 1l1-1Zm-12 2Zm0 0Zm-5 1Zm-2 0-2 1 2-1Zm-2 1h-1l-5 2 6-2Zm12-1Zm2 1Zm0 0 1 1-1-1Zm1 1v1-1Zm0 2Z" fill="none"/><path d="M519 40h2c33 0 24 17 24 49l-26 20c0 31 35 45 2 45h-2c-33 0-60-26-60-57 0-32 27-57 60-57Z"/><path d="M558 74v4l-2 7-1 6c0 8 2 14 4 17l6 6c0 1-4 6-9 8 0 0-3 8-2 10l-4 1h-1c-1-2 3 4 2 6l-3 3s-6 16-12 16l-25-2s-51-5-37-67c0 0 13-56 56-46 0 0 21-6 28 31Z"/><path d="M548 55c3 2 5 6 7 9 4 7 8 15 7 24"/><path d="M548 24a31 31 0 0 0-21 53v-2h2l2 1h3l1 1h7c6 1 12 3 16 7l4 4 4-5c5-8 6-18 8-27l1-4 1-3 1-3-1-2v-2l-1-2-5-8c-6-6-14-8-22-8Z" fill="none"/><path d="M549 55c4 1 6 7 9 11 5 6 10 11 9 20"/><path d="M551 24a31 31 0 0 0-16 59l-3-3-1-1-1-1v-3h3l3 2 3 1 2 1h6l7 1h3l7 2 3 4 4-5c2-3 2-7 2-11v-9l1-6 1-2 1-1 1-1v-3l1-2-2-7c-2-4-5-7-9-9l-4-3-12-3Z" fill="none"/><path d="M545 50c7 2 12 8 17 14l8 8c2 2 6 8 3 11"/><path fill="none" d="M547 19a31 31 0 0 0-10 61l-2-1-1-3 1-1 1-1h8l7 2 6 1h8l4 2c2 0 4 1 4 4 3-1 4-4 4-7v-9h-1v-3l-1-3-1-7V42l-1-2-1-3-1-4-6-6-3-3-9-4-6-1Z"/><path d="M573 69c-5-10-16-18-26-21l-10-1"/><path d="M564 39a60 60 0 0 0-17 3l-10 5 3 3 4 4 1 1 2 2c2 5 3 10 2 15v3l-1 2-1 2-1 2-1 1v1a31 31 0 0 0 56-27 49 49 0 0 0-11-12l-2-1-3-1-2-1-3-1h-3a150 150 0 0 0-13-1Z" fill="none"/><path d="M565 49c-14-12-30-7-44 1"/><path d="m568 18-7 1h-2l-2-1-3 1-7 3-13 9c-6 6-10 12-13 20a90 90 0 0 1 14 1l4 2c3 1 7 4 8 9l-1 6-2 2v2a31 31 0 1 0 41-48l-5-3-12-4Z" fill="none"/><path d="M567 54s-10-8-26-1"/><path d="M575 26h-5l-3 1h-1l-2 1-1 1-5 3a43 43 0 0 0-17 21c6 3 12 7 13 14v7l-1 1v1l-1 1v1h-1v1c-1 1-3 0-4-1a31 31 0 0 0 41-47 25 25 0 0 0-13-5Z" fill="none"/><path d="m469 59 11-10s8-1 5 4l-12 12s-8 1-4-6Z"/><path fill="none" d="m478 25-14 5-2 1h-4l-3 1-7 3a31 31 0 0 0 42 47l4-8 1-2v-3l1-1-14 6-1-1-1-1-3-2 1-1h1l14-3 5-2h1l3-3 2-6 1-3v-6a22 22 0 0 0-7-12l-3-3-8-4-8-2h-1s0-1 0 0Zm-8 17 1 1a5 5 0 0 1 0 1v5l-2 8v2l-1 1-2-5v-5l1-2v-3l3-2v-1Zm2 17-1 1-1 2v-1l-1-1 3-1Z"/><path d="M479 54s3-6-15-11c-19-4-32 5-43 66s-22 66-26 74c0 0 11-6 22-28 0 0-16 31-24 39 0 0 20-10 28-29 0 0 4-7-10 26 0 0 50-84 63-128"/><path fill="none" d="M455 43a19 19 0 0 0-4 0h7-3Zm3 0h1-1Zm1 0a42 42 0 0 1 16 5v-1a24 24 0 0 0-4-2h-3a65 65 0 0 0-9-2Zm16 5c2 1 5 3 4 6v-2c0-2-2-3-4-4Zm-27-3h-1 1Zm-1 0-1 1-2 1 3-2Zm-3 2-2 2-1 1 3-3Zm-3 3-2 3 2-3Zm-2 3-1 1-2 3 3-4Zm-3 4-2 4 2-4Zm-2 4Zm-1 4Zm-1 2-2 3-5 22-2 6a262 262 0 0 1 9-31Zm-9 31-3 18-2 6 2-6 3-18Zm-5 24Zm-2 13-3 10 1-5 2-5Zm-3 10Zm-4 11-1 3 1-3Zm-1 3-1 4v-1l1-3Zm-1 4Zm49-55Zm-11 23-7 12 7-12Zm-7 12-6 12 2-5 4-7Zm-6 12-11 19 7-12 4-7Zm-11 19-4 7 2-4 2-3Zm-4 7-4 6 2-2 2-4Zm-4 6-1 3-1 1 1-1 1-3Zm4-32-1 1-1 3a116 116 0 0 1-8 12l-8 9 1-1c6-5 10-11 14-18l-2 2 2-3 2-4 1-1Zm-5 8-7 14 1-2 6-12Zm-7 14-7 10 4-6 3-4Zm-7 10v1-1Zm0 1-4 5v1-1a40 40 0 0 0 3-3l1-2Zm23-24v2-2Zm0 2-2 4 1-2 1-2Zm0-2v1l-1 1v1-1l1-1v-1Zm-1 3-3 5v-1l3-4Zm-3 5-3 4 2-2 1-2Zm-3 4Zm-3 4Zm-3 3-3 3 1-1 2-2Zm-3 3-7 5 4-3 3-2Zm-7 5-1 1 1-1Zm-1 1-3 1-1 1h1l2-1 1-1Zm6-22-6 10-2 2v1l1-2 2-3 5-8Zm-8 13 1-1-1 1Zm24-11-6 14-2 4 1-2 4-9 3-7Z"/><path d="M433 75c-3 5-3 10-5 15l-4 15-7 18-7 14-6 11-9 12-4 2m35-51-5 12-25 48m57-65v-1h1c-2 3-3 7-3 10l-4 17-5 18c-3 8-15 38-24 43m39-148c-4-1-9-3-13-1l-10 6-3 4"/><path d="m463 45-7-4c-7-2-18 3-24 6m21-1s-27 4-44 72c0 0-15 26-29 33-7 3 25-5 38-35 0 0 12-38 32-51m23 68c1 3 7-1 3 25-3 25 2 11-1 16 0 0 32 22 42 19 0 0-6-23 2-39l-46-21Z"/><path fill="none" d="M470 102a31 31 0 0 0-22 50v20a38 38 0 0 0 5 16 28 28 0 0 0 10 9l6 3 2 1 12 3a251 251 0 0 0 26 6 41 41 0 0 0 7 0l7-2 3-1c2-2 5-4 6-7l1-11h-1v-1l-2-4a66 66 0 0 1-4-22v-4l1-1v-3l-4-8h-3l-7-2-5-2c0-6-1-13-4-19-2-5-5-9-9-12l-2-1c-6-6-14-8-23-8Zm-23 42 1 2v1l-1-2v-1Zm43 9 1 1-1-1Zm-31 1h-1 1Zm47 2h1v1l-2 6 1-5v-2Zm-50 0-1 2 1-1v-1Zm-2 3h1l-3 5v-1l2-4Zm-1 27 4 5-1-1-3-4Z"/><path d="m476 131-3 2-1 7m5-7-2 2v9"/><path d="M475 132c-2-3-6 5-7 7m10-3c-1-1-1 2-1 3l-1 6 1 1m-18-44-4 16-7 28-14 32m26-75c-1-1-1 2-1 2l-1 3-1 17c-1 4-1 9-3 13-2 10-6 19-9 29m6-50v-1c-2 3-2 7-3 10v3l-3 14-4 13"/><path d="M450 120v-2l-4 18c-2 9-5 19-9 28"/><path d="M452 114c-3 14-9 27-13 40"/><path d="m437 157 5-10 7-15 2-9 3-9 3-12 3-9"/><path d="m444 138 5-9 9-16 3-7 3-8 3-11"/><path d="m439 151 6-12 4-8 2-7 8-14 7-24 4-12m48-33h1c24 0 43 17 43 39v7c-4 18-22 32-43 32h-1c-24 0-43-18-43-39 0-22 19-39 43-39Z"/><path d="M519 40h2c33 0 24 17 24 49l-26 20c0 31 35 45 2 45h-2c-33 0-60-26-60-57 0-32 27-57 60-57Z"/><path d="M558 74v4l-2 7-1 6c0 8 2 14 4 17l6 6c0 1-4 6-9 8 0 0-3 9-2 10h-6l1 2s3 3 2 5l-3 3s-6 16-12 16l-25-2s-51-5-37-67c0 0 13-56 56-46 0 0 21-6 28 31Z"/><path d="M548 55c3 2 5 6 7 9 4 7 8 15 7 24"/><path fill="none" d="M548 24a31 31 0 0 0-21 53v-2h2l2 1h3l1 1h7c6 1 12 3 16 7l4 4 4-5c5-8 6-18 8-27l1-4 1-3 1-3-1-2v-2l-1-2-5-8c-6-6-14-8-22-8Z"/><path d="M549 55c4 1 6 7 9 11 5 6 10 11 9 20"/><path d="M551 24a31 31 0 0 0-16 59l-3-3-1-1-1-1v-3h3l3 2 3 1 2 1h6l7 1h3l7 2 3 4 4-5c2-3 2-7 2-11v-9l1-6 1-2 1-1 1-1v-3l1-2-2-7c-2-4-5-7-9-9l-4-3-12-3Z" fill="none"/><path d="M545 50c7 2 12 8 17 14l8 8c2 2 6 8 3 11"/><path d="M547 19a31 31 0 0 0-10 61l-2-1-1-3 1-1 1-1h8l7 2 6 1h8l4 2c2 0 4 1 4 4 3-1 4-4 4-7v-9h-1v-3l-1-3-1-7V42l-1-2-1-3-1-4-6-6-3-3-9-4-6-1Z" fill="none"/><path d="M573 69c-5-10-16-18-26-21l-10-1"/><path d="M564 39a60 60 0 0 0-17 3l-10 5 3 3 4 4 1 1 2 2c2 5 3 10 2 15v3l-1 2-1 2-1 2-1 1v1a31 31 0 0 0 56-27 49 49 0 0 0-11-12l-2-1-3-1-2-1-3-1h-3a150 150 0 0 0-13-1Z" fill="none"/><path d="M565 49c-14-12-30-7-44 1"/><path fill="none" d="m568 18-7 1h-2l-2-1-3 1-7 3-13 9c-6 6-10 12-13 20a90 90 0 0 1 14 1l4 2c3 1 7 4 8 9l-1 6-2 2v2a31 31 0 1 0 41-48l-5-3-12-4Z"/><path d="M567 54s-10-8-26-1"/><path d="M575 26h-5l-3 1h-1l-2 1-1 1-5 3a43 43 0 0 0-17 21c6 3 12 7 13 14v7l-1 1v1l-1 1v1h-1v1c-1 1-3 0-4-1a31 31 0 0 0 41-47 25 25 0 0 0-13-5Z" fill="none"/><path d="m469 59 11-10s8-1 5 4l-12 12s-8 1-4-6Z"/><path fill="none" d="m478 25-14 5-2 1h-4l-3 1-7 3a31 31 0 0 0 42 47l4-8 1-2v-3l1-1-14 6-1-1-1-1-3-2 1-1h1l14-3 5-2h1l3-3 2-6 1-3v-6a22 22 0 0 0-7-12l-3-3-8-4-8-2h-1s0-1 0 0Zm-8 17 1 1a5 5 0 0 1 0 1v5l-2 8v2l-1 1-2-5v-5l1-2v-3l3-2v-1Zm2 17-1 1-1 2v-1l-1-1 3-1Z"/><path d="M479 54s3-6-15-11c-19-4-32 5-43 66s-22 66-26 74c0 0 11-6 22-28 0 0-16 31-24 39 0 0 20-10 28-29 0 0 4-7-10 26 0 0 50-84 63-128"/><path d="M455 43a19 19 0 0 0-4 0h7-3Zm3 0h1-1Zm1 0a42 42 0 0 1 16 5v-1a24 24 0 0 0-4-2h-3a65 65 0 0 0-9-2Zm16 5c2 1 5 3 4 6v-2c0-2-2-3-4-4Zm-27-3h-1 1Zm-1 0-1 1-2 1 3-2Zm-3 2-2 2-1 1 3-3Zm-3 3-2 3 2-3Zm-2 3-1 1-2 3 3-4Zm-3 4-2 4 2-4Zm-2 4Zm-1 4Zm-1 2-2 3-5 22-2 6a262 262 0 0 1 9-31Zm-9 31-3 18-2 6 2-6 3-18Zm-5 24Zm-2 13-3 10 1-5 2-5Zm-3 10Zm-4 11-1 3 1-3Zm-1 3-1 4v-1l1-3Zm-1 4Zm49-55Zm-11 23-7 12 7-12Zm-7 12-6 12 2-5 4-7Zm-6 12-11 19 7-12 4-7Zm-11 19-4 7 2-4 2-3Zm-4 7-4 6 2-2 2-4Zm-4 6-1 3-1 1 1-1 1-3Zm4-32-1 1-1 3a116 116 0 0 1-8 12l-8 9 1-1c6-5 10-11 14-18l-2 2 2-3 2-4 1-1Zm-5 8-7 14 1-2 6-12Zm-7 14-7 10 4-6 3-4Zm-7 10v1-1Zm0 1-4 5v1-1a40 40 0 0 0 3-3l1-2Zm23-24v2-2Zm0 2-2 4 1-2 1-2Zm0-2v1l-1 1v1-1l1-1v-1Zm-1 3-3 5v-1l3-4Zm-3 5-3 4 2-2 1-2Zm-3 4Zm-3 4Zm-3 3-3 3 1-1 2-2Zm-3 3-7 5 4-3 3-2Zm-7 5-1 1 1-1Zm-1 1-3 1-1 1h1l2-1 1-1Zm6-22-6 10-2 2v1l1-2 2-3 5-8Zm-8 13 1-1-1 1Zm24-11-6 14-2 4 1-2 4-9 3-7Z" fill="none"/><path d="M433 75c-3 5-3 10-5 15l-4 15-7 18-7 14-6 11-9 12-4 2m35-51-5 12-25 48m57-65v-1h1c-2 3-3 7-3 10l-4 17-5 18c-3 8-15 38-24 43m39-148c-4-1-9-3-13-1l-10 6-3 4"/><path d="m463 45-7-4c-7-2-18 3-24 6m21-1s-27 4-44 72c0 0-15 26-29 33-7 3 25-5 38-35 0 0 12-38 32-51m23 68c1 3 7-1 3 25-3 25 2 11-1 16 0 0 32 22 42 19 0 0-6-23 2-39l-46-21Z"/><path d="M470 102a31 31 0 0 0-22 50v20a38 38 0 0 0 5 16 28 28 0 0 0 10 9l6 3 2 1 12 3a251 251 0 0 0 26 6 41 41 0 0 0 7 0l7-2 3-1c2-2 5-4 6-7l1-11h-1v-1l-2-4a66 66 0 0 1-4-22v-4l1-1v-3l-4-8h-3l-7-2-5-2c0-6-1-13-4-19-2-5-5-9-9-12l-2-1c-6-6-14-8-23-8Zm-23 42 1 2v1l-1-2v-1Zm43 9 1 1-1-1Zm-31 1h-1 1Zm47 2h1v1l-2 6 1-5v-2Zm-50 0-1 2 1-1v-1Zm-2 3h1l-3 5v-1l2-4Zm-1 27 4 5-1-1-3-4Z" fill="none"/><path d="m476 131-3 2-1 7m5-7-2 2v9"/><path d="M475 132c-2-3-6 5-7 7m10-3c-1-1-1 2-1 3l-1 6 1 1m-18-44-4 16-7 28-14 32m26-75c-1-1-1 2-1 2l-1 3-1 17c-1 4-1 9-3 13-2 10-6 19-9 29m6-50v-1c-2 3-2 7-3 10v3l-3 14-4 13"/><path d="M450 120v-2l-4 18c-2 9-5 19-9 28"/><path d="M452 114c-3 14-9 27-13 40"/><path d="m437 157 5-10 7-15 2-9 3-9 3-12 3-9"/><path d="m444 138 5-9 9-16 3-7 3-8 3-11"/><path d="m439 151 6-12 4-8 2-7 8-14 7-24 4-12m48-33h1c24 0 43 17 43 39v7c-4 18-22 32-43 32h-1c-24 0-43-18-43-39 0-22 19-39 43-39Z"/><path d="M460 117s3 21 13 31c0 0 5 3 5 8l-2 30s-27 14-34 22l-8 35 68 7 3-43 5-13 9-45-1-39s-35-35-35-37l-5-20-18-9s-9-8-27 4c0 0 11-2 14-1 0 0-9-1-16 8l11-2s-3 1-5 4c0 0-14 17-21 37 0 0-6 25-13 33 0 0-13 19-24 25 0 0 19-6 31-19l9-16-28 65s15-12 29-49c15-37-1 2-1 2l-1 5s-19 49-22 52l24-46s-16 49-26 60c0 0 15-14 20-25 0 0-17 35-20 37 0 0 19-12 28-34l-12 32s28-50 29-55l-14 37-7 19s20-23 26-60l8-20 8-20Z"/><path fill="none" d="m450 41-4 1-3 1 3-1 9-1a12 12 0 0 1 4 2h-1l-3-2h-5Zm9 2 1 1-1-1Zm1 1h1l8 4 6 3 2 1 1 1v1l1 1 1 5 2 9v3l1 2 3 3-3-3-1-3v-3l-3-10-1-4v-1h-1l-2-1-6-3-9-5Zm26 33 3 3-3-3Zm3 3 2 3 16 16 7 8 3 2v1h1v12l1 22v5l-1 2-1 5-2 13-3 16-1 6-1 3-1 4-4 8v1l1-1 3-8 1-4 1-3 1-6 3-16 3-14 1-5v-7l-1-11v-22l-1-1-2-2-7-7-16-17-3-3Zm16 127v1-1Zm0 1v3l-1 7-1 22-1 8v2h-4l-5-1-21-2-16-2-11-1-5-1h-6 4l12 2 36 4 11 1h5v-2l1-9 1-23 1-5v-3Zm-71 35 1-1v-3l1-3 1-5 2-10 2-8 1-4v-1h1l1-2 3-2-2 2-3 2-1 3-1 5-3 14-2 9-1 3v1Zm13-39Zm4-3 2-2a223 223 0 0 1 21-12l1-1h1v-4l1-9 1-14v-5l-3-5-2-1-1-1 1 1 2 1 3 5v7l-1 15-1 8v2h-1v1l-2 1a330 330 0 0 0-20 11l-2 2Zm-8-158-2 1 2-1Zm-2 1h-2a50 50 0 0 0-5 3l-1 1 1-1 1-1a57 57 0 0 1 6-2Zm4 3h-3 5a11 11 0 0 0-2 0l-4 1h-1a18 18 0 0 1 6-1h1-2Zm-5 1-1 1 1-1Zm-1 1-3 1 3-1Zm-3 1-1 2 1-2Zm-1 2-2 1-1 2h-1 2l5-1 2-1h1-2l-6 2h-2 1l1-2 2-1Zm6 1Zm0 0a23 23 0 0 0-3 2l-1 2a30 30 0 0 1 4-4h1-1Zm1-6h-3 3Zm-3 0h-2l-3 1h-1 2l4-1Zm-3 11-1 2-5 6-1 2a130 130 0 0 1 7-10Zm-7 10Zm-5 9-2 3 2-3Zm-2 3Zm-3 7-1 2-1 3 2-5Zm-2 5v1l-1 3 1-4Zm-1 4-1 4a188 188 0 0 1 1-4Zm-6 18-1 3 1-2v-1Zm-1 3-3 6v-1l3-5Zm-3 6-2 4 1-3 1-1Zm-2 4-2 2-7 8 2-2 7-8Zm-9 10Zm24-20h-1 1-1v1l-1 3-4 9-10 24 5-11 8-21 2-4 1-1Zm-16 37a2042 2042 0 0 1-11 25l-1 2 1-2 3-7 8-18Zm15-37v1l-1 2-3 6-3 4-1 2v1-1l1-1 3-6 3-5 1-2v-1Zm-17 24Zm59-24a76 76 0 0 0 2 9l1 3-2-7-1-5Zm3 12 1 2-1-2Zm1 2Zm5 11 1 3 2 2-3-5Zm-43-25v1l-1 2-2 6-3 6-1 3-1 4a169 169 0 0 1-1 3l-1 1 2-3 2-5-2 3 1-3 2-4 2-6 2-5 1-3Zm0 0v2l-2 4-4 11 1-2 4-11 1-3v-1Zm-18 43-4 6 4-6Zm-4 6-2 3v-1l2-2Zm-2 3-6 7 4-5 2-2Zm-6 7-2 2h1l1-2Zm-2 2-2 3 1-2 1-1Zm-2 3h-1v1l1-1Zm-3-38-4 5 1-1 3-4Zm26 3-14 35 4-8 9-23 1-4Zm-14 35a186 186 0 0 1-5 10v1-1l1-2 1-1 1-2 5-10 4-7-9 17-1 1 1-2 2-4Zm7-12 1-3 7-12-8 15Zm12-23h-1v1l-1 2-2 7 3-7a455 455 0 0 0 1-3Zm-4 10-7 19-2 6 8-21 1-4Zm-9 25Zm-4 9-2 5 1-1 1-4Zm-2 5-1 3v-2l1-1Zm-1 3-4 6 2-2 2-4Zm-4 6-1 2 1-1v-1Zm-1 2c-1 1 0 0 0 0Zm-2-60-7 3 4-2 3-1Zm-7 3-3 1h1l2-1Zm-3 1-3 1-1 1 3-1 1-1Zm-4 2v-1h1l2-1 2-2-3 2-1 1-1 1Zm39-4-2 5 1-1 1-4Zm26 13a136 136 0 0 1-1 1l1-1Zm-5 1h-1 1Zm-1 0v2-2Zm0 2-2 4 1-2 1-2Zm-2 4-8 15 8-14v-1Zm-2 6-3 9-10 27-2 5-1 1 1-1 1-4 5-11 9-26Zm-20 7Zm0 0Zm0 0v1l-1 1v-1l1-1Zm-1 2-2 3 1-1 1-2Zm-2 3-4 6 3-4 1-2Zm-4 6Zm-3 4-3 4v-1l3-3Zm-3 4-4 4 2-3 2-1Zm21-15Zm0 0-1 1 1-1Zm-1 1-2 4 1-2 1-2Zm-2 4-2 3 1-1 1-2Zm-2 3v1-1Zm0 1Zm-4 5Zm-1 2-3 3 3-3Zm-3 3-5 5 3-3 2-2Zm-5 5-5 5 2-2 3-3Zm-5 5-3 3 2-2 1-1Zm22-29v1l-1 2-2 7 2-7 1-3Zm-10 3-6 10 1-2 5-8Zm-13 1h-1l-1 2 1-1 1-1Zm7 10-7 14v-1l7-13Zm-7 14-2 2 1-2h1Zm-2 2-1 2 1-2Zm19-13-3 9-1 3 1-3 3-9Zm13 1Zm-18 12v1-1Zm-15 2-1 1 1-1Zm-1 1v1-1Z"/><path d="m457 114-12 51s13-35 16-59"/><path fill="none" d="M458 83c-15-1-28 9-32 24a256 256 0 0 0-1 26v9l1 7 1 5v5l1 4v5c10 3 21 6 32 7l2-4v-9h1v5h1v-1l1-1 1-2 2-3 2-3 3-4 1-3 3-5 3-6 7-18a31 31 0 0 0-29-38Zm-27 72h1l-3 3v1c0-2 0-5 2-4Z"/><path d="M452 122s-14 44-14 48c0 0 9-19 12-31l6-25c0-3-4 9-4 8Z"/><path fill="none" d="M450 91c-13 1-23 9-27 22l-4 17-1 8 1 5v3l-1 3v5l1 10-1 7 1 2c0 3 0 6 2 7 6 4 13 8 20 9 4 0 8-4 11-6l2-4 1-3 1-6 1-3v7-1l2-1 2-3 3-5 3-5 3-3 4-7 8-17a31 31 0 0 0-32-41Zm-22 62-1 1-4 5-2 1v1h-1l1-1 2-3 5-4Z"/><path d="M473 132s-4 3-5 6l4-3v5l3-5v9l1-7 1 1v7l1-4v3l2-3v-8l-7-1Z"/><path fill="none" d="M473 101c-6 0-12 1-17 5l-8 7a44 44 0 0 0-7 13l-1 3v2l-1 2v11c1 2 1 5 3 7l6 9 11 7 10 1 7-1 4-1 3-2h1l5-3 2-3 2-3a31 31 0 0 0-20-54Zm-5 7 10 2 6 3-3-1c-4-2-9-1-14 0l-5-3 6-1Zm-12 3-1 1-2 2-3 1v1h-1l2-2a27 27 0 0 1 5-3Zm13 3c4-1 8 0 12 1s7 4 10 7l5 7 2 4v2l1 3v2l1 1-2-1v1l-1 5-1 3v2-4s0-1 0 0l-2 2-2 3h-1l3-6-1-1-1-4v-1l-1 1-1 4a15 15 0 0 1-3 4v-4l-1-1v-1 1h-1v-1l1-1v-2 1l1 2v1-1 1h1v-1l2-2 1-1-1-6 2 1 1 2v1h1v2h4v-1l-8-7-1-2h-1l1-1v-1a14 14 0 0 0-7-6h-4l-9-8Zm29 25v1-1Zm0 0v-1 1Zm-41-21-3 4-3 4-1 1-1 1c1-3 2-5 4-6l2-3 2-1Zm6 11-2 4v1l-1 1-1 1-1 2-1 2c2-4 3-9 6-11Zm-11 4v3-3Zm25 2-1 2-2 1-1 1v-1h1-5v1l-1 2-1 1v1h-1l1-2 1-2 1-1c2-2 3-3 5-3h3Zm-14 1v2a98 98 0 0 0 2 6v1l-1-1-1-8Zm15 1a7 7 0 0 1 5 2l-7-1 2-1Zm7 2Zm-10 0v1h-1l1-1Zm-9 7v1l1 2-1-1-2-1v-1h2Z"/><path d="M492 37s-8 8 1 12l10-1s3-17-11-11Z"/><path d="M491 40s-6-8-17-6c0 0-2 14 0 24 0 0 3 8 10 4 12-5 14-12 14-12l-7-10Zm7-6s1-7 7-9c0 0 5 9 6 17 0 0 0 5-4 5-7-1-10-5-10-5l1-8Zm61 57s2 2 6 2l-6 2-3-1s1-2 3-2"/><path d="m492 56-19 48s19 30 21 29c1 0 31 5 32 4 2-1 25-12 25-14v-23c2-1 6-32 6-32l-25-22-40 10Z"/><path d="m504 187 29-9-18-7s1-11 3-14c0 0 16 2 17 1 2-1 4 0 6-4l3-16v-12l-22-1-13 9-4 34-2 19"/><path d="M458 101s1 23 21 38c0 0 1 20-4 29l24 11 17-46 4-68-23-23-38 3-17 8 16 48Zm155 195s-92-22-102-18l-12 19c1-1-12 11 99 15m-50-117 44-2m18 86 13 5"/><path fill="none" d="M610 279c0-1 0 0 0 0l13 5-13-5Z"/><path d="M609 274s24 0 28 10c5 11 14 16 5 20 0 0-6 1-7-2 0 0-6 6-10 0 0 0-5 7-10-1 0 0-1 2-4 2l-3-1-4-4c-1-1 2 4 1 1 0 0-8-6-7-16"/><path d="m609 274 9 1h4l-13-1Zm13 1 2 1-2-1Zm2 1 4 1-2-1h-2Zm4 1 8 5 3 5 3 5-3-5-3-5-8-5Zm14 15 1 1a37 37 0 0 1 0 1l-1-2Zm-43-3a18 18 0 0 0 5 9 21 21 0 0 1-5-9Zm46 9Zm1 2-1 2-1 2h-2l-1 1c0-1 0 0 0 0l1-1h2l1-1 1-3Zm-42-1h1l1 1-2-1Zm2 1 1 1 1 1-2-2Zm2 2Zm-3-2Zm10 1 1 1v1-1l-1-1Zm1 2Zm2 1h1-1Zm1 0h1-1Zm1 0h1-1Zm1 0h2-2Zm2 0v-1h1l-1 1Zm1-1 1-1-1 1Zm-9-2Zm20 1Zm0 0v1h1l-1-1Zm1 1v1h1l-1-1Zm1 1h1-1Zm1 0Zm-24-2h-1 1Zm-1 0Zm0 0Zm-2 0h-1 1Zm24 0h-1l-1 1-1 1 1-1 2-1Zm-9 0c-1 0 0 0 0 0v1-1Zm1 1Zm5 1Zm-2 1-2-1v1h2Z" fill="none"/><path d="M630 282s-91-38-102-37l-16 16c1 0-15 8 99 33M438 184s-9 23-18 37c0 0 1 5 10 14"/><path fill="none" d="M438 184a249 249 0 0 1-14 30l1-2a191 191 0 0 0 13-28Zm-14 30-2 4-1 2 1-1 1-2 1-3Zm-3 6-1 1 1-1Zm-1 1v2-2Zm1 3v1a30 30 0 0 0 0-1Z"/><path d="m417 320-10-6s-3-2-3 20c0 0-5 11 4 19 1 1 21-12 21-12"/><path d="M407 314h-1 2l1 1 8 5-8-5-2-1c0-1 0-1 0 0Zm-1 0v2l-1 5-1 13v1a17 17 0 0 0-1 8l1 3a14 14 0 0 1-1-9l1-2v-1l1-13 1-6v-1Zm23 27a362 362 0 0 1-19 11l5-2 14-9Zm-19 11-2 1-1-1 1 1 2-1Zm-3 0-1-1 1 1Zm-1-1-1-2 1 2Zm-1-2-1-2 1 2Z" fill="none"/><path d="M413 350s-21 17-51 13l7 3s12 4-2 5l-14 1c1 2 18 7 29 4 0 0 37-2 39-24"/><path d="M413 350c0-1 0-1 0 0Zm0 0 4 1-4-1Zm0 0a45 45 0 0 1-9 5 72 72 0 0 1 8-5h1c2 0 0 0 0 0Zm4 1 4 3v-2l-4-1Zm4 4-2 4 1-1 1-3Zm-2 4-1 2 1-2Zm-1 2-1 1 1-1Zm-1 1Zm-2 2-1 1 1-1Zm-1 1Zm-2 2-2 1 2-1Zm-25-5Zm-9 1h-10 10Zm-10 0h-6 6Zm-6 0h1l2 1 4 2 3 1 2 2-4 2 4-2-2-2-3-1-4-2-2-1h-1Zm8 8h-15l-2 1a3 3 0 0 0 1 1h1l4 2-4-2h-1a6 6 0 0 1-1-1l2-1h1a57 57 0 0 1 3 0h11Zm-11 4h2-2Zm2 0Zm46-5a65 65 0 0 1-23 6h-2 3a84 84 0 0 0 22-6Zm-40 6 1 1a50 50 0 0 0-1-1Z" fill="none"/><path d="M418 347s-21 10-33-2l2 11s5-1-3-4c-3-1-11-8-10-6 0 3 9 13 14 14 0 0 19 8 32-9"/><path d="M385 345v3l1 2v3l-3-2 1 1 2 1 1 2v1-3c1 1 2 2 1 3h-1 1c1-1 0-2-1-3l-1-1v-3l-1-3v-1l1 1 1 1 3 2-4-3h-1v-1Zm-11 1s-1 0 0 0v2-2l2 1h1l5 4-6-4-2-1Zm0 2a26 26 0 0 0 1 2l-1-2Zm44-1h-1a50 50 0 0 1-11 3 46 46 0 0 0 12-3Zm0 0Zm0 0Zm1 2v3l1-1-1-2Zm-41 4Zm3 3 4 3 3 1h1-1l-3-1-4-3Zm36-1Zm-5 3-1 1 1-1Zm-1 1-5 2h1l4-2Zm-5 2h-4 4Zm-4 0-2 1 2-1Zm-2 1Z" fill="none"/><path d="M436 192s-3-10 8-17 24-9 27-8c0 0-2-1 0-1 3 0 2 2 2 2s-2-4 3-3l4 2-5 12-11 4-27 9"/><path fill="none" d="M475 165h-1 2l2 1 2 1h-1v2l-2 5-1 2-1 1v1-1l1-1 1-3 2-5v-1h1l-2-1-2-1h-1Zm0 13-1 1-2 1 2-1 1-1Zm-1-13h-1 1Zm-1 0v1-1Zm0 1Zm0 0Zm0 1-3-1v1-1l3 1Zm0 0v1-1Zm0 0v1-1Zm-3 0h1-1Zm0 0h-3a16 16 0 0 1 3 0Zm-3 0h-1l-1 1 2-1Zm-2 1h-5 5Zm-5 0Zm-2 1Zm-5 2h-2 2Zm-2 0-2 2h-2l4-2Zm-4 2-5 4c-3 2-5 6-6 10a15 15 0 0 0 0 5v-5c1-4 3-8 6-10l5-4Zm24 7-3 1 3-1Zm-3 1-7 3 5-2 2-1Zm-7 3-3 1-11 3 14-4Zm-15 5-9 3 9-3Z"/><path d="m542 195 1 13-2 14v16l-11 4"/><path d="m542 195 1 9v7l-1 7-1 4v15l-1 1 1-2v-14l2-11v-8l-1-8Zm-2 43-1 1 1-1Z" fill="none"/><path d="M467 125s-7 15-5 35c1 20 8 5 5 15 0 0-11-1-12-13 0 0-2-26 0-35l-3-18 6-8 9 24Z"/><path fill="none" d="M458 101Zm0 0v1-1Zm0 1 1 2 3 9-3-9-1-2Zm-1 0-1 1-1 2 1-2 1-1Zm-4 6v1-1Zm0 1h-1v1l1-1Zm-1 1v1-1Zm0 1 1 2-1-2Zm1 2v3l1 3v6l1 2v1l-1 2v1l1-3v-1l-1-2v-3l-1-8v-1Zm14 12v2l-1 3 1-5Zm-2 6-1 3v3l1-6Zm-11 0v7-7Zm0 7v8-8Zm0 8 1 9v7-5l-1-11Zm10-9Zm-2 6Zm0 17v4-4Zm0 4v2l1 2-1-4Zm1 4 1 3-1-3Zm1 3h1-1Zm1 0h1-1Zm1 0h1v4h-1c1 0 0 0 0 0a13 13 0 0 1-3-1h1l2 1h1v-4h-1Zm-3 3-2-1h1l1 1Zm-2-1-2-2 2 2Zm-2-2-2-4v1l2 3Z"/><path d="M444 127s-21 41-11 63l13 23s-23-27 7-77l11-15-6-16-14 22Z"/><path fill="none" d="M464 119v3-3Zm-1 4-2 3-6 8-2 2-3 5-2 3 5-8 3-3 5-7 2-3Zm-15 21v2h-1l1-2Zm-1 2-1 2a111 111 0 0 0 1-2Zm-5 12-1 3 1-3Zm-1 3-1 4 1-4Zm-1 4v3-3Zm0 3a75 75 0 0 0-2 5l2-5Zm-2 12v1a58 58 0 0 0 0-1Zm2 21 1 4-2-4-4-7-3-5 1 1 3 5 6 11 1 2v-1l2 5 1 1-1-1v-1l-3-4-2-6Zm6 12-1-1-1-2 1 2 1 1Zm-2-3-1-2v1l1 1Zm0-83h-1v1a129 129 0 0 0-1 2l2-3Zm-6 13-1 2-2 5 3-7Zm-3 7Zm-1 4Zm-4 25v4-4Zm0 4Zm1 4v2l1 2-1-4Z"/><path d="M444 140s0 45-5 58c0 0 11-25 15-62l-2 55 5-51"/><path fill="none" d="M454 136v5-5Zm0 5-2 8 1-2 1-6Zm-2 8-1 7 1-5v-2Zm-1 7Zm-3 13-1 3 1-3Zm-1 3-4 15 1-2 3-13Zm7-35v7l-1 14-1 22 2-32v-11Zm3 3-2 22-2 13v8l1-9 3-34Zm-13 0-1 14 1-14Zm-1 14v8-8Zm0 8a400 400 0 0 1-3 31v3l-1 1v1-1h1v-3a96 96 0 0 0 2-15l1-15v-2Zm-4 35h1l1-2 1-3-1 3-1 1v1h-1Zm13-10v3-3Zm0 3v1-1Zm0 0v1-1Z"/><path d="m483 165-40 19-9 27s39 6 41 5l23-29s-18-22-15-22Z"/><path d="m483 165-30 14-7 3-1 1-2 1-1 1v2l-1 2-2 7-2 6-1 4-1 3v2-1l1-2 1-6 4-13 1-2v-2l1-1 2-1 1-1h1l36-17Zm0 0v1l2 4-2-5Zm11 17 3 3 1 2h-1 1l-1-2-3-3Zm3 6-4 6-6 8 6-8 4-6Zm-10 14-5 6 1-1 4-5Zm-5 6-5 7v-1l4-4 1-2Zm-5 7-1 1v-1h1Zm-1 1h-3 3Zm-41-5h2l2 1h3l5 1a1112 1112 0 0 0-1 0l-8-1-2-1h-1s-1 0 0 0Zm33 5h4-4Z" fill="none"/></g></svg>